<?xml version="1.0" standalone="no"?>
<!DOCTYPE svg PUBLIC "-//W3C//DTD SVG 20010904//EN"
 "http://www.w3.org/TR/2001/REC-SVG-20010904/DTD/svg10.dtd">
<svg version="1.0" xmlns="http://www.w3.org/2000/svg"
 width="2069.000000pt" height="2069.000000pt" viewBox="0 0 2069.000000 2069.000000"
 preserveAspectRatio="xMidYMid meet">
<metadata>
Created by potrace 1.11, written by Peter Selinger 2001-2013
</metadata>
<g transform="translate(0.000000,2069.000000) scale(0.100000,-0.100000)"
fill="#000000" stroke="none">
<path d="M10178 20675 c-1 -1 -70 -6 -153 -10 -82 -3 -170 -8 -195 -10 -25 -2
-85 -7 -135 -10 -49 -3 -101 -8 -115 -10 -14 -2 -58 -7 -97 -10 -40 -3 -81 -8
-91 -10 -10 -2 -51 -6 -91 -10 -40 -3 -80 -8 -90 -10 -9 -2 -44 -7 -76 -11
-33 -4 -62 -8 -65 -9 -3 -1 -30 -5 -60 -9 -30 -4 -77 -11 -105 -16 -27 -5 -63
-11 -80 -14 -58 -8 -270 -47 -305 -56 -19 -5 -51 -12 -70 -15 -19 -3 -42 -8
-50 -10 -8 -2 -26 -6 -40 -9 -59 -10 -450 -108 -582 -146 -159 -46 -488 -152
-558 -180 -25 -10 -108 -41 -185 -70 -603 -227 -1198 -534 -1815 -939 -30 -19
-59 -39 -65 -44 -5 -4 -68 -48 -140 -99 -304 -212 -689 -520 -954 -763 -25
-22 -76 -69 -115 -105 -96 -87 -491 -485 -593 -597 -253 -277 -586 -689 -758
-937 -22 -31 -45 -63 -50 -69 -21 -24 -245 -366 -323 -494 -475 -776 -842
-1636 -1083 -2538 -27 -102 -73 -287 -83 -338 -3 -12 -7 -31 -10 -42 -2 -11
-12 -54 -21 -95 -9 -41 -19 -84 -21 -95 -5 -21 -48 -247 -58 -300 -5 -31 -51
-314 -60 -375 -3 -19 -10 -73 -16 -120 -6 -47 -13 -98 -15 -115 -11 -84 -15
-125 -21 -180 -3 -33 -7 -76 -9 -95 -2 -19 -7 -66 -10 -105 -3 -38 -7 -88 -10
-110 -2 -22 -7 -85 -10 -140 -4 -55 -8 -125 -10 -155 -24 -348 -24 -1124 0
-1535 6 -109 15 -241 20 -295 2 -25 6 -81 10 -125 3 -44 7 -96 10 -115 2 -19
7 -62 10 -95 10 -111 16 -160 31 -280 9 -66 17 -135 19 -154 2 -19 7 -50 10
-70 4 -20 8 -52 11 -71 2 -19 6 -46 9 -60 2 -14 7 -38 9 -55 3 -16 12 -73 20
-125 23 -138 26 -152 31 -180 3 -14 7 -34 9 -45 26 -133 68 -337 76 -365 5
-19 25 -102 45 -185 88 -374 253 -918 354 -1170 5 -11 41 -103 81 -205 328
-832 776 -1620 1319 -2320 101 -131 314 -390 376 -459 16 -18 39 -43 50 -55
255 -284 588 -618 825 -826 47 -41 89 -80 95 -86 19 -21 261 -221 355 -294 52
-41 97 -77 100 -80 8 -9 258 -192 350 -257 122 -85 385 -257 472 -308 345
-203 395 -230 663 -364 538 -267 994 -441 1590 -606 125 -35 362 -94 405 -101
14 -3 52 -11 85 -19 100 -22 261 -53 425 -80 169 -29 179 -30 260 -40 30 -4
63 -9 72 -10 9 -2 43 -6 75 -10 32 -3 72 -8 88 -10 17 -2 57 -7 90 -10 33 -3
71 -7 85 -10 14 -2 75 -7 135 -10 61 -4 112 -8 115 -10 3 -2 73 -6 155 -10 83
-4 184 -8 225 -11 88 -4 713 -4 815 0 109 5 305 16 360 21 28 3 77 7 110 10
110 9 270 25 290 29 11 2 52 7 90 10 39 4 77 9 85 11 8 2 38 6 65 10 46 5 147
20 205 30 14 2 43 7 65 10 22 4 47 8 55 10 8 2 31 7 50 10 19 3 91 17 160 31
69 14 136 27 150 30 14 3 33 7 42 10 17 5 42 10 89 19 45 8 410 105 514 136
235 71 679 226 805 282 19 9 85 37 145 63 164 69 161 68 420 195 267 131 339
170 565 301 160 94 469 290 598 381 86 60 429 315 481 358 62 49 355 293 367
304 6 5 51 46 100 90 49 44 116 105 149 135 110 101 509 503 615 620 57 63
107 117 110 120 3 3 32 37 65 75 33 39 70 81 82 95 24 28 119 142 173 210 19
24 40 48 45 54 27 30 182 235 281 371 120 165 259 371 371 550 105 167 110
177 210 352 34 59 73 128 87 153 38 67 266 522 311 620 88 195 259 614 304
747 63 187 142 422 150 448 15 45 112 385 116 404 2 9 20 81 40 161 20 80 38
152 40 160 2 8 17 78 34 155 28 130 74 361 85 430 3 17 14 84 25 150 11 66 23
140 26 165 3 25 8 56 10 70 3 14 7 41 9 60 2 19 7 60 11 90 3 30 8 62 10 70 2
8 7 49 10 90 3 41 8 82 10 90 2 8 7 47 10 85 3 39 8 90 10 115 3 25 7 74 10
110 2 36 7 103 10 150 3 47 8 103 10 125 27 288 26 1331 -1 1640 -2 28 -6 85
-9 128 -3 43 -7 101 -10 130 -3 29 -7 79 -10 112 -7 79 -15 152 -20 195 -3 19
-11 93 -20 164 -16 135 -18 146 -40 291 -8 50 -16 106 -19 125 -7 53 -33 197
-60 333 -14 67 -27 133 -30 147 -13 73 -87 388 -116 495 -12 44 -23 87 -25 95
-119 448 -304 969 -490 1384 -7 17 -26 60 -41 96 -48 110 -268 547 -351 695
-63 113 -198 340 -266 449 -179 287 -488 716 -699 971 -34 41 -194 231 -215
255 -12 14 -30 34 -40 46 -10 12 -56 63 -103 115 -299 327 -670 691 -950 929
-47 40 -98 85 -115 99 -16 15 -75 62 -130 106 -55 44 -102 82 -105 85 -3 4
-23 19 -45 35 -22 17 -42 32 -45 36 -10 11 -210 159 -340 251 -433 306 -906
580 -1385 805 -438 205 -1012 410 -1465 523 -47 11 -101 25 -120 30 -32 9
-146 36 -195 46 -247 51 -556 105 -685 119 -30 3 -62 8 -70 10 -8 2 -46 6 -83
10 -37 3 -76 8 -85 10 -9 1 -55 6 -102 10 -47 4 -98 9 -115 11 -16 2 -82 6
-145 9 -63 4 -126 9 -140 12 -27 6 -936 14 -942 8z m612 -1049 c124 -10 378
-34 425 -41 17 -3 48 -7 70 -10 22 -3 51 -7 65 -10 14 -2 43 -7 65 -10 69 -9
109 -16 155 -26 25 -5 90 -18 145 -30 703 -143 1375 -432 1940 -835 147 -104
140 -99 278 -212 222 -182 464 -418 642 -627 33 -38 62 -72 66 -75 3 -3 35
-43 73 -90 37 -47 73 -92 79 -100 34 -42 202 -278 264 -370 74 -112 243 -386
243 -396 0 -3 8 -18 18 -32 67 -96 277 -525 418 -849 8 -18 21 -48 29 -66 8
-19 34 -85 58 -148 25 -63 48 -123 52 -134 55 -140 192 -553 243 -730 11 -38
29 -101 40 -140 21 -70 80 -298 87 -332 2 -10 17 -72 33 -138 16 -66 33 -138
38 -160 4 -22 8 -44 10 -50 5 -17 84 -408 89 -440 3 -16 7 -41 10 -55 3 -14 7
-41 10 -60 4 -19 12 -71 20 -115 8 -44 17 -100 20 -125 3 -25 8 -52 10 -60 2
-8 7 -37 11 -65 16 -119 26 -188 29 -206 2 -9 6 -40 9 -70 4 -30 11 -85 16
-124 5 -38 12 -92 15 -120 3 -27 8 -66 10 -85 2 -19 7 -64 10 -100 3 -36 8
-81 11 -100 3 -19 7 -64 10 -100 3 -36 7 -78 8 -95 2 -16 6 -73 10 -125 4 -52
9 -111 11 -130 3 -19 7 -73 10 -120 6 -95 13 -206 20 -292 2 -32 3 -58 1 -58
-2 0 -11 21 -21 48 -47 126 -174 385 -262 532 -293 493 -717 882 -1318 1210
-132 73 -454 231 -580 285 -16 7 -52 23 -80 35 -27 13 -162 72 -300 132 -447
196 -733 333 -908 434 -32 19 -60 34 -63 34 -7 0 -162 97 -282 178 -278 186
-564 450 -732 677 -25 33 -47 62 -50 65 -3 3 -23 31 -44 63 -22 31 -45 57 -51
57 -10 0 -60 -72 -225 -320 -50 -76 -111 -230 -130 -330 -21 -111 -30 -316
-17 -390 3 -19 13 -62 21 -95 14 -56 27 -155 20 -155 -2 0 -52 31 -111 69
-420 267 -817 435 -1213 515 -74 15 -100 19 -215 32 -79 10 -260 10 -360 1
-74 -7 -287 -52 -310 -65 -5 -4 -16 -7 -24 -8 -7 -2 -59 -25 -116 -53 -315
-155 -536 -422 -668 -811 -47 -139 -88 -315 -102 -440 -3 -30 -8 -66 -10 -80
-7 -48 -16 -166 -20 -289 -6 -150 -7 -151 107 33 94 151 153 241 177 266 9 9
36 41 60 71 106 129 264 240 406 285 183 59 447 30 652 -71 282 -139 397 -399
398 -895 0 -142 -2 -159 -22 -197 -31 -57 -147 -173 -174 -173 -6 0 -48 18
-92 39 -170 81 -328 132 -462 148 -21 2 -43 7 -48 10 -15 9 -321 11 -397 2
-186 -23 -368 -75 -528 -151 -112 -53 -166 -86 -279 -170 -353 -263 -577 -640
-650 -1094 -16 -99 -8 -465 12 -534 2 -8 6 -26 9 -40 5 -34 43 -164 63 -218 9
-23 14 -44 12 -46 -2 -2 -67 -6 -144 -10 -477 -20 -876 -110 -1233 -277 -337
-158 -578 -362 -785 -665 -75 -111 -119 -201 -166 -343 -35 -105 -109 -408
-125 -512 -3 -20 -8 -43 -12 -53 -4 -9 -7 -100 -8 -202 -1 -177 0 -184 19
-185 11 -1 45 -2 75 -4 155 -7 329 -38 480 -86 117 -37 316 -121 392 -166 31
-18 59 -33 62 -33 3 0 64 -38 134 -84 149 -97 301 -212 448 -341 45 -39 239
-222 335 -316 215 -211 388 -374 544 -514 55 -49 107 -96 116 -105 32 -30 87
-78 209 -180 69 -58 130 -110 135 -116 6 -6 37 -31 70 -57 33 -26 92 -72 130
-102 111 -88 248 -181 334 -228 28 -15 51 -30 51 -32 0 -3 -7 -13 -15 -22 -9
-10 -51 -65 -95 -122 -73 -96 -255 -311 -332 -392 -38 -40 -224 -240 -263
-284 -15 -16 -44 -48 -64 -70 -20 -22 -63 -71 -96 -110 -33 -38 -62 -72 -65
-75 -21 -19 -141 -175 -212 -275 -122 -172 -210 -325 -302 -525 -108 -233
-159 -313 -249 -390 -158 -136 -318 -303 -441 -462 l-44 -58 -114 119 c-460
475 -902 1121 -1237 1806 -85 174 -161 334 -161 340 0 3 -11 28 -24 57 -192
428 -413 1080 -542 1598 -2 8 -8 33 -14 55 -5 22 -19 81 -31 130 -11 50 -22
97 -24 105 -12 47 -47 209 -51 230 -3 14 -18 90 -34 170 -16 80 -45 240 -64
355 -33 199 -39 234 -51 323 -3 20 -8 48 -11 62 -2 14 -7 48 -10 75 -2 28 -6
61 -9 75 -6 41 -16 113 -20 150 -1 19 -6 62 -10 95 -9 76 -11 95 -19 175 -4
36 -9 81 -11 100 -4 36 -11 111 -20 215 -3 33 -7 83 -9 110 -3 28 -8 95 -11
150 -4 55 -8 116 -10 135 -40 419 -51 1632 -20 2270 6 140 17 320 20 365 3 28
7 88 10 135 3 47 7 105 9 130 3 25 8 81 11 125 4 44 8 91 10 105 1 14 5 57 9
95 4 39 11 108 17 155 5 47 12 108 15 135 3 28 7 61 9 75 3 14 7 50 10 80 3
30 7 66 10 80 2 14 6 45 10 70 3 25 12 86 20 135 8 50 17 108 20 130 2 22 6
49 9 60 4 25 14 79 21 125 8 51 37 206 55 295 5 28 11 61 14 75 8 49 66 316
77 355 6 22 13 51 16 65 9 50 95 378 140 530 318 1090 771 2010 1372 2785 47
61 88 112 91 115 3 3 18 21 34 40 377 460 858 879 1351 1175 126 76 432 235
545 284 414 178 886 315 1295 375 23 4 50 8 60 10 18 3 79 11 170 22 17 2 61
6 98 9 37 4 78 8 90 11 12 2 81 7 152 10 72 3 132 8 134 10 6 5 684 -4 771
-10z m5754 -12033 c-31 -225 -33 -232 -60 -401 -13 -84 -36 -212 -50 -285 -13
-73 -27 -148 -30 -167 -3 -19 -8 -38 -10 -41 -2 -3 -6 -21 -9 -40 -22 -134
-136 -596 -205 -831 -94 -319 -239 -732 -324 -923 -12 -27 -44 -102 -72 -167
-27 -64 -50 -115 -52 -114 -1 2 7 75 17 162 11 87 23 188 26 224 3 36 7 81 10
100 2 19 7 82 10 140 3 58 8 125 10 150 3 25 7 214 10 420 9 669 14 717 90
876 28 58 158 243 185 264 18 14 163 217 217 305 85 139 195 345 240 453 7 17
15 32 16 32 2 0 -7 -71 -19 -157z m-8174 -5223 c25 -6 85 -27 134 -47 84 -33
267 -84 350 -97 32 -5 125 -21 291 -51 67 -12 411 -88 505 -112 14 -3 34 -8
45 -10 11 -2 61 -12 110 -23 110 -23 271 -57 305 -63 14 -3 75 -14 135 -26 61
-11 124 -23 140 -26 17 -3 44 -8 60 -11 17 -3 39 -7 50 -9 11 -1 52 -8 90 -15
39 -6 86 -13 105 -16 19 -2 46 -7 60 -9 21 -4 148 -21 295 -41 22 -3 51 -7 65
-9 14 -2 54 -6 90 -10 36 -3 81 -8 100 -10 19 -2 71 -7 115 -10 44 -4 96 -8
115 -10 276 -25 996 -25 1128 0 9 1 54 6 99 9 45 4 90 8 100 10 10 2 41 7 68
10 98 14 219 34 250 42 59 15 -313 -175 -490 -251 -155 -66 -429 -170 -478
-180 -9 -2 -22 -7 -27 -10 -5 -3 -18 -8 -27 -10 -10 -2 -79 -21 -153 -43 -120
-35 -352 -92 -435 -106 -16 -3 -84 -14 -150 -26 -66 -11 -130 -23 -141 -25
-12 -2 -48 -7 -80 -10 -33 -4 -66 -9 -74 -10 -8 -2 -51 -6 -95 -10 -44 -4 -87
-9 -95 -10 -106 -19 -866 -28 -1060 -12 -167 13 -356 34 -470 52 -14 2 -43 6
-65 10 -103 15 -398 79 -528 115 -503 138 -921 323 -1363 603 -67 42 -132 85
-145 95 l-22 19 84 45 c123 67 300 154 329 162 14 4 39 14 55 21 44 21 243 92
292 105 23 6 61 13 85 16 24 4 44 7 46 9 8 7 162 -4 202 -15z"/>
</g>
</svg>
