<?xml version="1.0" standalone="no"?>
<!DOCTYPE svg PUBLIC "-//W3C//DTD SVG 1.1//EN" "http://www.w3.org/Graphics/SVG/1.1/DTD/svg11.dtd" >
<svg xmlns="http://www.w3.org/2000/svg" xmlns:xlink="http://www.w3.org/1999/xlink" version="1.1">
<metadata>
Created by FontForge 20170731 at Wed May 27 04:59:57 2020
 By Aleksey,,,
Copyright (C) 2016 Hoefler &#38; Co. http://www.typography.com
</metadata>
<defs>
<font id="OperatorMonoLig-Book" horiz-adv-x="550" >
  <font-face 
    font-family="Operator Mono Lig Book"
    font-weight="325"
    font-stretch="normal"
    units-per-em="1000"
    panose-1="2 0 0 9 0 0 0 0 0 0"
    ascent="800"
    descent="-200"
    x-height="490"
    cap-height="620"
    bbox="-1564 -288 629.919 1144"
    underline-thickness="64"
    underline-position="-211"
    unicode-range="U+0020-E10D"
  />
<missing-glyph 
d="M5 -200v1000h540v-1000h-540zM82 750l193 -390l193 390h-386zM491 676l-186 -376l186 -376v752zM59 -76l186 376l-186 376v-752zM275 240l-193 -390h386z" />
    <glyph glyph-name=".notdef" 
d="M5 -200v1000h540v-1000h-540zM82 750l193 -390l193 390h-386zM491 676l-186 -376l186 -376v752zM59 -76l186 376l-186 376v-752zM275 240l-193 -390h386z" />
    <glyph glyph-name=".null" horiz-adv-x="0" 
 />
    <glyph glyph-name="nonmarkingreturn" horiz-adv-x="333" 
 />
    <glyph glyph-name="space" unicode=" " 
 />
    <glyph glyph-name="exclam" unicode="!" 
d="M305 234h-53q0 48 -9 226t-10 216h103q-2 -40 -16 -217.5t-15 -224.5zM328 0h-113l2 110h114z" />
    <glyph glyph-name="quotedbl" unicode="&#x22;" 
d="M404 374h-54l-4 295h97l3 -38zM188 374h-55l-5 295h98l3 -38z" />
    <glyph glyph-name="numbersign" unicode="#" 
d="M329 243l14 136h-123l-14 -136h123zM305 0l17 174h-123l-17 -174h-59l17 174h-98l7 69h98l14 136h-99l7 69h99l17 172h59l-17 -172h123l17 172h59l-17 -172h100l-8 -69h-99l-14 -136h100l-7 -69h-100l-17 -174h-59z" />
    <glyph glyph-name="dollar" unicode="$" 
d="M175 464q0 -23 23.5 -46t68.5 -51l28 156q-120 -1 -120 -59zM387 165q0 24 -23.5 47t-68.5 51l-30 -167q122 7 122 69zM243 -84h-73l21 109q-68 2 -120 9l15 76q77 -13 128 -14l36 194q-38 23 -59.5 37.5t-48.5 36.5t-39.5 45t-12.5 47q0 53 52 90.5t158 44.5l19 112h73
l-22 -111q53 -2 98 -8l-9 -76q-70 11 -112 14l-34 -183q37 -23 59 -38t48.5 -37.5t39 -45.5t12.5 -48q0 -54 -52.5 -93.5t-158.5 -48.5z" />
    <glyph glyph-name="percent" unicode="%" 
d="M50 498q0 62 27 99t68 37q39 0 62.5 -34t23.5 -92q0 -61 -27 -98t-68 -37q-39 0 -62.5 33.5t-23.5 91.5zM113 -15l-54 33l378 613l54 -32zM502 123q0 -61 -27 -98t-68 -37q-39 0 -63 33.5t-24 92.5q0 61 27 98t68 37q39 0 63 -34t24 -92z" />
    <glyph glyph-name="ampersand" unicode="&#x26;" 
d="M517 38l-65 -51q-22 29 -91 112q-74 -111 -179 -111q-69 0 -106.5 39.5t-37.5 102.5q0 109 133 194q-60 78 -60 135q0 34 14 64t45 56t87.5 40t132.5 13l6 -76q-205 10 -205 -92q0 -33 31.5 -76.5t119.5 -144.5q5 -5 7.5 -8.5t7 -8.5t8.5 -9q37 88 58 188l70 -9
q-32 -128 -87 -227q64 -74 111 -131zM199 55q67 0 124 89q-26 31 -66.5 77.5t-54.5 63.5q-87 -62 -87 -138q0 -41 22 -66.5t62 -25.5z" />
    <glyph glyph-name="quotesingle" unicode="'" 
d="M300 365h-56l-4 304h105l4 -39z" />
    <glyph glyph-name="parenleft" unicode="(" 
d="M414 725l55 -51q-149 -116 -213.5 -216t-64.5 -199t64.5 -198.5t210.5 -215.5l-56 -51q-157 129 -228 241t-71 221q0 111 72 225t231 244z" />
    <glyph glyph-name="parenright" unicode=")" 
d="M136 -206l-55 51q149 117 213.5 216.5t64.5 199.5q0 98 -64 197.5t-210 214.5l55 53q157 -130 228 -242t71 -220q0 -111 -72 -225t-231 -245z" />
    <glyph glyph-name="asterisk" unicode="*" 
d="M366 275l-94 121l-115 -102l-41 35l87 126l-135 79l22 49l147 -44l33 152l54 -3l5 -156l154 15l13 -50l-147 -53l62 -141z" />
    <glyph glyph-name="plus" unicode="+" 
d="M488 259h-176v-187h-73v187h-178v68h178v187h73v-187h177z" />
    <glyph glyph-name="comma" unicode="," 
d="M189 -172q101 119 21 288l112 6q26 -87 1 -165.5t-92 -141.5z" />
    <glyph glyph-name="hyphen" unicode="-" 
d="M436 327l-6 -69h-311v69h317z" />
    <glyph glyph-name="period" unicode="." 
d="M329 0h-119l6 116h119z" />
    <glyph glyph-name="slash" unicode="/" 
d="M475 726l69 -32l-463 -883l-71 29z" />
    <glyph glyph-name="zero" unicode="0" 
d="M268 -12q-102 0 -157 82.5t-55 230.5q0 151 61 241t165 90q103 0 158 -82t55 -231q0 -150 -61.5 -240.5t-165.5 -90.5zM134 315q0 -17 2 -47l272 142q-27 155 -132 155q-70 0 -106 -65t-36 -185zM275 55q70 0 105.5 65t35.5 185q0 29 -1 43l-272 -142q29 -151 132 -151z
" />
    <glyph glyph-name="one" unicode="1" 
d="M486 0h-396v69h171v425l-158 -8l-1 59l159 19v71l79 7v-573h153z" />
    <glyph glyph-name="two" unicode="2" 
d="M481 0h-398l-8 66q166 134 236 212.5t70 149.5q0 62 -63 92.5t-224 31.5l7 76q360 4 360 -181q0 -89 -67 -170t-222 -206h309v-71z" />
    <glyph glyph-name="three" unicode="3" 
d="M95 -12l-5 75q165 9 236 37t71 76q0 97 -258 126v39l240 208h-282v71h360l5 -70l-232 -202q245 -40 245 -166q0 -82 -93 -133.5t-287 -60.5z" />
    <glyph glyph-name="four" unicode="4" 
d="M503 128h-68v-128h-76v128h-277q-5 208 67 499l87 -6q-85 -357 -90 -422h213v217l76 9v-226h76z" />
    <glyph glyph-name="five" unicode="5" 
d="M471 206q0 -88 -93.5 -146t-282.5 -72l-5 75q165 15 235 48.5t70 90.5q0 99 -291 121l20 297h328l-7 -71h-253l-11 -171q290 -30 290 -172z" />
    <glyph glyph-name="six" unicode="6" 
d="M275 -11q-94 0 -150 63t-56 178q0 267 307 412l33 -70q-119 -50 -179.5 -113.5t-76.5 -145.5q68 59 146.5 64t131.5 -43.5t53 -133.5q0 -95 -61 -153t-148 -58zM282 55q54 0 90 37t36 99q0 66 -39 100t-100 26t-123 -57v-21q0 -90 37.5 -137t98.5 -47z" />
    <glyph glyph-name="seven" unicode="7" 
d="M232 -5l-83 9q95 275 258 539l-3 4h-323l6 73h400v-69q-158 -269 -255 -556z" />
    <glyph glyph-name="eight" unicode="8" 
d="M264 -12q-85 0 -139 41t-54 108q0 105 138 176q-60 35 -93.5 72.5t-33.5 86.5q0 64 54.5 112t146.5 48q80 0 132.5 -39.5t52.5 -104.5q0 -102 -133 -166q69 -38 107 -75.5t38 -91.5q0 -71 -60 -119t-156 -48zM160 482q0 -41 33.5 -71t97.5 -64q101 51 101 126
q0 43 -30.5 69.5t-85.5 26.5t-85.5 -25.5t-30.5 -61.5zM275 51q57 0 91.5 26.5t34.5 66.5q0 29 -24 56.5t-49 43t-75 43.5q-104 -51 -104 -132q0 -47 33 -75.5t93 -28.5z" />
    <glyph glyph-name="nine" unicode="9" 
d="M174 -22l-34 70q120 51 181 114t77 145q-69 -59 -147 -64t-131 43.5t-53 133.5q0 94 61.5 152.5t147.5 58.5q93 0 149 -62.5t56 -178.5q0 -267 -307 -412zM143 430q0 -66 39 -100.5t100 -26.5t123 57v21q0 90 -37.5 137t-99.5 47q-53 0 -89 -37t-36 -98z" />
    <glyph glyph-name="colon" unicode=":" 
d="M338 329h-118l1 117h119zM330 0h-119l4 116h119z" />
    <glyph glyph-name="semicolon" unicode=";" 
d="M340 329h-119l1 117h119zM195 -172q101 119 21 287l113 7q26 -89 1 -166.5t-93 -140.5z" />
    <glyph glyph-name="less" unicode="&#x3c;" 
d="M415 603l45 -58l-299 -248v-10l303 -252l-46 -57l-332 279v69z" />
    <glyph glyph-name="equal" unicode="=" 
d="M472 442l-1 -69h-393v69h394zM472 220l-1 -69h-393v69h394z" />
    <glyph glyph-name="greater" unicode="&#x3e;" 
d="M132 -22l-45 57l304 252v10l-300 247l47 58l327 -275v-69z" />
    <glyph glyph-name="question" unicode="?" 
d="M85 602l8 76q390 -21 390 -160q0 -30 -21 -59t-51.5 -54t-61.5 -50.5t-55 -58.5t-28 -68l-57 1q2 40 22.5 75.5t47.5 61t54 48t45.5 44.5t18.5 41q0 26 -24 44.5t-96 34.5t-192 24zM285 0h-110l2 109h111z" />
    <glyph glyph-name="at" unicode="@" 
d="M449 -152q-112 -14 -191.5 8.5t-124 78.5t-64 132t-19.5 178q0 198 76.5 318t195.5 120q167 0 167 -233q0 -146 5 -376l-67 -8q-3 26 -4 44q-43 -51 -95 -51q-51 0 -83 51.5t-32 136.5q0 117 55.5 177t148.5 55q-9 138 -104 138q-85 0 -139.5 -94t-54.5 -268
q0 -75 8.5 -130t31 -101t59 -72.5t94.5 -37t137 -1.5v-65zM354 123q33 0 64 33v252q-73 16 -102.5 -22.5t-29.5 -124.5q0 -138 68 -138z" />
    <glyph glyph-name="A" unicode="A" 
d="M430 -3q-39 146 -52 193h-209q-9 -32 -25 -95t-25 -95h-83q96 349 181 622h116q89 -284 181 -619zM270 551q-17 -59 -47.5 -167.5t-36.5 -130.5h175q-58 213 -83 298h-8z" />
    <glyph glyph-name="B" unicode="B" 
d="M495 177q0 -77 -53 -123.5t-142 -56.5t-205 3v620q380 44 380 -143q0 -112 -119 -153q139 -27 139 -147zM177 557v-215q118 -4 168 23.5t50 91.5q0 125 -218 100zM177 64q236 -32 236 108q0 68 -56 91t-180 18v-217z" />
    <glyph glyph-name="C" unicode="C" 
d="M479 68l-7 -71q-115 -8 -196.5 11.5t-126 63t-64 99t-19.5 129.5q0 67 20.5 122t65.5 101.5t125.5 73.5t190.5 31l5 -80q-99 -1 -164 -17.5t-98.5 -49.5t-46 -72.5t-12.5 -97.5q0 -66 15 -110.5t51.5 -77t100.5 -46t160 -9.5z" />
    <glyph glyph-name="D" unicode="D" 
d="M501 322q0 -185 -105 -269.5t-311 -53.5v622q222 31 319 -42t97 -257zM417 309q0 143 -58.5 202.5t-191.5 43.5v-489q128 -19 189 42t61 201z" />
    <glyph glyph-name="E" unicode="E" 
d="M486 71l-8 -71h-373v620h376v-71h-293v-204h253v-63h-253v-211h298z" />
    <glyph glyph-name="F" unicode="F" 
d="M451 270h-256v-270h-84v620h381v-71h-297v-214h256v-65z" />
    <glyph glyph-name="G" unicode="G" 
d="M477 7q-212 -45 -317.5 35t-105.5 252q0 320 396 334l5 -80q-78 0 -135 -12t-91.5 -32t-55 -51.5t-27.5 -65t-7 -78.5q0 -131 60 -195t202 -55q-3 201 -3 252h78q0 -264 1 -304z" />
    <glyph glyph-name="H" unicode="H" 
d="M386 0v282h-222v-282h-85v620h85v-274h222v274h85v-620h-85z" />
    <glyph glyph-name="I" unicode="I" 
d="M316 554v-488h158l-6 -66h-388v66h153v488h-153v66h390v-66h-154z" />
    <glyph glyph-name="J" unicode="J" 
d="M126 620h297v-419q0 -116 -74.5 -166t-260.5 -45v74q112 -5 164.5 6t70 39.5t17.5 91.5v352h-214v67z" />
    <glyph glyph-name="K" unicode="K" 
d="M428 -6l-190 285h-64v-279h-83v620h83v-273h68l173 273h89l-197 -303l212 -312z" />
    <glyph glyph-name="L" unicode="L" 
d="M490 0h-377v620h84v-549h301z" />
    <glyph glyph-name="M" unicode="M" 
d="M390 620h93v-620h-79l4 481h-4l-102 -373h-56l-104 373h-4l4 -481h-76v620h94q100 -360 114 -412h4z" />
    <glyph glyph-name="N" unicode="N" 
d="M392 0l-233 481h-5l3 -481h-77v620h87l225 -472h4l-3 472h78v-620h-79z" />
    <glyph glyph-name="O" unicode="O" 
d="M264 -15q-104 0 -161 81t-57 230q0 162 64 250.5t176 88.5q104 0 161 -80.5t57 -230.5q1 -161 -63.5 -250t-176.5 -89zM272 566q-141 0 -141 -252q0 -127 37.5 -193.5t109.5 -66.5q141 0 141 252q0 127 -38 193.5t-109 66.5z" />
    <glyph glyph-name="P" unicode="P" 
d="M181 0h-83v619q197 29 300 -21.5t103 -167.5q0 -207 -320 -230v-200zM419 414q0 81 -60 118t-178 22v-280q118 -8 178 25t60 115z" />
    <glyph glyph-name="Q" unicode="Q" 
d="M447 -135l-226 80l14 42q-90 11 -139.5 91t-49.5 218q0 162 64 250.5t176 88.5q104 0 161 -80.5t57 -230.5q1 -140 -48 -226t-137 -107v-1l152 -56zM272 566q-141 0 -141 -252q0 -260 147 -260q141 0 141 252q0 260 -147 260z" />
    <glyph glyph-name="R" unicode="R" 
d="M428 -10l-126 240l-127 -4v-226h-83v619q381 56 381 -167q0 -106 -104 -181l148 -268zM175 555v-268l135 4q81 54 81 143q0 71 -53.5 104t-162.5 17z" />
    <glyph glyph-name="S" unicode="S" 
d="M86 71q158 -13 233 14t75 77q0 31 -32 60t-77.5 53t-90.5 49t-77 60t-32 75q0 75 88.5 125.5t265.5 40.5l5 -77q-274 19 -274 -76q0 -29 32 -57t77 -52t90.5 -50t77.5 -62t32 -77q0 -81 -97.5 -136t-296.5 -44z" />
    <glyph glyph-name="T" unicode="T" 
d="M318 549v-549h-84v549h-195l7 71h463v-71h-191z" />
    <glyph glyph-name="U" unicode="U" 
d="M270 -15q-92 0 -143.5 56t-51.5 159v420h84v-414q0 -149 119 -149q58 0 85.5 32t27.5 102v429h83v-416q0 -104 -54 -161.5t-150 -57.5z" />
    <glyph glyph-name="V" unicode="V" 
d="M335 -1h-119q-101 329 -178 618l85 6q71 -283 149 -549h9q76 260 148 546h83q-89 -335 -177 -621z" />
    <glyph glyph-name="W" unicode="W" 
d="M364 0l-90 330l-87 -330h-88q-29 224 -48 620h82q15 -371 29 -514h4q11 40 86 330h50q40 -150 89 -330h3q11 98 28 514h78q-19 -383 -49 -620h-87z" />
    <glyph glyph-name="X" unicode="X" 
d="M421 -3l-149 256l-143 -253h-89l184 310l-184 307l91 6l149 -256l143 253h90l-184 -310l183 -307z" />
    <glyph glyph-name="Y" unicode="Y" 
d="M318 0h-84v206l-201 412l89 4l156 -336l153 334h86l-199 -414v-206z" />
    <glyph glyph-name="Z" unicode="Z" 
d="M481 0h-414v71l325 477l-321 -1l6 73h404v-71l-323 -477l330 1z" />
    <glyph glyph-name="bracketleft" unicode="[" 
d="M137 -179v874h327v-66h-249v-742h253l-7 -66h-324z" />
    <glyph glyph-name="backslash" unicode="\" 
d="M74 724l468 -883l-74 -22l-464 875z" />
    <glyph glyph-name="bracketright" unicode="]" 
d="M89 -112h248v741h-249v66h326v-873h-328z" />
    <glyph glyph-name="asciicircum" unicode="^" 
d="M438 157l-167 232l-160 -232l-56 42l209 294l16 3l219 -296z" />
    <glyph glyph-name="underscore" unicode="_" 
d="M516 -50v-66h-483v66h483z" />
    <glyph glyph-name="grave" unicode="`" 
d="M394 588l-24 -36q-128 66 -233 149l60 67q37 -40 96.5 -94t100.5 -86z" />
    <glyph glyph-name="a" unicode="a" 
d="M248 52q72 0 139 53q-2 64 -2 116q-238 25 -238 -87q0 -39 27.5 -60.5t73.5 -21.5zM398 -3q0 2 -3 26t-4 37q-78 -72 -174 -72q-68 0 -109 34t-41 93q0 80 81 126.5t236 37.5q-5 84 -63.5 114t-224.5 36l9 70q144 -4 220 -29t107.5 -77.5t31.5 -149.5q0 -101 8 -241z" />
    <glyph glyph-name="b" unicode="b" 
d="M234 -12q-74 0 -144 25v686l81 7v-260q66 55 141 55q80 0 131 -64t51 -170q0 -125 -76.5 -202t-183.5 -77zM262 58q68 0 110 49t42 140q0 89 -37 138t-97 49q-57 0 -109 -39v-320q48 -17 91 -17z" />
    <glyph glyph-name="c" unicode="c" 
d="M80 237q0 53 19.5 97t61 81t117 58.5t178.5 23.5l6 -77q-92 0 -153.5 -11.5t-93 -35.5t-43.5 -53.5t-12 -71.5q0 -102 68 -147t241 -37l-9 -68q-108 -7 -184 7.5t-118 49.5t-60 79.5t-18 104.5z" />
    <glyph glyph-name="d" unicode="d" 
d="M271 55q57 0 109 42q-3 128 -3 321q-44 14 -81 14q-70 0 -115 -50.5t-45 -140.5q0 -91 37 -138.5t98 -47.5zM389 -2l-5 51q-65 -61 -144 -61q-81 0 -132.5 62.5t-51.5 169.5q0 129 80 205t197 76q23 0 44 -3v201l81 7v-218q0 -331 7 -486z" />
    <glyph glyph-name="e" unicode="e" 
d="M456 -11q-113 0 -190 16.5t-120.5 49.5t-61.5 77t-18 106q0 111 67.5 187.5t163.5 76.5q99 0 148.5 -73.5t35.5 -196.5l-335 -8q6 -88 74.5 -125t243.5 -41zM283 435q-61 0 -97 -41.5t-40 -119.5q73 3 259 8q-1 72 -31.5 112.5t-90.5 40.5z" />
    <glyph glyph-name="f" unicode="f" 
d="M472 61l-7 -61h-384v61h134v355h-140l7 62h133q0 104 66.5 162.5t226.5 67.5l6 -79q-98 -5 -143.5 -18.5t-60 -39t-14.5 -81.5v-12h186v-62h-186v-355h176z" />
    <glyph glyph-name="g" unicode="g" 
d="M126 -173l-8 74q73 6 117 13.5t75.5 19t46 33t20 48t6.5 71.5q-62 -48 -140 -48q-81 0 -133 56t-52 151q0 115 76 185.5t185 70.5q68 0 143 -23q1 -39 1 -364q0 -67 -15 -115t-52 -86t-104 -59.5t-166 -26.5zM273 103q56 0 110 34v80v113.5v86.5q-53 15 -93 15
q-67 0 -109.5 -44.5t-42.5 -123.5q0 -78 37.5 -119.5t97.5 -41.5z" />
    <glyph glyph-name="h" unicode="h" 
d="M291 432q-60 0 -122 -40v-392h-81v699l81 7v-264q74 59 156 59q146 0 146 -169v-332h-81v305q0 68 -25 97.5t-74 29.5z" />
    <glyph glyph-name="i" unicode="i" 
d="M332 569h-83l6 136h86zM514 0h-443v62h184v363l-183 8l6 57h258v-428h184z" />
    <glyph glyph-name="j" unicode="j" 
d="M374 569h-83l4 136h84zM380 49q0 -111 -74 -164.5t-259 -59.5l2 77q111 4 163 16.5t69.5 37t17.5 77.5v391l-215 9l6 57h290v-441z" />
    <glyph glyph-name="k" unicode="k" 
d="M428 -6l-173 226l-73 -2v-218h-81v699l81 7v-428l76 2q88 103 162 212l83 -6q-97 -137 -177 -231l188 -249z" />
    <glyph glyph-name="l" unicode="l" 
d="M472 0h-394v62h159v571l-151 7l7 58h226v-636h160z" />
    <glyph glyph-name="m" unicode="m" 
d="M202 432q-36 0 -73 -37q4 -178 4 -395h-76q0 318 -6 487l71 5l4 -46q50 55 106 55t75 -52q50 52 107 52q86 0 86 -110v-391h-77v362q0 38 -10.5 54t-36.5 16q-33 0 -65 -29v-9v-394h-63v363q0 37 -10.5 53t-35.5 16z" />
    <glyph glyph-name="n" unicode="n" 
d="M291 432q-63 0 -126 -43q4 -178 4 -389h-81q0 329 -7 487l75 5l5 -56q78 65 164 65q146 0 146 -169v-332h-81v305q0 68 -25 97.5t-74 29.5z" />
    <glyph glyph-name="o" unicode="o" 
d="M264 -14q-93 0 -151 67t-58 183q0 117 67.5 192t164.5 75q93 0 150.5 -66.5t57.5 -182.5q0 -119 -67 -193.5t-164 -74.5zM277 53q62 0 99.5 48.5t37.5 137.5q0 94 -38.5 146t-102.5 52q-61 0 -98.5 -49t-37.5 -137q0 -94 38 -146t102 -52z" />
    <glyph glyph-name="p" unicode="p" 
d="M255 58q69 0 114 50t45 139t-37 138t-97 49q-58 0 -112 -41q4 -157 5 -320q43 -15 82 -15zM173 -165l-81 -7v170q0 364 -6 489l74 5l5 -51q67 60 147 60q79 0 130.5 -64t51.5 -170q0 -128 -77.5 -203.5t-190.5 -75.5q-29 0 -53 4v-157z" />
    <glyph glyph-name="q" unicode="q" 
d="M379 -171v215q-64 -57 -139 -57q-81 0 -132.5 63t-51.5 170q0 128 79.5 204.5t189.5 76.5q70 0 135 -25v-640zM270 55q55 0 109 42v319q-44 16 -84 16q-70 0 -114.5 -50.5t-44.5 -141.5q0 -90 36.5 -137.5t97.5 -47.5z" />
    <glyph glyph-name="r" unicode="r" 
d="M435 0h-368v62h130q-4 296 -6 363l-124 7l6 58h190q4 -42 6 -84q82 85 224 102l4 -86q-142 -11 -225 -65q0 -27 1.5 -128.5t2.5 -166.5h166z" />
    <glyph glyph-name="s" unicode="s" 
d="M437 494l3 -72q-255 23 -255 -56q0 -22 28.5 -42t69 -37.5t81 -37t69 -48t28.5 -63.5q0 -69 -86 -110.5t-276 -31.5l3 72q275 -22 275 63q0 24 -28 44.5t-68.5 37t-81 35t-68.5 46t-28 61.5q0 67 80.5 109.5t253.5 29.5z" />
    <glyph glyph-name="t" unicode="t" 
d="M460 -8q-157 -2 -220 35.5t-63 129.5v270h-101l8 63h93v136l81 7v-143h200v-63h-200v-257q0 -63 43.5 -85.5t167.5 -24.5z" />
    <glyph glyph-name="u" unicode="u" 
d="M394 -2l-5 56q-80 -66 -163 -66q-144 0 -144 170v329l81 6v-308q0 -69 24.5 -98.5t72.5 -29.5q63 0 125 45q-4 176 -4 388h81q0 -329 7 -487z" />
    <glyph glyph-name="v" unicode="v" 
d="M281 76q73 186 146 414h82q-74 -225 -183 -494h-102q-98 244 -180 491l81 5q74 -227 148 -416h8z" />
    <glyph glyph-name="w" unicode="w" 
d="M368 0l-94 274l-93 -274h-73q-34 217 -50 490h80q11 -212 24 -388h4q4 12 43 126.5t43 127.5h50q3 -11 43 -124.5t45 -131.5h4q14 236 22 390h76q-16 -263 -49 -490h-75z" />
    <glyph glyph-name="x" unicode="x" 
d="M415 -2l-144 200l-142 -198h-86l180 244l-179 243l89 5l146 -201l141 199h87l-179 -244l177 -243z" />
    <glyph glyph-name="y" unicode="y" 
d="M70 -178l-7 75q94 14 128.5 35t59.5 81l-9 2q-70 152 -200 472l83 5q102 -260 160 -392h10q19 52 70 204.5t63 185.5h78q-75 -222 -157 -429q-50 -132 -103 -178t-176 -61z" />
    <glyph glyph-name="z" unicode="z" 
d="M480 0h-407v69l311 351l-308 -2l6 72h395v-68l-311 -352l320 2z" />
    <glyph glyph-name="braceleft" unicode="{" 
d="M455 -209q-172 55 -238 96.5t-66 96.5q0 34 23 66t46 58t23 45q0 30 -39 50.5t-118 25.5l2 59q161 14 161 64q0 18 -25 43.5t-50.5 56.5t-25.5 63q0 112 311 211l26 -67q-137 -38 -198 -70t-61 -66q0 -22 24 -49.5t48 -56t24 -51.5q0 -30 -28.5 -57.5t-88.5 -43.5
q59 -15 87 -41.5t28 -58.5t-44 -83.5t-44 -79.5q0 -39 58 -71.5t193 -73.5z" />
    <glyph glyph-name="bar" unicode="|" 
d="M239 704l75 6v-892h-75v886z" />
    <glyph glyph-name="braceright" unicode="}" 
d="M93 -208l-26 68q135 38 196.5 70t61.5 66q0 25 -47.5 76.5t-47.5 80.5q0 30 28.5 57t87.5 44q-59 14 -87 40.5t-28 58.5q0 26 22.5 55t44.5 56.5t22 51.5q0 39 -57.5 71.5t-193.5 73.5l28 66q172 -55 238 -96.5t66 -96.5q0 -33 -23.5 -65.5t-46.5 -58.5t-23 -45
q0 -30 39.5 -50.5t118.5 -25.5l-3 -58q-161 -14 -161 -64q0 -18 25 -43.5t50.5 -56.5t25.5 -64q0 -113 -310 -211z" />
    <glyph glyph-name="asciitilde" unicode="~" 
d="M373 196q-27 0 -58 22.5t-53 49.5t-47 49.5t-42 22.5q-21 0 -40.5 -34.5t-42.5 -101.5l-54 21q59 189 143 189q27 0 57.5 -22.5t52.5 -49.5t46 -49.5t41 -22.5q21 0 40.5 34t43.5 102l54 -21q-31 -96 -63.5 -142.5t-77.5 -46.5z" />
    <glyph glyph-name="uni00A0" unicode="&#xa0;" 
 />
    <glyph glyph-name="exclamdown" unicode="&#xa1;" 
d="M222 620h113l-1 -110h-114zM245 387h53q0 -48 9.5 -226t10.5 -217h-104q2 40 16 218t15 225z" />
    <glyph glyph-name="cent" unicode="&#xa2;" 
d="M152 271q0 -100 116 -139l35 274q-83 -13 -117 -48t-34 -87zM444 34q-70 3 -126 12l-14 -131h-71l19 146q-176 51 -176 200q0 177 229 215l17 144h71l-19 -137q54 4 101 1l-9 -75q-51 4 -106 2l-36 -294q57 -11 129 -14z" />
    <glyph glyph-name="sterling" unicode="&#xa3;" 
d="M475 70v-70h-414v67l73 1l20 207h-87l6 63h88q9 81 25.5 131t51.5 87.5t91.5 55.5t146.5 24l5 -82q-76 -4 -117 -12t-68 -34t-37 -62.5t-18 -107.5h178l-6 -63h-179l-23 -207z" />
    <glyph glyph-name="yen" unicode="&#xa5;" 
d="M483 121h-169l1 -121h-81l1 121h-173l1 60h172l1 66l-15 28h-158v60h126l-151 283l87 4l153 -305l148 303h82l-149 -285h125v-60h-157l-14 -27l1 -67h170z" />
    <glyph glyph-name="section" unicode="&#xa7;" 
d="M136 275q0 -14 10 -26.5t32 -24t40.5 -19.5t52.5 -21t51 -20q41 15 66.5 36.5t25.5 43.5q0 14 -10 26.5t-31.5 24t-40 19.5t-52.5 21t-51 20q-93 -35 -93 -80zM445 46q0 -65 -87 -113t-267 -42l4 70q98 -4 161 8t84.5 29.5t21.5 39.5q0 21 -31 40t-75 35.5t-87.5 35
t-74.5 46.5t-31 62q0 37 31 69t82 54q-71 40 -71 92q0 66 85.5 114t259.5 42l4 -71q-75 4 -130 -2t-83 -18.5t-40.5 -26.5t-12.5 -30q0 -21 31 -40t75 -35t87.5 -34t74.5 -46t31 -62q0 -74 -114 -124q72 -41 72 -93z" />
    <glyph glyph-name="dieresis" unicode="&#xa8;" 
d="M427 569h-82l1 136h83zM207 569h-82l1 136h83z" />
    <glyph glyph-name="copyright" unicode="&#xa9;" 
d="M507 314q0 -142 -64.5 -224.5t-164.5 -82.5q-104 0 -169.5 79.5t-65.5 219.5q0 136 69.5 221.5t171.5 85.5q99 0 161 -80.5t62 -218.5zM92 309q0 -120 53 -188.5t137 -68.5q79 0 128 68.5t49 190.5q0 118 -49 187.5t-128 69.5q-83 0 -136.5 -70.5t-53.5 -188.5zM352 197
l-6 -54q-170 -12 -170 166q0 73 40 120t129 53l4 -58q-69 -2 -91.5 -28.5t-22.5 -81.5q0 -64 25 -92t92 -25z" />
    <glyph glyph-name="ordfeminine" unicode="&#xaa;" 
d="M253 298q52 0 106 36q-2 46 -2 85q-177 17 -177 -65q0 -56 73 -56zM368 253l-2 16q-3 16 -4 25q-57 -49 -129 -49q-54 0 -87.5 26t-33.5 70q0 61 62.5 96.5t181.5 29.5q-5 55 -49.5 74.5t-166.5 23.5l6 61q162 -5 220 -44.5t58 -143.5q0 -54 5 -181zM109 172h331v-55
h-331v55z" />
    <glyph glyph-name="guillemotleft" unicode="&#xab;" 
d="M213 -17l-170 222l4 81l169 220l59 -49l-170 -209l168 -218zM452 -17l-170 222l4 81l169 220l59 -49l-172 -210l170 -217z" />
    <glyph glyph-name="registered" unicode="&#xae;" 
d="M514 441q0 -108 -69 -177t-172 -69q-108 0 -172 63t-64 170q0 109 66.5 176.5t173.5 69.5q104 2 170.5 -62t66.5 -171zM469 437q0 93 -53 144.5t-140 51.5q-86 0 -140 -54.5t-54 -146.5t53 -144t138 -52q86 0 141 54t55 147zM336 320l-50 83l-44 -1v-80h-47v225
q89 12 133.5 -7t44.5 -56q0 -38 -46 -69l59 -88z" />
    <glyph glyph-name="macron" unicode="&#xaf;" 
d="M442 674v-70h-334v70h334z" />
    <glyph glyph-name="degree" unicode="&#xb0;" 
d="M450 498q0 -82 -53 -133.5t-128 -51.5q-73 0 -121 48.5t-48 128.5q0 82 53 134t128 52q74 0 121.5 -48.5t47.5 -129.5zM384 498q1 50 -29.5 83t-78.5 33q-47 0 -78 -33t-32 -87q-1 -51 29.5 -85.5t78.5 -34.5q47 0 78 34t32 90z" />
    <glyph glyph-name="plusminus" unicode="&#xb1;" 
d="M479 62h-409v68h169v167h-171v69h171v179h73v-179h170l-1 -69h-169v-167h168z" />
    <glyph glyph-name="two.sup" unicode="&#xb2;" 
d="M426 325h-295l-7 53q121 81 172 127.5t51 88.5q0 37 -46 56t-162 21l5 58q269 1 269 -118q0 -53 -48 -105t-152 -124h213v-57z" />
    <glyph glyph-name="three.sup" unicode="&#xb3;" 
d="M141 314l-5 60q225 7 225 63q0 53 -186 71v33l162 121v3l-195 -2v57h269l4 -53l-165 -122q175 -27 175 -106q0 -53 -68.5 -87t-215.5 -38z" />
    <glyph glyph-name="acute" unicode="&#xb4;" 
d="M162 594q43 30 99.5 82.5t93.5 95.5l65 -63q-41 -37 -110 -80.5t-125 -70.5z" />
    <glyph glyph-name="mu" unicode="&#xb5;" 
d="M161 -164l-79 -8v659l81 6v-318q0 -63 24.5 -90.5t72.5 -27.5q63 0 125 44q-4 176 -4 389h81q0 -329 7 -487l-74 -5l-5 56q-70 -66 -146 -66q-56 0 -87 30z" />
    <glyph glyph-name="paragraph" unicode="&#xb6;" 
d="M401 167v386q-40 3 -88 -3v-373q38 -8 88 -10zM123 362q0 -57 34.5 -101t98.5 -68v344q-66 -22 -99.5 -68t-33.5 -107zM314 -107l-69 -9v237q-94 28 -145.5 87t-51.5 141q0 127 111.5 204.5t310.5 76.5v-712l-69 -8v191q-42 0 -87 5v-213z" />
    <glyph glyph-name="periodcentered" unicode="&#xb7;" 
d="M334 248h-119l3 115h119z" />
    <glyph glyph-name="cedilla" unicode="&#xb8;" 
d="M229 -12l21 42q145 -70 145 -140q0 -38 -46.5 -65.5t-136.5 -38.5l-6 64q117 17 117 48q0 34 -94 90z" />
    <glyph glyph-name="one.sup" unicode="&#xb9;" 
d="M433 325h-298v55h125v234l-118 -7l-2 48l120 16v60l64 5v-356h114z" />
    <glyph glyph-name="ordmasculine" unicode="&#xba;" 
d="M97 430q0 87 54.5 142t132.5 55q75 0 122 -49.5t47 -134.5q0 -88 -54 -143t-134 -55q-74 0 -121 49.5t-47 135.5zM276 301q51 0 80 34t29 97q0 69 -29.5 104.5t-82.5 35.5q-51 0 -79.5 -34t-28.5 -97q0 -68 29.5 -104t81.5 -36zM442 117h-333v55h333v-55z" />
    <glyph glyph-name="guillemotright" unicode="&#xbb;" 
d="M334 -17l-59 49l172 210l-170 217l60 47l171 -222l-5 -81zM96 -17l-59 49l172 211l-170 216l60 47l170 -222l-4 -81z" />
    <glyph glyph-name="onequarter" unicode="&#xbc;" 
d="M433 425h-298v55h125v234l-118 -7l-2 48l120 16v60l64 5v-356h114zM61 277v55h428v-55h-428zM445 -130l-52 1l1 -81h-62l1 81l-203 -1q-2 139 49 322l70 -5q-14 -47 -38 -144t-25 -118l148 -1l-2 132l62 5l-1 -137l57 1z" />
    <glyph glyph-name="onehalf" unicode="&#xbd;" 
d="M433 425h-298v55h125v234l-118 -7l-2 48l120 16v60l64 5v-356h114zM61 277v55h428v-55h-428zM426 -210h-295l-7 53q121 81 172 127.5t51 88.5q0 37 -46 56t-162 21l5 58q269 1 269 -118q0 -53 -48 -105t-152 -124h213v-57z" />
    <glyph glyph-name="threequarters" unicode="&#xbe;" 
d="M141 414l-5 60q225 7 225 63q0 53 -186 71v33l162 121v3l-195 -2v57h269l4 -53l-165 -122q175 -27 175 -106q0 -53 -68.5 -87t-215.5 -38zM61 277v55h428v-55h-428zM445 -130l-52 1l1 -81h-62l1 81l-203 -1q-2 139 49 322l70 -5q-14 -47 -38 -144t-25 -118l148 -1l-2 132
l62 5l-1 -137l57 1z" />
    <glyph glyph-name="questiondown" unicode="&#xbf;" 
d="M266 620h109l-3 -109h-110zM465 18l-8 -76q-390 21 -390 160q0 30 21 59t52 54t62 50.5t55 58.5t28 68l57 -1q-3 -48 -33.5 -92t-64.5 -70t-62.5 -55.5t-28.5 -52.5q0 -26 24.5 -44.5t96 -34.5t191.5 -24z" />
    <glyph glyph-name="Agrave" unicode="&#xc0;" 
d="M374 718l-24 -36q-128 66 -233 149l60 67q37 -40 96.5 -94t100.5 -86zM430 -3q-39 146 -52 193h-209q-9 -32 -25 -95t-25 -95h-83q96 349 181 622h116q89 -284 181 -619zM270 551q-17 -59 -47.5 -167.5t-36.5 -130.5h175q-58 213 -83 298h-8z" />
    <glyph glyph-name="Aacute" unicode="&#xc1;" 
d="M169 724q43 30 100 82.5t93 95.5l65 -63q-41 -37 -110 -80.5t-125 -70.5zM430 -3q-39 146 -52 193h-209q-9 -32 -25 -95t-25 -95h-83q96 349 181 622h116q89 -284 181 -619zM270 551q-17 -59 -47.5 -167.5t-36.5 -130.5h175q-58 213 -83 298h-8z" />
    <glyph glyph-name="Acircumflex" unicode="&#xc2;" 
d="M401 690l-133 114l-132 -113l-40 39l176 153h4l176 -144zM430 -3q-39 146 -52 193h-209q-9 -32 -25 -95t-25 -95h-83q96 349 181 622h116q89 -284 181 -619zM270 551q-17 -59 -47.5 -167.5t-36.5 -130.5h175q-58 213 -83 298h-8z" />
    <glyph glyph-name="Atilde" unicode="&#xc3;" 
d="M350 697q-27 0 -55 25t-51.5 50t-40.5 25q-35 0 -78 -92l-45 20q57 139 132 139q22 0 44 -16t37.5 -34.5t33.5 -34.5t32 -16q34 0 77 93l46 -20q-59 -139 -132 -139zM430 -3q-39 146 -52 193h-209q-9 -32 -25 -95t-25 -95h-83q96 349 181 622h116q89 -284 181 -619z
M270 551q-17 -59 -47.5 -167.5t-36.5 -130.5h175q-58 213 -83 298h-8z" />
    <glyph glyph-name="Adieresis" unicode="&#xc4;" 
d="M426 699h-82l1 136h83zM206 699h-82l1 136h83zM430 -3q-39 146 -52 193h-209q-9 -32 -25 -95t-25 -95h-83q96 349 181 622h116q89 -284 181 -619zM270 551q-17 -59 -47.5 -167.5t-36.5 -130.5h175q-58 213 -83 298h-8z" />
    <glyph glyph-name="Aring" unicode="&#xc5;" 
d="M272 890q57 0 94.5 -30.5t37.5 -73.5q0 -47 -36.5 -77.5t-95.5 -30.5q-57 0 -94 30t-37 74q0 47 36 77.5t95 30.5zM430 -3q-39 146 -52 193h-209q-9 -32 -25 -95t-25 -95h-83q96 349 181 622h116q89 -284 181 -619zM270 551q-17 -59 -47.5 -167.5t-36.5 -130.5h175
q-58 213 -83 298h-8z" />
    <glyph glyph-name="AE" unicode="&#xc6;" 
d="M256 549q-18 -57 -52 -165t-44 -140h102v305h-6zM262 0v182h-121q-38 -122 -56 -182h-81q60 192 203 620h301v-71h-173v-204h146v-63h-146v-211h177l-6 -71h-244z" />
    <glyph glyph-name="Ccedilla" unicode="&#xc7;" 
d="M391 -112q0 -38 -46.5 -65.5t-136.5 -38.5l-6 64q117 17 117 48q0 34 -94 90l16 33q-175 60 -175 281q0 67 20.5 122t65.5 101.5t125.5 73.5t190.5 31l5 -80q-99 -1 -164 -17.5t-98.5 -49.5t-46 -72.5t-12.5 -97.5q0 -66 15 -110.5t51.5 -77t100.5 -46t160 -9.5l-7 -71
q-109 -7 -184 9q103 -60 103 -118z" />
    <glyph glyph-name="Egrave" unicode="&#xc8;" 
d="M395 718l-24 -36q-128 66 -233 149l60 67q37 -40 96.5 -94t100.5 -86zM486 71l-8 -71h-373v620h376v-71h-293v-204h253v-63h-253v-211h298z" />
    <glyph glyph-name="Eacute" unicode="&#xc9;" 
d="M189 724q43 30 99.5 82.5t93.5 95.5l65 -63q-41 -37 -110 -80.5t-125 -70.5zM486 71l-8 -71h-373v620h376v-71h-293v-204h253v-63h-253v-211h298z" />
    <glyph glyph-name="Ecircumflex" unicode="&#xca;" 
d="M421 690l-133 114l-132 -113l-40 39l176 153h4l176 -144zM486 71l-8 -71h-373v620h376v-71h-293v-204h253v-63h-253v-211h298z" />
    <glyph glyph-name="Edieresis" unicode="&#xcb;" 
d="M446 699h-82l1 136h83zM226 699h-82l1 136h83zM486 71l-8 -71h-373v620h376v-71h-293v-204h253v-63h-253v-211h298z" />
    <glyph glyph-name="Igrave" unicode="&#xcc;" 
d="M378 718l-24 -36q-128 66 -233 149l60 67q37 -40 96.5 -94t100.5 -86zM316 554v-488h158l-6 -66h-388v66h153v488h-153v66h390v-66h-154z" />
    <glyph glyph-name="Iacute" unicode="&#xcd;" 
d="M172 724q43 30 99.5 82.5t93.5 95.5l65 -63q-41 -37 -110 -80.5t-125 -70.5zM316 554v-488h158l-6 -66h-388v66h153v488h-153v66h390v-66h-154z" />
    <glyph glyph-name="Icircumflex" unicode="&#xce;" 
d="M404 690l-133 114l-132 -113l-40 39l176 153h4l176 -144zM316 554v-488h158l-6 -66h-388v66h153v488h-153v66h390v-66h-154z" />
    <glyph glyph-name="Idieresis" unicode="&#xcf;" 
d="M429 699h-82l1 136h83zM209 699h-82l1 136h83zM316 554v-488h158l-6 -66h-388v66h153v488h-153v66h390v-66h-154z" />
    <glyph glyph-name="Eth" unicode="&#xd0;" 
d="M501 322q0 -185 -105 -269.5t-311 -53.5v286h-70v59h70v277q222 31 319 -42t97 -257zM167 66q128 -19 189 42t61 201q0 143 -58.5 202.5t-191.5 43.5v-211h131l-3 -59h-128v-219z" />
    <glyph glyph-name="Ntilde" unicode="&#xd1;" 
d="M351 697q-27 0 -55 25t-51.5 50t-40.5 25q-35 0 -78 -92l-45 20q57 139 132 139q22 0 44 -16t37.5 -34.5t33.5 -34.5t32 -16q34 0 77 93l46 -20q-59 -139 -132 -139zM392 0l-233 481h-5l3 -481h-77v620h87l225 -472h4l-3 472h78v-620h-79z" />
    <glyph glyph-name="Ograve" unicode="&#xd2;" 
d="M379 725l-24 -36q-128 66 -233 149l60 67q37 -40 96.5 -94t100.5 -86zM264 -15q-104 0 -161 81t-57 230q0 162 64 250.5t176 88.5q104 0 161 -80.5t57 -230.5q1 -161 -63.5 -250t-176.5 -89zM272 566q-141 0 -141 -252q0 -127 37.5 -193.5t109.5 -66.5q141 0 141 252
q0 127 -38 193.5t-109 66.5z" />
    <glyph glyph-name="Oacute" unicode="&#xd3;" 
d="M173 731q43 30 99.5 82.5t93.5 95.5l65 -63q-41 -37 -110 -80.5t-125 -70.5zM264 -15q-104 0 -161 81t-57 230q0 162 64 250.5t176 88.5q104 0 161 -80.5t57 -230.5q1 -161 -63.5 -250t-176.5 -89zM272 566q-141 0 -141 -252q0 -127 37.5 -193.5t109.5 -66.5
q141 0 141 252q0 127 -38 193.5t-109 66.5z" />
    <glyph glyph-name="Ocircumflex" unicode="&#xd4;" 
d="M405 697l-133 114l-132 -113l-40 39l176 153h4l176 -144zM264 -15q-104 0 -161 81t-57 230q0 162 64 250.5t176 88.5q104 0 161 -80.5t57 -230.5q1 -161 -63.5 -250t-176.5 -89zM272 566q-141 0 -141 -252q0 -127 37.5 -193.5t109.5 -66.5q141 0 141 252q0 127 -38 193.5
t-109 66.5z" />
    <glyph glyph-name="Otilde" unicode="&#xd5;" 
d="M355 704q-27 0 -55 25t-51.5 50t-40.5 25q-35 0 -78 -92l-45 20q57 139 132 139q22 0 44 -16t37.5 -34.5t33.5 -34.5t32 -16q34 0 77 93l46 -20q-59 -139 -132 -139zM264 -15q-104 0 -161 81t-57 230q0 162 64 250.5t176 88.5q104 0 161 -80.5t57 -230.5
q1 -161 -63.5 -250t-176.5 -89zM272 566q-141 0 -141 -252q0 -127 37.5 -193.5t109.5 -66.5q141 0 141 252q0 127 -38 193.5t-109 66.5z" />
    <glyph glyph-name="Odieresis" unicode="&#xd6;" 
d="M430 706h-82l1 136h83zM210 706h-82l1 136h83zM264 -15q-104 0 -161 81t-57 230q0 162 64 250.5t176 88.5q104 0 161 -80.5t57 -230.5q1 -161 -63.5 -250t-176.5 -89zM272 566q-141 0 -141 -252q0 -127 37.5 -193.5t109.5 -66.5q141 0 141 252q0 127 -38 193.5t-109 66.5
z" />
    <glyph glyph-name="multiply" unicode="&#xd7;" 
d="M422 92l-148 150l-144 -146l-49 49l144 147l-148 150l52 50l147 -149l144 147l49 -50l-145 -147l149 -151z" />
    <glyph glyph-name="Oslash" unicode="&#xd8;" 
d="M130 314q0 -104 26 -170l209 380q-36 42 -93 42q-142 0 -142 -252zM278 54q142 0 142 252q0 106 -26 170l-209 -380q35 -42 93 -42zM264 -15q-66 0 -115 34l-30 -55l-52 28l39 70q-60 82 -60 234q0 162 64 250.5t176 88.5q68 0 117 -35l29 56l53 -28l-39 -71
q58 -81 58 -233q1 -161 -63.5 -250t-176.5 -89z" />
    <glyph glyph-name="Ugrave" unicode="&#xd9;" 
d="M376 718l-24 -36q-128 66 -233 149l60 67q37 -40 96.5 -94t100.5 -86zM270 -15q-92 0 -143.5 56t-51.5 159v420h84v-414q0 -149 119 -149q58 0 85.5 32t27.5 102v429h83v-416q0 -104 -54 -161.5t-150 -57.5z" />
    <glyph glyph-name="Uacute" unicode="&#xda;" 
d="M170 724q43 30 99.5 82.5t93.5 95.5l65 -63q-41 -37 -110 -80.5t-125 -70.5zM270 -15q-92 0 -143.5 56t-51.5 159v420h84v-414q0 -149 119 -149q58 0 85.5 32t27.5 102v429h83v-416q0 -104 -54 -161.5t-150 -57.5z" />
    <glyph glyph-name="Ucircumflex" unicode="&#xdb;" 
d="M402 690l-133 114l-132 -113l-40 39l176 153h4l176 -144zM270 -15q-92 0 -143.5 56t-51.5 159v420h84v-414q0 -149 119 -149q58 0 85.5 32t27.5 102v429h83v-416q0 -104 -54 -161.5t-150 -57.5z" />
    <glyph glyph-name="Udieresis" unicode="&#xdc;" 
d="M427 699h-82l1 136h83zM207 699h-82l1 136h83zM270 -15q-92 0 -143.5 56t-51.5 159v420h84v-414q0 -149 119 -149q58 0 85.5 32t27.5 102v429h83v-416q0 -104 -54 -161.5t-150 -57.5z" />
    <glyph glyph-name="Yacute" unicode="&#xdd;" 
d="M173 726q43 30 99.5 82.5t93.5 95.5l65 -63q-41 -37 -110 -80.5t-125 -70.5zM318 0h-84v206l-201 412l89 4l156 -336l153 334h86l-199 -414v-206z" />
    <glyph glyph-name="Thorn" unicode="&#xde;" 
d="M182 0h-83v620h83v-98q156 12 239 -39t83 -153q0 -105 -85.5 -160.5t-236.5 -65.5v-104zM422 314q0 78 -61.5 114t-178.5 22v-273q119 -7 179.5 25.5t60.5 111.5z" />
    <glyph glyph-name="germandbls" unicode="&#xdf;" 
d="M339 355q0 -23 27.5 -47.5t61 -44.5t61 -54t27.5 -72q0 -30 -13.5 -56t-41.5 -48t-79.5 -32.5t-120.5 -6.5l3 73q87 -10 129.5 9t42.5 56q0 24 -27.5 49t-60.5 44t-60.5 51t-27.5 69q0 32 25.5 67.5l51 71t25.5 68.5q0 36 -22.5 60.5t-65.5 24.5q-111 0 -111 -158v-479
h-80v461q0 110 55 178t154 68q74 0 112.5 -41t38.5 -97q0 -38 -16.5 -73t-35.5 -56t-35.5 -44t-16.5 -41z" />
    <glyph glyph-name="agrave" unicode="&#xe0;" 
d="M374 592l-24 -36q-128 66 -233 149l60 67q37 -40 96.5 -94t100.5 -86zM248 52q72 0 139 53q-2 64 -2 116q-238 25 -238 -87q0 -39 27.5 -60.5t73.5 -21.5zM398 -3q0 2 -3 26t-4 37q-78 -72 -174 -72q-68 0 -109 34t-41 93q0 80 81 126.5t236 37.5q-5 84 -63.5 114
t-224.5 36l9 70q144 -4 220 -29t107.5 -77.5t31.5 -149.5q0 -101 8 -241z" />
    <glyph glyph-name="aacute" unicode="&#xe1;" 
d="M168 598q43 30 99.5 82.5t93.5 95.5l65 -63q-41 -37 -110 -80.5t-125 -70.5zM248 52q72 0 139 53q-2 64 -2 116q-238 25 -238 -87q0 -39 27.5 -60.5t73.5 -21.5zM398 -3q0 2 -3 26t-4 37q-78 -72 -174 -72q-68 0 -109 34t-41 93q0 80 81 126.5t236 37.5q-5 84 -63.5 114
t-224.5 36l9 70q144 -4 220 -29t107.5 -77.5t31.5 -149.5q0 -101 8 -241z" />
    <glyph glyph-name="acircumflex" unicode="&#xe2;" 
d="M401 564l-133 114l-132 -113l-40 39l176 153h4l176 -144zM248 52q72 0 139 53q-2 64 -2 116q-238 25 -238 -87q0 -39 27.5 -60.5t73.5 -21.5zM398 -3q0 2 -3 26t-4 37q-78 -72 -174 -72q-68 0 -109 34t-41 93q0 80 81 126.5t236 37.5q-5 84 -63.5 114t-224.5 36l9 70
q144 -4 220 -29t107.5 -77.5t31.5 -149.5q0 -101 8 -241z" />
    <glyph glyph-name="atilde" unicode="&#xe3;" 
d="M350 571q-27 0 -55 25t-51.5 50t-40.5 25q-35 0 -78 -92l-45 20q57 139 132 139q22 0 44 -16t37.5 -34.5t33.5 -34.5t32 -16q34 0 77 93l46 -20q-59 -139 -132 -139zM248 52q72 0 139 53q-2 64 -2 116q-238 25 -238 -87q0 -39 27.5 -60.5t73.5 -21.5zM398 -3q0 2 -3 26
t-4 37q-78 -72 -174 -72q-68 0 -109 34t-41 93q0 80 81 126.5t236 37.5q-5 84 -63.5 114t-224.5 36l9 70q144 -4 220 -29t107.5 -77.5t31.5 -149.5q0 -101 8 -241z" />
    <glyph glyph-name="adieresis" unicode="&#xe4;" 
d="M425 573h-82l1 136h83zM205 573h-82l1 136h83zM248 52q72 0 139 53q-2 64 -2 116q-238 25 -238 -87q0 -39 27.5 -60.5t73.5 -21.5zM398 -3q0 2 -3 26t-4 37q-78 -72 -174 -72q-68 0 -109 34t-41 93q0 80 81 126.5t236 37.5q-5 84 -63.5 114t-224.5 36l9 70
q144 -4 220 -29t107.5 -77.5t31.5 -149.5q0 -101 8 -241z" />
    <glyph glyph-name="aring" unicode="&#xe5;" 
d="M272 764q57 0 94.5 -30.5t37.5 -73.5q0 -47 -36.5 -77.5t-95.5 -30.5q-57 0 -94 30t-37 74q0 47 36 77.5t95 30.5zM248 52q72 0 139 53q-2 64 -2 116q-238 25 -238 -87q0 -39 27.5 -60.5t73.5 -21.5zM398 -3q0 2 -3 26t-4 37q-78 -72 -174 -72q-68 0 -109 34t-41 93
q0 80 81 126.5t236 37.5q-5 84 -63.5 114t-224.5 36l9 70q144 -4 220 -29t107.5 -77.5t31.5 -149.5q0 -101 8 -241z" />
    <glyph glyph-name="ae" unicode="&#xe6;" 
d="M375 429q-67 0 -71 -154l135 2q2 152 -64 152zM169 58q46 0 80 52q-15 44 -15 113q-124 0 -124 -88q0 -38 16 -57.5t43 -19.5zM497 -6q-174 1 -228 75q-49 -76 -129 -76q-47 0 -76.5 33t-29.5 90q0 155 200 159q-2 87 -36 115t-143 35l6 69q92 -5 139 -23.5t67 -60.5
q39 86 120 86q69 0 101.5 -70.5t24.5 -196.5l-209 -5q1 -60 16 -92.5t58 -50t126 -19.5z" />
    <glyph glyph-name="ccedilla" unicode="&#xe7;" 
d="M402 -117q0 -38 -46.5 -65.5t-136.5 -38.5l-6 64q117 17 117 48q0 34 -94 90l14 29q-170 46 -170 227q0 53 19.5 97t61 81t117 58.5t178.5 23.5l6 -77q-92 0 -153.5 -11.5t-93 -35.5t-43.5 -53.5t-12 -71.5q0 -102 68 -147t241 -37l-9 -68q-95 -6 -159 4
q101 -60 101 -117z" />
    <glyph glyph-name="egrave" unicode="&#xe8;" 
d="M386 595l-24 -36q-128 66 -233 149l60 67q37 -40 96.5 -94t100.5 -86zM456 -11q-113 0 -190 16.5t-120.5 49.5t-61.5 77t-18 106q0 111 67.5 187.5t163.5 76.5q99 0 148.5 -73.5t35.5 -196.5l-335 -8q6 -88 74.5 -125t243.5 -41zM283 435q-61 0 -97 -41.5t-40 -119.5
q73 3 259 8q-1 72 -31.5 112.5t-90.5 40.5z" />
    <glyph glyph-name="eacute" unicode="&#xe9;" 
d="M180 601q43 30 100 82.5t93 95.5l65 -63q-41 -37 -110 -80.5t-125 -70.5zM456 -11q-113 0 -190 16.5t-120.5 49.5t-61.5 77t-18 106q0 111 67.5 187.5t163.5 76.5q99 0 148.5 -73.5t35.5 -196.5l-335 -8q6 -88 74.5 -125t243.5 -41zM283 435q-61 0 -97 -41.5t-40 -119.5
q73 3 259 8q-1 72 -31.5 112.5t-90.5 40.5z" />
    <glyph glyph-name="ecircumflex" unicode="&#xea;" 
d="M412 567l-133 114l-132 -113l-40 39l176 153h4l176 -144zM456 -11q-113 0 -190 16.5t-120.5 49.5t-61.5 77t-18 106q0 111 67.5 187.5t163.5 76.5q99 0 148.5 -73.5t35.5 -196.5l-335 -8q6 -88 74.5 -125t243.5 -41zM283 435q-61 0 -97 -41.5t-40 -119.5q73 3 259 8
q-1 72 -31.5 112.5t-90.5 40.5z" />
    <glyph glyph-name="edieresis" unicode="&#xeb;" 
d="M437 576h-82l1 136h83zM217 576h-82l1 136h83zM456 -11q-113 0 -190 16.5t-120.5 49.5t-61.5 77t-18 106q0 111 67.5 187.5t163.5 76.5q99 0 148.5 -73.5t35.5 -196.5l-335 -8q6 -88 74.5 -125t243.5 -41zM283 435q-61 0 -97 -41.5t-40 -119.5q73 3 259 8
q-1 72 -31.5 112.5t-90.5 40.5z" />
    <glyph glyph-name="igrave" unicode="&#xec;" 
d="M397 588l-24 -36q-128 66 -233 149l60 67q37 -40 96.5 -94t100.5 -86zM514 0h-443v62h184v363l-183 8l6 57h258v-428h184z" />
    <glyph glyph-name="iacute" unicode="&#xed;" 
d="M191 594q43 30 100 82.5t93 95.5l65 -63q-41 -37 -110 -80.5t-125 -70.5zM514 0h-443v62h184v363l-183 8l6 57h258v-428h184z" />
    <glyph glyph-name="icircumflex" unicode="&#xee;" 
d="M423 560l-133 114l-132 -113l-40 39l176 153h4l176 -144zM514 0h-443v62h184v363l-183 8l6 57h258v-428h184z" />
    <glyph glyph-name="idieresis" unicode="&#xef;" 
d="M448 569h-82l1 136h83zM228 569h-82l1 136h83zM514 0h-443v62h184v363l-183 8l6 57h258v-428h184z" />
    <glyph glyph-name="eth" unicode="&#xf0;" 
d="M264 -13q-89 0 -148.5 62.5t-59.5 167.5q0 83 43.5 142.5t109.5 84t142 15.5q-34 52 -79 94l-131 -66l-20 47l110 56q-40 33 -96 67l50 51q60 -38 115 -83l115 58l19 -48l-93 -47q150 -147 150 -337q0 -124 -65.5 -194t-161.5 -70zM275 54q64 0 101 49.5t37 140.5
q0 70 -22 132q-120 41 -187.5 -3t-67.5 -146q0 -79 38.5 -126t100.5 -47z" />
    <glyph glyph-name="ntilde" unicode="&#xf1;" 
d="M352 579q-27 0 -55 25t-51.5 50t-40.5 25q-35 0 -78 -92l-45 20q57 139 132 139q22 0 44 -16t37.5 -34.5t33.5 -34.5t32 -16q34 0 77 93l46 -20q-59 -139 -132 -139zM291 432q-63 0 -126 -43q4 -178 4 -389h-81q0 329 -7 487l75 5l5 -56q78 65 164 65q146 0 146 -169
v-332h-81v305q0 68 -25 97.5t-74 29.5z" />
    <glyph glyph-name="ograve" unicode="&#xf2;" 
d="M376 593l-24 -36q-128 66 -233 149l60 67q37 -40 96.5 -94t100.5 -86zM264 -14q-93 0 -151 67t-58 183q0 117 67.5 192t164.5 75q93 0 150.5 -66.5t57.5 -182.5q0 -119 -67 -193.5t-164 -74.5zM277 53q62 0 99.5 48.5t37.5 137.5q0 94 -38.5 146t-102.5 52
q-61 0 -98.5 -49t-37.5 -137q0 -94 38 -146t102 -52z" />
    <glyph glyph-name="oacute" unicode="&#xf3;" 
d="M170 599q43 30 99.5 82.5t93.5 95.5l65 -63q-41 -37 -110 -80.5t-125 -70.5zM264 -14q-93 0 -151 67t-58 183q0 117 67.5 192t164.5 75q93 0 150.5 -66.5t57.5 -182.5q0 -119 -67 -193.5t-164 -74.5zM277 53q62 0 99.5 48.5t37.5 137.5q0 94 -38.5 146t-102.5 52
q-61 0 -98.5 -49t-37.5 -137q0 -94 38 -146t102 -52z" />
    <glyph glyph-name="ocircumflex" unicode="&#xf4;" 
d="M402 565l-133 114l-132 -113l-40 39l176 153h4l176 -144zM264 -14q-93 0 -151 67t-58 183q0 117 67.5 192t164.5 75q93 0 150.5 -66.5t57.5 -182.5q0 -119 -67 -193.5t-164 -74.5zM277 53q62 0 99.5 48.5t37.5 137.5q0 94 -38.5 146t-102.5 52q-61 0 -98.5 -49
t-37.5 -137q0 -94 38 -146t102 -52z" />
    <glyph glyph-name="otilde" unicode="&#xf5;" 
d="M352 572q-27 0 -55 25t-51.5 50t-40.5 25q-35 0 -78 -92l-45 20q57 139 132 139q22 0 44 -16t37.5 -34.5t33.5 -34.5t32 -16q34 0 77 93l46 -20q-59 -139 -132 -139zM264 -14q-93 0 -151 67t-58 183q0 117 67.5 192t164.5 75q93 0 150.5 -66.5t57.5 -182.5
q0 -119 -67 -193.5t-164 -74.5zM277 53q62 0 99.5 48.5t37.5 137.5q0 94 -38.5 146t-102.5 52q-61 0 -98.5 -49t-37.5 -137q0 -94 38 -146t102 -52z" />
    <glyph glyph-name="odieresis" unicode="&#xf6;" 
d="M427 574h-82l1 136h83zM207 574h-82l1 136h83zM264 -14q-93 0 -151 67t-58 183q0 117 67.5 192t164.5 75q93 0 150.5 -66.5t57.5 -182.5q0 -119 -67 -193.5t-164 -74.5zM277 53q62 0 99.5 48.5t37.5 137.5q0 94 -38.5 146t-102.5 52q-61 0 -98.5 -49t-37.5 -137
q0 -94 38 -146t102 -52z" />
    <glyph glyph-name="divide" unicode="&#xf7;" 
d="M319 426h-90l1 93h91zM489 327l-1 -68h-427v68h428zM319 66h-90l1 94h91z" />
    <glyph glyph-name="oslash" unicode="&#xf8;" 
d="M136 251q0 -77 27 -128l195 282q-35 32 -85 32q-62 0 -99.5 -48.5t-37.5 -137.5zM277 52q63 0 100.5 48.5t37.5 138.5q0 76 -26 125l-195 -282q33 -30 83 -30zM264 -14q-63 0 -112 32l-36 -52l-48 32l42 59q-55 68 -55 179q0 117 67.5 192t164.5 75q65 0 113 -33l37 53
l48 -32l-42 -61q52 -66 52 -176q0 -119 -67 -193.5t-164 -74.5z" />
    <glyph glyph-name="ugrave" unicode="&#xf9;" 
d="M378 591l-24 -36q-128 66 -233 149l60 67q37 -40 96.5 -94t100.5 -86zM394 -2l-5 56q-80 -66 -163 -66q-144 0 -144 170v329l81 6v-308q0 -69 24.5 -98.5t72.5 -29.5q63 0 125 45q-4 176 -4 388h81q0 -329 7 -487z" />
    <glyph glyph-name="uacute" unicode="&#xfa;" 
d="M172 597q43 30 99.5 82.5t93.5 95.5l65 -63q-41 -37 -110 -80.5t-125 -70.5zM394 -2l-5 56q-80 -66 -163 -66q-144 0 -144 170v329l81 6v-308q0 -69 24.5 -98.5t72.5 -29.5q63 0 125 45q-4 176 -4 388h81q0 -329 7 -487z" />
    <glyph glyph-name="ucircumflex" unicode="&#xfb;" 
d="M405 563l-133 114l-132 -113l-40 39l176 153h4l176 -144zM394 -2l-5 56q-80 -66 -163 -66q-144 0 -144 170v329l81 6v-308q0 -69 24.5 -98.5t72.5 -29.5q63 0 125 45q-4 176 -4 388h81q0 -329 7 -487z" />
    <glyph glyph-name="udieresis" unicode="&#xfc;" 
d="M429 572h-82l1 136h83zM209 572h-82l1 136h83zM394 -2l-5 56q-80 -66 -163 -66q-144 0 -144 170v329l81 6v-308q0 -69 24.5 -98.5t72.5 -29.5q63 0 125 45q-4 176 -4 388h81q0 -329 7 -487z" />
    <glyph glyph-name="yacute" unicode="&#xfd;" 
d="M177 597q43 30 100 82.5t93 95.5l65 -63q-41 -37 -110 -80.5t-125 -70.5zM70 -178l-7 75q94 14 128.5 35t59.5 81l-9 2q-70 152 -200 472l83 5q102 -260 160 -392h10q19 52 70 204.5t63 185.5h78q-75 -222 -157 -429q-50 -132 -103 -178t-176 -61z" />
    <glyph glyph-name="thorn" unicode="&#xfe;" 
d="M254 58q70 0 115 50t45 139t-37 138t-97 49q-56 0 -109 -38v-323q41 -15 83 -15zM171 -164l-80 -8v871l80 7v-260q64 55 140 55q79 0 131 -64t52 -170q0 -127 -77.5 -203t-187.5 -76q-26 0 -58 5v-157z" />
    <glyph glyph-name="ydieresis" unicode="&#xff;" 
d="M434 572h-82l1 136h83zM214 572h-82l1 136h83zM70 -178l-7 75q94 14 128.5 35t59.5 81l-9 2q-70 152 -200 472l83 5q102 -260 160 -392h10q19 52 70 204.5t63 185.5h78q-75 -222 -157 -429q-50 -132 -103 -178t-176 -61z" />
    <glyph glyph-name="Amacron" unicode="&#x100;" 
d="M441 804v-70h-334v70h334zM430 -3q-39 146 -52 193h-209q-9 -32 -25 -95t-25 -95h-83q96 349 181 622h116q89 -284 181 -619zM270 551q-17 -59 -47.5 -167.5t-36.5 -130.5h175q-58 213 -83 298h-8z" />
    <glyph glyph-name="amacron" unicode="&#x101;" 
d="M440 678v-70h-334v70h334zM248 52q72 0 139 53q-2 64 -2 116q-238 25 -238 -87q0 -39 27.5 -60.5t73.5 -21.5zM398 -3q0 2 -3 26t-4 37q-78 -72 -174 -72q-68 0 -109 34t-41 93q0 80 81 126.5t236 37.5q-5 84 -63.5 114t-224.5 36l9 70q144 -4 220 -29t107.5 -77.5
t31.5 -149.5q0 -101 8 -241z" />
    <glyph glyph-name="Abreve" unicode="&#x102;" 
d="M273 695q-105 0 -185 144l57 33q37 -60 67.5 -85.5t67.5 -25.5t69 26t69 81l48 -25q-90 -148 -193 -148zM430 -3q-39 146 -52 193h-209q-9 -32 -25 -95t-25 -95h-83q96 349 181 622h116q89 -284 181 -619zM270 551q-17 -59 -47.5 -167.5t-36.5 -130.5h175
q-58 213 -83 298h-8z" />
    <glyph glyph-name="abreve" unicode="&#x103;" 
d="M273 569q-105 0 -185 144l57 33q37 -60 67.5 -85.5t67.5 -25.5t69 26t69 81l48 -25q-90 -148 -193 -148zM248 52q72 0 139 53q-2 64 -2 116q-238 25 -238 -87q0 -39 27.5 -60.5t73.5 -21.5zM398 -3q0 2 -3 26t-4 37q-78 -72 -174 -72q-68 0 -109 34t-41 93q0 80 81 126.5
t236 37.5q-5 84 -63.5 114t-224.5 36l9 70q144 -4 220 -29t107.5 -77.5t31.5 -149.5q0 -101 8 -241z" />
    <glyph glyph-name="Aogonek" unicode="&#x104;" 
d="M492 -212q-185 14 -185 93q0 57 121 124q-16 61 -50 185h-209q-9 -32 -25 -95t-25 -95h-83q96 349 181 622h116q89 -284 181 -619q-131 -62 -131 -102q0 -37 117 -48zM270 551q-17 -59 -47.5 -167.5t-36.5 -130.5h175q-58 213 -83 298h-8z" />
    <glyph glyph-name="aogonek" unicode="&#x105;" 
d="M450 -214q-186 14 -186 93q0 61 133 130q-1 9 -4 36.5t-4 38.5q-79 -96 -179 -96q-64 0 -103.5 34.5t-39.5 92.5q0 80 81 126.5t236 37.5q-5 84 -63.5 114t-224.5 36l9 70q144 -4 220 -29t107.5 -77.5t31.5 -149.5q0 -101 8 -241q-132 -62 -132 -102q0 -37 117 -49z
M242 52q37 0 75.5 21t68.5 55q-1 28 -1 93q-238 25 -238 -87q0 -39 25.5 -60.5t69.5 -21.5z" />
    <glyph glyph-name="Cacute" unicode="&#x106;" 
d="M207 724q43 30 100 82.5t93 95.5l65 -63q-41 -37 -110 -80.5t-125 -70.5zM479 68l-7 -71q-115 -8 -196.5 11.5t-126 63t-64 99t-19.5 129.5q0 67 20.5 122t65.5 101.5t125.5 73.5t190.5 31l5 -80q-99 -1 -164 -17.5t-98.5 -49.5t-46 -72.5t-12.5 -97.5q0 -66 15 -110.5
t51.5 -77t100.5 -46t160 -9.5z" />
    <glyph glyph-name="cacute" unicode="&#x107;" 
d="M196 594q43 30 100 82.5t93 95.5l65 -63q-41 -37 -110 -80.5t-125 -70.5zM80 237q0 53 19.5 97t61 81t117 58.5t178.5 23.5l6 -77q-92 0 -153.5 -11.5t-93 -35.5t-43.5 -53.5t-12 -71.5q0 -102 68 -147t241 -37l-9 -68q-108 -7 -184 7.5t-118 49.5t-60 79.5t-18 104.5z
" />
    <glyph glyph-name="Cdotaccent" unicode="&#x10a;" 
d="M354 699h-83l3 136h85zM479 68l-7 -71q-115 -8 -196.5 11.5t-126 63t-64 99t-19.5 129.5q0 67 20.5 122t65.5 101.5t125.5 73.5t190.5 31l5 -80q-99 -1 -164 -17.5t-98.5 -49.5t-46 -72.5t-12.5 -97.5q0 -66 15 -110.5t51.5 -77t100.5 -46t160 -9.5z" />
    <glyph glyph-name="cdotaccent" unicode="&#x10b;" 
d="M343 569h-83l3 136h85zM80 237q0 53 19.5 97t61 81t117 58.5t178.5 23.5l6 -77q-92 0 -153.5 -11.5t-93 -35.5t-43.5 -53.5t-12 -71.5q0 -102 68 -147t241 -37l-9 -68q-108 -7 -184 7.5t-118 49.5t-60 79.5t-18 104.5z" />
    <glyph glyph-name="Ccaron" unicode="&#x10c;" 
d="M320 685h-4l-176 143l51 49l133 -113l131 112l41 -40zM479 68l-7 -71q-115 -8 -196.5 11.5t-126 63t-64 99t-19.5 129.5q0 67 20.5 122t65.5 101.5t125.5 73.5t190.5 31l5 -80q-99 -1 -164 -17.5t-98.5 -49.5t-46 -72.5t-12.5 -97.5q0 -66 15 -110.5t51.5 -77t100.5 -46
t160 -9.5z" />
    <glyph glyph-name="ccaron" unicode="&#x10d;" 
d="M309 555h-4l-176 143l51 49l133 -113l131 112l41 -40zM80 237q0 53 19.5 97t61 81t117 58.5t178.5 23.5l6 -77q-92 0 -153.5 -11.5t-93 -35.5t-43.5 -53.5t-12 -71.5q0 -102 68 -147t241 -37l-9 -68q-108 -7 -184 7.5t-118 49.5t-60 79.5t-18 104.5z" />
    <glyph glyph-name="Dcaron" unicode="&#x10e;" 
d="M274 691h-4l-176 143l51 49l133 -113l131 112l41 -40zM501 322q0 -185 -105 -269.5t-311 -53.5v622q222 31 319 -42t97 -257zM417 309q0 143 -58.5 202.5t-191.5 43.5v-489q128 -19 189 42t61 201z" />
    <glyph glyph-name="dcaron" unicode="&#x10f;" 
d="M525 565q44 106 11 237l91 1q17 -129 -65 -251zM271 55q57 0 109 42q-3 128 -3 321q-44 14 -81 14q-70 0 -115 -50.5t-45 -140.5q0 -91 37 -138.5t98 -47.5zM389 -2l-5 51q-65 -61 -144 -61q-81 0 -132.5 62.5t-51.5 169.5q0 129 80 205t197 76q23 0 44 -3v201l81 7v-218
q0 -331 7 -486z" />
    <glyph glyph-name="Dcroat" unicode="&#x110;" 
d="M501 322q0 -185 -105 -269.5t-311 -53.5v286h-70v59h70v277q222 31 319 -42t97 -257zM167 66q128 -19 189 42t61 201q0 143 -58.5 202.5t-191.5 43.5v-211h131l-3 -59h-128v-219z" />
    <glyph glyph-name="dcroat" unicode="&#x111;" 
d="M271 55q56 0 109 41q-2 102 -4 321q-44 14 -80 14q-70 0 -115 -50.5t-45 -139.5q0 -91 37 -138.5t98 -47.5zM389 -2l-5 51q-65 -61 -144 -61q-81 0 -132.5 62.5t-51.5 169.5q0 129 79.5 204t196.5 75q23 0 44 -3v82h-131v53h131v65l82 7v-72h69v-53h-69v-90
q0 -331 7 -486z" />
    <glyph glyph-name="Emacron" unicode="&#x112;" 
d="M461 804v-70h-334v70h334zM486 71l-8 -71h-373v620h376v-71h-293v-204h253v-63h-253v-211h298z" />
    <glyph glyph-name="emacron" unicode="&#x113;" 
d="M452 681v-70h-334v70h334zM456 -11q-113 0 -190 16.5t-120.5 49.5t-61.5 77t-18 106q0 111 67.5 187.5t163.5 76.5q99 0 148.5 -73.5t35.5 -196.5l-335 -8q6 -88 74.5 -125t243.5 -41zM283 435q-61 0 -97 -41.5t-40 -119.5q73 3 259 8q-1 72 -31.5 112.5t-90.5 40.5z" />
    <glyph glyph-name="Ebreve" unicode="&#x114;" 
d="M293 695q-105 0 -185 144l57 33q37 -60 67.5 -85.5t67.5 -25.5t69 26t69 81l48 -25q-90 -148 -193 -148zM486 71l-8 -71h-373v620h376v-71h-293v-204h253v-63h-253v-211h298z" />
    <glyph glyph-name="ebreve" unicode="&#x115;" 
d="M284 572q-105 0 -185 144l57 33q37 -60 67.5 -85.5t67.5 -25.5t69 26t69 81l48 -25q-90 -148 -193 -148zM456 -11q-113 0 -190 16.5t-120.5 49.5t-61.5 77t-18 106q0 111 67.5 187.5t163.5 76.5q99 0 148.5 -73.5t35.5 -196.5l-335 -8q6 -88 74.5 -125t243.5 -41z
M283 435q-61 0 -97 -41.5t-40 -119.5q73 3 259 8q-1 72 -31.5 112.5t-90.5 40.5z" />
    <glyph glyph-name="Edotaccent" unicode="&#x116;" 
d="M336 699h-83l3 136h85zM486 71l-8 -71h-373v620h376v-71h-293v-204h253v-63h-253v-211h298z" />
    <glyph glyph-name="edotaccent" unicode="&#x117;" 
d="M327 576h-83l3 136h85zM456 -11q-113 0 -190 16.5t-120.5 49.5t-61.5 77t-18 106q0 111 67.5 187.5t163.5 76.5q99 0 148.5 -73.5t35.5 -196.5l-335 -8q6 -88 74.5 -125t243.5 -41zM283 435q-61 0 -97 -41.5t-40 -119.5q73 3 259 8q-1 72 -31.5 112.5t-90.5 40.5z" />
    <glyph glyph-name="Eogonek" unicode="&#x118;" 
d="M464 -150l-7 -66q-185 15 -185 94q0 57 117 122h-284v620h376v-71h-293v-204h253v-63h-253v-211h298l-8 -71q-131 -62 -131 -102q0 -37 117 -48z" />
    <glyph glyph-name="eogonek" unicode="&#x119;" 
d="M432 -214q-185 14 -185 91q0 62 127 121q-166 4 -237 63.5t-71 176.5q0 111 67.5 187.5t163.5 76.5q99 0 148.5 -73.5t35.5 -196.5l-335 -8q6 -88 74.5 -125t243.5 -41l-8 -67q-133 -51 -133 -91q0 -38 117 -49zM283 435q-61 0 -97 -41.5t-40 -119.5q73 3 259 8
q-1 72 -31.5 112.5t-90.5 40.5z" />
    <glyph glyph-name="Ecaron" unicode="&#x11a;" 
d="M302 685h-4l-176 143l51 49l133 -113l131 112l41 -40zM486 71l-8 -71h-373v620h376v-71h-293v-204h253v-63h-253v-211h298z" />
    <glyph glyph-name="ecaron" unicode="&#x11b;" 
d="M293 562h-4l-176 143l51 49l133 -113l131 112l41 -40zM456 -11q-113 0 -190 16.5t-120.5 49.5t-61.5 77t-18 106q0 111 67.5 187.5t163.5 76.5q99 0 148.5 -73.5t35.5 -196.5l-335 -8q6 -88 74.5 -125t243.5 -41zM283 435q-61 0 -97 -41.5t-40 -119.5q73 3 259 8
q-1 72 -31.5 112.5t-90.5 40.5z" />
    <glyph glyph-name="Gbreve" unicode="&#x11e;" 
d="M291 695q-105 0 -185 144l57 33q37 -60 67.5 -85.5t67.5 -25.5t69 26t69 81l48 -25q-90 -148 -193 -148zM477 7q-212 -45 -317.5 35t-105.5 252q0 320 396 334l5 -80q-78 0 -135 -12t-91.5 -32t-55 -51.5t-27.5 -65t-7 -78.5q0 -131 60 -195t202 -55q-3 201 -3 252h78
q0 -264 1 -304z" />
    <glyph glyph-name="gbreve" unicode="&#x11f;" 
d="M286 571q-105 0 -185 144l57 33q37 -60 67.5 -85.5t67.5 -25.5t69 26t69 81l48 -25q-90 -148 -193 -148zM126 -173l-8 74q73 6 117 13.5t75.5 19t46 33t20 48t6.5 71.5q-62 -48 -140 -48q-81 0 -133 56t-52 151q0 115 76 185.5t185 70.5q68 0 143 -23q1 -39 1 -364
q0 -67 -15 -115t-52 -86t-104 -59.5t-166 -26.5zM273 103q56 0 110 34v80v113.5v86.5q-53 15 -93 15q-67 0 -109.5 -44.5t-42.5 -123.5q0 -78 37.5 -119.5t97.5 -41.5z" />
    <glyph glyph-name="Gdotaccent" unicode="&#x120;" 
d="M333 699h-83l3 136h85zM477 7q-212 -45 -317.5 35t-105.5 252q0 320 396 334l5 -80q-78 0 -135 -12t-91.5 -32t-55 -51.5t-27.5 -65t-7 -78.5q0 -131 60 -195t202 -55q-3 201 -3 252h78q0 -264 1 -304z" />
    <glyph glyph-name="gdotaccent" unicode="&#x121;" 
d="M329 575h-83l3 136h85zM126 -173l-8 74q73 6 117 13.5t75.5 19t46 33t20 48t6.5 71.5q-62 -48 -140 -48q-81 0 -133 56t-52 151q0 115 76 185.5t185 70.5q68 0 143 -23q1 -39 1 -364q0 -67 -15 -115t-52 -86t-104 -59.5t-166 -26.5zM273 103q56 0 110 34v80v113.5v86.5
q-53 15 -93 15q-67 0 -109.5 -44.5t-42.5 -123.5q0 -78 37.5 -119.5t97.5 -41.5z" />
    <glyph glyph-name="Gcommaaccent" unicode="&#x122;" 
d="M477 7q-212 -45 -317.5 35t-105.5 252q0 320 396 334l5 -80q-78 0 -135 -12t-91.5 -32t-55 -51.5t-27.5 -65t-7 -78.5q0 -131 60 -195t202 -55q-3 201 -3 252h78q0 -264 1 -304zM233 -273q44 93 6 192q3 0 50 2.5t50 2.5q7 -53 -9 -108.5t-56 -101.5z" />
    <glyph glyph-name="gcommaaccent" unicode="&#x123;" 
d="M342 768q-44 -93 -6 -192l-100 -5q-7 53 9 108.5t56 101.5zM126 -173l-8 74q73 6 117 13.5t75.5 19t46 33t20 48t6.5 71.5q-62 -48 -140 -48q-81 0 -133 56t-52 151q0 115 76 185.5t185 70.5q68 0 143 -23q1 -39 1 -364q0 -67 -15 -115t-52 -86t-104 -59.5t-166 -26.5z
M273 103q56 0 110 34v80v113.5v86.5q-53 15 -93 15q-67 0 -109.5 -44.5t-42.5 -123.5q0 -78 37.5 -119.5t97.5 -41.5z" />
    <glyph glyph-name="Hbar" unicode="&#x126;" 
d="M386 332v114h-222v-114h222zM386 0v268h-222v-268h-85v444h-70v58h70v118h85v-120h222v120h85v-118h70v-58h-70v-444h-85z" />
    <glyph glyph-name="hbar" unicode="&#x127;" 
d="M291 432q-60 0 -122 -40v-392h-81v578h-70v53h70v68l81 7v-75h131v-53h-131v-138q74 59 156 59q146 0 146 -167v-332h-81v305q0 68 -25 97.5t-74 29.5z" />
    <glyph glyph-name="Imacron" unicode="&#x12a;" 
d="M444 804v-70h-334v70h334zM316 554v-488h158l-6 -66h-388v66h153v488h-153v66h390v-66h-154z" />
    <glyph glyph-name="imacron" unicode="&#x12b;" 
d="M463 674v-70h-334v70h334zM514 0h-443v62h184v363l-183 8l6 57h258v-428h184z" />
    <glyph glyph-name="Ibreve" unicode="&#x12c;" 
d="M276 695q-105 0 -185 144l57 33q37 -60 67.5 -85.5t67.5 -25.5t69 26t69 81l48 -25q-90 -148 -193 -148zM316 554v-488h158l-6 -66h-388v66h153v488h-153v66h390v-66h-154z" />
    <glyph glyph-name="ibreve" unicode="&#x12d;" 
d="M295 565q-105 0 -185 144l57 33q37 -60 67.5 -85.5t67.5 -25.5t69 26t69 81l48 -25q-90 -148 -193 -148zM514 0h-443v62h184v363l-183 8l6 57h258v-428h184z" />
    <glyph glyph-name="Iogonek" unicode="&#x12e;" 
d="M353 -149l-8 -65q-185 15 -185 98q0 52 82 116h-162v66h153v488h-153v66h390v-66h-154v-488h158l-6 -66h-156q-76 -62 -76 -98q0 -39 117 -51z" />
    <glyph glyph-name="iogonek" unicode="&#x12f;" 
d="M332 569h-83l6 136h86zM364 -150l-8 -66q-185 15 -185 96q0 55 89 120h-189v62h184v363l-183 8l6 57h258v-428h184l-6 -62h-182q-85 -63 -85 -99q0 -40 117 -51z" />
    <glyph glyph-name="Idotaccent" unicode="&#x130;" 
d="M319 699h-83l3 136h85zM316 554v-488h158l-6 -66h-388v66h153v488h-153v66h390v-66h-154z" />
    <glyph glyph-name="dotlessi" unicode="&#x131;" 
d="M514 0h-443v62h184v363l-183 8l6 57h258v-428h184z" />
    <glyph glyph-name="Kcommaaccent" unicode="&#x136;" 
d="M428 -6l-190 285h-64v-279h-83v620h83v-273h68l173 273h89l-197 -303l212 -312zM216 -270q44 93 6 192q2 0 50 2.5t50 2.5q7 -53 -9 -108.5t-56 -101.5z" />
    <glyph glyph-name="kcommaaccent" unicode="&#x137;" 
d="M428 -6l-173 226l-73 -2v-218h-81v699l81 7v-428l76 2q88 103 162 212l83 -6q-97 -137 -177 -231l188 -249zM234 -270q44 93 6 192q2 0 50 2.5t50 2.5q7 -53 -9 -108.5t-56 -101.5z" />
    <glyph glyph-name="Lacute" unicode="&#x139;" 
d="M197 724q43 30 100 82.5t93 95.5l65 -63q-41 -37 -110 -80.5t-125 -70.5zM490 0h-377v620h84v-549h301z" />
    <glyph glyph-name="lacute" unicode="&#x13a;" 
d="M173 802q43 30 99.5 82.5t93.5 95.5l65 -63q-41 -37 -110 -80.5t-125 -70.5zM472 0h-394v62h159v571l-151 7l7 58h226v-636h160z" />
    <glyph glyph-name="Lcommaaccent" unicode="&#x13b;" 
d="M490 0h-377v620h84v-549h301zM244 -264q44 93 6 192q2 0 50 2.5t50 2.5q7 -53 -9 -108.5t-56 -101.5z" />
    <glyph glyph-name="lcommaaccent" unicode="&#x13c;" 
d="M472 0h-394v62h159v571l-151 7l7 58h226v-636h160zM220 -264q44 93 6 192q2 0 50 2.5t50 2.5q7 -53 -9 -108.5t-56 -101.5z" />
    <glyph glyph-name="Lcaron" unicode="&#x13d;" 
d="M368 463q44 106 11 237l91 1q17 -129 -65 -251zM490 0h-377v620h84v-549h301z" />
    <glyph glyph-name="lcaron" unicode="&#x13e;" 
d="M434 565q44 106 11 237l91 1q17 -129 -65 -251zM472 0h-394v62h159v571l-151 7l7 58h226v-636h160z" />
    <glyph glyph-name="Ldot" unicode="&#x13f;" 
d="M490 0h-377v620h84v-549h301zM473 266h-92l6 108h92z" />
    <glyph glyph-name="ldot" unicode="&#x140;" 
d="M472 0h-394v62h159v571l-151 7l7 58h226v-636h160zM596 265h-92l6 109h91z" />
    <glyph glyph-name="Lslash" unicode="&#x141;" 
d="M490 0h-377v294l-68 -35l-14 57l82 42v262h84v-219l137 71l14 -57l-151 -78v-266h301z" />
    <glyph glyph-name="lslash" unicode="&#x142;" 
d="M472 0h-394v62h159v251l-115 -59l-13 55l128 66v258l-151 7l7 58h226v-280l109 56l13 -55l-122 -63v-294h160z" />
    <glyph glyph-name="Nacute" unicode="&#x143;" 
d="M169 724q43 30 100 82.5t93 95.5l65 -63q-41 -37 -110 -80.5t-125 -70.5zM392 0l-233 481h-5l3 -481h-77v620h87l225 -472h4l-3 472h78v-620h-79z" />
    <glyph glyph-name="nacute" unicode="&#x144;" 
d="M171 606q43 30 100 82.5t93 95.5l65 -63q-41 -37 -110 -80.5t-125 -70.5zM291 432q-63 0 -126 -43q4 -178 4 -389h-81q0 329 -7 487l75 5l5 -56q78 65 164 65q146 0 146 -169v-332h-81v305q0 68 -25 97.5t-74 29.5z" />
    <glyph glyph-name="Ncommaaccent" unicode="&#x145;" 
d="M392 0l-233 481h-5l3 -481h-77v620h87l225 -472h4l-3 472h78v-620h-79zM215 -264q44 93 6 192q2 0 49.5 2.5t50.5 2.5q7 -53 -9 -108.5t-56 -101.5z" />
    <glyph glyph-name="ncommaaccent" unicode="&#x146;" 
d="M291 432q-63 0 -126 -43q4 -178 4 -389h-81q0 329 -7 487l75 5l5 -56q78 65 164 65q146 0 146 -169v-332h-81v305q0 68 -25 97.5t-74 29.5zM232 -264q44 93 6 192q2 0 49.5 2.5t50.5 2.5q7 -53 -9 -108.5t-56 -101.5z" />
    <glyph glyph-name="Ncaron" unicode="&#x147;" 
d="M282 685h-4l-176 143l51 49l133 -113l131 112l41 -40zM392 0l-233 481h-5l3 -481h-77v620h87l225 -472h4l-3 472h78v-620h-79z" />
    <glyph glyph-name="ncaron" unicode="&#x148;" 
d="M284 567h-4l-176 143l51 49l133 -113l131 112l41 -40zM291 432q-63 0 -126 -43q4 -178 4 -389h-81q0 329 -7 487l75 5l5 -56q78 65 164 65q146 0 146 -169v-332h-81v305q0 68 -25 97.5t-74 29.5z" />
    <glyph glyph-name="Omacron" unicode="&#x14c;" 
d="M445 811v-70h-334v70h334zM264 -15q-104 0 -161 81t-57 230q0 162 64 250.5t176 88.5q104 0 161 -80.5t57 -230.5q1 -161 -63.5 -250t-176.5 -89zM272 566q-141 0 -141 -252q0 -127 37.5 -193.5t109.5 -66.5q141 0 141 252q0 127 -38 193.5t-109 66.5z" />
    <glyph glyph-name="omacron" unicode="&#x14d;" 
d="M442 679v-70h-334v70h334zM264 -14q-93 0 -151 67t-58 183q0 117 67.5 192t164.5 75q93 0 150.5 -66.5t57.5 -182.5q0 -119 -67 -193.5t-164 -74.5zM277 53q62 0 99.5 48.5t37.5 137.5q0 94 -38.5 146t-102.5 52q-61 0 -98.5 -49t-37.5 -137q0 -94 38 -146t102 -52z" />
    <glyph glyph-name="Obreve" unicode="&#x14e;" 
d="M277 702q-105 0 -185 144l57 33q37 -60 67.5 -85.5t67.5 -25.5t69 26t69 81l48 -25q-90 -148 -193 -148zM264 -15q-104 0 -161 81t-57 230q0 162 64 250.5t176 88.5q104 0 161 -80.5t57 -230.5q1 -161 -63.5 -250t-176.5 -89zM272 566q-141 0 -141 -252
q0 -127 37.5 -193.5t109.5 -66.5q141 0 141 252q0 127 -38 193.5t-109 66.5z" />
    <glyph glyph-name="obreve" unicode="&#x14f;" 
d="M274 570q-105 0 -185 144l57 33q37 -60 67.5 -85.5t67.5 -25.5t69 26t69 81l48 -25q-90 -148 -193 -148zM264 -14q-93 0 -151 67t-58 183q0 117 67.5 192t164.5 75q93 0 150.5 -66.5t57.5 -182.5q0 -119 -67 -193.5t-164 -74.5zM277 53q62 0 99.5 48.5t37.5 137.5
q0 94 -38.5 146t-102.5 52q-61 0 -98.5 -49t-37.5 -137q0 -94 38 -146t102 -52z" />
    <glyph glyph-name="Ohungarumlaut" unicode="&#x150;" 
d="M130 723q64 92 106 199l81 -39q-59 -97 -148 -186zM338 721q65 96 104 196l84 -35q-63 -100 -149 -185zM264 -15q-104 0 -161 81t-57 230q0 162 64 250.5t176 88.5q104 0 161 -80.5t57 -230.5q1 -161 -63.5 -250t-176.5 -89zM272 566q-141 0 -141 -252
q0 -127 37.5 -193.5t109.5 -66.5q141 0 141 252q0 127 -38 193.5t-109 66.5z" />
    <glyph glyph-name="ohungarumlaut" unicode="&#x151;" 
d="M127 591q64 92 106 199l81 -39q-59 -97 -148 -186zM335 589q65 96 104 196l84 -35q-63 -100 -149 -185zM264 -14q-93 0 -151 67t-58 183q0 117 67.5 192t164.5 75q93 0 150.5 -66.5t57.5 -182.5q0 -119 -67 -193.5t-164 -74.5zM277 53q62 0 99.5 48.5t37.5 137.5
q0 94 -38.5 146t-102.5 52q-61 0 -98.5 -49t-37.5 -137q0 -94 38 -146t102 -52z" />
    <glyph glyph-name="OE" unicode="&#x152;" 
d="M120 312q0 -128 35.5 -184.5t114.5 -56.5v477q-77 -1 -113.5 -57t-36.5 -179zM510 71l-6 -71h-212q-131 0 -193 72t-62 226q0 157 64.5 239.5t192.5 82.5h212v-71h-164v-204h137v-63h-137v-211h168z" />
    <glyph glyph-name="oe" unicode="&#x153;" 
d="M384 431q-59 0 -63 -155l123 5q0 76 -13.5 113t-46.5 37zM187 59q66 0 66 180q0 91 -19.5 141t-53.5 50q-68 0 -68 -178q0 -193 75 -193zM500 -6q-164 1 -213 93q-38 -94 -116 -94q-65 0 -102 60.5t-37 179.5q0 124 42 193.5t113 69.5q70 0 103 -80q38 80 108 80
q133 0 116 -265l-193 -5q3 -91 40.5 -126.5t146.5 -38.5z" />
    <glyph glyph-name="Racute" unicode="&#x154;" 
d="M159 732q43 30 100 82.5t93 95.5l65 -63q-41 -37 -110 -80.5t-125 -70.5zM428 -10l-126 240l-127 -4v-226h-83v619q381 56 381 -167q0 -106 -104 -181l148 -268zM175 555v-268l135 4q81 54 81 143q0 71 -53.5 104t-162.5 17z" />
    <glyph glyph-name="racute" unicode="&#x155;" 
d="M193 602q43 30 100 82.5t93 95.5l65 -63q-41 -37 -110 -80.5t-125 -70.5zM435 0h-368v62h130q-4 296 -6 363l-124 7l6 58h190q4 -42 6 -84q82 85 224 102l4 -86q-142 -11 -225 -65q0 -27 1.5 -128.5t2.5 -166.5h166z" />
    <glyph glyph-name="Rcommaaccent" unicode="&#x156;" 
d="M428 -10l-126 240l-127 -4v-226h-83v619q381 56 381 -167q0 -106 -104 -181l148 -268zM175 555v-268l135 4q81 54 81 143q0 71 -53.5 104t-162.5 17zM240 -274q44 93 6 192q2 0 50 2.5t50 2.5q7 -53 -9 -108.5t-56 -101.5z" />
    <glyph glyph-name="rcommaaccent" unicode="&#x157;" 
d="M435 0h-368v62h130q-4 296 -6 363l-124 7l6 58h190q4 -42 6 -84q82 85 224 102l4 -86q-142 -11 -225 -65q0 -27 1.5 -128.5t2.5 -166.5h166zM199 -264q44 93 6 192q3 0 50 2.5t50 2.5q7 -53 -9 -108.5t-56 -101.5z" />
    <glyph glyph-name="Rcaron" unicode="&#x158;" 
d="M272 693h-4l-176 143l51 49l133 -113l131 112l41 -40zM428 -10l-126 240l-127 -4v-226h-83v619q381 56 381 -167q0 -106 -104 -181l148 -268zM175 555v-268l135 4q81 54 81 143q0 71 -53.5 104t-162.5 17z" />
    <glyph glyph-name="rcaron" unicode="&#x159;" 
d="M306 563h-4l-176 143l51 49l133 -113l131 112l41 -40zM435 0h-368v62h130q-4 296 -6 363l-124 7l6 58h190q4 -42 6 -84q82 85 224 102l4 -86q-142 -11 -225 -65q0 -27 1.5 -128.5t2.5 -166.5h166z" />
    <glyph glyph-name="Sacute" unicode="&#x15a;" 
d="M188 728q43 30 99.5 82.5t93.5 95.5l65 -63q-41 -37 -110 -80.5t-125 -70.5zM86 71q158 -13 233 14t75 77q0 31 -32 60t-77.5 53t-90.5 49t-77 60t-32 75q0 75 88.5 125.5t265.5 40.5l5 -77q-274 19 -274 -76q0 -29 32 -57t77 -52t90.5 -50t77.5 -62t32 -77
q0 -81 -97.5 -136t-296.5 -44z" />
    <glyph glyph-name="sacute" unicode="&#x15b;" 
d="M173 595q43 30 99.5 82.5t93.5 95.5l65 -63q-41 -37 -110 -80.5t-125 -70.5zM437 494l3 -72q-255 23 -255 -56q0 -22 28.5 -42t69 -37.5t81 -37t69 -48t28.5 -63.5q0 -69 -86 -110.5t-276 -31.5l3 72q275 -22 275 63q0 24 -28 44.5t-68.5 37t-81 35t-68.5 46t-28 61.5
q0 67 80.5 109.5t253.5 29.5z" />
    <glyph glyph-name="Scedilla" unicode="&#x15e;" 
d="M177 -225l-6 64q117 17 117 48q0 34 -94 90l9 17q-54 -3 -118 0l1 77q158 -13 233 14t75 77q0 31 -32 60t-77.5 53t-90.5 49t-77 60t-32 75q0 75 88.5 125.5t265.5 40.5l5 -77q-274 19 -274 -76q0 -29 32 -57t77 -52t90.5 -50t77.5 -62t32 -77q0 -61 -56 -109.5
t-171 -64.5q108 -61 108 -121q0 -38 -46.5 -65.5t-136.5 -38.5z" />
    <glyph glyph-name="scedilla" unicode="&#x15f;" 
d="M188 -224l-6 64q117 17 117 48q0 34 -94 90l9 17q-57 -2 -115 1l3 72q275 -22 275 63q0 24 -28 44.5t-68.5 37t-81 35t-68.5 46t-28 61.5q0 67 80.5 109.5t253.5 29.5l3 -72q-255 23 -255 -56q0 -22 28.5 -42t69 -37.5t81 -37t69 -48t28.5 -63.5q0 -50 -47 -87.5
t-149 -50.5q106 -61 106 -120q0 -38 -46.5 -65.5t-136.5 -38.5z" />
    <glyph glyph-name="Scaron" unicode="&#x160;" 
d="M301 689h-4l-176 143l51 49l133 -113l131 112l41 -40zM86 71q158 -13 233 14t75 77q0 31 -32 60t-77.5 53t-90.5 49t-77 60t-32 75q0 75 88.5 125.5t265.5 40.5l5 -77q-274 19 -274 -76q0 -29 32 -57t77 -52t90.5 -50t77.5 -62t32 -77q0 -81 -97.5 -136t-296.5 -44z" />
    <glyph glyph-name="scaron" unicode="&#x161;" 
d="M286 556h-4l-176 143l51 49l133 -113l131 112l41 -40zM437 494l3 -72q-255 23 -255 -56q0 -22 28.5 -42t69 -37.5t81 -37t69 -48t28.5 -63.5q0 -69 -86 -110.5t-276 -31.5l3 72q275 -22 275 63q0 24 -28 44.5t-68.5 37t-81 35t-68.5 46t-28 61.5q0 67 80.5 109.5
t253.5 29.5z" />
    <glyph glyph-name="Tcommaaccent" unicode="&#x162;" 
d="M318 549v-549h-84v549h-195l7 71h463v-71h-191zM214 -264q44 93 6 192q2 0 50 2.5t50 2.5q7 -53 -9 -108.5t-56 -101.5z" />
    <glyph glyph-name="tcommaaccent" unicode="&#x163;" 
d="M460 -8q-157 -2 -220 35.5t-63 129.5v270h-101l8 63h93v136l81 7v-143h200v-63h-200v-257q0 -63 43.5 -85.5t167.5 -24.5zM252 -272q44 93 6 192q2 0 50 2.5t50 2.5q7 -53 -9 -108.5t-56 -101.5z" />
    <glyph glyph-name="Tcaron" unicode="&#x164;" 
d="M280 685h-4l-176 143l51 49l133 -113l131 112l41 -40zM318 549v-549h-84v549h-195l7 71h463v-71h-191z" />
    <glyph glyph-name="tcaron" unicode="&#x165;" 
d="M355 593q44 106 11 237l91 1q17 -129 -65 -251zM460 -8q-157 -2 -220 35.5t-63 129.5v270h-101l8 63h93v136l81 7v-143h200v-63h-200v-257q0 -63 43.5 -85.5t167.5 -24.5z" />
    <glyph glyph-name="Umacron" unicode="&#x16a;" 
d="M442 804v-70h-334v70h334zM270 -15q-92 0 -143.5 56t-51.5 159v420h84v-414q0 -149 119 -149q58 0 85.5 32t27.5 102v429h83v-416q0 -104 -54 -161.5t-150 -57.5z" />
    <glyph glyph-name="umacron" unicode="&#x16b;" 
d="M444 677v-70h-334v70h334zM394 -2l-5 56q-80 -66 -163 -66q-144 0 -144 170v329l81 6v-308q0 -69 24.5 -98.5t72.5 -29.5q63 0 125 45q-4 176 -4 388h81q0 -329 7 -487z" />
    <glyph glyph-name="Ubreve" unicode="&#x16c;" 
d="M274 695q-105 0 -185 144l57 33q37 -60 67.5 -85.5t67.5 -25.5t69 26t69 81l48 -25q-90 -148 -193 -148zM270 -15q-92 0 -143.5 56t-51.5 159v420h84v-414q0 -149 119 -149q58 0 85.5 32t27.5 102v429h83v-416q0 -104 -54 -161.5t-150 -57.5z" />
    <glyph glyph-name="ubreve" unicode="&#x16d;" 
d="M277 568q-105 0 -185 144l57 33q37 -60 67.5 -85.5t67.5 -25.5t69 26t69 81l48 -25q-90 -148 -193 -148zM394 -2l-5 56q-80 -66 -163 -66q-144 0 -144 170v329l81 6v-308q0 -69 24.5 -98.5t72.5 -29.5q63 0 125 45q-4 176 -4 388h81q0 -329 7 -487z" />
    <glyph glyph-name="Uring" unicode="&#x16e;" 
d="M274 890q57 0 94.5 -30.5t37.5 -73.5q0 -47 -36.5 -77.5t-95.5 -30.5q-57 0 -94 30t-37 74q0 47 36 77.5t95 30.5zM270 -15q-92 0 -143.5 56t-51.5 159v420h84v-414q0 -149 119 -149q58 0 85.5 32t27.5 102v429h83v-416q0 -104 -54 -161.5t-150 -57.5z" />
    <glyph glyph-name="uring" unicode="&#x16f;" 
d="M276 763q57 0 94.5 -30.5t37.5 -73.5q0 -47 -36.5 -77.5t-95.5 -30.5q-57 0 -94 30t-37 74q0 47 36 77.5t95 30.5zM394 -2l-5 56q-80 -66 -163 -66q-144 0 -144 170v329l81 6v-308q0 -69 24.5 -98.5t72.5 -29.5q63 0 125 45q-4 176 -4 388h81q0 -329 7 -487z" />
    <glyph glyph-name="Uhungarumlaut" unicode="&#x170;" 
d="M126 716q64 92 106 199l81 -39q-59 -97 -148 -186zM334 714q65 96 104 196l84 -35q-63 -100 -149 -185zM270 -15q-92 0 -143.5 56t-51.5 159v420h84v-414q0 -149 119 -149q58 0 85.5 32t27.5 102v429h83v-416q0 -104 -54 -161.5t-150 -57.5z" />
    <glyph glyph-name="uhungarumlaut" unicode="&#x171;" 
d="M129 589q64 92 106 199l81 -39q-59 -97 -148 -186zM337 587q65 96 104 196l84 -35q-63 -100 -149 -185zM394 -2l-5 56q-80 -66 -163 -66q-144 0 -144 170v329l81 6v-308q0 -69 24.5 -98.5t72.5 -29.5q63 0 125 45q-4 176 -4 388h81q0 -329 7 -487z" />
    <glyph glyph-name="Uogonek" unicode="&#x172;" 
d="M366 -216q-185 15 -185 94q0 54 84 106q-92 5 -141 60.5t-49 155.5v420h84v-414q0 -149 119 -149q58 0 85.5 32t27.5 102v429h83v-416q0 -70 -23.5 -115t-76.5 -80q-67 -44 -92.5 -66.5t-25.5 -42.5q0 -39 117 -50z" />
    <glyph glyph-name="uogonek" unicode="&#x173;" 
d="M447 -213q-185 14 -185 93q0 61 131 129l-5 69q-79 -90 -165 -90q-141 0 -141 170v329l81 6v-308q0 -69 23.5 -98.5t70.5 -29.5q63 0 128 70q-4 172 -4 363h81q0 -329 7 -487q-131 -62 -131 -102q0 -37 117 -49z" />
    <glyph glyph-name="Wcircumflex" unicode="&#x174;" 
d="M406 690l-133 114l-132 -113l-40 39l176 153h4l176 -144zM364 0l-90 330l-87 -330h-88q-29 224 -48 620h82q15 -371 29 -514h4q11 40 86 330h50q40 -150 89 -330h3q11 98 28 514h78q-19 -383 -49 -620h-87z" />
    <glyph glyph-name="wcircumflex" unicode="&#x175;" 
d="M403 560l-133 114l-132 -113l-40 39l176 153h4l176 -144zM368 0l-94 274l-93 -274h-73q-34 217 -50 490h80q11 -212 24 -388h4q4 12 43 126.5t43 127.5h50q3 -11 43 -124.5t45 -131.5h4q14 236 22 390h76q-16 -263 -49 -490h-75z" />
    <glyph glyph-name="Ycircumflex" unicode="&#x176;" 
d="M405 692l-133 114l-132 -113l-40 39l176 153h4l176 -144zM318 0h-84v206l-201 412l89 4l156 -336l153 334h86l-199 -414v-206z" />
    <glyph glyph-name="ycircumflex" unicode="&#x177;" 
d="M409 563l-133 114l-132 -113l-40 39l176 153h4l176 -144zM70 -178l-7 75q94 14 128.5 35t59.5 81l-9 2q-70 152 -200 472l83 5q102 -260 160 -392h10q19 52 70 204.5t63 185.5h78q-75 -222 -157 -429q-50 -132 -103 -178t-176 -61z" />
    <glyph glyph-name="Ydieresis" unicode="&#x178;" 
d="M430 701h-82l1 136h83zM210 701h-82l1 136h83zM318 0h-84v206l-201 412l89 4l156 -336l153 334h86l-199 -414v-206z" />
    <glyph glyph-name="Zacute" unicode="&#x179;" 
d="M182 724q43 30 99.5 82.5t93.5 95.5l65 -63q-41 -37 -110 -80.5t-125 -70.5zM481 0h-414v71l325 477l-321 -1l6 73h404v-71l-323 -477l330 1z" />
    <glyph glyph-name="zacute" unicode="&#x17a;" 
d="M179 594q43 30 99.5 82.5t93.5 95.5l65 -63q-41 -37 -110 -80.5t-125 -70.5zM480 0h-407v69l311 351l-308 -2l6 72h395v-68l-311 -352l320 2z" />
    <glyph glyph-name="Zdotaccent" unicode="&#x17b;" 
d="M329 699h-83l3 136h85zM481 0h-414v71l325 477l-321 -1l6 73h404v-71l-323 -477l330 1z" />
    <glyph glyph-name="zdotaccent" unicode="&#x17c;" 
d="M326 569h-83l3 136h85zM480 0h-407v69l311 351l-308 -2l6 72h395v-68l-311 -352l320 2z" />
    <glyph glyph-name="Zcaron" unicode="&#x17d;" 
d="M295 685h-4l-176 143l51 49l133 -113l131 112l41 -40zM481 0h-414v71l325 477l-321 -1l6 73h404v-71l-323 -477l330 1z" />
    <glyph glyph-name="zcaron" unicode="&#x17e;" 
d="M292 555h-4l-176 143l51 49l133 -113l131 112l41 -40zM480 0h-407v69l311 351l-308 -2l6 72h395v-68l-311 -352l320 2z" />
    <glyph glyph-name="Aringacute" unicode="&#x1fa;" 
d="M169 966q43 30 100 82.5t93 95.5l65 -63q-41 -37 -110 -80.5t-125 -70.5zM272 890q57 0 94.5 -30.5t37.5 -73.5q0 -47 -36.5 -77.5t-95.5 -30.5q-57 0 -94 30t-37 74q0 47 36 77.5t95 30.5zM430 -3q-39 146 -52 193h-209q-9 -32 -25 -95t-25 -95h-83q96 349 181 622h116
q89 -284 181 -619zM270 551q-17 -59 -47.5 -167.5t-36.5 -130.5h175q-58 213 -83 298h-8z" />
    <glyph glyph-name="aringacute" unicode="&#x1fb;" 
d="M168 842q43 30 99.5 82.5t93.5 95.5l65 -63q-41 -37 -110 -80.5t-125 -70.5zM272 764q57 0 94.5 -30.5t37.5 -73.5q0 -47 -36.5 -77.5t-95.5 -30.5q-57 0 -94 30t-37 74q0 47 36 77.5t95 30.5zM248 52q72 0 139 53q-2 64 -2 116q-238 25 -238 -87q0 -39 27.5 -60.5
t73.5 -21.5zM398 -3q0 2 -3 26t-4 37q-78 -72 -174 -72q-68 0 -109 34t-41 93q0 80 81 126.5t236 37.5q-5 84 -63.5 114t-224.5 36l9 70q144 -4 220 -29t107.5 -77.5t31.5 -149.5q0 -101 8 -241z" />
    <glyph glyph-name="AEacute" unicode="&#x1fc;" 
d="M214 724q43 30 99.5 82.5t93.5 95.5l65 -63q-41 -37 -110 -80.5t-125 -70.5zM256 549q-18 -57 -52 -165t-44 -140h102v305h-6zM262 0v182h-121q-38 -122 -56 -182h-81q60 192 203 620h301v-71h-173v-204h146v-63h-146v-211h177l-6 -71h-244z" />
    <glyph glyph-name="aeacute" unicode="&#x1fd;" 
d="M170 594q43 30 99.5 82.5t93.5 95.5l65 -63q-41 -37 -110 -80.5t-125 -70.5zM375 429q-67 0 -71 -154l135 2q2 152 -64 152zM169 58q46 0 80 52q-15 44 -15 113q-124 0 -124 -88q0 -38 16 -57.5t43 -19.5zM497 -6q-174 1 -228 75q-49 -76 -129 -76q-47 0 -76.5 33
t-29.5 90q0 155 200 159q-2 87 -36 115t-143 35l6 69q92 -5 139 -23.5t67 -60.5q39 86 120 86q69 0 101.5 -70.5t24.5 -196.5l-209 -5q1 -60 16 -92.5t58 -50t126 -19.5z" />
    <glyph glyph-name="Oslashacute" unicode="&#x1fe;" 
d="M170 732q43 30 99.5 82.5t93.5 95.5l65 -63q-41 -37 -110 -80.5t-125 -70.5zM130 314q0 -104 26 -170l209 380q-36 42 -93 42q-142 0 -142 -252zM278 54q142 0 142 252q0 106 -26 170l-209 -380q35 -42 93 -42zM264 -15q-66 0 -115 34l-30 -55l-52 28l39 70
q-60 82 -60 234q0 162 64 250.5t176 88.5q68 0 117 -35l29 56l53 -28l-39 -71q58 -81 58 -233q1 -161 -63.5 -250t-176.5 -89z" />
    <glyph glyph-name="oslashacute" unicode="&#x1ff;" 
d="M170 599q43 30 99.5 82.5t93.5 95.5l65 -63q-41 -37 -110 -80.5t-125 -70.5zM136 251q0 -77 27 -128l195 282q-35 32 -85 32q-62 0 -99.5 -48.5t-37.5 -137.5zM277 52q63 0 100.5 48.5t37.5 138.5q0 76 -26 125l-195 -282q33 -30 83 -30zM264 -14q-63 0 -112 32l-36 -52
l-48 32l42 59q-55 68 -55 179q0 117 67.5 192t164.5 75q65 0 113 -33l37 53l48 -32l-42 -61q52 -66 52 -176q0 -119 -67 -193.5t-164 -74.5z" />
    <glyph glyph-name="Scommaaccent" unicode="&#x218;" 
d="M86 71q158 -13 233 14t75 77q0 31 -32 60t-77.5 53t-90.5 49t-77 60t-32 75q0 75 88.5 125.5t265.5 40.5l5 -77q-274 19 -274 -76q0 -29 32 -57t77 -52t90.5 -50t77.5 -62t32 -77q0 -81 -97.5 -136t-296.5 -44zM214 -275q44 93 6 192q2 0 50 2.5t50 2.5q7 -53 -9 -108.5
t-56 -101.5z" />
    <glyph glyph-name="scommaaccent" unicode="&#x219;" 
d="M437 494l3 -72q-255 23 -255 -56q0 -22 28.5 -42t69 -37.5t81 -37t69 -48t28.5 -63.5q0 -69 -86 -110.5t-276 -31.5l3 72q275 -22 275 63q0 24 -28 44.5t-68.5 37t-81 35t-68.5 46t-28 61.5q0 67 80.5 109.5t253.5 29.5zM209 -274q44 93 6 192q2 0 49.5 2.5t50.5 2.5
q7 -53 -9 -108.5t-56 -101.5z" />
    <glyph glyph-name="schwa" unicode="&#x259;" 
d="M253 -12q-99 0 -148 73.5t-35 195.5l334 9q-6 88 -75 125t-243 41l9 69q149 0 236.5 -30.5t120.5 -82.5t33 -136q0 -111 -68 -187.5t-164 -76.5zM268 55q60 0 96 41.5t40 119.5q-81 -3 -259 -8q1 -72 32 -112.5t91 -40.5z" />
    <glyph glyph-name="circumflex" unicode="&#x2c6;" 
d="M402 560l-133 114l-132 -113l-40 39l176 153h4l176 -144z" />
    <glyph glyph-name="caron" unicode="&#x2c7;" 
d="M277 555h-4l-176 143l51 49l133 -113l131 112l41 -40z" />
    <glyph glyph-name="breve" unicode="&#x2d8;" 
d="M272 565q-105 0 -185 144l57 33q37 -60 67.5 -85.5t67.5 -25.5t69 26t69 81l48 -25q-90 -148 -193 -148z" />
    <glyph glyph-name="dotaccent" unicode="&#x2d9;" 
d="M314 569h-83l3 136h85z" />
    <glyph glyph-name="ring" unicode="&#x2da;" 
d="M283 760q57 0 94.5 -30.5t37.5 -73.5q0 -47 -36.5 -77.5t-95.5 -30.5q-57 0 -94 30t-37 74q0 47 36 77.5t95 30.5z" />
    <glyph glyph-name="ogonek" unicode="&#x2db;" 
d="M355 34l22 -34q-131 -62 -131 -102q0 -37 117 -48l-7 -66q-185 15 -185 94q0 36 42.5 73t141.5 83z" />
    <glyph glyph-name="tilde" unicode="&#x2dc;" 
d="M345 567q-27 0 -55 25t-51.5 50t-40.5 25q-35 0 -78 -92l-45 20q57 139 132 139q22 0 44 -16t37.5 -34.5t33.5 -34.5t32 -16q34 0 77 93l46 -20q-59 -139 -132 -139z" />
    <glyph glyph-name="hungarumlaut" unicode="&#x2dd;" 
d="M127 586q64 92 106 199l81 -39q-59 -97 -148 -186zM335 584q65 96 104 196l84 -35q-63 -100 -149 -185z" />
    <glyph glyph-name="commaaccent" unicode="&#x326;" 
d="M211 -264q44 93 6 192q3 0 50.5 2.5t49.5 2.5q7 -53 -9 -108.5t-56 -101.5z" />
    <glyph glyph-name="Wgrave" unicode="&#x1e80;" 
d="M379 718l-24 -36q-128 66 -233 149l60 67q37 -40 96.5 -94t100.5 -86zM364 0l-90 330l-87 -330h-88q-29 224 -48 620h82q15 -371 29 -514h4q11 40 86 330h50q40 -150 89 -330h3q11 98 28 514h78q-19 -383 -49 -620h-87z" />
    <glyph glyph-name="wgrave" unicode="&#x1e81;" 
d="M376 588l-24 -36q-128 66 -233 149l60 67q37 -40 96.5 -94t100.5 -86zM368 0l-94 274l-93 -274h-73q-34 217 -50 490h80q11 -212 24 -388h4q4 12 43 126.5t43 127.5h50q3 -11 43 -124.5t45 -131.5h4q14 236 22 390h76q-16 -263 -49 -490h-75z" />
    <glyph glyph-name="Wacute" unicode="&#x1e82;" 
d="M174 724q43 30 100 82.5t93 95.5l65 -63q-41 -37 -110 -80.5t-125 -70.5zM364 0l-90 330l-87 -330h-88q-29 224 -48 620h82q15 -371 29 -514h4q11 40 86 330h50q40 -150 89 -330h3q11 98 28 514h78q-19 -383 -49 -620h-87z" />
    <glyph glyph-name="wacute" unicode="&#x1e83;" 
d="M170 594q43 30 99.5 82.5t93.5 95.5l65 -63q-41 -37 -110 -80.5t-125 -70.5zM368 0l-94 274l-93 -274h-73q-34 217 -50 490h80q11 -212 24 -388h4q4 12 43 126.5t43 127.5h50q3 -11 43 -124.5t45 -131.5h4q14 236 22 390h76q-16 -263 -49 -490h-75z" />
    <glyph glyph-name="Wdieresis" unicode="&#x1e84;" 
d="M431 699h-82l1 136h83zM211 699h-82l1 136h83zM364 0l-90 330l-87 -330h-88q-29 224 -48 620h82q15 -371 29 -514h4q11 40 86 330h50q40 -150 89 -330h3q11 98 28 514h78q-19 -383 -49 -620h-87z" />
    <glyph glyph-name="wdieresis" unicode="&#x1e85;" 
d="M427 569h-82l1 136h83zM207 569h-82l1 136h83zM368 0l-94 274l-93 -274h-73q-34 217 -50 490h80q11 -212 24 -388h4q4 12 43 126.5t43 127.5h50q3 -11 43 -124.5t45 -131.5h4q14 236 22 390h76q-16 -263 -49 -490h-75z" />
    <glyph glyph-name="Ygrave" unicode="&#x1ef2;" 
d="M378 720l-24 -36q-128 66 -233 149l60 67q37 -40 96.5 -94t100.5 -86zM318 0h-84v206l-201 412l89 4l156 -336l153 334h86l-199 -414v-206z" />
    <glyph glyph-name="ygrave" unicode="&#x1ef3;" 
d="M382 591l-24 -36q-128 66 -233 149l60 67q37 -40 96.5 -94t100.5 -86zM70 -178l-7 75q94 14 128.5 35t59.5 81l-9 2q-70 152 -200 472l83 5q102 -260 160 -392h10q19 52 70 204.5t63 185.5h78q-75 -222 -157 -429q-50 -132 -103 -178t-176 -61z" />
    <glyph glyph-name="endash" unicode="&#x2013;" 
d="M481 324l-7 -62h-400v62h407z" />
    <glyph glyph-name="emdash" unicode="&#x2014;" 
d="M499 324l-5 -62h-439v62h444z" />
    <glyph glyph-name="quoteleft" unicode="&#x2018;" 
d="M357 676q-98 -120 -22 -288l-109 -8q-27 89 -3 167t91 143z" />
    <glyph glyph-name="quoteright" unicode="&#x2019;" 
d="M207 374q97 120 21 288l110 8q26 -88 2.5 -167.5t-90.5 -142.5z" />
    <glyph glyph-name="quotesinglbase" unicode="&#x201a;" 
d="M201 -172q100 120 22 288l111 6q26 -86 1.5 -164t-91.5 -143z" />
    <glyph glyph-name="quotedblleft" unicode="&#x201c;" 
d="M457 676q-90 -118 -15 -288l-108 -8q-25 85 -3 165.5t86 144.5zM246 676q-91 -118 -20 -288l-107 -8q-24 86 -1 166.5t88 143.5z" />
    <glyph glyph-name="quotedblright" unicode="&#x201d;" 
d="M104 373q90 118 16 289l108 7q24 -84 2 -165t-85 -144zM316 374q92 119 20 288l108 7q23 -84 0 -165.5t-88 -143.5z" />
    <glyph glyph-name="quotedblbase" unicode="&#x201e;" 
d="M101 -172q90 118 15 288l110 6q24 -83 1.5 -164t-86.5 -144zM312 -172q93 117 20 288l110 6q22 -85 -1.5 -165t-88.5 -142z" />
    <glyph glyph-name="dagger" unicode="&#x2020;" 
d="M298 127l-48 -26l-13 7l1 365l-171 2l3 65l168 -3v159l79 -1l-2 -159l175 -3l-4 -64l-172 2z" />
    <glyph glyph-name="daggerdbl" unicode="&#x2021;" 
d="M299 75l-49 -25l-12 7v217l-178 3l4 62l174 -3v139l-171 3l3 62l168 -3v159l79 -1l-2 -159l175 -3l-4 -62l-172 3l-5 -139l175 -3l-4 -62l-174 3z" />
    <glyph glyph-name="bullet" unicode="&#x2022;" 
d="M404 300q0 -57 -37 -92.5t-93 -35.5t-92.5 35t-36.5 90q0 57 38 92t93 35q56 0 92 -34.5t36 -89.5z" />
    <glyph glyph-name="ellipsis" unicode="&#x2026;" 
d="M504 0h-98l5 120h98zM321 0h-98l5 120h98zM138 0h-98l5 120h98z" />
    <glyph glyph-name="guilsinglleft" unicode="&#x2039;" 
d="M369 -17l-243 222l5 81l244 221l54 -56l-238 -205l232 -207z" />
    <glyph glyph-name="guilsinglright" unicode="&#x203a;" 
d="M176 -17l-54 57l238 204l-232 207l54 56l243 -221l-5 -82z" />
    <glyph glyph-name="fraction" unicode="&#x2044;" 
d="M103 -160l-69 29l406 885l69 -29z" />
    <glyph glyph-name="zero.sup" unicode="&#x2070;" 
d="M269 315q-76 0 -118 53.5t-42 147.5q0 95 47 154t124 59t119 -53.5t42 -147.5q0 -95 -47 -154t-125 -59zM274 674q-99 0 -99 -148q0 -74 26 -115t75 -41t74 38.5t25 109.5q0 74 -26 115t-75 41z" />
    <glyph glyph-name="four.sup" unicode="&#x2074;" 
d="M445 405l-52 1l1 -81h-62l1 81l-203 -1q-2 139 49 322l70 -5q-14 -47 -38 -144t-25 -118l148 -1l-2 132l62 5l-1 -137l57 1z" />
    <glyph glyph-name="five.sup" unicode="&#x2075;" 
d="M422 454q0 -56 -70 -93.5t-211 -46.5l-4 61q120 8 171.5 27t51.5 51q0 54 -213 69l15 198h248l-6 -57h-188l-8 -95q214 -20 214 -114z" />
    <glyph glyph-name="six.sup" unicode="&#x2076;" 
d="M275 316q-70 0 -112 41.5t-42 117.5q0 177 232 261l23 -55q-92 -33 -136 -70.5t-54 -89.5q48 40 106 45.5t98 -25.5t40 -88q0 -60 -45 -98.5t-110 -38.5zM281 369q38 0 62.5 21.5t24.5 57.5q0 38 -27.5 57.5t-71 15t-86.5 -33.5v-4q0 -56 27 -85t71 -29z" />
    <glyph glyph-name="seven.sup" unicode="&#x2077;" 
d="M248 318l-68 8q65 164 185 333l-2 3h-232l5 58h296v-56q-119 -175 -184 -346z" />
    <glyph glyph-name="eight.sup" unicode="&#x2078;" 
d="M267 315q-66 0 -105 27t-39 72q0 67 98 107q-91 49 -91 102q0 42 41 74t110 32q60 0 99.5 -26.5t39.5 -69.5q0 -64 -94 -105q48 -24 75 -47.5t27 -56.5q0 -45 -44.5 -77t-116.5 -32zM196 628q0 -23 23 -41t67 -39q72 29 72 74q0 25 -22 41t-60 16q-37 0 -58.5 -15
t-21.5 -36zM274 365q40 0 63.5 15.5t23.5 39.5q0 16 -16 31.5t-33 24.5t-51 26q-74 -30 -74 -76q0 -27 23 -44t64 -17z" />
    <glyph glyph-name="nine.sup" unicode="&#x2079;" 
d="M197 308l-24 55q93 33 136.5 70t53.5 89q-48 -40 -105.5 -45t-97.5 25.5t-40 87.5q0 60 45.5 99t109.5 39q69 0 111.5 -42t42.5 -118q0 -176 -232 -260zM181 595q0 -38 27.5 -57.5t71 -14.5t86.5 34v4q0 56 -26.5 85t-70.5 29q-37 0 -62.5 -22t-25.5 -58z" />
    <glyph glyph-name="zero.inf" unicode="&#x2080;" 
d="M269 -160q-76 0 -118 53.5t-42 147.5q0 95 47 154t124 59t119 -53.5t42 -147.5q0 -95 -47 -154t-125 -59zM274 199q-99 0 -99 -148q0 -74 26 -115t75 -41t74 38.5t25 109.5q0 74 -26 115t-75 41z" />
    <glyph glyph-name="one.inf" unicode="&#x2081;" 
d="M433 -150h-298v55h125v234l-118 -7l-2 48l120 16v60l64 5v-356h114z" />
    <glyph glyph-name="two.inf" unicode="&#x2082;" 
d="M426 -150h-295l-7 53q121 81 172 127.5t51 88.5q0 37 -46 56t-162 21l5 58q269 1 269 -118q0 -53 -48 -105t-152 -124h213v-57z" />
    <glyph glyph-name="three.inf" unicode="&#x2083;" 
d="M141 -161l-5 60q225 7 225 63q0 53 -186 71v33l162 121v3l-195 -2v57h269l4 -53l-165 -122q175 -27 175 -106q0 -53 -68.5 -87t-215.5 -38z" />
    <glyph glyph-name="four.inf" unicode="&#x2084;" 
d="M445 -70l-52 1l1 -81h-62l1 81l-203 -1q-2 139 49 322l70 -5q-14 -47 -38 -144t-25 -118l148 -1l-2 132l62 5l-1 -137l57 1z" />
    <glyph glyph-name="five.inf" unicode="&#x2085;" 
d="M422 -21q0 -56 -70 -93.5t-211 -46.5l-4 61q120 8 171.5 27t51.5 51q0 54 -213 69l15 198h248l-6 -57h-188l-8 -95q214 -20 214 -114z" />
    <glyph glyph-name="six.inf" unicode="&#x2086;" 
d="M275 -159q-70 0 -112 41.5t-42 117.5q0 177 232 261l23 -55q-92 -33 -136 -70.5t-54 -89.5q48 40 106 45.5t98 -25.5t40 -88q0 -60 -45 -98.5t-110 -38.5zM281 -106q38 0 62.5 21.5t24.5 57.5q0 38 -27.5 57.5t-71 15t-86.5 -33.5v-4q0 -56 27 -85t71 -29z" />
    <glyph glyph-name="seven.inf" unicode="&#x2087;" 
d="M248 -157l-68 8q65 164 185 333l-2 3h-232l5 58h296v-56q-119 -175 -184 -346z" />
    <glyph glyph-name="eight.inf" unicode="&#x2088;" 
d="M267 -160q-66 0 -105 27t-39 72q0 67 98 107q-91 49 -91 102q0 42 41 74t110 32q60 0 99.5 -26.5t39.5 -69.5q0 -64 -94 -105q48 -24 75 -47.5t27 -56.5q0 -45 -44.5 -77t-116.5 -32zM196 153q0 -23 23 -41t67 -39q72 29 72 74q0 25 -22 41t-60 16q-37 0 -58.5 -15
t-21.5 -36zM274 -110q40 0 63.5 15.5t23.5 39.5q0 16 -16 31.5t-33 24.5t-51 26q-74 -30 -74 -76q0 -27 23 -44t64 -17z" />
    <glyph glyph-name="nine.inf" unicode="&#x2089;" 
d="M197 -167l-24 55q93 33 136.5 70t53.5 89q-48 -40 -105.5 -45t-97.5 25.5t-40 87.5q0 60 45.5 99t109.5 39q69 0 111.5 -42t42.5 -118q0 -176 -232 -260zM181 120q0 -38 27.5 -57.5t71 -14.5t86.5 34v4q0 56 -26.5 85t-70.5 29q-37 0 -62.5 -22t-25.5 -58z" />
    <glyph glyph-name="colonmonetary" unicode="&#x20a1;" 
d="M334 111l35 402q-42 -6 -77 -17l-33 -363q30 -12 75 -22zM137 312q0 -109 77 -157l28 323q-105 -49 -105 -166zM313 -74l10 115q-40 8 -70 18l-12 -133h-59l15 155q-133 65 -133 218q0 178 175 251l12 143h58l-11 -123q45 12 73 16l10 107h58l-9 -100q21 3 68 5l4 -74
q-34 -1 -85 -5l-37 -416q55 -7 99 -11l-14 -70q-47 3 -85 9l-9 -105h-58z" />
    <glyph glyph-name="naira" unicode="&#x20a6;" 
d="M162 476l1 -252h122l-118 252h-5zM393 135h5l-1 253h-121zM390 0l-79 169h-148v-169h-67v169h-69v65h69v143h-69v66h69v177h72l82 -177h147l-1 177h66v-177h68v-66h-68v-143h68v-65h-68v-169h-72z" />
    <glyph glyph-name="rupee" unicode="&#x20a8;" 
d="M247 -4l-64 239l-44 -2v-233h-70v619q228 48 228 -166q0 -108 -57 -179l75 -268zM139 557v-267l53 2q35 57 35 147q0 69 -21 98.5t-67 19.5zM512 496l2 -67q-111 12 -111 -58q0 -26 19 -55.5t41.5 -53.5t41.5 -60.5t19 -73.5q0 -61 -44.5 -101.5t-140.5 -32.5l-2 67
q117 -12 117 64q0 28 -18.5 58.5t-41 54t-41 59t-18.5 72.5q0 57 44 96t133 31z" />
    <glyph glyph-name="Euro" unicode="&#x20ac;" 
d="M485 47l-11 -68q-152 17 -232 70.5t-105 144.5h-75v61h64q-3 25 -3 53q0 15 2 45h-64v61h74q23 87 99.5 143t230.5 85l13 -78q-133 -20 -192.5 -55t-76.5 -100h223l-3 -56h-229q-1 -13 -1 -41q0 -30 3 -55h226l-3 -55h-211q21 -63 83.5 -100t187.5 -55z" />
    <glyph glyph-name="peso" unicode="&#x20b1;" 
d="M177 433h217q-9 71 -65 105t-152 20v-125zM177 254q197 -13 217 120h-217v-120zM534 368h-68q-17 -85 -92.5 -131t-196.5 -55v-182h-76v368h-75v67h75v184q172 30 268 -20.5t102 -163.5h63v-67z" />
    <glyph glyph-name="rupeeindia" unicode="&#x20b9;" 
d="M479 29l-64 -44q-124 100 -185 138t-151 63l14 60q197 15 222 119h-231v58h231q-24 108 -233 130l5 67h403l-5 -69h-203q97 -41 111 -128h91v-58h-93q-13 -53 -65.5 -92.5t-137.5 -57.5q57 -18 117.5 -58t173.5 -128z" />
    <glyph glyph-name="ruble" unicode="&#x20bd;" 
d="M424 449q0 63 -56 91t-162 17v-227q117 2 167.5 27.5t50.5 91.5zM415 120h-209v-120h-79v120h-84v62h84v86h-84v61h84v290q183 24 279.5 -17t96.5 -144q0 -91 -75 -136t-222 -52v-91h216z" />
    <glyph glyph-name="numero" unicode="&#x2116;" 
d="M411 220q-46 0 -73 49t-27 144q0 98 32.5 155t83.5 57q47 0 74 -49t27 -144q0 -99 -32.5 -155.5t-84.5 -56.5zM214 0l-110 442h-3l5 -442h-67v620h67l107 -412h2l-5 412l67 -1v-620zM422 281q20 0 31.5 36.5t11.5 101.5q0 68 -13.5 106t-34.5 38q-20 0 -31.5 -36
t-11.5 -101q0 -69 13 -107t35 -38zM520 111h-202v59h202v-59z" />
    <glyph glyph-name="published" unicode="&#x2117;" 
d="M42 304q0 137 65 223t165 86q102 0 169 -80t67 -219t-70.5 -223t-171.5 -84q-102 0 -163 79.5t-61 217.5zM90 306q0 -117 49 -185.5t128 -68.5q83 0 138 69.5t55 189.5q0 119 -55 188t-135 69q-81 0 -130.5 -71t-49.5 -191zM254 143h-54v323q178 25 178 -107
q0 -51 -34.5 -84t-89.5 -41v-91z" />
    <glyph glyph-name="servicemark" unicode="&#x2120;" 
d="M366 345l-55 199h-3l1 -253h-50v329h63l59 -200h2l55 200h64v-329h-52l1 253h-3l-53 -199h-29zM37 338q120 -5 120 43q0 16 -19 34t-41.5 32t-41.5 37t-19 48q0 38 39 66.5t116 25.5l3 -49q-106 4 -106 -38q0 -16 19 -34t42 -32.5t42 -38t19 -48.5q0 -40 -43 -68
t-130 -27v49z" />
    <glyph glyph-name="trademark" unicode="&#x2122;" 
d="M147 573v-281h-51v281h-76l3 47h193v-47h-69zM366 345l-55 199h-3l1 -253h-50v329h63l59 -200h2l55 200h64v-329h-52l1 253h-3l-53 -199h-29z" />
    <glyph glyph-name="Omega" unicode="&#x2126;" 
d="M229 5l-2 -5h-181v66h98q-73 171 -73 310q0 118 55 188t153 70q96 0 149 -69.5t53 -186.5q0 -138 -75 -312h99v-66h-181l-2 5q79 207 79 357q0 94 -32.5 145.5t-93.5 51.5t-94 -51t-33 -144q0 -144 81 -359z" />
    <glyph glyph-name="onethird" unicode="&#x2153;" 
d="M433 425h-298v55h125v234l-118 -7l-2 48l120 16v60l64 5v-356h114zM61 277v55h428v-55h-428zM141 -221l-5 60q225 7 225 63q0 53 -186 71v33l162 121v3l-195 -2v57h269l4 -53l-165 -122q175 -27 175 -106q0 -53 -68.5 -87t-215.5 -38z" />
    <glyph glyph-name="twothirds" unicode="&#x2154;" 
d="M426 425h-295l-7 53q121 81 172 127.5t51 88.5q0 37 -46 56t-162 21l5 58q269 1 269 -118q0 -53 -48 -105t-152 -124h213v-57zM61 277v55h428v-55h-428zM141 -221l-5 60q225 7 225 63q0 53 -186 71v33l162 121v3l-195 -2v57h269l4 -53l-165 -122q175 -27 175 -106
q0 -53 -68.5 -87t-215.5 -38z" />
    <glyph glyph-name="onefifth" unicode="&#x2155;" 
d="M433 425h-298v55h125v234l-118 -7l-2 48l120 16v60l64 5v-356h114zM61 277v55h428v-55h-428zM422 -81q0 -56 -70 -93.5t-211 -46.5l-4 61q120 8 171.5 27t51.5 51q0 54 -213 69l15 198h248l-6 -57h-188l-8 -95q214 -20 214 -114z" />
    <glyph glyph-name="twofifths" unicode="&#x2156;" 
d="M426 425h-295l-7 53q121 81 172 127.5t51 88.5q0 37 -46 56t-162 21l5 58q269 1 269 -118q0 -53 -48 -105t-152 -124h213v-57zM61 277v55h428v-55h-428zM422 -81q0 -56 -70 -93.5t-211 -46.5l-4 61q120 8 171.5 27t51.5 51q0 54 -213 69l15 198h248l-6 -57h-188l-8 -95
q214 -20 214 -114z" />
    <glyph glyph-name="threefifths" unicode="&#x2157;" 
d="M141 414l-5 60q225 7 225 63q0 53 -186 71v33l162 121v3l-195 -2v57h269l4 -53l-165 -122q175 -27 175 -106q0 -53 -68.5 -87t-215.5 -38zM61 277v55h428v-55h-428zM422 -81q0 -56 -70 -93.5t-211 -46.5l-4 61q120 8 171.5 27t51.5 51q0 54 -213 69l15 198h248l-6 -57
h-188l-8 -95q214 -20 214 -114z" />
    <glyph glyph-name="fourfifths" unicode="&#x2158;" 
d="M445 505l-52 1l1 -81h-62l1 81l-203 -1q-2 139 49 322l70 -5q-14 -47 -38 -144t-25 -118l148 -1l-2 132l62 5l-1 -137l57 1zM61 277v55h428v-55h-428zM422 -81q0 -56 -70 -93.5t-211 -46.5l-4 61q120 8 171.5 27t51.5 51q0 54 -213 69l15 198h248l-6 -57h-188l-8 -95
q214 -20 214 -114z" />
    <glyph glyph-name="onesixth" unicode="&#x2159;" 
d="M433 425h-298v55h125v234l-118 -7l-2 48l120 16v60l64 5v-356h114zM61 277v55h428v-55h-428zM275 -219q-70 0 -112 41.5t-42 117.5q0 177 232 261l23 -55q-92 -33 -136 -70.5t-54 -89.5q48 40 106 45.5t98 -25.5t40 -88q0 -60 -45 -98.5t-110 -38.5zM281 -166
q38 0 62.5 21.5t24.5 57.5q0 38 -27.5 57.5t-71 15t-86.5 -33.5v-4q0 -56 27 -85t71 -29z" />
    <glyph glyph-name="fivesixths" unicode="&#x215a;" 
d="M422 554q0 -56 -70 -93.5t-211 -46.5l-4 61q120 8 171.5 27t51.5 51q0 54 -213 69l15 198h248l-6 -57h-188l-8 -95q214 -20 214 -114zM61 277v55h428v-55h-428zM275 -219q-70 0 -112 41.5t-42 117.5q0 177 232 261l23 -55q-92 -33 -136 -70.5t-54 -89.5q48 40 106 45.5
t98 -25.5t40 -88q0 -60 -45 -98.5t-110 -38.5zM281 -166q38 0 62.5 21.5t24.5 57.5q0 38 -27.5 57.5t-71 15t-86.5 -33.5v-4q0 -56 27 -85t71 -29z" />
    <glyph glyph-name="oneeighth" unicode="&#x215b;" 
d="M433 425h-298v55h125v234l-118 -7l-2 48l120 16v60l64 5v-356h114zM61 277v55h428v-55h-428zM267 -220q-66 0 -105 27t-39 72q0 67 98 107q-91 49 -91 102q0 42 41 74t110 32q60 0 99.5 -26.5t39.5 -69.5q0 -64 -94 -105q48 -24 75 -47.5t27 -56.5q0 -45 -44.5 -77
t-116.5 -32zM196 93q0 -23 23 -41t67 -39q72 29 72 74q0 25 -22 41t-60 16q-37 0 -58.5 -15t-21.5 -36zM274 -170q40 0 63.5 15.5t23.5 39.5q0 16 -16 31.5t-33 24.5t-51 26q-74 -30 -74 -76q0 -27 23 -44t64 -17z" />
    <glyph glyph-name="threeeighths" unicode="&#x215c;" 
d="M141 414l-5 60q225 7 225 63q0 53 -186 71v33l162 121v3l-195 -2v57h269l4 -53l-165 -122q175 -27 175 -106q0 -53 -68.5 -87t-215.5 -38zM61 277v55h428v-55h-428zM267 -220q-66 0 -105 27t-39 72q0 67 98 107q-91 49 -91 102q0 42 41 74t110 32q60 0 99.5 -26.5
t39.5 -69.5q0 -64 -94 -105q48 -24 75 -47.5t27 -56.5q0 -45 -44.5 -77t-116.5 -32zM196 93q0 -23 23 -41t67 -39q72 29 72 74q0 25 -22 41t-60 16q-37 0 -58.5 -15t-21.5 -36zM274 -170q40 0 63.5 15.5t23.5 39.5q0 16 -16 31.5t-33 24.5t-51 26q-74 -30 -74 -76
q0 -27 23 -44t64 -17z" />
    <glyph glyph-name="fiveeighths" unicode="&#x215d;" 
d="M422 554q0 -56 -70 -93.5t-211 -46.5l-4 61q120 8 171.5 27t51.5 51q0 54 -213 69l15 198h248l-6 -57h-188l-8 -95q214 -20 214 -114zM61 277v55h428v-55h-428zM267 -220q-66 0 -105 27t-39 72q0 67 98 107q-91 49 -91 102q0 42 41 74t110 32q60 0 99.5 -26.5t39.5 -69.5
q0 -64 -94 -105q48 -24 75 -47.5t27 -56.5q0 -45 -44.5 -77t-116.5 -32zM196 93q0 -23 23 -41t67 -39q72 29 72 74q0 25 -22 41t-60 16q-37 0 -58.5 -15t-21.5 -36zM274 -170q40 0 63.5 15.5t23.5 39.5q0 16 -16 31.5t-33 24.5t-51 26q-74 -30 -74 -76q0 -27 23 -44t64 -17z
" />
    <glyph glyph-name="seveneighths" unicode="&#x215e;" 
d="M248 418l-68 8q65 164 185 333l-2 3h-232l5 58h296v-56q-119 -175 -184 -346zM61 277v55h428v-55h-428zM267 -220q-66 0 -105 27t-39 72q0 67 98 107q-91 49 -91 102q0 42 41 74t110 32q60 0 99.5 -26.5t39.5 -69.5q0 -64 -94 -105q48 -24 75 -47.5t27 -56.5
q0 -45 -44.5 -77t-116.5 -32zM196 93q0 -23 23 -41t67 -39q72 29 72 74q0 25 -22 41t-60 16q-37 0 -58.5 -15t-21.5 -36zM274 -170q40 0 63.5 15.5t23.5 39.5q0 16 -16 31.5t-33 24.5t-51 26q-74 -30 -74 -76q0 -27 23 -44t64 -17z" />
    <glyph glyph-name="minus" unicode="&#x2212;" 
d="M472 327l-1 -68h-393v68h394z" />
    <glyph glyph-name="approxequal" unicode="&#x2248;" 
d="M362 313q-27 0 -54 16.5t-46 37t-40.5 37t-37.5 16.5q-21 0 -38.5 -26t-41.5 -80l-50 20q29 79 62 117t75 38q33 0 66 -27t60.5 -54t46.5 -27q20 0 37.5 26t39.5 77l51 -21q-30 -79 -59.5 -114.5t-70.5 -35.5zM362 100q-34 0 -67.5 26.5t-61.5 53.5t-48 27
q-21 0 -39.5 -27t-40.5 -79l-51 20q29 79 62 117t75 38q33 0 66 -27t60.5 -54t46.5 -27q20 0 37.5 25.5t40.5 77.5l50 -21q-30 -79 -59.5 -114.5t-70.5 -35.5z" />
    <glyph glyph-name="notequal" unicode="&#x2260;" 
d="M471 151h-215l-53 -144l-61 19l46 125h-110v69h135l56 153h-191v69h217l52 143l62 -19l-46 -124h109l-1 -69h-133l-57 -153h191z" />
    <glyph glyph-name="lessequal" unicode="&#x2264;" 
d="M167 358v-8l290 -152l-28 -64l-346 184l2 65l337 211l34 -61zM475 84v-69h-400v69h400z" />
    <glyph glyph-name="greaterequal" unicode="&#x2265;" 
d="M383 358l-288 175l33 61l338 -211l1 -65l-346 -184l-27 64l289 152v8zM75 84h400v-69h-400v69z" />
    <glyph glyph-name="uniE0A0" unicode="&#xe0a0;" 
d="M428 576q45 0 75.5 -31t30.5 -75q0 -60 -53 -91v-14q0 -79 -65.5 -145t-145.5 -66q-51 0 -81 -34q28 -31 28 -73q0 -44 -31 -75t-74 -31q-45 0 -75.5 31t-30.5 75q0 63 53 91v347q-53 28 -53 91q0 44 30.5 75t75.5 31q43 0 74 -31t31 -75q0 -62 -53 -91v-251
q45 24 106 24q40 0 73 33t33 73v15q-53 31 -53 90q0 45 30.5 76t74.5 31zM112 629q-22 0 -37.5 -15.5t-15.5 -37.5q0 -23 15.5 -38.5t37.5 -15.5q21 0 36.5 16t15.5 38t-15.5 37.5t-36.5 15.5zM428 417q22 0 37.5 15.5t15.5 36.5q0 23 -15.5 38t-37.5 15q-21 0 -36.5 -15.5
t-15.5 -37.5q0 -21 15.5 -36.5t36.5 -15.5zM112 -6q21 0 36.5 15.5t15.5 37.5t-15.5 37.5t-36.5 15.5q-22 0 -37.5 -15.5t-15.5 -37.5q0 -23 15.5 -38t37.5 -15z" />
    <glyph glyph-name="uniE0B0" unicode="&#xe0b0;" 
d="M609 313l-629 -518l2 1099z" />
    <glyph glyph-name="uniE0B2" unicode="&#xe0b2;" 
d="M-20 313l627 581l2 -1099z" />
    <glyph glyph-name="hcoslug" unicode="&#xe10b;" 
d="M500 700v-800h-450v800h450zM200 296q0 22 20 22q22 0 22 -29q0 -17 -14 -37q-28 26 -28 44zM249 232q17 11 31 25q22 -22 -1 -60q-23 28 -30 35zM210 139q-16 0 -27.5 12t-11.5 29q0 18 12 30q28 -26 56 -62q-12 -9 -29 -9zM301 173q15 20 35 32q10 -19 32 -19
q16 0 26.5 11.5t10.5 28.5q0 18 -10.5 28.5t-26.5 10.5q-26 0 -45 -28q-3 28 -37 28q7 10 7 25q0 21 -19.5 38.5t-51.5 17.5q-37 0 -59.5 -19.5t-22.5 -44.5q0 -28 23 -52q-61 -20 -61 -68q0 -30 23.5 -50t57.5 -20q47 0 78 34q33 -34 64 -34q25 0 42 19.5t18 51.5l-5 1
q-14 -22 -32 -22q-20 0 -47 31zM229 68l-9 -1v-7h-5v-5h5v-15q0 -10 9 -10q8 0 11 10l-4 1q-1 -5 -4 -5t-3 4v15h10v5h-10v8zM145 46q0 -16 16 -16t16 16q0 15 -16 15t-16 -15zM167 46q0 -12 -6 -12t-6 12q0 11 6 11t6 -11zM299 45q0 -10 -5 -10q-6 0 -6 10t6 10q5 0 5 -10z
M179 36v-5h16v5h-3v11q0 8 6 8q4 0 4 -6v-13h-3v-5h17v5h-5v14q0 11 -9 11q-6 0 -10 -7v6h-13v-5h4v-19h-4zM108 36v-5h23v5h-7v12h3q4 0 5 -6h5v17h-5q-1 -6 -5 -6h-3v14h8q6 0 9 -10h5v15h-38v-5h6v-31h-6zM241 41v-10h5l1 3q4 -4 10 -4q10 0 10 9q0 6 -9 9t-9 5q0 3 4 3
t8 -5h5v10h-5l-1 -4q-3 4 -8 4q-11 0 -11 -9q0 -7 9 -9.5t9 -5.5t-4 -3t-9 7h-5zM279 69v-39h4l3 6q3 -6 11 -6q12 0 12 16q0 15 -12 15q-7 0 -9 -7v20h-14v-5h5zM318 24q2 2 0.5 4.5t-4.5 2.5q-5 0 -5 -5q0 -7 9 -7q8 0 13 12l10 24h4v5h-13v-5h4l-6 -15l-7 15h4v5h-18v-5
h3q9 -18 12 -25q0 -6 -6 -6zM363 0h-14v-6h5q-2 -4 -5 -7q-2 2 -5 5.5t-4 4.5q8 5 8 10q0 9 -10 9q-13 0 -13 -11q0 -5 5 -10q-10 -3 -10 -11q0 -10 12 -10q8 0 13 5q5 -5 9 -5q7 0 9 9l-3 1q-1 -4 -3 -4q-1 0 -5 4q4 4 7 10h4v6zM235 4v4q0 8 4 8l3 -1q-1 -1 -1 -3
q0 -4 5 -4v-4h-11zM367 -5q0 -21 21 -21q16 0 18 17h-6q-2 -12 -10 -12q-12 0 -12 17t10 17q7 0 11 -12h6v16h-6v-4q-5 5 -12 5q-20 0 -20 -23zM338 -1q-5 5 -5 8q0 4 4 4q5 0 5 -5t-4 -7zM270 -12h19q2 17 -14 17q-15 0 -15 -16q0 -15 16 -15q11 0 13 11h-5q-2 -6 -7 -6
q-7 0 -7 9zM200 -12h19q2 17 -14 17q-15 0 -15 -16q0 -15 16 -15q11 0 13 11h-5q-2 -6 -7 -6q-7 0 -7 9zM156 -10q0 -16 16 -16t16 16q0 15 -16 15t-16 -15zM408 -10q0 -16 16 -16t16 16q0 15 -16 15t-16 -15zM270 -8q0 9 5 9t5 -9h-10zM200 -8q0 9 5 9t5 -9h-10zM178 -10
q0 -12 -6 -12t-6 12q0 11 6 11t6 -11zM430 -10q0 -12 -6 -12t-6 12q0 11 6 11t6 -11zM222 -20v-5h17v5h-4v19h11v-19h-4v-5h17v5h-4v39l-8 -2q-4 2 -8 2q-13 0 -13 -14v-1h-5v-5h5v-19h-4zM291 -20v-5h19v5h-6v12q2 7 5 7v-1q0 -4 5 -4t5 5q0 6 -6 6t-9 -7v6h-13v-5h4v-19
h-4zM108 -20v-5h21v5h-5v14h16v-14h-5v-5h21v5h-6v31h6v5h-21v-5h5v-12h-16v12h5v5h-21v-5h6v-31h-6zM342 -18q-3 -3 -6 -3q-7 0 -7 7q0 4 3 7q2 -2 5.5 -6t4.5 -5zM453 -20q0 6 -6 6t-6 -6t6 -6t6 6z" />
    <glyph glyph-name="check.1" unicode="&#xe10c;" 
d="M509 657q-131 -309 -219 -676l-71 -6l-150 349l70 31l111 -270h4q68 329 173 598z" />
    <glyph glyph-name="check.2" unicode="&#xe10d;" 
d="M354 -7l-103 213l-112 -218l-52 18l124 256l-116 217l75 27l84 -172l159 352l80 -31l-196 -383l135 -261z" />
    <glyph glyph-name="NUL" horiz-adv-x="0" 
 />
    <glyph glyph-name="zero.alt" 
d="M268 -12q-102 0 -157 82.5t-55 230.5q0 151 61 241t165 90q103 0 158 -82t55 -231q0 -150 -61.5 -240.5t-165.5 -90.5zM276 565q-70 0 -106 -65t-36 -185q0 -122 36 -191t105 -69q70 0 105.5 65t35.5 185q0 122 -35.5 191t-104.5 69z" />
    <glyph glyph-name="colon.alt" 
d="M338 417h-118l1 116h119zM335 87h-119l2 116h119z" />
    <glyph glyph-name="guillemotleft.cap" 
d="M213 47l-170 222l4 81l169 220l59 -49l-170 -209l168 -218zM452 47l-170 222l4 81l169 220l59 -49l-172 -210l170 -217z" />
    <glyph glyph-name="guillemotright.cap" 
d="M334 47l-59 49l172 210l-170 217l60 47l171 -222l-5 -81zM96 47l-59 49l172 211l-170 216l60 47l170 -222l-4 -81z" />
    <glyph glyph-name="guilsinglleft.cap" 
d="M369 47l-243 222l5 81l244 221l54 -56l-238 -205l232 -207z" />
    <glyph glyph-name="guilsinglright.cap" 
d="M176 47l-54 57l238 204l-232 207l54 56l243 -221l-5 -82z" />
    <glyph glyph-name="parenleft.cap" 
d="M414 772l55 -51q-149 -116 -213.5 -216t-64.5 -199t64.5 -198.5t210.5 -215.5l-56 -51q-157 129 -228 241t-71 221q0 111 72 225t231 244z" />
    <glyph glyph-name="parenright.cap" 
d="M136 -160l-55 51q149 117 213.5 216.5t64.5 199.5q0 98 -64 197.5t-210 214.5l55 53q157 -130 228 -242t71 -220q0 -111 -72 -225t-231 -245z" />
    <glyph glyph-name="bracketleft.cap" 
d="M137 -131v874h327v-66h-249v-742h253l-7 -66h-324z" />
    <glyph glyph-name="bracketright.cap" 
d="M89 -65h248v741h-249v66h326v-873h-328z" />
    <glyph glyph-name="braceleft.cap" 
d="M455 -161q-172 55 -238 96.5t-66 96.5q0 34 23 66t46 58t23 45q0 30 -39 50.5t-118 25.5l2 59q161 14 161 64q0 18 -25 43.5t-50.5 56.5t-25.5 63q0 112 311 211l26 -67q-137 -38 -198 -70t-61 -66q0 -22 24 -49.5t48 -56t24 -51.5q0 -30 -28.5 -57.5t-88.5 -43.5
q59 -15 87 -41.5t28 -58.5t-44 -83.5t-44 -79.5q0 -39 58 -71.5t193 -73.5z" />
    <glyph glyph-name="braceright.cap" 
d="M93 -161l-26 68q135 38 196.5 70t61.5 66q0 25 -47.5 76.5t-47.5 80.5q0 30 28.5 57t87.5 44q-59 14 -87 40.5t-28 58.5q0 26 22.5 55t44.5 56.5t22 51.5q0 39 -57.5 71.5t-193.5 73.5l28 66q172 -55 238 -96.5t66 -96.5q0 -33 -23.5 -65.5t-46.5 -58.5t-23 -45
q0 -30 39.5 -50.5t118.5 -25.5l-3 -58q-161 -14 -161 -64q0 -18 25 -43.5t50.5 -56.5t25.5 -64q0 -113 -310 -211z" />
    <glyph glyph-name="registered.alt" 
d="M42 304q0 137 65 223t165 86q102 0 169 -80t67 -219t-70.5 -223t-171.5 -84t-162.5 79.5t-61.5 217.5zM90 306q0 -117 49.5 -185.5t127.5 -68.5q83 0 138 69.5t55 189.5q0 119 -55 188t-135 69t-130 -71t-50 -191zM324 140l-41 118l-37 -2v-111h-54v322q92 16 133.5 -10
t41.5 -79q0 -54 -40 -97l54 -134z" />
    <glyph glyph-name="asterisk.alt" 
d="M308 549l-39 7l2 141l76 -14zM229 541l-26 -32l-120 74l49 59zM354 484l-14 38l124 68l26 -72zM197 469l14 -39l-124 -67l-26 71zM322 412l27 32l120 -75l-49 -59zM243 404l40 -7l-3 -141l-76 13z" />
    <glyph glyph-name="bullet.alt" 
d="M380 189h-213l2 217h213z" />
    <glyph glyph-name="R_p" 
d="M210 -3l-59 235l-46 -3v-229h-67v619q119 26 170 -19t51 -147q0 -117 -53 -181l71 -266zM105 561v-274l55 2q32 58 32 148q0 72 -20.5 103t-66.5 21zM405 55q32 0 45 44t13 146q0 191 -49 191q-21 0 -44 -23q2 -168 2 -349q13 -9 33 -9zM372 -164l-66 -8v170
q0 352 -4 488l62 5l2 -34q34 44 76 44q86 0 86 -230q0 -283 -132 -283q-12 0 -24 3v-155z" />
    <glyph glyph-name="fraction.afrc" 
d="M61 277v55h428v-55h-428z" />
    <glyph glyph-name="zero.num" 
d="M269 415q-76 0 -118 53.5t-42 147.5q0 95 47 154t124 59t119 -53.5t42 -147.5q0 -95 -47 -154t-125 -59zM274 774q-99 0 -99 -148q0 -74 26 -115t75 -41t74 38.5t25 109.5q0 74 -26 115t-75 41z" />
    <glyph glyph-name="one.num" 
d="M433 425h-298v55h125v234l-118 -7l-2 48l120 16v60l64 5v-356h114z" />
    <glyph glyph-name="two.num" 
d="M426 425h-295l-7 53q121 81 172 127.5t51 88.5q0 37 -46 56t-162 21l5 58q269 1 269 -118q0 -53 -48 -105t-152 -124h213v-57z" />
    <glyph glyph-name="three.num" 
d="M141 414l-5 60q225 7 225 63q0 53 -186 71v33l162 121v3l-195 -2v57h269l4 -53l-165 -122q175 -27 175 -106q0 -53 -68.5 -87t-215.5 -38z" />
    <glyph glyph-name="four.num" 
d="M445 505l-52 1l1 -81h-62l1 81l-203 -1q-2 139 49 322l70 -5q-14 -47 -38 -144t-25 -118l148 -1l-2 132l62 5l-1 -137l57 1z" />
    <glyph glyph-name="five.num" 
d="M422 554q0 -56 -70 -93.5t-211 -46.5l-4 61q120 8 171.5 27t51.5 51q0 54 -213 69l15 198h248l-6 -57h-188l-8 -95q214 -20 214 -114z" />
    <glyph glyph-name="six.num" 
d="M275 416q-70 0 -112 41.5t-42 117.5q0 177 232 261l23 -55q-92 -33 -136 -70.5t-54 -89.5q48 40 106 45.5t98 -25.5t40 -88q0 -60 -45 -98.5t-110 -38.5zM281 469q38 0 62.5 21.5t24.5 57.5q0 38 -27.5 57.5t-71 15t-86.5 -33.5v-4q0 -56 27 -85t71 -29z" />
    <glyph glyph-name="seven.num" 
d="M248 418l-68 8q65 164 185 333l-2 3h-232l5 58h296v-56q-119 -175 -184 -346z" />
    <glyph glyph-name="eight.num" 
d="M267 415q-66 0 -105 27t-39 72q0 67 98 107q-91 49 -91 102q0 42 41 74t110 32q60 0 99.5 -26.5t39.5 -69.5q0 -64 -94 -105q48 -24 75 -47.5t27 -56.5q0 -45 -44.5 -77t-116.5 -32zM196 728q0 -23 23 -41t67 -39q72 29 72 74q0 25 -22 41t-60 16q-37 0 -58.5 -15
t-21.5 -36zM274 465q40 0 63.5 15.5t23.5 39.5q0 16 -16 31.5t-33 24.5t-51 26q-74 -30 -74 -76q0 -27 23 -44t64 -17z" />
    <glyph glyph-name="nine.num" 
d="M197 408l-24 55q93 33 136.5 70t53.5 89q-48 -40 -105.5 -45t-97.5 25.5t-40 87.5q0 60 45.5 99t109.5 39q69 0 111.5 -42t42.5 -118q0 -176 -232 -260zM181 695q0 -38 27.5 -57.5t71 -14.5t86.5 34v4q0 56 -26.5 85t-70.5 29q-37 0 -62.5 -22t-25.5 -58z" />
    <glyph glyph-name="zero.den" 
d="M269 -220q-76 0 -118 53.5t-42 147.5q0 95 47 154t124 59t119 -53.5t42 -147.5q0 -95 -47 -154t-125 -59zM274 139q-99 0 -99 -148q0 -74 26 -115t75 -41t74 38.5t25 109.5q0 74 -26 115t-75 41z" />
    <glyph glyph-name="one.den" 
d="M433 -210h-298v55h125v234l-118 -7l-2 48l120 16v60l64 5v-356h114z" />
    <glyph glyph-name="two.den" 
d="M426 -210h-295l-7 53q121 81 172 127.5t51 88.5q0 37 -46 56t-162 21l5 58q269 1 269 -118q0 -53 -48 -105t-152 -124h213v-57z" />
    <glyph glyph-name="three.den" 
d="M141 -221l-5 60q225 7 225 63q0 53 -186 71v33l162 121v3l-195 -2v57h269l4 -53l-165 -122q175 -27 175 -106q0 -53 -68.5 -87t-215.5 -38z" />
    <glyph glyph-name="four.den" 
d="M445 -130l-52 1l1 -81h-62l1 81l-203 -1q-2 139 49 322l70 -5q-14 -47 -38 -144t-25 -118l148 -1l-2 132l62 5l-1 -137l57 1z" />
    <glyph glyph-name="five.den" 
d="M422 -81q0 -56 -70 -93.5t-211 -46.5l-4 61q120 8 171.5 27t51.5 51q0 54 -213 69l15 198h248l-6 -57h-188l-8 -95q214 -20 214 -114z" />
    <glyph glyph-name="six.den" 
d="M275 -219q-70 0 -112 41.5t-42 117.5q0 177 232 261l23 -55q-92 -33 -136 -70.5t-54 -89.5q48 40 106 45.5t98 -25.5t40 -88q0 -60 -45 -98.5t-110 -38.5zM281 -166q38 0 62.5 21.5t24.5 57.5q0 38 -27.5 57.5t-71 15t-86.5 -33.5v-4q0 -56 27 -85t71 -29z" />
    <glyph glyph-name="seven.den" 
d="M248 -217l-68 8q65 164 185 333l-2 3h-232l5 58h296v-56q-119 -175 -184 -346z" />
    <glyph glyph-name="eight.den" 
d="M267 -220q-66 0 -105 27t-39 72q0 67 98 107q-91 49 -91 102q0 42 41 74t110 32q60 0 99.5 -26.5t39.5 -69.5q0 -64 -94 -105q48 -24 75 -47.5t27 -56.5q0 -45 -44.5 -77t-116.5 -32zM196 93q0 -23 23 -41t67 -39q72 29 72 74q0 25 -22 41t-60 16q-37 0 -58.5 -15
t-21.5 -36zM274 -170q40 0 63.5 15.5t23.5 39.5q0 16 -16 31.5t-33 24.5t-51 26q-74 -30 -74 -76q0 -27 23 -44t64 -17z" />
    <glyph glyph-name="nine.den" 
d="M197 -227l-24 55q93 33 136.5 70t53.5 89q-48 -40 -105.5 -45t-97.5 25.5t-40 87.5q0 60 45.5 99t109.5 39q69 0 111.5 -42t42.5 -118q0 -176 -232 -260zM181 60q0 -38 27.5 -57.5t71 -14.5t86.5 34v4q0 56 -26.5 85t-70.5 29q-37 0 -62.5 -22t-25.5 -58z" />
    <glyph glyph-name="zero.small" 
d="M269 -10q-76 0 -118 53.5t-42 147.5q0 95 47 154t124 59t119 -53.5t42 -147.5q0 -95 -47 -154t-125 -59zM274 349q-99 0 -99 -148q0 -74 26 -115t75 -41t74 38.5t25 109.5q0 74 -26 115t-75 41z" />
    <glyph glyph-name="one.small" 
d="M433 0h-298v55h125v234l-118 -7l-2 48l120 16v60l64 5v-356h114z" />
    <glyph glyph-name="two.small" 
d="M426 0h-295l-7 53q121 81 172 127.5t51 88.5q0 37 -46 56t-162 21l5 58q269 1 269 -118q0 -53 -48 -105t-152 -124h213v-57z" />
    <glyph glyph-name="three.small" 
d="M141 -11l-5 60q225 7 225 63q0 53 -186 71v33l162 121v3l-195 -2v57h269l4 -53l-165 -122q175 -27 175 -106q0 -53 -68.5 -87t-215.5 -38z" />
    <glyph glyph-name="four.small" 
d="M445 80l-52 1l1 -81h-62l1 81l-203 -1q-2 139 49 322l70 -5q-14 -47 -38 -144t-25 -118l148 -1l-2 132l62 5l-1 -137l57 1z" />
    <glyph glyph-name="five.small" 
d="M422 129q0 -56 -70 -93.5t-211 -46.5l-4 61q120 8 171.5 27t51.5 51q0 54 -213 69l15 198h248l-6 -57h-188l-8 -95q214 -20 214 -114z" />
    <glyph glyph-name="six.small" 
d="M275 -9q-70 0 -112 41.5t-42 117.5q0 177 232 261l23 -55q-92 -33 -136 -70.5t-54 -89.5q48 40 106 45.5t98 -25.5t40 -88q0 -60 -45 -98.5t-110 -38.5zM281 44q38 0 62.5 21.5t24.5 57.5q0 38 -27.5 57.5t-71 15t-86.5 -33.5v-4q0 -56 27 -85t71 -29z" />
    <glyph glyph-name="seven.small" 
d="M248 -7l-68 8q65 164 185 333l-2 3h-232l5 58h296v-56q-119 -175 -184 -346z" />
    <glyph glyph-name="eight.small" 
d="M267 -10q-66 0 -105 27t-39 72q0 67 98 107q-91 49 -91 102q0 42 41 74t110 32q60 0 99.5 -26.5t39.5 -69.5q0 -64 -94 -105q48 -24 75 -47.5t27 -56.5q0 -45 -44.5 -77t-116.5 -32zM196 303q0 -23 23 -41t67 -39q72 29 72 74q0 25 -22 41t-60 16q-37 0 -58.5 -15
t-21.5 -36zM274 40q40 0 63.5 15.5t23.5 39.5q0 16 -16 31.5t-33 24.5t-51 26q-74 -30 -74 -76q0 -27 23 -44t64 -17z" />
    <glyph glyph-name="nine.small" 
d="M197 -17l-24 55q93 33 136.5 70t53.5 89q-48 -40 -105.5 -45t-97.5 25.5t-40 87.5q0 60 45.5 99t109.5 39q69 0 111.5 -42t42.5 -118q0 -176 -232 -260zM181 270q0 -38 27.5 -57.5t71 -14.5t86.5 34v4q0 56 -26.5 85t-70.5 29q-37 0 -62.5 -22t-25.5 -58z" />
    <glyph glyph-name="caron.alt" 
d="M203 565q44 106 11 237l91 1q17 -129 -65 -251z" />
    <glyph glyph-name="commaaccent.rot" 
d="M332 762q-44 -93 -6 -192l-100 -5q-7 53 9 108.5t56 101.5z" />
    <glyph glyph-name="underscore.alt" 
d="M560 -50v-66h-570v66h570z" />
    <glyph glyph-name="less_exclam_hyphen_hyphen.liga" 
d="M-848 234q0 48 -9 226t-10 216h103q-2 -40 -16 -217.5t-15 -224.5h-53zM-1190 545l-263 -218h389l-6 -69h-384l268 -223l-46 -57l-332 279v69l329 277zM-581 327h1017l-6 -69h-1011v69zM-885 0l2 110h114l-3 -110h-113z" />
    <glyph glyph-name="equal_equal_equal.liga" 
d="M471 484h-1493v69h1494zM471 262h-1493v69h1494zM471 40h-1493v69h1494z" />
    <glyph glyph-name="equal_equal_greater.liga" 
d="M138 602l327 -275v-69l-333 -280l-45 57l140 116h-1249v69h1332l81 67v10l-92 76h-1321v69h1237l-124 102z" />
    <glyph glyph-name="equal_less_less.liga" 
d="M-149 297v-10l303 -252l-46 -57l-206 173h-924v69h842l-44 37v69l56 47h-854v69h936l191 161l45 -58zM161 287l303 -252l-46 -57l-332 279v69l329 277l45 -58l-299 -248v-10z" />
    <glyph glyph-name="exclam_equal_equal.liga" 
d="M471 262h-704l-80 -153h785l-1 -69h-820l-120 -229l-71 29l105 200h-587v69h623l80 153h-703v69h740l80 153h-820v69h856l91 173l69 -32l-74 -141h552l-1 -69h-587l-80 -153h668z" />
    <glyph glyph-name="greater_equal_greater.liga" 
d="M138 602l327 -275v-69l-333 -280l-45 57l140 116h-989l-206 -173l-45 57l304 252v10l-300 247l47 58l190 -160h987l-124 102zM391 287v10l-92 76h-989l55 -46v-69l-45 -38h990z" />
    <glyph glyph-name="greater_greater_equal.liga" 
d="M-635 327v-69l-333 -280l-45 57l304 252v10l-300 247l47 58zM-325 258l-45 -38h842l-1 -69h-923l-206 -173l-45 57l304 252v10l-300 247l47 58l190 -160h934l-1 -69h-851l55 -46v-69z" />
    <glyph glyph-name="hyphen_hyphen_greater.liga" 
d="M138 602l327 -275v-69l-333 -280l-45 57l269 223h-1337v69h1336l-264 217z" />
    <glyph glyph-name="less_equal_equal.liga" 
d="M-939 287l81 -67h1330l-1 -69h-1246l139 -116l-46 -57l-332 279v69l329 277l45 -58l-124 -103h1236l-1 -69h-1318l-92 -76v-10z" />
    <glyph glyph-name="less_equal_greater.liga" 
d="M138 602l327 -275v-69l-333 -280l-45 57l140 116h-1002l139 -116l-46 -57l-332 279v69l329 277l45 -58l-124 -103h979l-124 102zM391 287v10l-92 76h-1146l-92 -76v-10l81 -67h1168z" />
    <glyph glyph-name="less_equal_less.liga" 
d="M418 -22l-206 173h-987l139 -116l-46 -57l-332 279v69l329 277l45 -58l-124 -103h988l191 161l45 -58l-299 -248v-10l81 -67l222 -185zM-858 220h988l-44 37v69l56 47h-989l-92 -76v-10z" />
    <glyph glyph-name="less_hyphen_greater.liga" 
d="M138 602l327 -275v-69l-333 -280l-45 57l269 223h-1260l268 -223l-46 -57l-332 279v69l329 277l45 -58l-263 -218h1258l-264 217z" />
    <glyph glyph-name="less_hyphen_hyphen.liga" 
d="M436 327l-6 -69h-1334l268 -223l-46 -57l-332 279v69l329 277l45 -58l-263 -218h1339z" />
    <glyph glyph-name="ampersand_ampersand.liga" 
d="M316 169q64 -74 111 -131l-65 -51q-22 29 -91 112q-37 -56 -85.5 -84t-98.5 -27q-32 0 -60 10q-73 24 -136 101q-74 -111 -179 -111q-69 0 -106.5 39.5t-37.5 102.5q0 109 133 194q-60 78 -60 135q0 34 14 64t45 56t87.5 40t132.5 13l6 -76q-205 10 -205 -92
q0 -33 31.5 -76.5t119.5 -144.5q5 -5 7.5 -8.5t7 -8.5t8.5 -9q37 88 58 188l70 -9q-32 -128 -87 -227l14 -16q12 96 131 171q-60 78 -60 135q0 34 14 64t45 56t87.5 40t132.5 13l6 -76q-205 10 -205 -92q0 -33 31.5 -76.5t119.5 -144.5q5 -5 7.5 -8.5t7 -8.5t8.5 -9
q37 88 58 188l70 -9q-32 -128 -87 -227zM-271 55q67 0 124 89q-26 31 -66.5 77.5t-54.5 63.5q-87 -62 -87 -138q0 -41 22 -66.5t62 -25.5zM109 55q67 0 124 89q-26 31 -66.5 77.5t-54.5 63.5q-87 -62 -87 -138q0 -41 22 -66.5t62 -25.5z" />
    <glyph glyph-name="bar_bar.liga" 
d="M-136 710v-892h-75v886zM214 710v-892h-75v886z" />
    <glyph glyph-name="bar_greater.liga" 
d="M-186 710l541 -383v-69l-541 -440h-75v886zM281 287v10l-467 323v-709z" />
    <glyph glyph-name="colon_equal.liga" 
d="M-297 354l1 117h119l-2 -117h-118zM361 373h-423v69h424zM-297 128l1 117h119l-2 -117h-118zM361 151h-423v69h424z" />
    <glyph glyph-name="equal_equal.liga" 
d="M471 373h-943v69h944zM471 151h-943v69h944z" />
    <glyph glyph-name="equal_greater.liga" 
d="M138 602l327 -275v-69l-333 -280l-45 57l140 116h-699v69h782l81 67v10l-92 76h-771v69h687l-124 102z" />
    <glyph glyph-name="exclam_equal.liga" 
d="M76 373l-81 -153h477l-1 -69h-512l-178 -340l-71 29l163 311h-345v69h381l81 153h-462v69h498l149 284l69 -32l-132 -252h360l-1 -69h-395z" />
    <glyph glyph-name="greater_equal.liga" 
d="M-308 95l516 252v10l-512 247l37 63l574 -280v-69l-584 -287zM307 138l-584 -287l-31 64l615 300v-77z" />
    <glyph glyph-name="hyphen_greater.liga" 
d="M138 602l327 -275v-69l-333 -280l-45 57l269 223h-787v69h786l-264 217z" />
    <glyph glyph-name="hyphen_hyphen.liga" 
d="M-30 258h-311v69h317zM350 258h-311v69h317z" />
    <glyph glyph-name="less_bar.liga" 
d="M169 704l75 6v-892h-75l-523 439v69zM-279 287l448 -373v700l-448 -317v-10z" />
    <glyph glyph-name="less_equal.liga" 
d="M312 95l-31 -64l-584 287v69l574 280l37 -63l-512 -247v-10zM-303 138v77l615 -300l-31 -64z" />
    <glyph glyph-name="less_hyphen.liga" 
d="M436 327l-6 -69h-784l268 -223l-46 -57l-332 279v69l329 277l45 -58l-263 -218h789z" />
    <glyph glyph-name="less_slash.liga" 
d="M258 726l69 -32l-463 -883l-71 29l73 140l-330 277v69l329 277l45 -58l-299 -248v-10l290 -241z" />
    <glyph glyph-name="plus_plus.liga" 
d="M248 327h177l-1 -68h-176v-187h-73v187h-352v-187h-73v187h-178v68h178v187h73v-187h352v187h73v-187z" />
    <glyph glyph-name="question_question.liga" 
d="M-387 678q390 -21 390 -160q0 -30 -21 -59t-51.5 -54t-61.5 -50.5t-55 -58.5t-28 -68l-57 1q2 40 22.5 75.5t47.5 61t54 48t45.5 44.5t18.5 41q0 26 -24 44.5t-96 34.5t-192 24zM-7 678q390 -21 390 -160q0 -30 -21 -59t-51.5 -54t-61.5 -50.5t-55 -58.5t-28 -68l-57 1
q2 40 22.5 75.5t47.5 61t54 48t45.5 44.5t18.5 41q0 26 -24 44.5t-96 34.5t-192 24zM-305 0l2 109h111l-3 -109h-110zM75 0l2 109h111l-3 -109h-110z" />
    <glyph glyph-name="slash_greater.liga" 
d="M139 602l326 -275v-69l-333 -280l-45 57l304 252v10l-288 237l-379 -723l-71 29l465 886l69 -32z" />
    <glyph glyph-name="underscore_underscore.liga" 
d="M560 -50v-66h-1120v66h1120z" />
    <glyph glyph-name="LIG" 
 />
    </font>
</defs>
</svg>
