<?xml version="1.0" standalone="no"?>
<!DOCTYPE svg PUBLIC "-//W3C//DTD SVG 1.1//EN" "http://www.w3.org/Graphics/SVG/1.1/DTD/svg11.dtd" >
<svg xmlns="http://www.w3.org/2000/svg" xmlns:xlink="http://www.w3.org/1999/xlink" version="1.1">
<metadata>
Created by FontForge 20170731 at Wed May 27 05:00:01 2020
 By Aleksey,,,
Copyright (C) 2016 Hoefler &#38; Co. http://www.typography.com
</metadata>
<defs>
<font id="OperatorMonoLig-Light" horiz-adv-x="550" >
  <font-face 
    font-family="Operator Mono Lig Light"
    font-weight="300"
    font-stretch="normal"
    units-per-em="1000"
    panose-1="2 0 0 9 0 0 0 0 0 0"
    ascent="800"
    descent="-200"
    x-height="484"
    cap-height="620"
    bbox="-1560 -284 609.145 1140"
    underline-thickness="49"
    underline-position="-171"
    unicode-range="U+0020-E10D"
  />
<missing-glyph 
d="M5 -200v1000h540v-1000h-540zM82 750l193 -390l193 390h-386zM491 676l-186 -376l186 -376v752zM59 -76l186 376l-186 376v-752zM275 240l-193 -390h386z" />
    <glyph glyph-name=".notdef" 
d="M5 -200v1000h540v-1000h-540zM82 750l193 -390l193 390h-386zM491 676l-186 -376l186 -376v752zM59 -76l186 376l-186 376v-752zM275 240l-193 -390h386z" />
    <glyph glyph-name=".null" horiz-adv-x="0" 
 />
    <glyph glyph-name="nonmarkingreturn" horiz-adv-x="333" 
 />
    <glyph glyph-name="space" unicode=" " 
 />
    <glyph glyph-name="exclam" unicode="!" 
d="M299 226h-40q0 65 -5.5 233.5t-6.5 216.5h77q-2 -35 -12.5 -209t-12.5 -241zM319 0h-93l2 96h94z" />
    <glyph glyph-name="quotedbl" unicode="&#x22;" 
d="M396 375h-39l-5 291h78l3 -34zM184 375h-40l-5 291h78l4 -34z" />
    <glyph glyph-name="numbersign" unicode="#" 
d="M336 235l15 152h-137l-15 -152h137zM312 0l18 183h-137l-18 -183h-46l18 183h-103l6 52h103l15 152h-104l6 52h103l18 181h46l-18 -181h137l18 181h46l-18 -181h104l-5 -52h-104l-15 -152h104l-5 -52h-105l-18 -183h-46z" />
    <glyph glyph-name="dollar" unicode="$" 
d="M162 470q0 -28 28 -54.5t81 -59.5l33 185q-142 -3 -142 -71zM404 161q0 29 -28 55.5t-81 59.5l-36 -199q73 4 109 27t36 57zM236 -87h-55l20 109q-54 0 -121 9l11 58q68 -11 126 -13l40 223q-36 21 -58.5 36t-48 36.5t-38 44t-12.5 46.5q0 52 52 89t157 43l20 112h55
l-22 -111q55 -2 101 -8l-6 -58q-63 9 -111 12l-38 -208q36 -22 58.5 -37.5t48.5 -37.5t38.5 -45t12.5 -48q0 -53 -53 -93t-158 -48z" />
    <glyph glyph-name="percent" unicode="%" 
d="M149 634q40 0 65 -36t25 -98q0 -65 -28 -103.5t-70 -38.5t-67 35.5t-25 97.5q0 65 28 104t72 39zM438 630l43 -24l-368 -622l-44 26zM145 585q-21 0 -33 -23.5t-12 -66.5q0 -90 43 -90q46 0 46 91q0 89 -44 89zM402 -12q-41 0 -66 36t-25 98q0 65 28 104t71 39
q41 0 66 -36t25 -98q0 -65 -28 -104t-71 -39zM405 36q45 0 45 91q0 89 -43 89q-46 0 -46 -90t44 -90z" />
    <glyph glyph-name="ampersand" unicode="&#x26;" 
d="M511 27l-48 -40q-65 80 -100 119q-78 -118 -182 -118q-65 0 -101.5 39.5t-36.5 99.5q0 110 134 195q-63 81 -63 139q0 72 66 122.5t212 47.5l4 -58q-224 10 -224 -106q0 -38 34.5 -86t130.5 -156q6 -6 9 -9.5t8.5 -9.5t9.5 -11q43 92 68 209l55 -7q-38 -145 -91 -238
q67 -75 115 -132zM193 40q75 0 139 102q-123 142 -130 150q-100 -69 -100 -152q0 -45 23.5 -72.5t67.5 -27.5z" />
    <glyph glyph-name="quotesingle" unicode="'" 
d="M295 363h-42l-4 303h85l4 -36z" />
    <glyph glyph-name="parenleft" unicode="(" 
d="M424 722l42 -40q-153 -117 -221 -220t-68 -205q0 -100 67 -202.5t218 -219.5l-42 -40q-159 128 -231 240t-72 220q0 111 73 225t234 242z" />
    <glyph glyph-name="parenright" unicode=")" 
d="M126 -204l-42 40q153 117 221 220t68 205q0 100 -67.5 202t-217.5 218l42 42q159 -128 231 -240t72 -220q0 -111 -73 -225t-234 -242z" />
    <glyph glyph-name="asterisk" unicode="*" 
d="M368 296l-95 123l-115 -104l-29 25l89 127l-138 78l16 36l149 -46l32 155l40 -3l3 -158l157 17l9 -36l-150 -52l65 -142z" />
    <glyph glyph-name="plus" unicode="+" 
d="M485 264h-182v-193h-55v193h-184v52h184v192h55v-192h183z" />
    <glyph glyph-name="comma" unicode="," 
d="M197 -183q53 60 58.5 128.5t-34.5 153.5l92 6q48 -171 -85 -299z" />
    <glyph glyph-name="hyphen" unicode="-" 
d="M434 316l-3 -52h-311v52h314z" />
    <glyph glyph-name="period" unicode="." 
d="M321 0h-97l4 100h98z" />
    <glyph glyph-name="slash" unicode="/" 
d="M485 717l51 -24l-466 -874l-54 19z" />
    <glyph glyph-name="zero" unicode="0" 
d="M269 -12q-100 0 -154.5 83t-54.5 230q0 151 60 241t162 90q100 0 154.5 -83t54.5 -230q0 -150 -60.5 -240.5t-161.5 -90.5zM120 312q0 -22 2 -58l300 156q-29 170 -145 170q-76 0 -116.5 -70t-40.5 -198zM275 40q76 0 115.5 70t39.5 198q0 20 -2 54l-299 -156
q14 -80 51 -123t95 -43z" />
    <glyph glyph-name="one" unicode="1" 
d="M479 0h-382v53h173v459l-162 -10l-1 44l163 21v71l60 5v-590h155z" />
    <glyph glyph-name="two" unicode="2" 
d="M479 0h-395l-5 50q175 147 246.5 228.5t71.5 158.5q0 43 -25 71t-92.5 45.5t-181.5 17.5l5 57q354 4 354 -178q0 -89 -71 -175t-235 -221h328v-54z" />
    <glyph glyph-name="three" unicode="3" 
d="M98 -11l-5 57q321 16 321 128q0 106 -270 136v30l251 226h-296v54h357l5 -53l-245 -221q256 -39 256 -167q0 -81 -91 -131t-283 -59z" />
    <glyph glyph-name="four" unicode="4" 
d="M502 136h-73v-136h-57v136h-284q-2 86 16.5 220.5t52.5 271.5l66 -5q-80 -340 -87 -433h236v225l57 6v-231h79z" />
    <glyph glyph-name="five" unicode="5" 
d="M467 203q0 -85 -92 -142t-277 -72l-4 57q169 16 242.5 54t73.5 101q0 109 -302 129l20 290h320l-6 -54h-263l-13 -192q301 -27 301 -171z" />
    <glyph glyph-name="six" unicode="6" 
d="M275 -10q-90 0 -145 62.5t-55 176.5q0 266 299 413l26 -54q-230 -101 -261 -285q68 65 148.5 73.5t136 -40.5t55.5 -137q0 -94 -59.5 -151.5t-144.5 -57.5zM281 42q59 0 99.5 41t40.5 108q0 73 -44 110.5t-111.5 26t-130.5 -69.5q-1 -7 -1 -22q0 -94 40.5 -144t106.5 -50
z" />
    <glyph glyph-name="seven" unicode="7" 
d="M221 -4l-63 7q100 290 265 558l-3 3h-334l4 56h393v-52q-162 -275 -262 -572z" />
    <glyph glyph-name="eight" unicode="8" 
d="M264 -12q-82 0 -134.5 40.5t-52.5 105.5q0 109 146 180q-64 37 -99.5 74.5t-35.5 87.5q0 62 53 109t142 47q78 0 129 -39t51 -103q0 -55 -36.5 -95.5t-105.5 -74.5q35 -19 57.5 -34t47 -36t36.5 -46t12 -53q0 -70 -58 -116.5t-152 -46.5zM147 485q0 -44 35 -75.5
t103 -69.5q119 58 119 138q0 46 -34 75t-94 29q-61 0 -95 -28.5t-34 -68.5zM274 38q63 0 101.5 29t38.5 75q0 19 -9.5 37.5t-21 31.5t-37 30.5t-40 25.5t-47.5 27q-122 -58 -122 -145q0 -50 36 -80.5t101 -30.5z" />
    <glyph glyph-name="nine" unicode="9" 
d="M176 -22l-27 54q123 54 186 124.5t78 161.5q-51 -49 -112 -65.5t-111 -2t-83.5 59.5t-33.5 111q0 94 59.5 151.5t143.5 57.5q90 0 145 -62.5t55 -176.5q0 -267 -300 -413zM130 429q0 -74 44.5 -111t112.5 -25t131 70v21q0 94 -40.5 144t-107.5 50q-59 0 -99.5 -41
t-40.5 -108z" />
    <glyph glyph-name="colon" unicode=":" 
d="M327 335h-96l1 101h97zM318 0h-96l3 100h98z" />
    <glyph glyph-name="semicolon" unicode=";" 
d="M328 335h-96l1 101h97zM203 -183q53 60 58.5 128.5t-33.5 152.5l92 6q47 -171 -86 -298z" />
    <glyph glyph-name="less" unicode="&#x3c;" 
d="M418 595l36 -43l-306 -258v-8l311 -264l-36 -42l-333 283v53z" />
    <glyph glyph-name="equal" unicode="=" 
d="M468 431l-1 -52h-385v52h386zM468 208l-1 -52h-385v52h386z" />
    <glyph glyph-name="greater" unicode="&#x3e;" 
d="M126 -20l-35 42l312 264v8l-306 258l36 43l327 -278v-54z" />
    <glyph glyph-name="question" unicode="?" 
d="M87 621l6 57q387 -23 387 -160q0 -30 -21.5 -59.5t-53 -55t-63.5 -51.5t-56.5 -60t-28.5 -69l-42 1q2 39 24 75t51 62.5t58 50.5t49 48t20 45q0 96 -330 116zM274 0h-90l1 96h91z" />
    <glyph glyph-name="at" unicode="@" 
d="M446 -152q-109 -14 -186 8.5t-120.5 79t-62.5 132.5t-19 179q0 196 73 315t188 119q163 0 163 -234q0 -209 5 -374l-51 -6l-2 17q-1 17 -2 26q-45 -51 -97 -51q-51 0 -83.5 51.5t-32.5 137.5q0 116 56 176.5t151 52.5q-8 154 -114 154q-89 0 -145 -99t-56 -278
q0 -96 15 -163t51.5 -117t103.5 -69t165 -7v-50zM353 109q38 0 74 38v275q-82 19 -117 -24t-35 -138q0 -151 78 -151z" />
    <glyph glyph-name="A" unicode="A" 
d="M445 -3q-19 69 -59 205h-225q-38 -134 -57 -202h-61q91 321 188 622h88q97 -300 188 -619zM270 567q-64 -212 -95 -317h197q-57 196 -95 317h-7z" />
    <glyph glyph-name="B" unicode="B" 
d="M490 172q1 -111 -107 -153.5t-282 -18.5v620q368 44 368 -142q0 -61 -36 -100t-96 -56q71 -11 111.5 -48t41.5 -102zM163 572v-236q132 -3 189 28t57 100q0 136 -246 108zM163 49q265 -35 265 119q0 74 -62.5 99.5t-202.5 19.5v-238z" />
    <glyph glyph-name="C" unicode="C" 
d="M476 51l-6 -54q-114 -7 -194.5 12.5t-124.5 63t-63 98.5t-19 128q0 67 20.5 121.5t64.5 100.5t123.5 74t188.5 32l4 -60q-102 -3 -170.5 -22.5t-104 -55.5t-49 -78.5t-13.5 -102.5q0 -67 15.5 -114t53.5 -82t106 -50t168 -11z" />
    <glyph glyph-name="D" unicode="D" 
d="M496 323q0 -185 -104 -270t-300 -54v622q213 31 308.5 -43t95.5 -255zM433 311q0 153 -66.5 216t-213.5 44v-521q139 -21 209.5 46.5t70.5 214.5z" />
    <glyph glyph-name="E" unicode="E" 
d="M483 54l-6 -54h-367v620h369v-54h-306v-228h267v-48h-267v-236h310z" />
    <glyph glyph-name="F" unicode="F" 
d="M449 279h-269v-279h-62v620h373v-54h-311v-238h269v-49z" />
    <glyph glyph-name="G" unicode="G" 
d="M471 6q-210 -44 -312 37t-102 251q0 319 391 333l4 -60q-100 -2 -167.5 -22t-102.5 -57t-48.5 -80t-13.5 -102q0 -140 67 -207.5t226 -52.5q-1 82 -3 265h60q0 -265 1 -305z" />
    <glyph glyph-name="H" unicode="H" 
d="M401 0v290h-252v-290h-63v620h63v-281h252v281h63v-620h-63z" />
    <glyph glyph-name="I" unicode="I" 
d="M305 570v-520h165l-5 -50h-382v50h160v520h-160v50h382v-50h-160z" />
    <glyph glyph-name="J" unicode="J" 
d="M132 620h283v-425q0 -75 -29 -120t-100 -67t-193 -19v58q112 -5 166.5 7.5t73.5 43.5t19 98v373h-220v51z" />
    <glyph glyph-name="K" unicode="K" 
d="M444 -5l-211 293h-71v-288h-62v620h62v-282h74l195 282h67l-212 -304l226 -312z" />
    <glyph glyph-name="L" unicode="L" 
d="M491 0h-371v620h62v-566h315z" />
    <glyph glyph-name="M" unicode="M" 
d="M397 620h81v-620h-60l2 525h-4l-115 -427h-52l-118 427h-4l2 -525h-58v620h82q102 -371 121 -442h4z" />
    <glyph glyph-name="N" unicode="N" 
d="M399 0l-251 526h-5l2 -526h-59v620h74l243 -514h4l-2 514h59v-620h-65z" />
    <glyph glyph-name="O" unicode="O" 
d="M266 -15q-103 0 -160 82t-57 232q0 160 63.5 248t172.5 88q102 0 158.5 -82t57.5 -232q1 -159 -62.5 -247.5t-172.5 -88.5zM273 582q-78 0 -119.5 -69.5t-41.5 -200.5q0 -134 42 -204t123 -70q77 0 119 69.5t42 200.5q0 133 -42.5 203.5t-122.5 70.5z" />
    <glyph glyph-name="P" unicode="P" 
d="M168 0h-62v618q188 30 289 -21t101 -165q0 -205 -328 -222v-210zM434 421q0 87 -67.5 127t-198.5 21v-301q266 -16 266 153z" />
    <glyph glyph-name="Q" unicode="Q" 
d="M449 -128l-220 81l12 33q-91 10 -141.5 91t-50.5 222q0 160 63.5 248t172.5 88q102 0 158.5 -82t57.5 -232q1 -145 -52 -232t-146 -101v-1l165 -63zM273 582q-78 0 -119.5 -69.5t-41.5 -200.5q0 -134 42 -204t123 -70q77 0 119 69.5t42 200.5q0 133 -42.5 203.5
t-122.5 70.5z" />
    <glyph glyph-name="R" unicode="R" 
d="M443 -10l-135 249l-146 -4v-235h-62v618q192 31 279.5 -15.5t87.5 -148.5q0 -109 -108 -185l150 -267zM162 570v-287l154 3q89 60 89 156q0 76 -60 111.5t-183 16.5z" />
    <glyph glyph-name="S" unicode="S" 
d="M89 54q164 -15 243.5 17t79.5 87q0 33 -33 64t-80.5 56t-95 51t-80.5 61.5t-33 75.5q0 73 85.5 120.5t261.5 37.5l4 -58q-288 18 -288 -89q0 -32 33 -62t80.5 -55t95 -51.5t80.5 -63t33 -77.5q0 -36 -22 -68.5t-66 -59t-121.5 -39.5t-177.5 -7z" />
    <glyph glyph-name="T" unicode="T" 
d="M307 566v-566h-63v566h-202l5 54h460v-54h-200z" />
    <glyph glyph-name="U" unicode="U" 
d="M270 -15q-89 0 -138.5 54.5t-49.5 156.5v424h62v-417q0 -82 35 -122.5t98 -40.5q65 0 96.5 36t31.5 113v431h63v-423q0 -101 -52 -156.5t-146 -55.5z" />
    <glyph glyph-name="V" unicode="V" 
d="M321 -2h-91q-103 324 -185 619l63 6q72 -268 164 -568h9q87 282 164 565h60q-81 -295 -184 -622z" />
    <glyph glyph-name="W" unicode="W" 
d="M371 0l-96 348l-94 -348h-73q-30 237 -49 620h62q15 -350 34 -544h4q21 75 54 199.5t43 162.5h41q27 -100 99 -362h3q18 159 34 544h59q-18 -371 -50 -620h-71z" />
    <glyph glyph-name="X" unicode="X" 
d="M437 -3l-163 269l-160 -266h-66l190 309l-190 308l67 6l165 -270l158 267h67l-190 -310l189 -307z" />
    <glyph glyph-name="Y" unicode="Y" 
d="M307 0h-63v206l-202 413l67 2l169 -354l166 353h65l-202 -412v-208z" />
    <glyph glyph-name="Z" unicode="Z" 
d="M478 0h-408v54l343 512l-338 -2l5 56h398v-54l-341 -512l346 2z" />
    <glyph glyph-name="bracketleft" unicode="[" 
d="M143 -178v870h321v-51h-263v-769h266l-6 -50h-318z" />
    <glyph glyph-name="backslash" unicode="\" 
d="M65 716l470 -878l-56 -16l-466 871z" />
    <glyph glyph-name="bracketright" unicode="]" 
d="M89 -127h262v768h-262v52h319v-871h-320z" />
    <glyph glyph-name="asciicircum" unicode="^" 
d="M447 164l-175 245l-169 -245l-43 32l204 293l15 3l214 -295z" />
    <glyph glyph-name="underscore" unicode="_" 
d="M515 -50v-50h-481v50h481z" />
    <glyph glyph-name="grave" unicode="`" 
d="M380 577l-20 -27q-120 70 -217 155l50 52q95 -109 187 -180z" />
    <glyph glyph-name="a" unicode="a" 
d="M244 38q82 0 156 61q-2 68 -2 127q-266 27 -266 -99q0 -42 30.5 -65.5t81.5 -23.5zM409 -2q0 4 -6 64q-80 -74 -181 -74q-67 0 -108.5 33.5t-41.5 91.5q0 81 83 126.5t242 33.5q-4 92 -65.5 125.5t-229.5 40.5l7 54q139 -5 213 -30t105 -76.5t31 -145.5q0 -98 6 -240z
" />
    <glyph glyph-name="b" unicode="b" 
d="M237 -11q-75 0 -139 24v685l61 5v-264q69 56 147 56q80 0 132 -63.5t52 -168.5q0 -123 -75 -198.5t-178 -75.5zM258 42q75 0 123.5 54.5t48.5 151.5q0 92 -40.5 144t-105.5 52q-68 0 -125 -46v-338q53 -18 99 -18z" />
    <glyph glyph-name="c" unicode="c" 
d="M85 235q0 52 19 95t60.5 79t115 58t173.5 25l4 -58q-93 -1 -155.5 -15.5t-96 -41t-47 -58.5t-13.5 -76q0 -51 15 -87t50.5 -63t99 -38t155.5 -7l-8 -52q-105 -6 -179.5 9.5t-115.5 49.5t-59 78t-18 102z" />
    <glyph glyph-name="d" unicode="d" 
d="M268 40q64 0 124 48q-3 139 -3 340q-45 15 -87 15q-79 0 -130 -55.5t-51 -153.5q0 -93 40 -143.5t107 -50.5zM399 -2l-4 52q-68 -62 -149 -62t-133.5 62.5t-52.5 167.5q0 128 78.5 202.5t191.5 74.5q27 0 59 -5v208l61 5v-223q0 -321 7 -478z" />
    <glyph glyph-name="e" unicode="e" 
d="M450 -11q-145 2 -229.5 32t-117 81.5t-32.5 133.5q0 110 65.5 185t159.5 75q96 0 144.5 -72t34.5 -189l-344 -8q3 -65 32.5 -103t100 -58.5t194.5 -23.5zM284 445q-67 0 -108 -47t-45 -131l288 8q2 78 -33 124t-102 46z" />
    <glyph glyph-name="f" unicode="f" 
d="M472 46l-5 -46h-383v46h140v386h-146l6 47h140q1 104 64.5 160t219.5 64l5 -59q-100 -5 -148 -21t-64.5 -45.5t-16.5 -90.5v-8h198v-47h-198v-386h188z" />
    <glyph glyph-name="g" unicode="g" 
d="M128 -171l-6 56q93 7 145 18t82 35.5t38.5 56.5t8.5 90q-66 -51 -148 -51q-81 0 -133.5 56t-52.5 151q0 114 75 184t181 70q65 0 137 -23q2 -54 2 -372q0 -64 -15 -109t-51.5 -81t-101.5 -56t-161 -25zM270 84q63 0 126 43v299q-51 17 -99 17q-75 0 -124.5 -50
t-49.5 -137q0 -83 40.5 -127.5t106.5 -44.5z" />
    <glyph glyph-name="h" unicode="h" 
d="M294 443q-68 0 -138 -47v-396h-60v698l60 5v-267q78 59 160 59q148 0 148 -168v-327h-60v308q0 72 -28 103.5t-82 31.5z" />
    <glyph glyph-name="i" unicode="i" 
d="M320 567h-61l5 132h64zM511 0h-437v47h190v387l-188 8l5 42h244v-437h191z" />
    <glyph glyph-name="j" unicode="j" 
d="M362 567h-60l3 132h63zM369 40q0 -108 -71.5 -158t-254.5 -57l2 58q87 4 137 12t79 25.5t38 42t9 66.5v405l-221 8l4 42h278v-444z" />
    <glyph glyph-name="k" unicode="k" 
d="M443 -5l-190 229l-83 -2v-222h-60v698l60 5v-435l85 2q86 90 180 217l62 -5q-96 -130 -190 -232l201 -245z" />
    <glyph glyph-name="l" unicode="l" 
d="M466 0h-382v47h163v600l-153 7l6 43h208v-650h164z" />
    <glyph glyph-name="m" unicode="m" 
d="M201 443q-42 0 -84 -44q5 -145 5 -399h-59q0 312 -6 482l54 4l4 -47q51 56 108 56t76 -51q53 51 109 51q86 0 86 -107v-388h-59v364q0 43 -11.5 61t-41.5 18q-38 0 -77 -34q1 -6 1 -20v-389h-53v366q0 42 -11.5 59.5t-40.5 17.5z" />
    <glyph glyph-name="n" unicode="n" 
d="M294 443q-69 0 -142 -49q5 -143 5 -394h-61q0 324 -7 482l56 4l5 -55q81 64 166 64q148 0 148 -168v-327h-60v308q0 72 -28 103.5t-82 31.5z" />
    <glyph glyph-name="o" unicode="o" 
d="M267 -14q-91 0 -149 67.5t-58 181.5q0 115 65.5 188.5t158.5 73.5q92 0 149 -66.5t57 -180.5q0 -117 -65 -190.5t-158 -73.5zM276 37q69 0 111.5 53.5t42.5 147.5q0 98 -43 153t-113 55q-68 0 -110.5 -53t-42.5 -146q0 -99 42.5 -154.5t112.5 -55.5z" />
    <glyph glyph-name="p" unicode="p" 
d="M255 41q75 0 125 55.5t50 151.5q0 92 -41 144t-105 52q-68 0 -128 -48q4 -175 5 -338q47 -17 94 -17zM161 -165l-61 -5v169q0 324 -6 483l56 4l4 -51q73 60 152 60q80 0 132 -63.5t52 -168.5q0 -125 -75.5 -200t-183.5 -75q-36 0 -70 7v-160z" />
    <glyph glyph-name="q" unicode="q" 
d="M392 -169v217q-68 -60 -147 -60q-81 0 -133 62.5t-52 167.5q0 126 78 201.5t186 75.5q64 0 129 -25v-634zM267 40q64 0 125 50v335q-48 18 -91 18q-79 0 -129.5 -55.5t-50.5 -154.5q0 -93 40 -143t106 -50z" />
    <glyph glyph-name="r" unicode="r" 
d="M432 0h-365v47h137q-1 44 -3 185.5t-4 201.5l-128 7l5 43h178q3 -44 5 -81q86 83 232 98l3 -64q-147 -11 -233 -74q0 -30 1.5 -138.5t2.5 -177.5h175z" />
    <glyph glyph-name="s" unicode="s" 
d="M433 487l3 -55q-104 12 -162.5 1.5t-79.5 -26.5t-21 -40q0 -25 29 -47t70 -39.5t82 -37t70 -47.5t29 -63q0 -30 -18 -55.5t-56.5 -46.5t-109.5 -30.5t-166 -3.5l3 55q84 -5 139 -2.5t87.5 15t45.5 27.5t13 34q0 32 -43.5 60t-96.5 46.5t-96.5 51t-43.5 73.5q0 28 17 53
t52.5 46t100.5 29.5t152 1.5z" />
    <glyph glyph-name="t" unicode="t" 
d="M459 -9q-152 -1 -213 35.5t-61 124.5v285h-102l8 48h94v137l60 6v-143h209v-48h-209v-275q0 -67 45 -91t174 -26z" />
    <glyph glyph-name="u" unicode="u" 
d="M405 -1l-5 55q-82 -66 -165 -66q-146 0 -146 169v325l61 5v-311q0 -72 27 -103.5t80 -31.5q69 0 141 50q-4 113 -4 393h60q0 -322 7 -482z" />
    <glyph glyph-name="v" unicode="v" 
d="M280 55q82 196 161 429h62q-79 -227 -188 -488h-79q-96 227 -186 487l61 3q81 -238 162 -431h7z" />
    <glyph glyph-name="w" unicode="w" 
d="M378 0l-103 292l-103 -292h-56q-31 191 -51 484h61q15 -238 30 -402h4q4 10 26.5 75t46 132.5t24.5 71.5h40q87 -246 99 -281h3q15 175 29 404h58q-18 -266 -50 -484h-58z" />
    <glyph glyph-name="x" unicode="x" 
d="M430 -2l-158 208l-157 -206h-64l186 240l-186 242l66 5l162 -209l155 206h66l-185 -241l182 -240z" />
    <glyph glyph-name="y" unicode="y" 
d="M70 -178l-6 58q94 15 129 38.5t64 89.5h-1q-88 189 -207 475l62 3q82 -204 174 -407h7q20 49 48.5 124.5t60.5 166t41 114.5h58q-84 -236 -169 -440q-47 -118 -96.5 -162t-164.5 -60z" />
    <glyph glyph-name="z" unicode="z" 
d="M478 0h-401v52l328 379h-324l5 53h388v-51l-328 -380l337 1z" />
    <glyph glyph-name="braceleft" unicode="{" 
d="M461 -207q-170 55 -236 96t-66 95q0 33 23.5 65.5t47 59t23.5 46.5q0 31 -41 53.5t-124 26.5l1 45q169 14 169 69q0 16 -16 36t-35 37.5t-35 42.5t-16 50q0 109 309 207l19 -53q-141 -40 -205 -75t-64 -71q0 -27 49 -80t49 -82q0 -30 -28.5 -57t-88.5 -42q58 -14 86 -41
t28 -58t-44.5 -83t-44.5 -83q0 -41 59.5 -75t201.5 -78z" />
    <glyph glyph-name="bar" unicode="|" 
d="M249 700l56 5v-886h-56v881z" />
    <glyph glyph-name="braceright" unicode="}" 
d="M88 -206l-20 53q269 77 269 146q0 28 -49 80.5t-49 80.5q0 30 29.5 57.5t90.5 42.5q-60 14 -89 40.5t-29 58.5q0 31 45 83t45 83q0 41 -59.5 75t-201.5 77l21 52q170 -55 235.5 -96t65.5 -95q0 -33 -23.5 -65.5t-47 -59t-23.5 -46.5q0 -31 41.5 -53.5t124.5 -26.5l-2 -45
q-169 -13 -169 -69q0 -19 25.5 -45.5t51 -58t25.5 -63.5q0 -108 -307 -206z" />
    <glyph glyph-name="asciitilde" unicode="~" 
d="M374 200q-28 0 -58 24t-52 52.5t-47 52.5t-44 24q-24 0 -45 -37t-44 -106l-44 17q59 183 137 183q28 0 58 -24t51.5 -52.5t46.5 -52.5t43 -24q25 0 45 36t45 107l44 -17q-31 -93 -62.5 -138t-73.5 -45z" />
    <glyph glyph-name="uni00A0" unicode="&#xa0;" 
 />
    <glyph glyph-name="exclamdown" unicode="&#xa1;" 
d="M231 620h93l-1 -96h-94zM251 394h40q0 -68 6 -246t7 -203h-78q2 33 12.5 207.5t12.5 241.5z" />
    <glyph glyph-name="cent" unicode="&#xa2;" 
d="M138 267q0 -111 132 -152l39 304q-171 -24 -171 -152zM441 37q-78 3 -132 13l-16 -135h-54l19 147q-177 49 -177 198q0 175 230 213l18 147h54l-19 -141q54 3 106 2l-7 -57q-61 3 -109 0l-40 -320q56 -12 133 -15z" />
    <glyph glyph-name="sterling" unicode="&#xa3;" 
d="M472 54v-54h-409v51l77 1l23 230h-94l5 49h94q9 84 25 134.5t50 89t88.5 56.5t142.5 25l4 -62q-79 -5 -122 -15.5t-70.5 -40t-38 -69.5t-19.5 -118h188l-4 -49h-189l-25 -230z" />
    <glyph glyph-name="yen" unicode="&#xa5;" 
d="M480 120h-175l1 -120h-62l1 120h-178l1 47h177l1 92l-8 14h-170v48h143l-167 298l66 2l168 -309l163 308h62l-164 -299h142v-48h-169l-8 -15l1 -91h176z" />
    <glyph glyph-name="section" unicode="&#xa7;" 
d="M125 279q0 -17 11.5 -31.5t34.5 -27.5t44.5 -22t56 -23t54.5 -23q98 39 98 89q0 17 -11 31t-34.5 27t-44.5 22.5t-56.5 23t-54.5 22.5q-98 -40 -98 -88zM437 41q0 -29 -18.5 -55t-57 -48.5t-107.5 -35t-160 -9.5l4 54q77 -3 134 4t87 20.5t43.5 29.5t13.5 34
q0 29 -48 55.5t-105 45.5t-105 53.5t-48 76.5q0 37 30.5 68.5t80.5 53.5q-69 40 -69 90q0 29 18.5 55.5t56 49t105 35t155.5 9.5l3 -55q-78 3 -134.5 -3.5t-85.5 -20.5t-42.5 -29.5t-13.5 -33.5q0 -29 48 -56t105 -45.5t105 -52.5t48 -76q0 -37 -31 -69t-82 -54
q70 -39 70 -91z" />
    <glyph glyph-name="dieresis" unicode="&#xa8;" 
d="M416 567h-61v132h63zM198 567h-61l-1 132h64z" />
    <glyph glyph-name="copyright" unicode="&#xa9;" 
d="M504 314q0 -142 -64 -224.5t-162 -82.5q-102 0 -167 80.5t-65 218.5q0 135 69 221t169 86q97 0 158.5 -80.5t61.5 -218.5zM86 309q0 -122 55 -193.5t140 -71.5q80 0 131.5 71.5t51.5 195.5q0 120 -51 192.5t-131 72.5q-85 0 -140.5 -74t-55.5 -193zM350 182l-5 -44
q-89 -6 -128 39.5t-39 131.5q0 75 39.5 124t125.5 56l5 -48q-74 -3 -98.5 -34t-24.5 -94q0 -70 27 -102.5t98 -28.5z" />
    <glyph glyph-name="ordfeminine" unicode="&#xaa;" 
d="M248 288q65 0 123 45q-2 48 -2 91q-202 22 -202 -74q0 -62 81 -62zM378 253q-2 22 -5 46q-61 -53 -137 -53q-54 0 -87.5 25t-33.5 69q0 62 65 97.5t188 27.5q-5 63 -51.5 85.5t-172.5 27.5l5 47q158 -6 214.5 -45t56.5 -142q0 -51 5 -181zM112 167h323v-44h-323v44z" />
    <glyph glyph-name="guillemotleft" unicode="&#xab;" 
d="M223 -15l-172 227l3 63l171 223l46 -38l-174 -215l173 -225zM457 -15l-172 227l4 63l171 223l45 -38l-174 -216l173 -224z" />
    <glyph glyph-name="registered" unicode="&#xae;" 
d="M510 442q0 -106 -67.5 -173.5t-168.5 -67.5q-106 0 -169.5 61t-63.5 167q0 107 66 173.5t171 68.5q101 2 166.5 -61t65.5 -168zM473 439q0 94 -54 146t-142 52q-87 0 -143 -56t-56 -149t54 -146t141 -53t143.5 55.5t56.5 150.5zM343 322l-50 82l-55 -2v-79h-39v226
q83 12 128 -6t45 -57q0 -38 -48 -68l59 -89zM238 520v-88l65 1q31 21 31 47q0 23 -25 33.5t-71 6.5z" />
    <glyph glyph-name="macron" unicode="&#xaf;" 
d="M438 663v-53h-326v53h326z" />
    <glyph glyph-name="degree" unicode="&#xb0;" 
d="M444 500q0 -79 -51.5 -129t-123.5 -50q-70 0 -116.5 47t-46.5 124q0 79 51.5 129t123.5 50q71 0 117 -46.5t46 -124.5zM392 501q2 52 -31 87.5t-85 35.5q-51 0 -84 -35.5t-34 -93.5q-2 -54 31 -90.5t85 -36.5q50 0 83.5 36.5t34.5 96.5z" />
    <glyph glyph-name="plusminus" unicode="&#xb1;" 
d="M475 71h-401v52h174v176h-177v52h177v185h55v-185h176l-1 -52h-175v-176h173z" />
    <glyph glyph-name="two.sup" unicode="&#xb2;" 
d="M423 325h-289l-5 42q126 89 178 138.5t52 94.5q0 40 -48 61t-168 23l4 44q262 3 262 -115q0 -55 -50 -109t-163 -134h227v-45z" />
    <glyph glyph-name="three.sup" unicode="&#xb3;" 
d="M144 315l-4 47q231 8 231 73q0 60 -192 80l1 26l170 133v2l-205 -1v45h263l4 -42l-173 -133q181 -25 181 -108q0 -52 -66.5 -85t-209.5 -37z" />
    <glyph glyph-name="acute" unicode="&#xb4;" 
d="M175 585q43 31 97 83.5t88 94.5l52 -48q-38 -37 -101.5 -82.5t-116.5 -75.5z" />
    <glyph glyph-name="mu" unicode="&#xb5;" 
d="M149 -164l-60 -6v652l61 5v-319q0 -127 107 -127q71 0 141 49q-4 113 -4 394h60q0 -322 7 -482l-56 -3l-4 54q-76 -64 -156 -64q-67 0 -100 39z" />
    <glyph glyph-name="paragraph" unicode="&#xb6;" 
d="M409 159v411q-53 0 -97 -6v-394q48 -10 97 -11zM110 363q0 -61 40 -108t114 -72v369q-75 -23 -114.5 -73t-39.5 -116zM312 -108l-54 -7v241q-98 27 -152.5 86.5t-54.5 140.5q0 123 111 200.5t302 76.5v-712l-55 -7v197q-55 0 -97 7v-223z" />
    <glyph glyph-name="periodcentered" unicode="&#xb7;" 
d="M323 258h-96l2 99h97z" />
    <glyph glyph-name="cedilla" unicode="&#xb8;" 
d="M235 -6l18 34q133 -75 133 -138q0 -74 -171 -98l-5 50q65 11 93.5 23t28.5 30q0 37 -97 99z" />
    <glyph glyph-name="one.sup" unicode="&#xb9;" 
d="M431 325h-293v44h130v258l-124 -9l-1 37l125 17v61l50 4v-368h117z" />
    <glyph glyph-name="ordmasculine" unicode="&#xba;" 
d="M102 432q0 86 52 140.5t127 54.5q74 0 121 -50t47 -135q0 -87 -52 -141.5t-129 -54.5q-74 0 -120 50t-46 136zM275 290q56 0 89 37.5t33 106.5q0 72 -33 111t-90 39q-55 0 -87.5 -38t-32.5 -106q0 -73 32.5 -111.5t88.5 -38.5zM439 123h-326v44h326v-44z" />
    <glyph glyph-name="guillemotright" unicode="&#xbb;" 
d="M325 -15l-45 38l174 216l-173 224l47 35l172 -227l-3 -62zM91 -15l-45 38l174 216l-174 224l47 35l173 -227l-4 -62z" />
    <glyph glyph-name="onequarter" unicode="&#xbc;" 
d="M431 425h-293v44h130v258l-124 -9l-1 37l125 17v61l50 4v-368h117zM62 283v43h426v-43h-426zM443 -126l-55 1l1 -85h-48l1 86l-206 -2q-2 124 50 318l55 -4q-17 -56 -38.5 -148.5t-23.5 -121.5h163l-1 137l48 4l-1 -141h59z" />
    <glyph glyph-name="onehalf" unicode="&#xbd;" 
d="M431 425h-293v44h130v258l-124 -9l-1 37l125 17v61l50 4v-368h117zM62 283v43h426v-43h-426zM423 -210h-289l-5 42q126 89 178 138.5t52 94.5q0 40 -48 61t-168 23l4 44q262 3 262 -115q0 -55 -50 -109t-163 -134h227v-45z" />
    <glyph glyph-name="threequarters" unicode="&#xbe;" 
d="M144 415l-4 47q231 8 231 73q0 60 -192 80l1 26l170 133v2l-205 -1v45h263l4 -42l-173 -133q181 -25 181 -108q0 -52 -66.5 -85t-209.5 -37zM62 283v43h426v-43h-426zM443 -126l-55 1l1 -85h-48l1 86l-206 -2q-2 124 50 318l55 -4q-17 -56 -38.5 -148.5t-23.5 -121.5h163
l-1 137l48 4l-1 -141h59z" />
    <glyph glyph-name="questiondown" unicode="&#xbf;" 
d="M277 620h90l-3 -96h-90zM464 -1l-7 -57q-387 23 -387 160q0 30 21.5 59.5t53.5 55t64 51.5t56.5 60t28.5 69l42 -1q-3 -39 -25 -75t-51 -62.5t-58 -50.5t-49 -48t-20 -45q0 -96 331 -116z" />
    <glyph glyph-name="Agrave" unicode="&#xc0;" 
d="M367 713l-20 -27q-120 70 -217 155l50 52q95 -109 187 -180zM445 -3q-19 69 -59 205h-225q-38 -134 -57 -202h-61q91 321 188 622h88q97 -300 188 -619zM270 567q-64 -212 -95 -317h197q-57 196 -95 317h-7z" />
    <glyph glyph-name="Aacute" unicode="&#xc1;" 
d="M179 721q43 31 97 83.5t88 94.5l52 -48q-38 -37 -101.5 -82.5t-116.5 -75.5zM445 -3q-19 69 -59 205h-225q-38 -134 -57 -202h-61q91 321 188 622h88q97 -300 188 -619zM270 567q-64 -212 -95 -317h197q-57 196 -95 317h-7z" />
    <glyph glyph-name="Acircumflex" unicode="&#xc2;" 
d="M408 696l-137 121l-138 -120l-32 30l172 153h3l170 -147zM445 -3q-19 69 -59 205h-225q-38 -134 -57 -202h-61q91 321 188 622h88q97 -300 188 -619zM270 567q-64 -212 -95 -317h197q-57 196 -95 317h-7z" />
    <glyph glyph-name="Atilde" unicode="&#xc3;" 
d="M351 702q-22 0 -44 17t-37 38t-33 38t-33 17q-40 0 -83 -101l-37 15q57 137 127 137q22 0 43.5 -17t36.5 -38t33 -38t33 -17q39 0 83 102l37 -16q-56 -137 -126 -137zM445 -3q-19 69 -59 205h-225q-38 -134 -57 -202h-61q91 321 188 622h88q97 -300 188 -619zM270 567
q-64 -212 -95 -317h197q-57 196 -95 317h-7z" />
    <glyph glyph-name="Adieresis" unicode="&#xc4;" 
d="M415 703h-61v132h63zM197 703h-61l-1 132h64zM445 -3q-19 69 -59 205h-225q-38 -134 -57 -202h-61q91 321 188 622h88q97 -300 188 -619zM270 567q-64 -212 -95 -317h197q-57 196 -95 317h-7z" />
    <glyph glyph-name="Aring" unicode="&#xc5;" 
d="M273 890q56 0 93 -30t37 -73q0 -46 -35.5 -76t-94.5 -30q-57 0 -94 29.5t-37 72.5q0 47 36 77t95 30zM273 849q-38 0 -60.5 -18t-22.5 -46t22.5 -46t60.5 -18t60.5 18t22.5 46t-23 46t-60 18zM445 -3q-19 69 -59 205h-225q-38 -134 -57 -202h-61q91 321 188 622h88
q97 -300 188 -619zM270 567q-64 -212 -95 -317h197q-57 196 -95 317h-7z" />
    <glyph glyph-name="AE" unicode="&#xc6;" 
d="M259 566q-60 -178 -109 -325h115v325h-6zM265 0v193h-131q-28 -82 -63 -193h-63q106 319 213 620h282v-54h-181v-228h156v-48h-156v-236h185l-6 -54h-236z" />
    <glyph glyph-name="Ccedilla" unicode="&#xc7;" 
d="M383 -111q0 -74 -171 -98l-5 50q65 11 93.5 23t28.5 30q0 37 -97 99l14 26q-177 59 -177 280q0 67 20.5 121.5t64.5 100.5t123.5 74t188.5 32l4 -60q-102 -3 -170.5 -22.5t-104 -55.5t-49 -78.5t-13.5 -102.5q0 -67 15.5 -114t53.5 -82t106 -50t168 -11l-6 -54
q-108 -7 -189 12q102 -65 102 -120z" />
    <glyph glyph-name="Egrave" unicode="&#xc8;" 
d="M391 713l-20 -27q-120 70 -217 155l50 52q95 -109 187 -180zM483 54l-6 -54h-367v620h369v-54h-306v-228h267v-48h-267v-236h310z" />
    <glyph glyph-name="Eacute" unicode="&#xc9;" 
d="M203 721q43 31 97 83.5t88 94.5l52 -48q-38 -37 -101.5 -82.5t-116.5 -75.5zM483 54l-6 -54h-367v620h369v-54h-306v-228h267v-48h-267v-236h310z" />
    <glyph glyph-name="Ecircumflex" unicode="&#xca;" 
d="M432 696l-137 121l-138 -120l-32 30l172 153h3l170 -147zM483 54l-6 -54h-367v620h369v-54h-306v-228h267v-48h-267v-236h310z" />
    <glyph glyph-name="Edieresis" unicode="&#xcb;" 
d="M439 703h-61v132h63zM221 703h-61l-1 132h64zM483 54l-6 -54h-367v620h369v-54h-306v-228h267v-48h-267v-236h310z" />
    <glyph glyph-name="Igrave" unicode="&#xcc;" 
d="M369 713l-20 -27q-120 70 -217 155l50 52q95 -109 187 -180zM305 570v-520h165l-5 -50h-382v50h160v520h-160v50h382v-50h-160z" />
    <glyph glyph-name="Iacute" unicode="&#xcd;" 
d="M181 721q43 31 97 83.5t88 94.5l52 -48q-38 -37 -101.5 -82.5t-116.5 -75.5zM305 570v-520h165l-5 -50h-382v50h160v520h-160v50h382v-50h-160z" />
    <glyph glyph-name="Icircumflex" unicode="&#xce;" 
d="M410 696l-137 121l-138 -120l-32 30l172 153h3l170 -147zM305 570v-520h165l-5 -50h-382v50h160v520h-160v50h382v-50h-160z" />
    <glyph glyph-name="Idieresis" unicode="&#xcf;" 
d="M417 703h-61v132h63zM199 703h-61l-1 132h64zM305 570v-520h165l-5 -50h-382v50h160v520h-160v50h382v-50h-160z" />
    <glyph glyph-name="Eth" unicode="&#xd0;" 
d="M496 323q0 -185 -104 -270t-300 -54v293h-75v46h75v283q213 31 308.5 -43t95.5 -255zM153 50q139 -21 209.5 46.5t70.5 214.5q0 153 -66.5 216t-213.5 44v-233h146l-3 -46h-143v-242z" />
    <glyph glyph-name="Ntilde" unicode="&#xd1;" 
d="M350 702q-22 0 -44 17t-37 38t-33 38t-33 17q-40 0 -83 -101l-37 15q57 137 127 137q22 0 43.5 -17t36.5 -38t33 -38t33 -17q39 0 83 102l37 -16q-56 -137 -126 -137zM399 0l-251 526h-5l2 -526h-59v620h74l243 -514h4l-2 514h59v-620h-65z" />
    <glyph glyph-name="Ograve" unicode="&#xd2;" 
d="M370 720l-20 -27q-120 70 -217 155l50 52q95 -109 187 -180zM266 -15q-103 0 -160 82t-57 232q0 160 63.5 248t172.5 88q102 0 158.5 -82t57.5 -232q1 -159 -62.5 -247.5t-172.5 -88.5zM273 582q-78 0 -119.5 -69.5t-41.5 -200.5q0 -134 42 -204t123 -70q77 0 119 69.5
t42 200.5q0 133 -42.5 203.5t-122.5 70.5z" />
    <glyph glyph-name="Oacute" unicode="&#xd3;" 
d="M182 728q43 31 97 83.5t88 94.5l52 -48q-38 -37 -101.5 -82.5t-116.5 -75.5zM266 -15q-103 0 -160 82t-57 232q0 160 63.5 248t172.5 88q102 0 158.5 -82t57.5 -232q1 -159 -62.5 -247.5t-172.5 -88.5zM273 582q-78 0 -119.5 -69.5t-41.5 -200.5q0 -134 42 -204t123 -70
q77 0 119 69.5t42 200.5q0 133 -42.5 203.5t-122.5 70.5z" />
    <glyph glyph-name="Ocircumflex" unicode="&#xd4;" 
d="M412 703l-137 121l-138 -120l-32 30l172 153h3l170 -147zM266 -15q-103 0 -160 82t-57 232q0 160 63.5 248t172.5 88q102 0 158.5 -82t57.5 -232q1 -159 -62.5 -247.5t-172.5 -88.5zM273 582q-78 0 -119.5 -69.5t-41.5 -200.5q0 -134 42 -204t123 -70q77 0 119 69.5
t42 200.5q0 133 -42.5 203.5t-122.5 70.5z" />
    <glyph glyph-name="Otilde" unicode="&#xd5;" 
d="M355 709q-22 0 -44 17t-37 38t-33 38t-33 17q-40 0 -83 -101l-37 15q57 137 127 137q22 0 43.5 -17t36.5 -38t33 -38t33 -17q39 0 83 102l37 -16q-56 -137 -126 -137zM266 -15q-103 0 -160 82t-57 232q0 160 63.5 248t172.5 88q102 0 158.5 -82t57.5 -232
q1 -159 -62.5 -247.5t-172.5 -88.5zM273 582q-78 0 -119.5 -69.5t-41.5 -200.5q0 -134 42 -204t123 -70q77 0 119 69.5t42 200.5q0 133 -42.5 203.5t-122.5 70.5z" />
    <glyph glyph-name="Odieresis" unicode="&#xd6;" 
d="M419 710h-61v132h63zM201 710h-61l-1 132h64zM266 -15q-103 0 -160 82t-57 232q0 160 63.5 248t172.5 88q102 0 158.5 -82t57.5 -232q1 -159 -62.5 -247.5t-172.5 -88.5zM273 582q-78 0 -119.5 -69.5t-41.5 -200.5q0 -134 42 -204t123 -70q77 0 119 69.5t42 200.5
q0 133 -42.5 203.5t-122.5 70.5z" />
    <glyph glyph-name="multiply" unicode="&#xd7;" 
d="M425 98l-151 153l-147 -149l-37 36l147 150l-151 154l38 39l151 -154l148 151l37 -38l-148 -150l152 -154z" />
    <glyph glyph-name="Oslash" unicode="&#xd8;" 
d="M112 312q0 -119 34 -190l232 415q-40 45 -105 45q-78 0 -119.5 -69t-41.5 -201zM277 38q78 0 119.5 69.5t41.5 200.5q0 119 -34 189l-232 -414q39 -45 105 -45zM266 -15q-74 0 -123 42l-32 -58l-41 22l40 71q-61 81 -61 237q0 160 63.5 248t172.5 88q72 0 124 -43l32 59
l41 -22l-41 -72q58 -81 60 -236q1 -159 -62.5 -247.5t-172.5 -88.5z" />
    <glyph glyph-name="Ugrave" unicode="&#xd9;" 
d="M368 713l-20 -27q-120 70 -217 155l50 52q95 -109 187 -180zM270 -15q-89 0 -138.5 54.5t-49.5 156.5v424h62v-417q0 -82 35 -122.5t98 -40.5q65 0 96.5 36t31.5 113v431h63v-423q0 -101 -52 -156.5t-146 -55.5z" />
    <glyph glyph-name="Uacute" unicode="&#xda;" 
d="M179 721q43 31 97 83.5t88 94.5l52 -48q-38 -37 -101.5 -82.5t-116.5 -75.5zM270 -15q-89 0 -138.5 54.5t-49.5 156.5v424h62v-417q0 -82 35 -122.5t98 -40.5q65 0 96.5 36t31.5 113v431h63v-423q0 -101 -52 -156.5t-146 -55.5z" />
    <glyph glyph-name="Ucircumflex" unicode="&#xdb;" 
d="M409 696l-137 121l-138 -120l-32 30l172 153h3l170 -147zM270 -15q-89 0 -138.5 54.5t-49.5 156.5v424h62v-417q0 -82 35 -122.5t98 -40.5q65 0 96.5 36t31.5 113v431h63v-423q0 -101 -52 -156.5t-146 -55.5z" />
    <glyph glyph-name="Udieresis" unicode="&#xdc;" 
d="M416 703h-61v132h63zM198 703h-61l-1 132h64zM270 -15q-89 0 -138.5 54.5t-49.5 156.5v424h62v-417q0 -82 35 -122.5t98 -40.5q65 0 96.5 36t31.5 113v431h63v-423q0 -101 -52 -156.5t-146 -55.5z" />
    <glyph glyph-name="Yacute" unicode="&#xdd;" 
d="M183 722q43 31 97 83.5t88 94.5l52 -48q-38 -37 -101.5 -82.5t-116.5 -75.5zM307 0h-63v206l-202 413l67 2l169 -354l166 353h65l-202 -412v-208z" />
    <glyph glyph-name="Thorn" unicode="&#xde;" 
d="M169 0h-63v620h63v-103q158 16 244 -35t86 -155q0 -203 -330 -219v-108zM437 316q0 84 -69.5 123.5t-198.5 21.5v-295q268 -13 268 150z" />
    <glyph glyph-name="germandbls" unicode="&#xdf;" 
d="M323 354q0 -20 19 -40.5t46.5 -38.5t55 -38t46.5 -47.5t19 -58.5q0 -63 -60.5 -104t-186.5 -32l3 57q92 -12 138.5 11t46.5 63q0 22 -19.5 43t-47 39t-54.5 37.5t-46.5 45.5t-19.5 56q0 26 17 54t38 49.5t38 51.5t17 58q0 38 -24.5 64t-71.5 26q-124 0 -124 -173v-477
h-60v463q0 108 52 174t145 66q70 0 107 -39t37 -92q0 -38 -17.5 -73t-38 -56t-38 -45.5t-17.5 -43.5z" />
    <glyph glyph-name="agrave" unicode="&#xe0;" 
d="M368 579l-20 -27q-120 70 -217 155l50 52q95 -109 187 -180zM244 38q82 0 156 61q-2 68 -2 127q-266 27 -266 -99q0 -42 30.5 -65.5t81.5 -23.5zM409 -2q0 4 -6 64q-80 -74 -181 -74q-67 0 -108.5 33.5t-41.5 91.5q0 81 83 126.5t242 33.5q-4 92 -65.5 125.5t-229.5 40.5
l7 54q139 -5 213 -30t105 -76.5t31 -145.5q0 -98 6 -240z" />
    <glyph glyph-name="aacute" unicode="&#xe1;" 
d="M180 587q43 31 97 83.5t88 94.5l52 -48q-38 -37 -101.5 -82.5t-116.5 -75.5zM244 38q82 0 156 61q-2 68 -2 127q-266 27 -266 -99q0 -42 30.5 -65.5t81.5 -23.5zM409 -2q0 4 -6 64q-80 -74 -181 -74q-67 0 -108.5 33.5t-41.5 91.5q0 81 83 126.5t242 33.5
q-4 92 -65.5 125.5t-229.5 40.5l7 54q139 -5 213 -30t105 -76.5t31 -145.5q0 -98 6 -240z" />
    <glyph glyph-name="acircumflex" unicode="&#xe2;" 
d="M409 562l-137 121l-138 -120l-32 30l172 153h3l170 -147zM244 38q82 0 156 61q-2 68 -2 127q-266 27 -266 -99q0 -42 30.5 -65.5t81.5 -23.5zM409 -2q0 4 -6 64q-80 -74 -181 -74q-67 0 -108.5 33.5t-41.5 91.5q0 81 83 126.5t242 33.5q-4 92 -65.5 125.5t-229.5 40.5
l7 54q139 -5 213 -30t105 -76.5t31 -145.5q0 -98 6 -240z" />
    <glyph glyph-name="atilde" unicode="&#xe3;" 
d="M352 568q-22 0 -44 17t-37 38t-33 38t-33 17q-40 0 -83 -101l-37 15q57 137 127 137q22 0 43.5 -17t36.5 -38t33 -38t33 -17q39 0 83 102l37 -16q-56 -137 -126 -137zM244 38q82 0 156 61q-2 68 -2 127q-266 27 -266 -99q0 -42 30.5 -65.5t81.5 -23.5zM409 -2q0 4 -6 64
q-80 -74 -181 -74q-67 0 -108.5 33.5t-41.5 91.5q0 81 83 126.5t242 33.5q-4 92 -65.5 125.5t-229.5 40.5l7 54q139 -5 213 -30t105 -76.5t31 -145.5q0 -98 6 -240z" />
    <glyph glyph-name="adieresis" unicode="&#xe4;" 
d="M416 569h-61v132h63zM198 569h-61l-1 132h64zM244 38q82 0 156 61q-2 68 -2 127q-266 27 -266 -99q0 -42 30.5 -65.5t81.5 -23.5zM409 -2q0 4 -6 64q-80 -74 -181 -74q-67 0 -108.5 33.5t-41.5 91.5q0 81 83 126.5t242 33.5q-4 92 -65.5 125.5t-229.5 40.5l7 54
q139 -5 213 -30t105 -76.5t31 -145.5q0 -98 6 -240z" />
    <glyph glyph-name="aring" unicode="&#xe5;" 
d="M274 756q56 0 93 -30t37 -73q0 -46 -35.5 -76t-94.5 -30q-57 0 -94 29.5t-37 72.5q0 47 36 77t95 30zM274 715q-38 0 -60.5 -18t-22.5 -46t22.5 -46t60.5 -18t60.5 18t22.5 46t-23 46t-60 18zM244 38q82 0 156 61q-2 68 -2 127q-266 27 -266 -99q0 -42 30.5 -65.5
t81.5 -23.5zM409 -2q0 4 -6 64q-80 -74 -181 -74q-67 0 -108.5 33.5t-41.5 91.5q0 81 83 126.5t242 33.5q-4 92 -65.5 125.5t-229.5 40.5l7 54q139 -5 213 -30t105 -76.5t31 -145.5q0 -98 6 -240z" />
    <glyph glyph-name="ae" unicode="&#xe6;" 
d="M492 -6q-166 4 -217 81q-52 -81 -133 -81q-46 0 -74.5 31.5t-28.5 87.5q0 72 52 111.5t150 42.5q-2 95 -38 127.5t-143 40.5l5 53q91 -5 137.5 -25.5t65.5 -67.5q38 95 120 95q65 0 96 -68.5t23 -189.5l-211 -5q1 -96 42.5 -137t158.5 -43zM378 438q-78 0 -82 -172l155 4
q3 168 -73 168zM163 45q54 0 94 65q-16 44 -16 114q-72 -1 -107.5 -24t-35.5 -73q0 -41 17.5 -61.5t47.5 -20.5z" />
    <glyph glyph-name="ccedilla" unicode="&#xe7;" 
d="M395 -116q0 -74 -171 -98l-5 50q65 11 93.5 23t28.5 30q0 37 -97 99l12 23q-171 45 -171 224q0 52 19 95t60.5 79t115 58t173.5 25l4 -58q-93 -1 -155.5 -15.5t-96 -41t-47 -58.5t-13.5 -76q0 -51 15 -87t50.5 -63t99 -38t155.5 -7l-8 -52q-91 -6 -162 7
q100 -65 100 -119z" />
    <glyph glyph-name="egrave" unicode="&#xe8;" 
d="M378 584l-20 -27q-120 70 -217 155l50 52q95 -109 187 -180zM450 -11q-145 2 -229.5 32t-117 81.5t-32.5 133.5q0 110 65.5 185t159.5 75q96 0 144.5 -72t34.5 -189l-344 -8q3 -65 32.5 -103t100 -58.5t194.5 -23.5zM284 445q-67 0 -108 -47t-45 -131l288 8q2 78 -33 124
t-102 46z" />
    <glyph glyph-name="eacute" unicode="&#xe9;" 
d="M190 592q43 31 97 83.5t88 94.5l52 -48q-38 -37 -101.5 -82.5t-116.5 -75.5zM450 -11q-145 2 -229.5 32t-117 81.5t-32.5 133.5q0 110 65.5 185t159.5 75q96 0 144.5 -72t34.5 -189l-344 -8q3 -65 32.5 -103t100 -58.5t194.5 -23.5zM284 445q-67 0 -108 -47t-45 -131
l288 8q2 78 -33 124t-102 46z" />
    <glyph glyph-name="ecircumflex" unicode="&#xea;" 
d="M420 567l-137 121l-138 -120l-32 30l172 153h3l170 -147zM450 -11q-145 2 -229.5 32t-117 81.5t-32.5 133.5q0 110 65.5 185t159.5 75q96 0 144.5 -72t34.5 -189l-344 -8q3 -65 32.5 -103t100 -58.5t194.5 -23.5zM284 445q-67 0 -108 -47t-45 -131l288 8q2 78 -33 124
t-102 46z" />
    <glyph glyph-name="edieresis" unicode="&#xeb;" 
d="M426 574h-61v132h63zM208 574h-61l-1 132h64zM450 -11q-145 2 -229.5 32t-117 81.5t-32.5 133.5q0 110 65.5 185t159.5 75q96 0 144.5 -72t34.5 -189l-344 -8q3 -65 32.5 -103t100 -58.5t194.5 -23.5zM284 445q-67 0 -108 -47t-45 -131l288 8q2 78 -33 124t-102 46z" />
    <glyph glyph-name="igrave" unicode="&#xec;" 
d="M388 577l-20 -27q-120 70 -217 155l50 52q95 -109 187 -180zM511 0h-437v47h190v387l-188 8l5 42h244v-437h191z" />
    <glyph glyph-name="iacute" unicode="&#xed;" 
d="M200 585q43 31 97 83.5t88 94.5l52 -48q-38 -37 -101.5 -82.5t-116.5 -75.5zM511 0h-437v47h190v387l-188 8l5 42h244v-437h191z" />
    <glyph glyph-name="icircumflex" unicode="&#xee;" 
d="M429 560l-137 121l-138 -120l-32 30l172 153h3l170 -147zM511 0h-437v47h190v387l-188 8l5 42h244v-437h191z" />
    <glyph glyph-name="idieresis" unicode="&#xef;" 
d="M436 567h-61v132h63zM218 567h-61l-1 132h64zM511 0h-437v47h190v387l-188 8l5 42h244v-437h191z" />
    <glyph glyph-name="eth" unicode="&#xf0;" 
d="M265 -12q-87 0 -145.5 62.5t-58.5 167.5q0 130 93 195t214 43q-37 58 -92 108l-133 -72l-17 38l116 63q-44 36 -104 72l37 40q64 -38 119 -84l118 64l16 -38l-102 -55q160 -151 160 -347q0 -122 -63.5 -189.5t-157.5 -67.5zM273 39q71 0 113 53t42 149q0 77 -27 149
q-130 45 -205.5 -5t-75.5 -160q0 -84 42.5 -135t110.5 -51z" />
    <glyph glyph-name="ntilde" unicode="&#xf1;" 
d="M354 577q-22 0 -44 17t-37 38t-33 38t-33 17q-40 0 -83 -101l-37 15q57 137 127 137q22 0 43.5 -17t36.5 -38t33 -38t33 -17q39 0 83 102l37 -16q-56 -137 -126 -137zM294 443q-69 0 -142 -49q5 -143 5 -394h-61q0 324 -7 482l56 4l5 -55q81 64 166 64q148 0 148 -168
v-327h-60v308q0 72 -28 103.5t-82 31.5z" />
    <glyph glyph-name="ograve" unicode="&#xf2;" 
d="M368 581l-20 -27q-120 70 -217 155l50 52q95 -109 187 -180zM267 -14q-91 0 -149 67.5t-58 181.5q0 115 65.5 188.5t158.5 73.5q92 0 149 -66.5t57 -180.5q0 -117 -65 -190.5t-158 -73.5zM276 37q69 0 111.5 53.5t42.5 147.5q0 98 -43 153t-113 55q-68 0 -110.5 -53
t-42.5 -146q0 -99 42.5 -154.5t112.5 -55.5z" />
    <glyph glyph-name="oacute" unicode="&#xf3;" 
d="M180 589q43 31 97 83.5t88 94.5l52 -48q-38 -37 -101.5 -82.5t-116.5 -75.5zM267 -14q-91 0 -149 67.5t-58 181.5q0 115 65.5 188.5t158.5 73.5q92 0 149 -66.5t57 -180.5q0 -117 -65 -190.5t-158 -73.5zM276 37q69 0 111.5 53.5t42.5 147.5q0 98 -43 153t-113 55
q-68 0 -110.5 -53t-42.5 -146q0 -99 42.5 -154.5t112.5 -55.5z" />
    <glyph glyph-name="ocircumflex" unicode="&#xf4;" 
d="M409 564l-137 121l-138 -120l-32 30l172 153h3l170 -147zM267 -14q-91 0 -149 67.5t-58 181.5q0 115 65.5 188.5t158.5 73.5q92 0 149 -66.5t57 -180.5q0 -117 -65 -190.5t-158 -73.5zM276 37q69 0 111.5 53.5t42.5 147.5q0 98 -43 153t-113 55q-68 0 -110.5 -53
t-42.5 -146q0 -99 42.5 -154.5t112.5 -55.5z" />
    <glyph glyph-name="otilde" unicode="&#xf5;" 
d="M352 570q-22 0 -44 17t-37 38t-33 38t-33 17q-40 0 -83 -101l-37 15q57 137 127 137q22 0 43.5 -17t36.5 -38t33 -38t33 -17q39 0 83 102l37 -16q-56 -137 -126 -137zM267 -14q-91 0 -149 67.5t-58 181.5q0 115 65.5 188.5t158.5 73.5q92 0 149 -66.5t57 -180.5
q0 -117 -65 -190.5t-158 -73.5zM276 37q69 0 111.5 53.5t42.5 147.5q0 98 -43 153t-113 55q-68 0 -110.5 -53t-42.5 -146q0 -99 42.5 -154.5t112.5 -55.5z" />
    <glyph glyph-name="odieresis" unicode="&#xf6;" 
d="M416 571h-61v132h63zM198 571h-61l-1 132h64zM267 -14q-91 0 -149 67.5t-58 181.5q0 115 65.5 188.5t158.5 73.5q92 0 149 -66.5t57 -180.5q0 -117 -65 -190.5t-158 -73.5zM276 37q69 0 111.5 53.5t42.5 147.5q0 98 -43 153t-113 55q-68 0 -110.5 -53t-42.5 -146
q0 -99 42.5 -154.5t112.5 -55.5z" />
    <glyph glyph-name="divide" unicode="&#xf7;" 
d="M311 429h-74l1 81h74zM486 316l-1 -52h-421v52h422zM311 69h-74l1 82h74z" />
    <glyph glyph-name="oslash" unicode="&#xf8;" 
d="M121 247q0 -87 35 -143l213 307q-40 35 -95 35q-68 0 -110.5 -53t-42.5 -146zM276 37q69 0 112 53.5t43 147.5q0 85 -35 141l-212 -308q39 -34 92 -34zM267 -14q-64 0 -116 36l-37 -53l-38 25l42 60q-58 68 -58 181q0 115 65.5 188.5t158.5 73.5q66 0 117 -37l37 54
l38 -26l-42 -59q56 -67 56 -179q0 -117 -65 -190.5t-158 -73.5z" />
    <glyph glyph-name="ugrave" unicode="&#xf9;" 
d="M370 579l-20 -27q-120 70 -217 155l50 52q95 -109 187 -180zM405 -1l-5 55q-82 -66 -165 -66q-146 0 -146 169v325l61 5v-311q0 -72 27 -103.5t80 -31.5q69 0 141 50q-4 113 -4 393h60q0 -322 7 -482z" />
    <glyph glyph-name="uacute" unicode="&#xfa;" 
d="M182 587q43 31 97 83.5t88 94.5l52 -48q-38 -37 -101.5 -82.5t-116.5 -75.5zM405 -1l-5 55q-82 -66 -165 -66q-146 0 -146 169v325l61 5v-311q0 -72 27 -103.5t80 -31.5q69 0 141 50q-4 113 -4 393h60q0 -322 7 -482z" />
    <glyph glyph-name="ucircumflex" unicode="&#xfb;" 
d="M411 562l-137 121l-138 -120l-32 30l172 153h3l170 -147zM405 -1l-5 55q-82 -66 -165 -66q-146 0 -146 169v325l61 5v-311q0 -72 27 -103.5t80 -31.5q69 0 141 50q-4 113 -4 393h60q0 -322 7 -482z" />
    <glyph glyph-name="udieresis" unicode="&#xfc;" 
d="M418 569h-61v132h63zM200 569h-61l-1 132h64zM405 -1l-5 55q-82 -66 -165 -66q-146 0 -146 169v325l61 5v-311q0 -72 27 -103.5t80 -31.5q69 0 141 50q-4 113 -4 393h60q0 -322 7 -482z" />
    <glyph glyph-name="yacute" unicode="&#xfd;" 
d="M187 587q43 31 97 83.5t88 94.5l52 -48q-38 -37 -101.5 -82.5t-116.5 -75.5zM70 -178l-6 58q94 15 129 38.5t64 89.5h-1q-88 189 -207 475l62 3q82 -204 174 -407h7q20 49 48.5 124.5t60.5 166t41 114.5h58q-84 -236 -169 -440q-47 -118 -96.5 -162t-164.5 -60z" />
    <glyph glyph-name="thorn" unicode="&#xfe;" 
d="M255 42q76 0 125.5 55t49.5 151q0 92 -40.5 144t-105.5 52t-125 -45v-341q43 -16 96 -16zM159 -164l-60 -6v868l60 5v-265q68 57 147 57q80 0 132 -63.5t52 -168.5q0 -124 -75 -199.5t-180 -75.5q-36 0 -76 8v-160z" />
    <glyph glyph-name="ydieresis" unicode="&#xff;" 
d="M423 569h-61v132h63zM205 569h-61l-1 132h64zM70 -178l-6 58q94 15 129 38.5t64 89.5h-1q-88 189 -207 475l62 3q82 -204 174 -407h7q20 49 48.5 124.5t60.5 166t41 114.5h58q-84 -236 -169 -440q-47 -118 -96.5 -162t-164.5 -60z" />
    <glyph glyph-name="Amacron" unicode="&#x100;" 
d="M437 799v-53h-326v53h326zM445 -3q-19 69 -59 205h-225q-38 -134 -57 -202h-61q91 321 188 622h88q97 -300 188 -619zM270 567q-64 -212 -95 -317h197q-57 196 -95 317h-7z" />
    <glyph glyph-name="amacron" unicode="&#x101;" 
d="M438 665v-53h-326v53h326zM244 38q82 0 156 61q-2 68 -2 127q-266 27 -266 -99q0 -42 30.5 -65.5t81.5 -23.5zM409 -2q0 4 -6 64q-80 -74 -181 -74q-67 0 -108.5 33.5t-41.5 91.5q0 81 83 126.5t242 33.5q-4 92 -65.5 125.5t-229.5 40.5l7 54q139 -5 213 -30t105 -76.5
t31 -145.5q0 -98 6 -240z" />
    <glyph glyph-name="Abreve" unicode="&#x102;" 
d="M271 701q-96 0 -179 143l44 26q39 -65 70.5 -92t69.5 -27q39 0 72 27.5t74 87.5l37 -20q-89 -145 -188 -145zM445 -3q-19 69 -59 205h-225q-38 -134 -57 -202h-61q91 321 188 622h88q97 -300 188 -619zM270 567q-64 -212 -95 -317h197q-57 196 -95 317h-7z" />
    <glyph glyph-name="abreve" unicode="&#x103;" 
d="M272 567q-96 0 -179 143l44 26q39 -65 70.5 -92t69.5 -27q39 0 72 27.5t74 87.5l37 -20q-89 -145 -188 -145zM244 38q82 0 156 61q-2 68 -2 127q-266 27 -266 -99q0 -42 30.5 -65.5t81.5 -23.5zM409 -2q0 4 -6 64q-80 -74 -181 -74q-67 0 -108.5 33.5t-41.5 91.5
q0 81 83 126.5t242 33.5q-4 92 -65.5 125.5t-229.5 40.5l7 54q139 -5 213 -30t105 -76.5t31 -145.5q0 -98 6 -240z" />
    <glyph glyph-name="Aogonek" unicode="&#x104;" 
d="M485 -207q-171 16 -171 87q0 29 29.5 59t98.5 67q-18 66 -56 196h-225q-38 -134 -57 -202h-61q91 321 188 622h88q97 -300 188 -619q-137 -67 -137 -109q0 -37 122 -51zM270 567q-64 -212 -95 -317h197q-57 196 -95 317h-7z" />
    <glyph glyph-name="aogonek" unicode="&#x105;" 
d="M442 -208q-172 16 -172 87q0 30 32 61t106 70q-1 12 -3.5 41.5t-3.5 38.5q-84 -102 -188 -102q-63 0 -102 33.5t-39 91.5q0 81 83 126.5t242 33.5q-4 92 -65.5 125.5t-229.5 40.5l7 54q139 -5 213 -30t105 -76.5t31 -145.5q0 -98 6 -240q-138 -66 -138 -108
q0 -37 122 -51zM236 38q42 0 86 25t77 65q-1 29 -1 98q-266 27 -266 -99q0 -42 28.5 -65.5t75.5 -23.5z" />
    <glyph glyph-name="Cacute" unicode="&#x106;" 
d="M218 721q43 31 97 83.5t88 94.5l52 -48q-38 -37 -101.5 -82.5t-116.5 -75.5zM476 51l-6 -54q-114 -7 -194.5 12.5t-124.5 63t-63 98.5t-19 128q0 67 20.5 121.5t64.5 100.5t123.5 74t188.5 32l4 -60q-102 -3 -170.5 -22.5t-104 -55.5t-49 -78.5t-13.5 -102.5
q0 -67 15.5 -114t53.5 -82t106 -50t168 -11z" />
    <glyph glyph-name="cacute" unicode="&#x107;" 
d="M209 585q43 31 97 83.5t88 94.5l52 -48q-38 -37 -101.5 -82.5t-116.5 -75.5zM85 235q0 52 19 95t60.5 79t115 58t173.5 25l4 -58q-93 -1 -155.5 -15.5t-96 -41t-47 -58.5t-13.5 -76q0 -51 15 -87t50.5 -63t99 -38t155.5 -7l-8 -52q-105 -6 -179.5 9.5t-115.5 49.5t-59 78
t-18 102z" />
    <glyph glyph-name="Cdotaccent" unicode="&#x10a;" 
d="M343 703h-62l3 132h64zM476 51l-6 -54q-114 -7 -194.5 12.5t-124.5 63t-63 98.5t-19 128q0 67 20.5 121.5t64.5 100.5t123.5 74t188.5 32l4 -60q-102 -3 -170.5 -22.5t-104 -55.5t-49 -78.5t-13.5 -102.5q0 -67 15.5 -114t53.5 -82t106 -50t168 -11z" />
    <glyph glyph-name="cdotaccent" unicode="&#x10b;" 
d="M335 567h-62l3 132h64zM85 235q0 52 19 95t60.5 79t115 58t173.5 25l4 -58q-93 -1 -155.5 -15.5t-96 -41t-47 -58.5t-13.5 -76q0 -51 15 -87t50.5 -63t99 -38t155.5 -7l-8 -52q-105 -6 -179.5 9.5t-115.5 49.5t-59 78t-18 102z" />
    <glyph glyph-name="Ccaron" unicode="&#x10c;" 
d="M320 691h-2l-171 145l39 38l137 -121l137 120l32 -31zM476 51l-6 -54q-114 -7 -194.5 12.5t-124.5 63t-63 98.5t-19 128q0 67 20.5 121.5t64.5 100.5t123.5 74t188.5 32l4 -60q-102 -3 -170.5 -22.5t-104 -55.5t-49 -78.5t-13.5 -102.5q0 -67 15.5 -114t53.5 -82t106 -50
t168 -11z" />
    <glyph glyph-name="ccaron" unicode="&#x10d;" 
d="M311 555h-2l-171 145l39 38l137 -121l137 120l32 -31zM85 235q0 52 19 95t60.5 79t115 58t173.5 25l4 -58q-93 -1 -155.5 -15.5t-96 -41t-47 -58.5t-13.5 -76q0 -51 15 -87t50.5 -63t99 -38t155.5 -7l-8 -52q-105 -6 -179.5 9.5t-115.5 49.5t-59 78t-18 102z" />
    <glyph glyph-name="Dcaron" unicode="&#x10e;" 
d="M273 697h-2l-171 145l39 38l137 -121l137 120l32 -31zM496 323q0 -185 -104 -270t-300 -54v622q213 31 308.5 -43t95.5 -255zM433 311q0 153 -66.5 216t-213.5 44v-521q139 -21 209.5 46.5t70.5 214.5z" />
    <glyph glyph-name="dcaron" unicode="&#x10f;" 
d="M517 564q31 63 31.5 125t-18.5 111l73 2q26 -126 -58 -249zM268 40q64 0 124 48q-3 139 -3 340q-45 15 -87 15q-79 0 -130 -55.5t-51 -153.5q0 -93 40 -143.5t107 -50.5zM399 -2l-4 52q-68 -62 -149 -62t-133.5 62.5t-52.5 167.5q0 128 78.5 202.5t191.5 74.5q27 0 59 -5
v208l61 5v-223q0 -321 7 -478z" />
    <glyph glyph-name="Dcroat" unicode="&#x110;" 
d="M496 323q0 -185 -104 -270t-300 -54v293h-75v46h75v283q213 31 308.5 -43t95.5 -255zM153 50q139 -21 209.5 46.5t70.5 214.5q0 153 -66.5 216t-213.5 44v-233h146l-3 -46h-143v-242z" />
    <glyph glyph-name="dcroat" unicode="&#x111;" 
d="M268 40q64 0 124 48q-3 139 -3 340q-47 14 -87 14q-79 0 -130 -55t-51 -153q0 -93 40 -143.5t107 -50.5zM399 -2l-4 52q-68 -62 -149 -62t-133.5 62.5t-52.5 167.5q0 127 78.5 201.5t191.5 74.5q27 0 59 -5v95h-138v42h138v71l61 5v-76h74v-43h-74v-103q0 -321 7 -478z
" />
    <glyph glyph-name="Emacron" unicode="&#x112;" 
d="M461 799v-53h-326v53h326zM483 54l-6 -54h-367v620h369v-54h-306v-228h267v-48h-267v-236h310z" />
    <glyph glyph-name="emacron" unicode="&#x113;" 
d="M448 670v-53h-326v53h326zM450 -11q-145 2 -229.5 32t-117 81.5t-32.5 133.5q0 110 65.5 185t159.5 75q96 0 144.5 -72t34.5 -189l-344 -8q3 -65 32.5 -103t100 -58.5t194.5 -23.5zM284 445q-67 0 -108 -47t-45 -131l288 8q2 78 -33 124t-102 46z" />
    <glyph glyph-name="Ebreve" unicode="&#x114;" 
d="M295 701q-96 0 -179 143l44 26q39 -65 70.5 -92t69.5 -27q39 0 72 27.5t74 87.5l37 -20q-89 -145 -188 -145zM483 54l-6 -54h-367v620h369v-54h-306v-228h267v-48h-267v-236h310z" />
    <glyph glyph-name="ebreve" unicode="&#x115;" 
d="M283 572q-96 0 -179 143l44 26q39 -65 70.5 -92t69.5 -27q39 0 72 27.5t74 87.5l37 -20q-89 -145 -188 -145zM450 -11q-145 2 -229.5 32t-117 81.5t-32.5 133.5q0 110 65.5 185t159.5 75q96 0 144.5 -72t34.5 -189l-344 -8q3 -65 32.5 -103t100 -58.5t194.5 -23.5z
M284 445q-67 0 -108 -47t-45 -131l288 8q2 78 -33 124t-102 46z" />
    <glyph glyph-name="Edotaccent" unicode="&#x116;" 
d="M328 703h-62l3 132h64zM483 54l-6 -54h-367v620h369v-54h-306v-228h267v-48h-267v-236h310z" />
    <glyph glyph-name="edotaccent" unicode="&#x117;" 
d="M315 574h-62l3 132h64zM450 -11q-145 2 -229.5 32t-117 81.5t-32.5 133.5q0 110 65.5 185t159.5 75q96 0 144.5 -72t34.5 -189l-344 -8q3 -65 32.5 -103t100 -58.5t194.5 -23.5zM284 445q-67 0 -108 -47t-45 -131l288 8q2 78 -33 124t-102 46z" />
    <glyph glyph-name="Eogonek" unicode="&#x118;" 
d="M462 -159l-6 -51q-172 16 -172 88q0 55 122 122h-296v620h369v-54h-306v-228h267v-48h-267v-236h310l-6 -54q-137 -66 -137 -109q0 -36 122 -50z" />
    <glyph glyph-name="eogonek" unicode="&#x119;" 
d="M428 -209q-172 16 -172 87q0 58 128 118q-172 6 -242.5 65t-70.5 175q0 110 65.5 185t159.5 75q96 0 144.5 -72t34.5 -189l-344 -8q3 -65 32.5 -103t100 -58.5t194.5 -23.5l-8 -51q-138 -58 -138 -98q0 -38 122 -52zM284 445q-67 0 -108 -47t-45 -131l288 8q2 78 -33 124
t-102 46z" />
    <glyph glyph-name="Ecaron" unicode="&#x11a;" 
d="M304 691h-2l-171 145l39 38l137 -121l137 120l32 -31zM483 54l-6 -54h-367v620h369v-54h-306v-228h267v-48h-267v-236h310z" />
    <glyph glyph-name="ecaron" unicode="&#x11b;" 
d="M291 562h-2l-171 145l39 38l137 -121l137 120l32 -31zM450 -11q-145 2 -229.5 32t-117 81.5t-32.5 133.5q0 110 65.5 185t159.5 75q96 0 144.5 -72t34.5 -189l-344 -8q3 -65 32.5 -103t100 -58.5t194.5 -23.5zM284 445q-67 0 -108 -47t-45 -131l288 8q2 78 -33 124
t-102 46z" />
    <glyph glyph-name="Gbreve" unicode="&#x11e;" 
d="M288 701q-96 0 -179 143l44 26q39 -65 70.5 -92t69.5 -27q39 0 72 27.5t74 87.5l37 -20q-89 -145 -188 -145zM471 6q-210 -44 -312 37t-102 251q0 319 391 333l4 -60q-100 -2 -167.5 -22t-102.5 -57t-48.5 -80t-13.5 -102q0 -140 67 -207.5t226 -52.5q-1 82 -3 265h60
q0 -265 1 -305z" />
    <glyph glyph-name="gbreve" unicode="&#x11f;" 
d="M284 571q-96 0 -179 143l44 26q39 -65 70.5 -92t69.5 -27q39 0 72 27.5t74 87.5l37 -20q-89 -145 -188 -145zM128 -171l-6 56q93 7 145 18t82 35.5t38.5 56.5t8.5 90q-66 -51 -148 -51q-81 0 -133.5 56t-52.5 151q0 114 75 184t181 70q65 0 137 -23q2 -54 2 -372
q0 -64 -15 -109t-51.5 -81t-101.5 -56t-161 -25zM270 84q63 0 126 43v299q-51 17 -99 17q-75 0 -124.5 -50t-49.5 -137q0 -83 40.5 -127.5t106.5 -44.5z" />
    <glyph glyph-name="Gdotaccent" unicode="&#x120;" 
d="M321 703h-62l3 132h64zM471 6q-210 -44 -312 37t-102 251q0 319 391 333l4 -60q-100 -2 -167.5 -22t-102.5 -57t-48.5 -80t-13.5 -102q0 -140 67 -207.5t226 -52.5q-1 82 -3 265h60q0 -265 1 -305z" />
    <glyph glyph-name="gdotaccent" unicode="&#x121;" 
d="M316 573h-62l3 132h64zM128 -171l-6 56q93 7 145 18t82 35.5t38.5 56.5t8.5 90q-66 -51 -148 -51q-81 0 -133.5 56t-52.5 151q0 114 75 184t181 70q65 0 137 -23q2 -54 2 -372q0 -64 -15 -109t-51.5 -81t-101.5 -56t-161 -25zM270 84q63 0 126 43v299q-51 17 -99 17
q-75 0 -124.5 -50t-49.5 -137q0 -83 40.5 -127.5t106.5 -44.5z" />
    <glyph glyph-name="Gcommaaccent" unicode="&#x122;" 
d="M471 6q-210 -44 -312 37t-102 251q0 319 391 333l4 -60q-100 -2 -167.5 -22t-102.5 -57t-48.5 -80t-13.5 -102q0 -140 67 -207.5t226 -52.5q-1 82 -3 265h60q0 -265 1 -305zM241 -271q47 89 7 190q3 0 38.5 1.5t39.5 1.5q21 -108 -55 -203z" />
    <glyph glyph-name="gcommaaccent" unicode="&#x123;" 
d="M332 763q-47 -90 -7 -190l-79 -3q-21 107 56 203zM128 -171l-6 56q93 7 145 18t82 35.5t38.5 56.5t8.5 90q-66 -51 -148 -51q-81 0 -133.5 56t-52.5 151q0 114 75 184t181 70q65 0 137 -23q2 -54 2 -372q0 -64 -15 -109t-51.5 -81t-101.5 -56t-161 -25zM270 84
q63 0 126 43v299q-51 17 -99 17q-75 0 -124.5 -50t-49.5 -137q0 -83 40.5 -127.5t106.5 -44.5z" />
    <glyph glyph-name="Hbar" unicode="&#x126;" 
d="M401 327v123h-252v-123h252zM401 0v278h-252v-278h-63v449h-75v46h75v125h63v-127h252v127h63v-125h75v-46h-75v-449h-63z" />
    <glyph glyph-name="hbar" unicode="&#x127;" 
d="M294 443q-68 0 -138 -47v-396h-61v583h-74v43h74v72l61 5v-77h138v-42h-138v-149q78 59 160 59q148 0 148 -167v-327h-60v308q0 72 -28 103.5t-82 31.5z" />
    <glyph glyph-name="Imacron" unicode="&#x12a;" 
d="M439 799v-53h-326v53h326zM305 570v-520h165l-5 -50h-382v50h160v520h-160v50h382v-50h-160z" />
    <glyph glyph-name="imacron" unicode="&#x12b;" 
d="M458 663v-53h-326v53h326zM511 0h-437v47h190v387l-188 8l5 42h244v-437h191z" />
    <glyph glyph-name="Ibreve" unicode="&#x12c;" 
d="M273 701q-96 0 -179 143l44 26q39 -65 70.5 -92t69.5 -27q39 0 72 27.5t74 87.5l37 -20q-89 -145 -188 -145zM305 570v-520h165l-5 -50h-382v50h160v520h-160v50h382v-50h-160z" />
    <glyph glyph-name="ibreve" unicode="&#x12d;" 
d="M292 565q-96 0 -179 143l44 26q39 -65 70.5 -92t69.5 -27q39 0 72 27.5t74 87.5l37 -20q-89 -145 -188 -145zM511 0h-437v47h190v387l-188 8l5 42h244v-437h191z" />
    <glyph glyph-name="Iogonek" unicode="&#x12e;" 
d="M343 -159l-7 -50q-92 9 -132 31.5t-40 60.5q0 50 85 117h-166v50h160v520h-160v50h382v-50h-160v-520h165l-5 -50h-162q-82 -67 -82 -104q0 -21 28 -34.5t94 -20.5z" />
    <glyph glyph-name="iogonek" unicode="&#x12f;" 
d="M320 567h-61l5 132h64zM357 -159l-6 -51q-92 9 -132 31.5t-40 59.5q0 52 88 119h-193v47h190v387l-188 8l5 42h244v-437h191l-5 -47h-189q-87 -69 -87 -105q0 -21 28.5 -34t93.5 -20z" />
    <glyph glyph-name="Idotaccent" unicode="&#x130;" 
d="M306 703h-62l3 132h64zM305 570v-520h165l-5 -50h-382v50h160v520h-160v50h382v-50h-160z" />
    <glyph glyph-name="dotlessi" unicode="&#x131;" 
d="M511 0h-437v47h190v387l-188 8l5 42h244v-437h191z" />
    <glyph glyph-name="Kcommaaccent" unicode="&#x136;" 
d="M444 -5l-211 293h-71v-288h-62v620h62v-282h74l195 282h67l-212 -304l226 -312zM225 -267q47 89 7 190q3 0 38.5 1.5t39.5 1.5q21 -108 -55 -203z" />
    <glyph glyph-name="kcommaaccent" unicode="&#x137;" 
d="M443 -5l-190 229l-83 -2v-222h-60v698l60 5v-435l85 2q86 90 180 217l62 -5q-96 -130 -190 -232l201 -245zM245 -267q47 89 7 190q3 0 38.5 1.5t39.5 1.5q21 -108 -55 -203z" />
    <glyph glyph-name="Lacute" unicode="&#x139;" 
d="M211 721q43 31 97 83.5t88 94.5l52 -48q-38 -37 -101.5 -82.5t-116.5 -75.5zM491 0h-371v620h62v-566h315z" />
    <glyph glyph-name="lacute" unicode="&#x13a;" 
d="M183 797q43 31 97 83.5t88 94.5l52 -48q-38 -37 -101.5 -82.5t-116.5 -75.5zM466 0h-382v47h163v600l-153 7l6 43h208v-650h164z" />
    <glyph glyph-name="Lcommaaccent" unicode="&#x13b;" 
d="M491 0h-371v620h62v-566h315zM257 -262q47 89 7 190q3 0 38.5 1.5t39.5 1.5q21 -108 -55 -203z" />
    <glyph glyph-name="lcommaaccent" unicode="&#x13c;" 
d="M466 0h-382v47h163v600l-153 7l6 43h208v-650h164zM228 -262q47 89 7 190q3 0 38.5 1.5t39.5 1.5q21 -108 -55 -203z" />
    <glyph glyph-name="Lcaron" unicode="&#x13d;" 
d="M380 461q31 63 31.5 125t-18.5 111l73 2q26 -126 -58 -249zM491 0h-371v620h62v-566h315z" />
    <glyph glyph-name="lcaron" unicode="&#x13e;" 
d="M441 564q31 63 31.5 125t-18.5 111l73 2q26 -126 -58 -249zM466 0h-382v47h163v600l-153 7l6 43h208v-650h164z" />
    <glyph glyph-name="Ldot" unicode="&#x13f;" 
d="M491 0h-371v620h62v-566h315zM463 269h-79l4 96h80z" />
    <glyph glyph-name="ldot" unicode="&#x140;" 
d="M466 0h-382v47h163v600l-153 7l6 43h208v-650h164zM589 269h-79l5 96h79z" />
    <glyph glyph-name="Lslash" unicode="&#x141;" 
d="M491 0h-371v306l-75 -39l-11 44l86 45v264h62v-232l153 80l11 -45l-164 -85v-284h315z" />
    <glyph glyph-name="lslash" unicode="&#x142;" 
d="M466 0h-382v47h163v276l-121 -63l-11 43l132 70v274l-153 7l6 43h208v-292l116 61l11 -44l-127 -67v-308h164z" />
    <glyph glyph-name="Nacute" unicode="&#x143;" 
d="M178 721q43 31 97 83.5t88 94.5l52 -48q-38 -37 -101.5 -82.5t-116.5 -75.5zM399 0l-251 526h-5l2 -526h-59v620h74l243 -514h4l-2 514h59v-620h-65z" />
    <glyph glyph-name="nacute" unicode="&#x144;" 
d="M181 596q43 31 97 83.5t88 94.5l52 -48q-38 -37 -101.5 -82.5t-116.5 -75.5zM294 443q-69 0 -142 -49q5 -143 5 -394h-61q0 324 -7 482l56 4l5 -55q81 64 166 64q148 0 148 -168v-327h-60v308q0 72 -28 103.5t-82 31.5z" />
    <glyph glyph-name="Ncommaaccent" unicode="&#x145;" 
d="M399 0l-251 526h-5l2 -526h-59v620h74l243 -514h4l-2 514h59v-620h-65zM223 -262q47 89 7 190q3 0 38.5 1.5t39.5 1.5q21 -108 -55 -203z" />
    <glyph glyph-name="ncommaaccent" unicode="&#x146;" 
d="M294 443q-69 0 -142 -49q5 -143 5 -394h-61q0 324 -7 482l56 4l5 -55q81 64 166 64q148 0 148 -168v-327h-60v308q0 72 -28 103.5t-82 31.5zM242 -262q47 89 7 190q3 0 38.5 1.5t39.5 1.5q21 -108 -55 -203z" />
    <glyph glyph-name="Ncaron" unicode="&#x147;" 
d="M279 691h-2l-171 145l39 38l137 -121l137 120l32 -31zM399 0l-251 526h-5l2 -526h-59v620h74l243 -514h4l-2 514h59v-620h-65z" />
    <glyph glyph-name="ncaron" unicode="&#x148;" 
d="M282 566h-2l-171 145l39 38l137 -121l137 120l32 -31zM294 443q-69 0 -142 -49q5 -143 5 -394h-61q0 324 -7 482l56 4l5 -55q81 64 166 64q148 0 148 -168v-327h-60v308q0 72 -28 103.5t-82 31.5z" />
    <glyph glyph-name="Omacron" unicode="&#x14c;" 
d="M441 806v-53h-326v53h326zM266 -15q-103 0 -160 82t-57 232q0 160 63.5 248t172.5 88q102 0 158.5 -82t57.5 -232q1 -159 -62.5 -247.5t-172.5 -88.5zM273 582q-78 0 -119.5 -69.5t-41.5 -200.5q0 -134 42 -204t123 -70q77 0 119 69.5t42 200.5q0 133 -42.5 203.5
t-122.5 70.5z" />
    <glyph glyph-name="omacron" unicode="&#x14d;" 
d="M438 667v-53h-326v53h326zM267 -14q-91 0 -149 67.5t-58 181.5q0 115 65.5 188.5t158.5 73.5q92 0 149 -66.5t57 -180.5q0 -117 -65 -190.5t-158 -73.5zM276 37q69 0 111.5 53.5t42.5 147.5q0 98 -43 153t-113 55q-68 0 -110.5 -53t-42.5 -146q0 -99 42.5 -154.5
t112.5 -55.5z" />
    <glyph glyph-name="Obreve" unicode="&#x14e;" 
d="M275 708q-96 0 -179 143l44 26q39 -65 70.5 -92t69.5 -27q39 0 72 27.5t74 87.5l37 -20q-89 -145 -188 -145zM266 -15q-103 0 -160 82t-57 232q0 160 63.5 248t172.5 88q102 0 158.5 -82t57.5 -232q1 -159 -62.5 -247.5t-172.5 -88.5zM273 582q-78 0 -119.5 -69.5
t-41.5 -200.5q0 -134 42 -204t123 -70q77 0 119 69.5t42 200.5q0 133 -42.5 203.5t-122.5 70.5z" />
    <glyph glyph-name="obreve" unicode="&#x14f;" 
d="M272 569q-96 0 -179 143l44 26q39 -65 70.5 -92t69.5 -27q39 0 72 27.5t74 87.5l37 -20q-89 -145 -188 -145zM267 -14q-91 0 -149 67.5t-58 181.5q0 115 65.5 188.5t158.5 73.5q92 0 149 -66.5t57 -180.5q0 -117 -65 -190.5t-158 -73.5zM276 37q69 0 111.5 53.5
t42.5 147.5q0 98 -43 153t-113 55q-68 0 -110.5 -53t-42.5 -146q0 -99 42.5 -154.5t112.5 -55.5z" />
    <glyph glyph-name="Ohungarumlaut" unicode="&#x150;" 
d="M137 721q61 86 108 198l64 -32q-53 -90 -142 -186zM344 720q63 91 106 195l67 -28q-66 -106 -144 -186zM266 -15q-103 0 -160 82t-57 232q0 160 63.5 248t172.5 88q102 0 158.5 -82t57.5 -232q1 -159 -62.5 -247.5t-172.5 -88.5zM273 582q-78 0 -119.5 -69.5
t-41.5 -200.5q0 -134 42 -204t123 -70q77 0 119 69.5t42 200.5q0 133 -42.5 203.5t-122.5 70.5z" />
    <glyph glyph-name="ohungarumlaut" unicode="&#x151;" 
d="M135 582q61 86 108 198l64 -32q-53 -90 -142 -186zM342 581q63 91 106 195l67 -28q-66 -106 -144 -186zM267 -14q-91 0 -149 67.5t-58 181.5q0 115 65.5 188.5t158.5 73.5q92 0 149 -66.5t57 -180.5q0 -117 -65 -190.5t-158 -73.5zM276 37q69 0 111.5 53.5t42.5 147.5
q0 98 -43 153t-113 55q-68 0 -110.5 -53t-42.5 -146q0 -99 42.5 -154.5t112.5 -55.5z" />
    <glyph glyph-name="OE" unicode="&#x152;" 
d="M104 309q0 -134 41 -194t130 -60v510q-87 -2 -129 -63.5t-42 -192.5zM505 54l-4 -54h-206q-130 0 -192 73t-62 225q0 322 256 322h205v-54h-170v-228h146v-48h-146v-236h173z" />
    <glyph glyph-name="oe" unicode="&#x153;" 
d="M387 441q-32 0 -51.5 -43.5t-21.5 -128.5q79 2 141 4q2 85 -13 126.5t-55 41.5zM184 44q77 0 77 194q0 96 -23 148.5t-61 52.5q-80 0 -80 -192q0 -203 87 -203zM495 -6q-160 4 -207 105q-34 -106 -118 -106q-63 0 -98 60.5t-35 178.5q0 123 39 190.5t106 67.5
q75 0 106 -91q35 91 111 91q126 0 110 -256l-195 -4q2 -98 41.5 -139.5t146.5 -45.5z" />
    <glyph glyph-name="Racute" unicode="&#x154;" 
d="M171 730q43 31 97 83.5t88 94.5l52 -48q-38 -37 -101.5 -82.5t-116.5 -75.5zM443 -10l-135 249l-146 -4v-235h-62v618q192 31 279.5 -15.5t87.5 -148.5q0 -109 -108 -185l150 -267zM162 570v-287l154 3q89 60 89 156q0 76 -60 111.5t-183 16.5z" />
    <glyph glyph-name="racute" unicode="&#x155;" 
d="M203 593q43 31 97 83.5t88 94.5l52 -48q-38 -37 -101.5 -82.5t-116.5 -75.5zM432 0h-365v47h137q-1 44 -3 185.5t-4 201.5l-128 7l5 43h178q3 -44 5 -81q86 83 232 98l3 -64q-147 -11 -233 -74q0 -30 1.5 -138.5t2.5 -177.5h175z" />
    <glyph glyph-name="Rcommaaccent" unicode="&#x156;" 
d="M443 -10l-135 249l-146 -4v-235h-62v618q192 31 279.5 -15.5t87.5 -148.5q0 -109 -108 -185l150 -267zM162 570v-287l154 3q89 60 89 156q0 76 -60 111.5t-183 16.5zM251 -272q47 89 7 190q3 0 38.5 1.5t39.5 1.5q21 -108 -55 -203z" />
    <glyph glyph-name="rcommaaccent" unicode="&#x157;" 
d="M432 0h-365v47h137q-1 44 -3 185.5t-4 201.5l-128 7l5 43h178q3 -44 5 -81q86 83 232 98l3 -64q-147 -11 -233 -74q0 -30 1.5 -138.5t2.5 -177.5h175zM208 -262q47 89 7 190q3 0 38.5 1.5t39.5 1.5q21 -108 -55 -203z" />
    <glyph glyph-name="Rcaron" unicode="&#x158;" 
d="M272 700h-2l-171 145l39 38l137 -121l137 120l32 -31zM443 -10l-135 249l-146 -4v-235h-62v618q192 31 279.5 -15.5t87.5 -148.5q0 -109 -108 -185l150 -267zM162 570v-287l154 3q89 60 89 156q0 76 -60 111.5t-183 16.5z" />
    <glyph glyph-name="rcaron" unicode="&#x159;" 
d="M304 563h-2l-171 145l39 38l137 -121l137 120l32 -31zM432 0h-365v47h137q-1 44 -3 185.5t-4 201.5l-128 7l5 43h178q3 -44 5 -81q86 83 232 98l3 -64q-147 -11 -233 -74q0 -30 1.5 -138.5t2.5 -177.5h175z" />
    <glyph glyph-name="Sacute" unicode="&#x15a;" 
d="M200 723q43 31 97 83.5t88 94.5l52 -48q-38 -37 -101.5 -82.5t-116.5 -75.5zM89 54q164 -15 243.5 17t79.5 87q0 33 -33 64t-80.5 56t-95 51t-80.5 61.5t-33 75.5q0 73 85.5 120.5t261.5 37.5l4 -58q-288 18 -288 -89q0 -32 33 -62t80.5 -55t95 -51.5t80.5 -63t33 -77.5
q0 -36 -22 -68.5t-66 -59t-121.5 -39.5t-177.5 -7z" />
    <glyph glyph-name="sacute" unicode="&#x15b;" 
d="M182 587q43 31 97 83.5t88 94.5l52 -48q-38 -37 -101.5 -82.5t-116.5 -75.5zM433 487l3 -55q-104 12 -162.5 1.5t-79.5 -26.5t-21 -40q0 -25 29 -47t70 -39.5t82 -37t70 -47.5t29 -63q0 -30 -18 -55.5t-56.5 -46.5t-109.5 -30.5t-166 -3.5l3 55q84 -5 139 -2.5t87.5 15
t45.5 27.5t13 34q0 32 -43.5 60t-96.5 46.5t-96.5 51t-43.5 73.5q0 28 17 53t52.5 46t100.5 29.5t152 1.5z" />
    <glyph glyph-name="Scedilla" unicode="&#x15e;" 
d="M183 -220l-5 50q65 11 93.5 23t28.5 30q0 37 -97 99l7 12q-67 -4 -122 0l1 60q164 -15 243.5 17t79.5 87q0 33 -33 64t-80.5 56t-95 51t-80.5 61.5t-33 75.5q0 73 85.5 120.5t261.5 37.5l4 -58q-288 18 -288 -89q0 -32 33 -62t80.5 -55t95 -51.5t80.5 -63t33 -77.5
q0 -59 -56 -106.5t-169 -62.5q104 -64 104 -121q0 -74 -171 -98z" />
    <glyph glyph-name="scedilla" unicode="&#x15f;" 
d="M190 -219l-5 50q65 11 93.5 23t28.5 30q0 37 -97 99l7 13q-55 -3 -114 1l3 55q84 -5 139 -2.5t87.5 15t45.5 27.5t13 34q0 32 -43.5 60t-96.5 46.5t-96.5 51t-43.5 73.5q0 28 17 53t52.5 46t100.5 29.5t152 1.5l3 -55q-104 12 -162.5 1.5t-79.5 -26.5t-21 -40
q0 -25 29 -47t70 -39.5t82 -37t70 -47.5t29 -63q0 -48 -47 -85t-148 -49q103 -65 103 -120q0 -74 -171 -98z" />
    <glyph glyph-name="Scaron" unicode="&#x160;" 
d="M302 693h-2l-171 145l39 38l137 -121l137 120l32 -31zM89 54q164 -15 243.5 17t79.5 87q0 33 -33 64t-80.5 56t-95 51t-80.5 61.5t-33 75.5q0 73 85.5 120.5t261.5 37.5l4 -58q-288 18 -288 -89q0 -32 33 -62t80.5 -55t95 -51.5t80.5 -63t33 -77.5q0 -36 -22 -68.5
t-66 -59t-121.5 -39.5t-177.5 -7z" />
    <glyph glyph-name="scaron" unicode="&#x161;" 
d="M284 557h-2l-171 145l39 38l137 -121l137 120l32 -31zM433 487l3 -55q-104 12 -162.5 1.5t-79.5 -26.5t-21 -40q0 -25 29 -47t70 -39.5t82 -37t70 -47.5t29 -63q0 -30 -18 -55.5t-56.5 -46.5t-109.5 -30.5t-166 -3.5l3 55q84 -5 139 -2.5t87.5 15t45.5 27.5t13 34
q0 32 -43.5 60t-96.5 46.5t-96.5 51t-43.5 73.5q0 28 17 53t52.5 46t100.5 29.5t152 1.5z" />
    <glyph glyph-name="Tcommaaccent" unicode="&#x162;" 
d="M307 566v-566h-63v566h-202l5 54h460v-54h-200zM223 -262q47 89 7 190q3 0 38.5 1.5t39.5 1.5q21 -108 -55 -203z" />
    <glyph glyph-name="tcommaaccent" unicode="&#x163;" 
d="M459 -9q-152 -1 -213 35.5t-61 124.5v285h-102l8 48h94v137l60 6v-143h209v-48h-209v-275q0 -67 45 -91t174 -26zM261 -271q47 89 7 190q3 0 38.5 1.5t39.5 1.5q21 -108 -55 -203z" />
    <glyph glyph-name="Tcaron" unicode="&#x164;" 
d="M279 691h-2l-171 145l39 38l137 -121l137 120l32 -31zM307 566v-566h-63v566h-202l5 54h460v-54h-200z" />
    <glyph glyph-name="tcaron" unicode="&#x165;" 
d="M355 591q31 63 31.5 125t-18.5 111l73 2q26 -126 -58 -249zM459 -9q-152 -1 -213 35.5t-61 124.5v285h-102l8 48h94v137l60 6v-143h209v-48h-209v-275q0 -67 45 -91t174 -26z" />
    <glyph glyph-name="Umacron" unicode="&#x16a;" 
d="M438 799v-53h-326v53h326zM270 -15q-89 0 -138.5 54.5t-49.5 156.5v424h62v-417q0 -82 35 -122.5t98 -40.5q65 0 96.5 36t31.5 113v431h63v-423q0 -101 -52 -156.5t-146 -55.5z" />
    <glyph glyph-name="umacron" unicode="&#x16b;" 
d="M440 665v-53h-326v53h326zM405 -1l-5 55q-82 -66 -165 -66q-146 0 -146 169v325l61 5v-311q0 -72 27 -103.5t80 -31.5q69 0 141 50q-4 113 -4 393h60q0 -322 7 -482z" />
    <glyph glyph-name="Ubreve" unicode="&#x16c;" 
d="M272 701q-96 0 -179 143l44 26q39 -65 70.5 -92t69.5 -27q39 0 72 27.5t74 87.5l37 -20q-89 -145 -188 -145zM270 -15q-89 0 -138.5 54.5t-49.5 156.5v424h62v-417q0 -82 35 -122.5t98 -40.5q65 0 96.5 36t31.5 113v431h63v-423q0 -101 -52 -156.5t-146 -55.5z" />
    <glyph glyph-name="ubreve" unicode="&#x16d;" 
d="M274 567q-96 0 -179 143l44 26q39 -65 70.5 -92t69.5 -27q39 0 72 27.5t74 87.5l37 -20q-89 -145 -188 -145zM405 -1l-5 55q-82 -66 -165 -66q-146 0 -146 169v325l61 5v-311q0 -72 27 -103.5t80 -31.5q69 0 141 50q-4 113 -4 393h60q0 -322 7 -482z" />
    <glyph glyph-name="Uring" unicode="&#x16e;" 
d="M274 890q56 0 93 -30t37 -73q0 -46 -35.5 -76t-94.5 -30q-57 0 -94 29.5t-37 72.5q0 47 36 77t95 30zM274 849q-38 0 -60.5 -18t-22.5 -46t22.5 -46t60.5 -18t60.5 18t22.5 46t-23 46t-60 18zM270 -15q-89 0 -138.5 54.5t-49.5 156.5v424h62v-417q0 -82 35 -122.5
t98 -40.5q65 0 96.5 36t31.5 113v431h63v-423q0 -101 -52 -156.5t-146 -55.5z" />
    <glyph glyph-name="uring" unicode="&#x16f;" 
d="M277 756q56 0 93 -30t37 -73q0 -46 -35.5 -76t-94.5 -30q-57 0 -94 29.5t-37 72.5q0 47 36 77t95 30zM277 715q-38 0 -60.5 -18t-22.5 -46t22.5 -46t60.5 -18t60.5 18t22.5 46t-23 46t-60 18zM405 -1l-5 55q-82 -66 -165 -66q-146 0 -146 169v325l61 5v-311
q0 -72 27 -103.5t80 -31.5q69 0 141 50q-4 113 -4 393h60q0 -322 7 -482z" />
    <glyph glyph-name="Uhungarumlaut" unicode="&#x170;" 
d="M134 714q61 86 108 198l64 -32q-53 -90 -142 -186zM341 713q63 91 106 195l67 -28q-66 -106 -144 -186zM270 -15q-89 0 -138.5 54.5t-49.5 156.5v424h62v-417q0 -82 35 -122.5t98 -40.5q65 0 96.5 36t31.5 113v431h63v-423q0 -101 -52 -156.5t-146 -55.5z" />
    <glyph glyph-name="uhungarumlaut" unicode="&#x171;" 
d="M137 580q61 86 108 198l64 -32q-53 -90 -142 -186zM344 579q63 91 106 195l67 -28q-66 -106 -144 -186zM405 -1l-5 55q-82 -66 -165 -66q-146 0 -146 169v325l61 5v-311q0 -72 27 -103.5t80 -31.5q69 0 141 50q-4 113 -4 393h60q0 -322 7 -482z" />
    <glyph glyph-name="Uogonek" unicode="&#x172;" 
d="M363 -210q-172 16 -172 88q0 51 82 106q-92 2 -141.5 57t-49.5 155v424h62v-417q0 -82 35 -122.5t98 -40.5q65 0 96.5 36t31.5 113v431h63v-423q0 -69 -23.5 -113t-78.5 -78q-66 -41 -92.5 -67t-26.5 -47q0 -37 122 -51z" />
    <glyph glyph-name="uogonek" unicode="&#x173;" 
d="M439 -207q-172 16 -172 87q0 30 31.5 60.5t105.5 69.5l-4 70q-80 -92 -169 -92q-142 0 -142 169v325l61 5v-311q0 -72 26 -103.5t77 -31.5q71 0 144 78q-3 124 -3 365h60q0 -322 7 -482q-138 -66 -138 -108q0 -37 122 -51z" />
    <glyph glyph-name="Wcircumflex" unicode="&#x174;" 
d="M413 696l-137 121l-138 -120l-32 30l172 153h3l170 -147zM371 0l-96 348l-94 -348h-73q-30 237 -49 620h62q15 -350 34 -544h4q21 75 54 199.5t43 162.5h41q27 -100 99 -362h3q18 159 34 544h59q-18 -371 -50 -620h-71z" />
    <glyph glyph-name="wcircumflex" unicode="&#x175;" 
d="M410 560l-137 121l-138 -120l-32 30l172 153h3l170 -147zM378 0l-103 292l-103 -292h-56q-31 191 -51 484h61q15 -238 30 -402h4q4 10 26.5 75t46 132.5t24.5 71.5h40q87 -246 99 -281h3q15 175 29 404h58q-18 -266 -50 -484h-58z" />
    <glyph glyph-name="Ycircumflex" unicode="&#x176;" 
d="M412 697l-137 121l-138 -120l-32 30l172 153h3l170 -147zM307 0h-63v206l-202 413l67 2l169 -354l166 353h65l-202 -412v-208z" />
    <glyph glyph-name="ycircumflex" unicode="&#x177;" 
d="M416 562l-137 121l-138 -120l-32 30l172 153h3l170 -147zM70 -178l-6 58q94 15 129 38.5t64 89.5h-1q-88 189 -207 475l62 3q82 -204 174 -407h7q20 49 48.5 124.5t60.5 166t41 114.5h58q-84 -236 -169 -440q-47 -118 -96.5 -162t-164.5 -60z" />
    <glyph glyph-name="Ydieresis" unicode="&#x178;" 
d="M419 704h-61v132h63zM201 704h-61l-1 132h64zM307 0h-63v206l-202 413l67 2l169 -354l166 353h65l-202 -412v-208z" />
    <glyph glyph-name="Zacute" unicode="&#x179;" 
d="M191 721q43 31 97 83.5t88 94.5l52 -48q-38 -37 -101.5 -82.5t-116.5 -75.5zM478 0h-408v54l343 512l-338 -2l5 56h398v-54l-341 -512l346 2z" />
    <glyph glyph-name="zacute" unicode="&#x17a;" 
d="M193 585q43 31 97 83.5t88 94.5l52 -48q-38 -37 -101.5 -82.5t-116.5 -75.5zM478 0h-401v52l328 379h-324l5 53h388v-51l-328 -380l337 1z" />
    <glyph glyph-name="Zdotaccent" unicode="&#x17b;" 
d="M316 703h-62l3 132h64zM478 0h-408v54l343 512l-338 -2l5 56h398v-54l-341 -512l346 2z" />
    <glyph glyph-name="zdotaccent" unicode="&#x17c;" 
d="M318 567h-62l3 132h64zM478 0h-401v52l328 379h-324l5 53h388v-51l-328 -380l337 1z" />
    <glyph glyph-name="Zcaron" unicode="&#x17d;" 
d="M292 691h-2l-171 145l39 38l137 -121l137 120l32 -31zM478 0h-408v54l343 512l-338 -2l5 56h398v-54l-341 -512l346 2z" />
    <glyph glyph-name="zcaron" unicode="&#x17e;" 
d="M294 555h-2l-171 145l39 38l137 -121l137 120l32 -31zM478 0h-401v52l328 379h-324l5 53h388v-51l-328 -380l337 1z" />
    <glyph glyph-name="Aringacute" unicode="&#x1fa;" 
d="M179 962q43 31 97 83.5t88 94.5l52 -48q-38 -37 -101.5 -82.5t-116.5 -75.5zM273 890q56 0 93 -30t37 -73q0 -46 -35.5 -76t-94.5 -30q-57 0 -94 29.5t-37 72.5q0 47 36 77t95 30zM273 849q-38 0 -60.5 -18t-22.5 -46t22.5 -46t60.5 -18t60.5 18t22.5 46t-23 46t-60 18z
M445 -3q-19 69 -59 205h-225q-38 -134 -57 -202h-61q91 321 188 622h88q97 -300 188 -619zM270 567q-64 -212 -95 -317h197q-57 196 -95 317h-7z" />
    <glyph glyph-name="aringacute" unicode="&#x1fb;" 
d="M180 831q43 31 97 83.5t88 94.5l52 -48q-38 -37 -101.5 -82.5t-116.5 -75.5zM274 756q56 0 93 -30t37 -73q0 -46 -35.5 -76t-94.5 -30q-57 0 -94 29.5t-37 72.5q0 47 36 77t95 30zM274 715q-38 0 -60.5 -18t-22.5 -46t22.5 -46t60.5 -18t60.5 18t22.5 46t-23 46t-60 18z
M244 38q82 0 156 61q-2 68 -2 127q-266 27 -266 -99q0 -42 30.5 -65.5t81.5 -23.5zM409 -2q0 4 -6 64q-80 -74 -181 -74q-67 0 -108.5 33.5t-41.5 91.5q0 81 83 126.5t242 33.5q-4 92 -65.5 125.5t-229.5 40.5l7 54q139 -5 213 -30t105 -76.5t31 -145.5q0 -98 6 -240z" />
    <glyph glyph-name="AEacute" unicode="&#x1fc;" 
d="M223 721q43 31 97 83.5t88 94.5l52 -48q-38 -37 -101.5 -82.5t-116.5 -75.5zM259 566q-60 -178 -109 -325h115v325h-6zM265 0v193h-131q-28 -82 -63 -193h-63q106 319 213 620h282v-54h-181v-228h156v-48h-156v-236h185l-6 -54h-236z" />
    <glyph glyph-name="aeacute" unicode="&#x1fd;" 
d="M179 585q43 31 97 83.5t88 94.5l52 -48q-38 -37 -101.5 -82.5t-116.5 -75.5zM492 -6q-166 4 -217 81q-52 -81 -133 -81q-46 0 -74.5 31.5t-28.5 87.5q0 72 52 111.5t150 42.5q-2 95 -38 127.5t-143 40.5l5 53q91 -5 137.5 -25.5t65.5 -67.5q38 95 120 95q65 0 96 -68.5
t23 -189.5l-211 -5q1 -96 42.5 -137t158.5 -43zM378 438q-78 0 -82 -172l155 4q3 168 -73 168zM163 45q54 0 94 65q-16 44 -16 114q-72 -1 -107.5 -24t-35.5 -73q0 -41 17.5 -61.5t47.5 -20.5z" />
    <glyph glyph-name="Oslashacute" unicode="&#x1fe;" 
d="M180 728q43 31 97 83.5t88 94.5l52 -48q-38 -37 -101.5 -82.5t-116.5 -75.5zM112 312q0 -119 34 -190l232 415q-40 45 -105 45q-78 0 -119.5 -69t-41.5 -201zM277 38q78 0 119.5 69.5t41.5 200.5q0 119 -34 189l-232 -414q39 -45 105 -45zM266 -15q-74 0 -123 42l-32 -58
l-41 22l40 71q-61 81 -61 237q0 160 63.5 248t172.5 88q72 0 124 -43l32 59l41 -22l-41 -72q58 -81 60 -236q1 -159 -62.5 -247.5t-172.5 -88.5z" />
    <glyph glyph-name="oslashacute" unicode="&#x1ff;" 
d="M180 589q43 31 97 83.5t88 94.5l52 -48q-38 -37 -101.5 -82.5t-116.5 -75.5zM121 247q0 -87 35 -143l213 307q-40 35 -95 35q-68 0 -110.5 -53t-42.5 -146zM276 37q69 0 112 53.5t43 147.5q0 85 -35 141l-212 -308q39 -34 92 -34zM267 -14q-64 0 -116 36l-37 -53l-38 25
l42 60q-58 68 -58 181q0 115 65.5 188.5t158.5 73.5q66 0 117 -37l37 54l38 -26l-42 -59q56 -67 56 -179q0 -117 -65 -190.5t-158 -73.5z" />
    <glyph glyph-name="Scommaaccent" unicode="&#x218;" 
d="M89 54q164 -15 243.5 17t79.5 87q0 33 -33 64t-80.5 56t-95 51t-80.5 61.5t-33 75.5q0 73 85.5 120.5t261.5 37.5l4 -58q-288 18 -288 -89q0 -32 33 -62t80.5 -55t95 -51.5t80.5 -63t33 -77.5q0 -36 -22 -68.5t-66 -59t-121.5 -39.5t-177.5 -7zM226 -274q47 89 7 190
q3 0 38.5 1.5t39.5 1.5q21 -108 -55 -203z" />
    <glyph glyph-name="scommaaccent" unicode="&#x219;" 
d="M433 487l3 -55q-104 12 -162.5 1.5t-79.5 -26.5t-21 -40q0 -25 29 -47t70 -39.5t82 -37t70 -47.5t29 -63q0 -30 -18 -55.5t-56.5 -46.5t-109.5 -30.5t-166 -3.5l3 55q84 -5 139 -2.5t87.5 15t45.5 27.5t13 34q0 32 -43.5 60t-96.5 46.5t-96.5 51t-43.5 73.5q0 28 17 53
t52.5 46t100.5 29.5t152 1.5zM218 -273q47 89 7 190q3 0 38.5 1.5t39.5 1.5q21 -108 -55 -203z" />
    <glyph glyph-name="schwa" unicode="&#x259;" 
d="M255 -12q-96 0 -145 72.5t-35 188.5l344 9q-3 65 -32.5 102.5t-100 58t-193.5 23.5l7 54q145 -2 229.5 -32.5t117 -82t32.5 -133.5q0 -109 -65.5 -184.5t-158.5 -75.5zM266 40q67 0 107.5 46.5t44.5 130.5l-287 -7q-2 -79 33 -124.5t102 -45.5z" />
    <glyph glyph-name="circumflex" unicode="&#x2c6;" 
d="M409 560l-137 121l-138 -120l-32 30l172 153h3l170 -147z" />
    <glyph glyph-name="caron" unicode="&#x2c7;" 
d="M275 555h-2l-171 145l39 38l137 -121l137 120l32 -31z" />
    <glyph glyph-name="breve" unicode="&#x2d8;" 
d="M271 565q-96 0 -179 143l44 26q39 -65 70.5 -92t69.5 -27q39 0 72 27.5t74 87.5l37 -20q-89 -145 -188 -145z" />
    <glyph glyph-name="dotaccent" unicode="&#x2d9;" 
d="M303 567h-62l3 132h64z" />
    <glyph glyph-name="ring" unicode="&#x2da;" 
d="M284 754q56 0 93 -30t37 -73q0 -46 -35.5 -76t-94.5 -30q-57 0 -94 29.5t-37 72.5q0 47 36 77t95 30zM284 713q-38 0 -60.5 -18t-22.5 -46t22.5 -46t60.5 -18t60.5 18t22.5 46t-23 46t-60 18z" />
    <glyph glyph-name="ogonek" unicode="&#x2db;" 
d="M356 27l18 -27q-137 -66 -137 -109q0 -36 122 -50l-6 -51q-172 16 -172 88q0 33 40 68t135 81z" />
    <glyph glyph-name="tilde" unicode="&#x2dc;" 
d="M346 566q-22 0 -44 17t-37 38t-33 38t-33 17q-40 0 -83 -101l-37 15q57 137 127 137q22 0 43.5 -17t36.5 -38t33 -38t33 -17q39 0 83 102l37 -16q-56 -137 -126 -137z" />
    <glyph glyph-name="hungarumlaut" unicode="&#x2dd;" 
d="M131 578q61 86 108 198l64 -32q-53 -90 -142 -186zM338 577q63 91 106 195l67 -28q-66 -106 -144 -186z" />
    <glyph glyph-name="commaaccent" unicode="&#x326;" 
d="M219 -262q47 89 7 190q3 0 38.5 1.5t39.5 1.5q21 -108 -55 -203z" />
    <glyph glyph-name="Wgrave" unicode="&#x1e80;" 
d="M372 713l-20 -27q-120 70 -217 155l50 52q95 -109 187 -180zM371 0l-96 348l-94 -348h-73q-30 237 -49 620h62q15 -350 34 -544h4q21 75 54 199.5t43 162.5h41q27 -100 99 -362h3q18 159 34 544h59q-18 -371 -50 -620h-71z" />
    <glyph glyph-name="wgrave" unicode="&#x1e81;" 
d="M368 577l-20 -27q-120 70 -217 155l50 52q95 -109 187 -180zM378 0l-103 292l-103 -292h-56q-31 191 -51 484h61q15 -238 30 -402h4q4 10 26.5 75t46 132.5t24.5 71.5h40q87 -246 99 -281h3q15 175 29 404h58q-18 -266 -50 -484h-58z" />
    <glyph glyph-name="Wacute" unicode="&#x1e82;" 
d="M184 721q43 31 97 83.5t88 94.5l52 -48q-38 -37 -101.5 -82.5t-116.5 -75.5zM371 0l-96 348l-94 -348h-73q-30 237 -49 620h62q15 -350 34 -544h4q21 75 54 199.5t43 162.5h41q27 -100 99 -362h3q18 159 34 544h59q-18 -371 -50 -620h-71z" />
    <glyph glyph-name="wacute" unicode="&#x1e83;" 
d="M180 585q43 31 97 83.5t88 94.5l52 -48q-38 -37 -101.5 -82.5t-116.5 -75.5zM378 0l-103 292l-103 -292h-56q-31 191 -51 484h61q15 -238 30 -402h4q4 10 26.5 75t46 132.5t24.5 71.5h40q87 -246 99 -281h3q15 175 29 404h58q-18 -266 -50 -484h-58z" />
    <glyph glyph-name="Wdieresis" unicode="&#x1e84;" 
d="M420 703h-61v132h63zM202 703h-61l-1 132h64zM371 0l-96 348l-94 -348h-73q-30 237 -49 620h62q15 -350 34 -544h4q21 75 54 199.5t43 162.5h41q27 -100 99 -362h3q18 159 34 544h59q-18 -371 -50 -620h-71z" />
    <glyph glyph-name="wdieresis" unicode="&#x1e85;" 
d="M416 567h-61v132h63zM198 567h-61l-1 132h64zM378 0l-103 292l-103 -292h-56q-31 191 -51 484h61q15 -238 30 -402h4q4 10 26.5 75t46 132.5t24.5 71.5h40q87 -246 99 -281h3q15 175 29 404h58q-18 -266 -50 -484h-58z" />
    <glyph glyph-name="Ygrave" unicode="&#x1ef2;" 
d="M371 714l-20 -27q-120 70 -217 155l50 52q95 -109 187 -180zM307 0h-63v206l-202 413l67 2l169 -354l166 353h65l-202 -412v-208z" />
    <glyph glyph-name="ygrave" unicode="&#x1ef3;" 
d="M375 579l-20 -27q-120 70 -217 155l50 52q95 -109 187 -180zM70 -178l-6 58q94 15 129 38.5t64 89.5h-1q-88 189 -207 475l62 3q82 -204 174 -407h7q20 49 48.5 124.5t60.5 166t41 114.5h58q-84 -236 -169 -440q-47 -118 -96.5 -162t-164.5 -60z" />
    <glyph glyph-name="endash" unicode="&#x2013;" 
d="M478 313l-5 -47h-396v47h401z" />
    <glyph glyph-name="emdash" unicode="&#x2014;" 
d="M498 313l-5 -47h-437v47h442z" />
    <glyph glyph-name="quoteleft" unicode="&#x2018;" 
d="M348 678q-52 -61 -57.5 -129t32.5 -153l-89 -8q-49 172 82 301z" />
    <glyph glyph-name="quoteright" unicode="&#x2019;" 
d="M217 375q99 116 25 282l88 8q49 -172 -81 -301z" />
    <glyph glyph-name="quotesinglbase" unicode="&#x201a;" 
d="M213 -183q53 60 58.5 129t-34.5 153l91 6q49 -169 -84 -299z" />
    <glyph glyph-name="quotedblleft" unicode="&#x201c;" 
d="M449 678q-50 -61 -54.5 -130t33.5 -152l-89 -8q-47 175 79 301zM243 678q-50 -61 -55.5 -130t30.5 -153l-87 -7q-46 174 81 301z" />
    <glyph glyph-name="quotedblright" unicode="&#x201d;" 
d="M114 375q50 61 55 129.5t-33 152.5l89 8q47 -174 -80 -301zM321 375q50 61 55.5 130t-31.5 152l88 8q45 -175 -81 -301z" />
    <glyph glyph-name="quotedblbase" unicode="&#x201e;" 
d="M111 -184q51 61 55.5 130t-33.5 153l91 6q46 -173 -83 -300zM318 -183q52 60 57 129t-33 153l91 6q44 -174 -85 -299z" />
    <glyph glyph-name="dagger" unicode="&#x2020;" 
d="M292 121l-37 -21l-9 7l1 373l-179 3l3 49l176 -3v166l61 -1l-2 -166l183 -3l-3 -49l-181 3z" />
    <glyph glyph-name="daggerdbl" unicode="&#x2021;" 
d="M293 70l-37 -20l-10 6v224l-184 3l2 49l182 -3l1 152l-179 3l3 48l176 -3v166l61 -1l-2 -166l183 -3l-3 -48l-181 3l-4 -152l182 -3l-3 -48l-181 3z" />
    <glyph glyph-name="bullet" unicode="&#x2022;" 
d="M395 299q0 -53 -34.5 -85.5t-85.5 -32.5q-52 0 -86 33t-34 84q0 52 34.5 84.5t86.5 32.5t85.5 -33t33.5 -83z" />
    <glyph glyph-name="ellipsis" unicode="&#x2026;" 
d="M499 0h-88l5 101h88zM316 0h-88l5 101h88zM133 0h-88l5 101h88z" />
    <glyph glyph-name="guilsinglleft" unicode="&#x2039;" 
d="M379 -15l-249 227l4 63l250 225l40 -43l-245 -214l241 -216z" />
    <glyph glyph-name="guilsinglright" unicode="&#x203a;" 
d="M167 -15l-40 42l245 214l-241 217l41 42l249 -227l-4 -63z" />
    <glyph glyph-name="fraction" unicode="&#x2044;" 
d="M93 -160l-51 22l407 890l52 -23z" />
    <glyph glyph-name="zero.sup" unicode="&#x2070;" 
d="M269 315q-73 0 -113.5 53.5t-40.5 147.5q0 95 45 153.5t120 58.5q73 0 114 -53.5t41 -146.5q0 -96 -45.5 -154.5t-120.5 -58.5zM275 685q-54 0 -81.5 -42t-27.5 -119q0 -78 28 -121.5t81 -43.5q54 0 81.5 42t27.5 118q0 79 -28 122.5t-81 43.5z" />
    <glyph glyph-name="four.sup" unicode="&#x2074;" 
d="M443 409l-55 1l1 -85h-48l1 86l-206 -2q-2 124 50 318l55 -4q-17 -56 -38.5 -148.5t-23.5 -121.5h163l-1 137l48 4l-1 -141h59z" />
    <glyph glyph-name="five.sup" unicode="&#x2075;" 
d="M417 453q0 -55 -67.5 -91.5t-204.5 -46.5l-4 47q228 18 228 90q0 63 -218 76l15 192h238l-4 -45h-193l-8 -110q218 -17 218 -112z" />
    <glyph glyph-name="six.sup" unicode="&#x2076;" 
d="M275 316q-67 0 -107.5 41t-40.5 116q0 175 223 262l18 -43q-91 -36 -136 -78t-54 -99q48 43 106.5 50t99.5 -24.5t41 -88.5q0 -60 -44 -98t-106 -38zM281 359q40 0 68 24t28 64q0 43 -31 64.5t-78.5 15t-92.5 -41.5v-5q0 -60 29 -90.5t77 -30.5z" />
    <glyph glyph-name="seven.sup" unicode="&#x2077;" 
d="M240 319l-52 6q68 175 188 347l-1 3h-240l4 45h289v-43q-119 -178 -188 -358z" />
    <glyph glyph-name="eight.sup" unicode="&#x2078;" 
d="M267 315q-63 0 -101 26.5t-38 69.5q0 70 104 112q-45 23 -70.5 47t-25.5 56q0 40 39.5 71t105.5 31q58 0 96 -26t38 -68q0 -63 -99 -107q51 -25 78.5 -49t27.5 -57q0 -44 -43 -75t-112 -31zM187 631q0 -26 24.5 -45.5t71.5 -42.5q83 35 83 83q0 28 -24 45t-66 17
t-65.5 -16.5t-23.5 -40.5zM273 355q44 0 70.5 18t26.5 44q0 18 -17.5 35.5t-34.5 27t-53 27.5q-87 -33 -87 -85q0 -29 25.5 -48t69.5 -19z" />
    <glyph glyph-name="nine.sup" unicode="&#x2079;" 
d="M200 308l-19 44q91 34 135.5 75.5t54.5 98.5q-48 -42 -106.5 -48.5t-99 25t-40.5 88.5q0 60 44 98t106 38q67 0 108 -41t41 -116q0 -173 -224 -262zM173 595q0 -43 31 -64.5t78.5 -14.5t91.5 41v7q0 59 -28.5 90t-75.5 31q-40 0 -68.5 -25t-28.5 -65z" />
    <glyph glyph-name="zero.inf" unicode="&#x2080;" 
d="M269 -160q-73 0 -113.5 53.5t-40.5 147.5q0 95 45 153.5t120 58.5q73 0 114 -53.5t41 -146.5q0 -96 -45.5 -154.5t-120.5 -58.5zM275 210q-54 0 -81.5 -42t-27.5 -119q0 -78 28 -121.5t81 -43.5q54 0 81.5 42t27.5 118q0 79 -28 122.5t-81 43.5z" />
    <glyph glyph-name="one.inf" unicode="&#x2081;" 
d="M431 -150h-293v44h130v258l-124 -9l-1 37l125 17v61l50 4v-368h117z" />
    <glyph glyph-name="two.inf" unicode="&#x2082;" 
d="M423 -150h-289l-5 42q126 89 178 138.5t52 94.5q0 40 -48 61t-168 23l4 44q262 3 262 -115q0 -55 -50 -109t-163 -134h227v-45z" />
    <glyph glyph-name="three.inf" unicode="&#x2083;" 
d="M144 -160l-4 47q231 8 231 73q0 60 -192 80l1 26l170 133v2l-205 -1v45h263l4 -42l-173 -133q181 -25 181 -108q0 -52 -66.5 -85t-209.5 -37z" />
    <glyph glyph-name="four.inf" unicode="&#x2084;" 
d="M443 -66l-55 1l1 -85h-48l1 86l-206 -2q-2 124 50 318l55 -4q-17 -56 -38.5 -148.5t-23.5 -121.5h163l-1 137l48 4l-1 -141h59z" />
    <glyph glyph-name="five.inf" unicode="&#x2085;" 
d="M417 -22q0 -55 -67.5 -91.5t-204.5 -46.5l-4 47q228 18 228 90q0 63 -218 76l15 192h238l-4 -45h-193l-8 -110q218 -17 218 -112z" />
    <glyph glyph-name="six.inf" unicode="&#x2086;" 
d="M275 -159q-67 0 -107.5 41t-40.5 116q0 175 223 262l18 -43q-91 -36 -136 -78t-54 -99q48 43 106.5 50t99.5 -24.5t41 -88.5q0 -60 -44 -98t-106 -38zM281 -116q40 0 68 24t28 64q0 43 -31 64.5t-78.5 15t-92.5 -41.5v-5q0 -60 29 -90.5t77 -30.5z" />
    <glyph glyph-name="seven.inf" unicode="&#x2087;" 
d="M240 -156l-52 6q68 175 188 347l-1 3h-240l4 45h289v-43q-119 -178 -188 -358z" />
    <glyph glyph-name="eight.inf" unicode="&#x2088;" 
d="M267 -160q-63 0 -101 26.5t-38 69.5q0 70 104 112q-45 23 -70.5 47t-25.5 56q0 40 39.5 71t105.5 31q58 0 96 -26t38 -68q0 -63 -99 -107q51 -25 78.5 -49t27.5 -57q0 -44 -43 -75t-112 -31zM187 156q0 -26 24.5 -45.5t71.5 -42.5q83 35 83 83q0 28 -24 45t-66 17
t-65.5 -16.5t-23.5 -40.5zM273 -120q44 0 70.5 18t26.5 44q0 18 -17.5 35.5t-34.5 27t-53 27.5q-87 -33 -87 -85q0 -29 25.5 -48t69.5 -19z" />
    <glyph glyph-name="nine.inf" unicode="&#x2089;" 
d="M200 -167l-19 44q91 34 135.5 75.5t54.5 98.5q-48 -42 -106.5 -48.5t-99 25t-40.5 88.5q0 60 44 98t106 38q67 0 108 -41t41 -116q0 -173 -224 -262zM173 120q0 -43 31 -64.5t78.5 -14.5t91.5 41v7q0 59 -28.5 90t-75.5 31q-40 0 -68.5 -25t-28.5 -65z" />
    <glyph glyph-name="colonmonetary" unicode="&#x20a1;" 
d="M336 94l39 436q-52 -8 -86 -19l-35 -393q36 -15 82 -24zM124 309q0 -119 91 -173l32 360q-123 -55 -123 -187zM318 -74l10 114q-42 9 -79 21l-12 -135h-48l15 154q-134 65 -134 220q0 176 175 250l12 143h48l-11 -126q47 13 83 18l9 108h46l-9 -101q45 4 73 5l4 -56
q-45 -1 -86 -6l-39 -448q34 -5 104 -11l-11 -53q-56 3 -95 10l-9 -107h-46z" />
    <glyph glyph-name="naira" unicode="&#x20a6;" 
d="M151 527v-106h52l-47 106h-5zM283 239l-60 136h-72v-136h132zM406 239v136h-133l60 -136h73zM389 0l-85 193h-153v-193h-52v189h-73v50h73v135h-73v50h73v196h66l88 -199h153l-1 199h51v-196h72v-50h-72v-135h72v-50h-72v-189h-67zM402 84h5v109h-53z" />
    <glyph glyph-name="rupee" unicode="&#x20a8;" 
d="M259 -3l-72 245l-53 -3v-239h-56v618q214 48 214 -164q0 -114 -58 -183l79 -266zM134 573v-289l64 3q39 61 39 158q0 74 -24.5 106t-78.5 22zM507 489l1 -52q-118 14 -118 -68q0 -29 20 -58.5t43.5 -52t43.5 -57.5t20 -74q0 -60 -43 -100t-137 -32v53q126 -14 126 74
q0 30 -20 61t-43.5 53t-43.5 57t-20 73q0 55 42.5 94t128.5 29z" />
    <glyph glyph-name="Euro" unicode="&#x20ac;" 
d="M485 32l-9 -52q-150 18 -230 73.5t-105 148.5h-76v48h67q-3 27 -3 57q0 29 3 54h-67v48h75q22 89 98.5 146t228.5 86l11 -59q-137 -21 -201 -62t-82 -114h233l-3 -45h-237q-2 -32 -2 -50q0 -35 4 -60h235l-3 -44h-223q22 -72 89 -114t197 -61z" />
    <glyph glyph-name="peso" unicode="&#x20b1;" 
d="M165 430h242q-7 80 -69.5 119t-172.5 23v-142zM165 247q223 -9 242 138h-242v-138zM533 381h-71q-29 -175 -297 -190v-191h-58v381h-81v51h81v186q168 31 260.5 -21.5t97.5 -164.5h68v-51z" />
    <glyph glyph-name="rupeeindia" unicode="&#x20b9;" 
d="M474 19l-50 -32q-124 102 -187.5 143t-153.5 67l12 46q213 19 233 135h-242v46h242q-10 57 -69.5 95.5t-174.5 49.5l4 51h403l-3 -52h-235q59 -20 94.5 -58t41.5 -86h98v-46h-99q-11 -59 -68 -101.5t-150 -58.5q62 -19 126.5 -62.5t177.5 -136.5z" />
    <glyph glyph-name="ruble" unicode="&#x20bd;" 
d="M438 454q0 69 -63 99.5t-179 17.5v-249q128 2 185 30.5t57 101.5zM417 127h-221v-127h-61v127h-91v48h91v99h-91v48h91v296q175 25 269.5 -16t94.5 -141q0 -92 -76 -136.5t-227 -49.5v-101h226z" />
    <glyph glyph-name="numero" unicode="&#x2116;" 
d="M412 230q-45 0 -71.5 48t-26.5 141q0 96 32 150.5t80 54.5q44 0 70.5 -48.5t26.5 -140.5q0 -97 -31.5 -151t-79.5 -54zM221 0l-123 488h-2l3 -488h-52v620h59l118 -462h2l-2 462l51 -1v-620zM421 278q23 0 37 39t14 107q0 70 -16 110.5t-39 40.5t-37 -38.5t-14 -106.5
q0 -71 15.5 -111.5t39.5 -40.5zM515 127h-194v47h194v-47z" />
    <glyph glyph-name="published" unicode="&#x2117;" 
d="M505 314q0 -139 -70 -223t-169 -84q-100 0 -160.5 79t-60.5 217t64.5 224t162.5 86q100 0 166.5 -80t66.5 -219zM85 305q0 -119 51 -190t131 -71q83 0 140.5 72t57.5 195q0 122 -56.5 193.5t-137.5 71.5q-82 0 -134 -74.5t-52 -196.5zM248 139h-43v332q170 24 170 -109
q0 -114 -126 -126q-1 -54 -1 -97zM332 357q0 87 -83 76v-155q83 -10 83 79z" />
    <glyph glyph-name="servicemark" unicode="&#x2120;" 
d="M363 346l-60 221h-3l1 -273h-41v326h59l59 -214h2l56 214h59v-326h-42l1 273h-3l-58 -221h-30zM40 332q64 -1 93 13t29 35q0 17 -19 36.5t-42.5 34t-42.5 37.5t-19 48q0 37 37 64t110 24l2 -40q-106 1 -106 -42q0 -18 19 -37.5t42.5 -34.5t42.5 -38.5t19 -48.5
q0 -38 -41 -64.5t-124 -26.5v40z" />
    <glyph glyph-name="trademark" unicode="&#x2122;" 
d="M140 581v-285h-43v285h-75l3 39h186v-39h-71zM363 346l-60 221h-3l1 -273h-41v326h59l59 -214h2l56 214h59v-326h-42l1 273h-3l-58 -221h-30z" />
    <glyph glyph-name="Omega" unicode="&#x2126;" 
d="M223 5l-2 -5h-175v50h111q-82 183 -82 327q0 118 53.5 187t150.5 69q95 0 146.5 -68.5t50.5 -185.5q0 -141 -82 -329h111v-50h-176l-1 5q88 207 88 365q0 98 -36.5 152t-104.5 54q-69 0 -105.5 -54t-36.5 -151q0 -153 90 -366z" />
    <glyph glyph-name="onethird" unicode="&#x2153;" 
d="M431 425h-293v44h130v258l-124 -9l-1 37l125 17v61l50 4v-368h117zM62 283v43h426v-43h-426zM144 -220l-4 47q231 8 231 73q0 60 -192 80l1 26l170 133v2l-205 -1v45h263l4 -42l-173 -133q181 -25 181 -108q0 -52 -66.5 -85t-209.5 -37z" />
    <glyph glyph-name="twothirds" unicode="&#x2154;" 
d="M423 425h-289l-5 42q126 89 178 138.5t52 94.5q0 40 -48 61t-168 23l4 44q262 3 262 -115q0 -55 -50 -109t-163 -134h227v-45zM62 283v43h426v-43h-426zM144 -220l-4 47q231 8 231 73q0 60 -192 80l1 26l170 133v2l-205 -1v45h263l4 -42l-173 -133q181 -25 181 -108
q0 -52 -66.5 -85t-209.5 -37z" />
    <glyph glyph-name="onefifth" unicode="&#x2155;" 
d="M431 425h-293v44h130v258l-124 -9l-1 37l125 17v61l50 4v-368h117zM62 283v43h426v-43h-426zM417 -82q0 -55 -67.5 -91.5t-204.5 -46.5l-4 47q228 18 228 90q0 63 -218 76l15 192h238l-4 -45h-193l-8 -110q218 -17 218 -112z" />
    <glyph glyph-name="twofifths" unicode="&#x2156;" 
d="M423 425h-289l-5 42q126 89 178 138.5t52 94.5q0 40 -48 61t-168 23l4 44q262 3 262 -115q0 -55 -50 -109t-163 -134h227v-45zM62 283v43h426v-43h-426zM417 -82q0 -55 -67.5 -91.5t-204.5 -46.5l-4 47q228 18 228 90q0 63 -218 76l15 192h238l-4 -45h-193l-8 -110
q218 -17 218 -112z" />
    <glyph glyph-name="threefifths" unicode="&#x2157;" 
d="M144 415l-4 47q231 8 231 73q0 60 -192 80l1 26l170 133v2l-205 -1v45h263l4 -42l-173 -133q181 -25 181 -108q0 -52 -66.5 -85t-209.5 -37zM62 283v43h426v-43h-426zM417 -82q0 -55 -67.5 -91.5t-204.5 -46.5l-4 47q228 18 228 90q0 63 -218 76l15 192h238l-4 -45h-193
l-8 -110q218 -17 218 -112z" />
    <glyph glyph-name="fourfifths" unicode="&#x2158;" 
d="M443 509l-55 1l1 -85h-48l1 86l-206 -2q-2 124 50 318l55 -4q-17 -56 -38.5 -148.5t-23.5 -121.5h163l-1 137l48 4l-1 -141h59zM62 283v43h426v-43h-426zM417 -82q0 -55 -67.5 -91.5t-204.5 -46.5l-4 47q228 18 228 90q0 63 -218 76l15 192h238l-4 -45h-193l-8 -110
q218 -17 218 -112z" />
    <glyph glyph-name="onesixth" unicode="&#x2159;" 
d="M431 425h-293v44h130v258l-124 -9l-1 37l125 17v61l50 4v-368h117zM62 283v43h426v-43h-426zM275 -219q-67 0 -107.5 41t-40.5 116q0 175 223 262l18 -43q-91 -36 -136 -78t-54 -99q48 43 106.5 50t99.5 -24.5t41 -88.5q0 -60 -44 -98t-106 -38zM281 -176q40 0 68 24
t28 64q0 43 -31 64.5t-78.5 15t-92.5 -41.5v-5q0 -60 29 -90.5t77 -30.5z" />
    <glyph glyph-name="fivesixths" unicode="&#x215a;" 
d="M417 553q0 -55 -67.5 -91.5t-204.5 -46.5l-4 47q228 18 228 90q0 63 -218 76l15 192h238l-4 -45h-193l-8 -110q218 -17 218 -112zM62 283v43h426v-43h-426zM275 -219q-67 0 -107.5 41t-40.5 116q0 175 223 262l18 -43q-91 -36 -136 -78t-54 -99q48 43 106.5 50
t99.5 -24.5t41 -88.5q0 -60 -44 -98t-106 -38zM281 -176q40 0 68 24t28 64q0 43 -31 64.5t-78.5 15t-92.5 -41.5v-5q0 -60 29 -90.5t77 -30.5z" />
    <glyph glyph-name="oneeighth" unicode="&#x215b;" 
d="M431 425h-293v44h130v258l-124 -9l-1 37l125 17v61l50 4v-368h117zM62 283v43h426v-43h-426zM267 -220q-63 0 -101 26.5t-38 69.5q0 70 104 112q-45 23 -70.5 47t-25.5 56q0 40 39.5 71t105.5 31q58 0 96 -26t38 -68q0 -63 -99 -107q51 -25 78.5 -49t27.5 -57
q0 -44 -43 -75t-112 -31zM187 96q0 -26 24.5 -45.5t71.5 -42.5q83 35 83 83q0 28 -24 45t-66 17t-65.5 -16.5t-23.5 -40.5zM273 -180q44 0 70.5 18t26.5 44q0 18 -17.5 35.5t-34.5 27t-53 27.5q-87 -33 -87 -85q0 -29 25.5 -48t69.5 -19z" />
    <glyph glyph-name="threeeighths" unicode="&#x215c;" 
d="M144 415l-4 47q231 8 231 73q0 60 -192 80l1 26l170 133v2l-205 -1v45h263l4 -42l-173 -133q181 -25 181 -108q0 -52 -66.5 -85t-209.5 -37zM62 283v43h426v-43h-426zM267 -220q-63 0 -101 26.5t-38 69.5q0 70 104 112q-45 23 -70.5 47t-25.5 56q0 40 39.5 71t105.5 31
q58 0 96 -26t38 -68q0 -63 -99 -107q51 -25 78.5 -49t27.5 -57q0 -44 -43 -75t-112 -31zM187 96q0 -26 24.5 -45.5t71.5 -42.5q83 35 83 83q0 28 -24 45t-66 17t-65.5 -16.5t-23.5 -40.5zM273 -180q44 0 70.5 18t26.5 44q0 18 -17.5 35.5t-34.5 27t-53 27.5q-87 -33 -87 -85
q0 -29 25.5 -48t69.5 -19z" />
    <glyph glyph-name="fiveeighths" unicode="&#x215d;" 
d="M417 553q0 -55 -67.5 -91.5t-204.5 -46.5l-4 47q228 18 228 90q0 63 -218 76l15 192h238l-4 -45h-193l-8 -110q218 -17 218 -112zM62 283v43h426v-43h-426zM267 -220q-63 0 -101 26.5t-38 69.5q0 70 104 112q-45 23 -70.5 47t-25.5 56q0 40 39.5 71t105.5 31q58 0 96 -26
t38 -68q0 -63 -99 -107q51 -25 78.5 -49t27.5 -57q0 -44 -43 -75t-112 -31zM187 96q0 -26 24.5 -45.5t71.5 -42.5q83 35 83 83q0 28 -24 45t-66 17t-65.5 -16.5t-23.5 -40.5zM273 -180q44 0 70.5 18t26.5 44q0 18 -17.5 35.5t-34.5 27t-53 27.5q-87 -33 -87 -85
q0 -29 25.5 -48t69.5 -19z" />
    <glyph glyph-name="seveneighths" unicode="&#x215e;" 
d="M240 419l-52 6q68 175 188 347l-1 3h-240l4 45h289v-43q-119 -178 -188 -358zM62 283v43h426v-43h-426zM267 -220q-63 0 -101 26.5t-38 69.5q0 70 104 112q-45 23 -70.5 47t-25.5 56q0 40 39.5 71t105.5 31q58 0 96 -26t38 -68q0 -63 -99 -107q51 -25 78.5 -49t27.5 -57
q0 -44 -43 -75t-112 -31zM187 96q0 -26 24.5 -45.5t71.5 -42.5q83 35 83 83q0 28 -24 45t-66 17t-65.5 -16.5t-23.5 -40.5zM273 -180q44 0 70.5 18t26.5 44q0 18 -17.5 35.5t-34.5 27t-53 27.5q-87 -33 -87 -85q0 -29 25.5 -48t69.5 -19z" />
    <glyph glyph-name="minus" unicode="&#x2212;" 
d="M468 316l-1 -52h-385v52h386z" />
    <glyph glyph-name="approxequal" unicode="&#x2248;" 
d="M364 311q-27 0 -54 18t-45.5 40t-41 40t-39.5 18q-23 0 -42 -28t-44 -85l-39 16q29 76 59.5 112t69.5 36q27 0 54 -18t45 -39.5t39.5 -39.5t38.5 -18q22 0 41.5 28t41.5 81l40 -16q-29 -76 -57.5 -110.5t-66.5 -34.5zM364 103q-27 0 -54 18t-45.5 40t-41 40t-39.5 18
q-23 0 -42 -28.5t-43 -84.5l-40 16q29 76 59.5 112t69.5 36q27 0 54 -18t45 -40t39.5 -40t38.5 -18q23 0 41.5 27.5t42.5 82.5l39 -16q-29 -76 -57.5 -110.5t-66.5 -34.5z" />
    <glyph glyph-name="notequal" unicode="&#x2260;" 
d="M467 156h-216l-54 -145l-47 15l48 130h-116v52h135l64 171h-199v52h218l53 144l47 -16l-47 -128h115l-1 -52h-134l-63 -171h198z" />
    <glyph glyph-name="lessequal" unicode="&#x2264;" 
d="M151 350v-8l300 -166l-21 -48l-341 189l1 52l334 215l26 -46zM471 72v-52h-391v52h391z" />
    <glyph glyph-name="greaterequal" unicode="&#x2265;" 
d="M399 350l-299 188l26 46l334 -215l2 -52l-341 -189l-22 48l300 166v8zM80 72h391v-52h-391v52z" />
    <glyph glyph-name="uniE0A0" unicode="&#xe0a0;" 
d="M428 576q45 0 75.5 -31t30.5 -75q0 -60 -53 -91v-14q0 -79 -65.5 -145t-145.5 -66q-51 0 -81 -34q28 -31 28 -73q0 -44 -31 -75t-74 -31q-45 0 -75.5 31t-30.5 75q0 63 53 91v347q-53 28 -53 91q0 44 30.5 75t75.5 31q43 0 74 -31t31 -75q0 -62 -53 -91v-251
q45 24 106 24q40 0 73 33t33 73v15q-53 31 -53 90q0 45 30.5 76t74.5 31zM112 629q-22 0 -37.5 -15.5t-15.5 -37.5q0 -23 15.5 -38.5t37.5 -15.5q21 0 36.5 16t15.5 38t-15.5 37.5t-36.5 15.5zM428 417q22 0 37.5 15.5t15.5 36.5q0 23 -15.5 38t-37.5 15q-21 0 -36.5 -15.5
t-15.5 -37.5q0 -21 15.5 -36.5t36.5 -15.5zM112 -6q21 0 36.5 15.5t15.5 37.5t-15.5 37.5t-36.5 15.5q-22 0 -37.5 -15.5t-15.5 -37.5q0 -23 15.5 -38t37.5 -15z" />
    <glyph glyph-name="uniE0B0" unicode="&#xe0b0;" 
d="M609 313l-629 -518l2 1099z" />
    <glyph glyph-name="uniE0B2" unicode="&#xe0b2;" 
d="M-20 313l627 581l2 -1099z" />
    <glyph glyph-name="hcoslug" unicode="&#xe10b;" 
d="M500 700v-800h-450v800h450zM200 296q0 22 20 22q22 0 22 -29q0 -17 -14 -37q-28 26 -28 44zM249 232q17 11 31 25q22 -22 -1 -60q-23 28 -30 35zM210 139q-16 0 -27.5 12t-11.5 29q0 18 12 30q28 -26 56 -62q-12 -9 -29 -9zM301 173q15 20 35 32q10 -19 32 -19
q16 0 26.5 11.5t10.5 28.5q0 18 -10.5 28.5t-26.5 10.5q-26 0 -45 -28q-3 28 -37 28q7 10 7 25q0 21 -19.5 38.5t-51.5 17.5q-37 0 -59.5 -19.5t-22.5 -44.5q0 -28 23 -52q-61 -20 -61 -68q0 -30 23.5 -50t57.5 -20q47 0 78 34q33 -34 64 -34q25 0 42 19.5t18 51.5l-5 1
q-14 -22 -32 -22q-20 0 -47 31zM229 68l-9 -1v-7h-5v-5h5v-15q0 -10 9 -10q8 0 11 10l-4 1q-1 -5 -4 -5t-3 4v15h10v5h-10v8zM145 46q0 -16 16 -16t16 16q0 15 -16 15t-16 -15zM167 46q0 -12 -6 -12t-6 12q0 11 6 11t6 -11zM299 45q0 -10 -5 -10q-6 0 -6 10t6 10q5 0 5 -10z
M179 36v-5h16v5h-3v11q0 8 6 8q4 0 4 -6v-13h-3v-5h17v5h-5v14q0 11 -9 11q-6 0 -10 -7v6h-13v-5h4v-19h-4zM108 36v-5h23v5h-7v12h3q4 0 5 -6h5v17h-5q-1 -6 -5 -6h-3v14h8q6 0 9 -10h5v15h-38v-5h6v-31h-6zM241 41v-10h5l1 3q4 -4 10 -4q10 0 10 9q0 6 -9 9t-9 5q0 3 4 3
t8 -5h5v10h-5l-1 -4q-3 4 -8 4q-11 0 -11 -9q0 -7 9 -9.5t9 -5.5t-4 -3t-9 7h-5zM279 69v-39h4l3 6q3 -6 11 -6q12 0 12 16q0 15 -12 15q-7 0 -9 -7v20h-14v-5h5zM318 24q2 2 0.5 4.5t-4.5 2.5q-5 0 -5 -5q0 -7 9 -7q8 0 13 12l10 24h4v5h-13v-5h4l-6 -15l-7 15h4v5h-18v-5
h3q9 -18 12 -25q0 -6 -6 -6zM363 0h-14v-6h5q-2 -4 -5 -7q-2 2 -5 5.5t-4 4.5q8 5 8 10q0 9 -10 9q-13 0 -13 -11q0 -5 5 -10q-10 -3 -10 -11q0 -10 12 -10q8 0 13 5q5 -5 9 -5q7 0 9 9l-3 1q-1 -4 -3 -4q-1 0 -5 4q4 4 7 10h4v6zM235 4v4q0 8 4 8l3 -1q-1 -1 -1 -3
q0 -4 5 -4v-4h-11zM367 -5q0 -21 21 -21q16 0 18 17h-6q-2 -12 -10 -12q-12 0 -12 17t10 17q7 0 11 -12h6v16h-6v-4q-5 5 -12 5q-20 0 -20 -23zM338 -1q-5 5 -5 8q0 4 4 4q5 0 5 -5t-4 -7zM270 -12h19q2 17 -14 17q-15 0 -15 -16q0 -15 16 -15q11 0 13 11h-5q-2 -6 -7 -6
q-7 0 -7 9zM200 -12h19q2 17 -14 17q-15 0 -15 -16q0 -15 16 -15q11 0 13 11h-5q-2 -6 -7 -6q-7 0 -7 9zM156 -10q0 -16 16 -16t16 16q0 15 -16 15t-16 -15zM408 -10q0 -16 16 -16t16 16q0 15 -16 15t-16 -15zM270 -8q0 9 5 9t5 -9h-10zM200 -8q0 9 5 9t5 -9h-10zM178 -10
q0 -12 -6 -12t-6 12q0 11 6 11t6 -11zM430 -10q0 -12 -6 -12t-6 12q0 11 6 11t6 -11zM222 -20v-5h17v5h-4v19h11v-19h-4v-5h17v5h-4v39l-8 -2q-4 2 -8 2q-13 0 -13 -14v-1h-5v-5h5v-19h-4zM291 -20v-5h19v5h-6v12q2 7 5 7v-1q0 -4 5 -4t5 5q0 6 -6 6t-9 -7v6h-13v-5h4v-19
h-4zM108 -20v-5h21v5h-5v14h16v-14h-5v-5h21v5h-6v31h6v5h-21v-5h5v-12h-16v12h5v5h-21v-5h6v-31h-6zM342 -18q-3 -3 -6 -3q-7 0 -7 7q0 4 3 7q2 -2 5.5 -6t4.5 -5zM453 -20q0 6 -6 6t-6 -6t6 -6t6 6z" />
    <glyph glyph-name="check.1" unicode="&#xe10c;" 
d="M503 658q-136 -309 -224 -680l-54 -5l-147 348l53 24l117 -287h3q74 338 189 622z" />
    <glyph glyph-name="check.2" unicode="&#xe10d;" 
d="M364 -5l-112 226l-119 -232l-40 16l128 261l-112 210l56 21l90 -178l169 363l61 -24l-199 -386l137 -263z" />
    <glyph glyph-name="NUL" horiz-adv-x="0" 
 />
    <glyph glyph-name="zero.alt" 
d="M269 -12q-100 0 -154.5 83t-54.5 230q0 151 60 241t162 90q100 0 154.5 -83t54.5 -230q0 -150 -60.5 -240.5t-161.5 -90.5zM277 580q-76 0 -116.5 -70t-40.5 -198t40 -200t115 -72q76 0 115.5 70t39.5 198t-39 200t-114 72z" />
    <glyph glyph-name="colon.alt" 
d="M327 428h-96l1 100h97zM324 92h-96l1 100h96z" />
    <glyph glyph-name="guillemotleft.cap" 
d="M223 52l-172 227l3 63l171 223l46 -38l-174 -215l173 -225zM457 52l-172 227l4 63l171 223l45 -38l-174 -216l173 -224z" />
    <glyph glyph-name="guillemotright.cap" 
d="M325 52l-45 38l174 216l-173 224l47 35l172 -227l-3 -62zM91 52l-45 38l174 216l-174 224l47 35l173 -227l-4 -62z" />
    <glyph glyph-name="guilsinglleft.cap" 
d="M379 52l-249 227l4 63l250 225l40 -43l-245 -214l241 -216z" />
    <glyph glyph-name="guilsinglright.cap" 
d="M167 52l-40 42l245 214l-241 217l41 42l249 -227l-4 -63z" />
    <glyph glyph-name="parenleft.cap" 
d="M424 769l42 -40q-153 -117 -221 -220t-68 -205q0 -100 67 -202.5t218 -219.5l-42 -40q-159 128 -231 240t-72 220q0 111 73 225t234 242z" />
    <glyph glyph-name="parenright.cap" 
d="M126 -157l-42 40q153 117 221 220t68 205q0 100 -67.5 202t-217.5 218l42 42q159 -128 231 -240t72 -220q0 -111 -73 -225t-234 -242z" />
    <glyph glyph-name="bracketleft.cap" 
d="M143 -130v870h321v-51h-263v-769h266l-6 -50h-318z" />
    <glyph glyph-name="bracketright.cap" 
d="M89 -79h262v768h-262v52h319v-871h-320z" />
    <glyph glyph-name="braceleft.cap" 
d="M461 -159q-170 55 -236 96t-66 95q0 33 23.5 65.5t47 59t23.5 46.5q0 31 -41 53.5t-124 26.5l1 45q169 14 169 69q0 16 -16 36t-35 37.5t-35 42.5t-16 50q0 109 309 207l19 -53q-141 -40 -205 -75t-64 -71q0 -27 49 -80t49 -82q0 -30 -28.5 -57t-88.5 -42q58 -14 86 -41
t28 -58t-44.5 -83t-44.5 -83q0 -41 59.5 -75t201.5 -78z" />
    <glyph glyph-name="braceright.cap" 
d="M88 -159l-20 53q269 77 269 146q0 28 -49 80.5t-49 80.5q0 30 29.5 57.5t90.5 42.5q-60 14 -89 40.5t-29 58.5q0 31 45 83t45 83q0 41 -59.5 75t-201.5 77l21 52q170 -55 235.5 -96t65.5 -95q0 -33 -23.5 -65.5t-47 -59t-23.5 -46.5q0 -31 41.5 -53.5t124.5 -26.5l-2 -45
q-169 -13 -169 -69q0 -19 25.5 -45.5t51 -58t25.5 -63.5q0 -108 -307 -206z" />
    <glyph glyph-name="registered.alt" 
d="M505 314q0 -139 -70 -223t-169 -84t-160 79.5t-61 216.5q0 138 64.5 224t162.5 86q100 0 166.5 -80t66.5 -219zM85 305q0 -119 51 -190t131 -71q83 0 140.5 72t57.5 195q0 122 -56.5 193.5t-137.5 71.5q-82 0 -134 -74.5t-52 -196.5zM330 135l-44 128l-45 -3v-120h-44
v333q86 15 126.5 -10t40.5 -80q0 -57 -43 -100l57 -142zM241 437v-139l50 1q29 31 29 76q0 36 -20.5 52.5t-58.5 9.5z" />
    <glyph glyph-name="asterisk.alt" 
d="M301 556l-29 4l2 134l61 -10zM228 543l-19 -25l-115 71l39 47zM349 498l-10 29l117 64l22 -58zM202 472l11 -29l-117 -63l-22 56zM324 428l20 24l113 -71l-38 -47zM250 415l30 -5l-3 -134l-61 9z" />
    <glyph glyph-name="bullet.alt" 
d="M370 197h-193l2 199h193z" />
    <glyph glyph-name="R_p" 
d="M224 -3l-70 244l-54 -3v-238h-54v618q210 48 210 -164q0 -120 -56 -184l77 -265zM100 574v-292l64 3q38 59 38 159q0 76 -24 108t-78 22zM404 39q36 0 51.5 48t15.5 157q0 201 -56 201q-25 0 -54 -34q3 -137 3 -362q16 -10 40 -10zM364 -164l-53 -6v169q0 342 -4 482
l49 4l2 -36q37 45 79 45q86 0 86 -226q0 -279 -131 -279q-16 0 -28 4v-157z" />
    <glyph glyph-name="fraction.afrc" 
d="M62 283v43h426v-43h-426z" />
    <glyph glyph-name="zero.num" 
d="M269 415q-73 0 -113.5 53.5t-40.5 147.5q0 95 45 153.5t120 58.5q73 0 114 -53.5t41 -146.5q0 -96 -45.5 -154.5t-120.5 -58.5zM275 785q-54 0 -81.5 -42t-27.5 -119q0 -78 28 -121.5t81 -43.5q54 0 81.5 42t27.5 118q0 79 -28 122.5t-81 43.5z" />
    <glyph glyph-name="one.num" 
d="M431 425h-293v44h130v258l-124 -9l-1 37l125 17v61l50 4v-368h117z" />
    <glyph glyph-name="two.num" 
d="M423 425h-289l-5 42q126 89 178 138.5t52 94.5q0 40 -48 61t-168 23l4 44q262 3 262 -115q0 -55 -50 -109t-163 -134h227v-45z" />
    <glyph glyph-name="three.num" 
d="M144 415l-4 47q231 8 231 73q0 60 -192 80l1 26l170 133v2l-205 -1v45h263l4 -42l-173 -133q181 -25 181 -108q0 -52 -66.5 -85t-209.5 -37z" />
    <glyph glyph-name="four.num" 
d="M443 509l-55 1l1 -85h-48l1 86l-206 -2q-2 124 50 318l55 -4q-17 -56 -38.5 -148.5t-23.5 -121.5h163l-1 137l48 4l-1 -141h59z" />
    <glyph glyph-name="five.num" 
d="M417 553q0 -55 -67.5 -91.5t-204.5 -46.5l-4 47q228 18 228 90q0 63 -218 76l15 192h238l-4 -45h-193l-8 -110q218 -17 218 -112z" />
    <glyph glyph-name="six.num" 
d="M275 416q-67 0 -107.5 41t-40.5 116q0 175 223 262l18 -43q-91 -36 -136 -78t-54 -99q48 43 106.5 50t99.5 -24.5t41 -88.5q0 -60 -44 -98t-106 -38zM281 459q40 0 68 24t28 64q0 43 -31 64.5t-78.5 15t-92.5 -41.5v-5q0 -60 29 -90.5t77 -30.5z" />
    <glyph glyph-name="seven.num" 
d="M240 419l-52 6q68 175 188 347l-1 3h-240l4 45h289v-43q-119 -178 -188 -358z" />
    <glyph glyph-name="eight.num" 
d="M267 415q-63 0 -101 26.5t-38 69.5q0 70 104 112q-45 23 -70.5 47t-25.5 56q0 40 39.5 71t105.5 31q58 0 96 -26t38 -68q0 -63 -99 -107q51 -25 78.5 -49t27.5 -57q0 -44 -43 -75t-112 -31zM187 731q0 -26 24.5 -45.5t71.5 -42.5q83 35 83 83q0 28 -24 45t-66 17
t-65.5 -16.5t-23.5 -40.5zM273 455q44 0 70.5 18t26.5 44q0 18 -17.5 35.5t-34.5 27t-53 27.5q-87 -33 -87 -85q0 -29 25.5 -48t69.5 -19z" />
    <glyph glyph-name="nine.num" 
d="M200 408l-19 44q91 34 135.5 75.5t54.5 98.5q-48 -42 -106.5 -48.5t-99 25t-40.5 88.5q0 60 44 98t106 38q67 0 108 -41t41 -116q0 -173 -224 -262zM173 695q0 -43 31 -64.5t78.5 -14.5t91.5 41v7q0 59 -28.5 90t-75.5 31q-40 0 -68.5 -25t-28.5 -65z" />
    <glyph glyph-name="zero.den" 
d="M269 -220q-73 0 -113.5 53.5t-40.5 147.5q0 95 45 153.5t120 58.5q73 0 114 -53.5t41 -146.5q0 -96 -45.5 -154.5t-120.5 -58.5zM275 150q-54 0 -81.5 -42t-27.5 -119q0 -78 28 -121.5t81 -43.5q54 0 81.5 42t27.5 118q0 79 -28 122.5t-81 43.5z" />
    <glyph glyph-name="one.den" 
d="M431 -210h-293v44h130v258l-124 -9l-1 37l125 17v61l50 4v-368h117z" />
    <glyph glyph-name="two.den" 
d="M423 -210h-289l-5 42q126 89 178 138.5t52 94.5q0 40 -48 61t-168 23l4 44q262 3 262 -115q0 -55 -50 -109t-163 -134h227v-45z" />
    <glyph glyph-name="three.den" 
d="M144 -220l-4 47q231 8 231 73q0 60 -192 80l1 26l170 133v2l-205 -1v45h263l4 -42l-173 -133q181 -25 181 -108q0 -52 -66.5 -85t-209.5 -37z" />
    <glyph glyph-name="four.den" 
d="M443 -126l-55 1l1 -85h-48l1 86l-206 -2q-2 124 50 318l55 -4q-17 -56 -38.5 -148.5t-23.5 -121.5h163l-1 137l48 4l-1 -141h59z" />
    <glyph glyph-name="five.den" 
d="M417 -82q0 -55 -67.5 -91.5t-204.5 -46.5l-4 47q228 18 228 90q0 63 -218 76l15 192h238l-4 -45h-193l-8 -110q218 -17 218 -112z" />
    <glyph glyph-name="six.den" 
d="M275 -219q-67 0 -107.5 41t-40.5 116q0 175 223 262l18 -43q-91 -36 -136 -78t-54 -99q48 43 106.5 50t99.5 -24.5t41 -88.5q0 -60 -44 -98t-106 -38zM281 -176q40 0 68 24t28 64q0 43 -31 64.5t-78.5 15t-92.5 -41.5v-5q0 -60 29 -90.5t77 -30.5z" />
    <glyph glyph-name="seven.den" 
d="M240 -216l-52 6q68 175 188 347l-1 3h-240l4 45h289v-43q-119 -178 -188 -358z" />
    <glyph glyph-name="eight.den" 
d="M267 -220q-63 0 -101 26.5t-38 69.5q0 70 104 112q-45 23 -70.5 47t-25.5 56q0 40 39.5 71t105.5 31q58 0 96 -26t38 -68q0 -63 -99 -107q51 -25 78.5 -49t27.5 -57q0 -44 -43 -75t-112 -31zM187 96q0 -26 24.5 -45.5t71.5 -42.5q83 35 83 83q0 28 -24 45t-66 17
t-65.5 -16.5t-23.5 -40.5zM273 -180q44 0 70.5 18t26.5 44q0 18 -17.5 35.5t-34.5 27t-53 27.5q-87 -33 -87 -85q0 -29 25.5 -48t69.5 -19z" />
    <glyph glyph-name="nine.den" 
d="M200 -227l-19 44q91 34 135.5 75.5t54.5 98.5q-48 -42 -106.5 -48.5t-99 25t-40.5 88.5q0 60 44 98t106 38q67 0 108 -41t41 -116q0 -173 -224 -262zM173 60q0 -43 31 -64.5t78.5 -14.5t91.5 41v7q0 59 -28.5 90t-75.5 31q-40 0 -68.5 -25t-28.5 -65z" />
    <glyph glyph-name="zero.small" 
d="M269 -10q-73 0 -113.5 53.5t-40.5 147.5q0 95 45 153.5t120 58.5q73 0 114 -53.5t41 -146.5q0 -96 -45.5 -154.5t-120.5 -58.5zM275 360q-54 0 -81.5 -42t-27.5 -119q0 -78 28 -121.5t81 -43.5q54 0 81.5 42t27.5 118q0 79 -28 122.5t-81 43.5z" />
    <glyph glyph-name="one.small" 
d="M431 0h-293v44h130v258l-124 -9l-1 37l125 17v61l50 4v-368h117z" />
    <glyph glyph-name="two.small" 
d="M423 0h-289l-5 42q126 89 178 138.5t52 94.5q0 40 -48 61t-168 23l4 44q262 3 262 -115q0 -55 -50 -109t-163 -134h227v-45z" />
    <glyph glyph-name="three.small" 
d="M144 -10l-4 47q231 8 231 73q0 60 -192 80l1 26l170 133v2l-205 -1v45h263l4 -42l-173 -133q181 -25 181 -108q0 -52 -66.5 -85t-209.5 -37z" />
    <glyph glyph-name="four.small" 
d="M443 84l-55 1l1 -85h-48l1 86l-206 -2q-2 124 50 318l55 -4q-17 -56 -38.5 -148.5t-23.5 -121.5h163l-1 137l48 4l-1 -141h59z" />
    <glyph glyph-name="five.small" 
d="M417 128q0 -55 -67.5 -91.5t-204.5 -46.5l-4 47q228 18 228 90q0 63 -218 76l15 192h238l-4 -45h-193l-8 -110q218 -17 218 -112z" />
    <glyph glyph-name="six.small" 
d="M275 -9q-67 0 -107.5 41t-40.5 116q0 175 223 262l18 -43q-91 -36 -136 -78t-54 -99q48 43 106.5 50t99.5 -24.5t41 -88.5q0 -60 -44 -98t-106 -38zM281 34q40 0 68 24t28 64q0 43 -31 64.5t-78.5 15t-92.5 -41.5v-5q0 -60 29 -90.5t77 -30.5z" />
    <glyph glyph-name="seven.small" 
d="M240 -6l-52 6q68 175 188 347l-1 3h-240l4 45h289v-43q-119 -178 -188 -358z" />
    <glyph glyph-name="eight.small" 
d="M267 -10q-63 0 -101 26.5t-38 69.5q0 70 104 112q-45 23 -70.5 47t-25.5 56q0 40 39.5 71t105.5 31q58 0 96 -26t38 -68q0 -63 -99 -107q51 -25 78.5 -49t27.5 -57q0 -44 -43 -75t-112 -31zM187 306q0 -26 24.5 -45.5t71.5 -42.5q83 35 83 83q0 28 -24 45t-66 17
t-65.5 -16.5t-23.5 -40.5zM273 30q44 0 70.5 18t26.5 44q0 18 -17.5 35.5t-34.5 27t-53 27.5q-87 -33 -87 -85q0 -29 25.5 -48t69.5 -19z" />
    <glyph glyph-name="nine.small" 
d="M200 -17l-19 44q91 34 135.5 75.5t54.5 98.5q-48 -42 -106.5 -48.5t-99 25t-40.5 88.5q0 60 44 98t106 38q67 0 108 -41t41 -116q0 -173 -224 -262zM173 270q0 -43 31 -64.5t78.5 -14.5t91.5 41v7q0 59 -28.5 90t-75.5 31q-40 0 -68.5 -25t-28.5 -65z" />
    <glyph glyph-name="caron.alt" 
d="M209 564q31 63 31.5 125t-18.5 111l73 2q26 -126 -58 -249z" />
    <glyph glyph-name="commaaccent.rot" 
d="M323 757q-47 -90 -7 -190l-79 -3q-21 107 56 203z" />
    <glyph glyph-name="underscore.alt" 
d="M560 -50v-50h-570v50h570z" />
    <glyph glyph-name="less_exclam_hyphen_hyphen.liga" 
d="M-841 226q0 65 -5.5 233.5t-6.5 216.5h77q-2 -35 -12.5 -209t-12.5 -241h-40zM-1196 552l-280 -236h450l-3 -52h-447l285 -242l-36 -42l-333 283v53l328 279zM-613 316h1047l-3 -52h-1044v52zM-874 0l2 96h94l-3 -96h-93z" />
    <glyph glyph-name="equal_equal_equal.liga" 
d="M467 511h-1485v60h1486zM467 264h-1485v60h1486zM467 16h-1485v61h1486z" />
    <glyph glyph-name="equal_equal_greater.liga" 
d="M133 595l327 -278v-54l-334 -283l-35 42l158 134h-1267v52h1329l92 78v8l-101 85h-1320v52h1259l-144 121z" />
    <glyph glyph-name="equal_less_less.liga" 
d="M-152 294v-8l311 -264l-36 -42l-207 176h-934v52h873l-65 55v53l74 63h-882v52h943l193 164l36 -43zM148 286l311 -264l-36 -42l-333 283v53l328 279l36 -43l-306 -258v-8z" />
    <glyph glyph-name="exclam_equal_equal.liga" 
d="M467 264h-706l-99 -187h806l-1 -61h-838l-105 -197l-54 19l95 178h-583v61h616l99 187h-715v60h747l100 187h-847v60h879l78 146l51 -24l-65 -122h543l-1 -60h-574l-100 -187h675z" />
    <glyph glyph-name="greater_equal_greater.liga" 
d="M133 595l327 -278v-54l-334 -283l-35 42l158 134h-1015l-208 -176l-35 42l312 264v8l-306 258l36 43l193 -164h1015l-144 121zM403 286v8l-101 85h-1015l73 -62v-54l-65 -55h1016z" />
    <glyph glyph-name="greater_greater_equal.liga" 
d="M-640 317v-54l-334 -283l-35 42l312 264v8l-306 258l36 43zM-340 263l-65 -55h873l-1 -52h-933l-208 -176l-35 42l312 264v8l-306 258l36 43l193 -164h942l-1 -52h-880l73 -62v-54z" />
    <glyph glyph-name="hyphen_hyphen_greater.liga" 
d="M133 595l327 -278v-54l-334 -283l-35 42l286 242h-1357v52h1357l-280 236z" />
    <glyph glyph-name="less_equal_equal.liga" 
d="M-952 286l92 -78h1328l-1 -52h-1266l158 -134l-36 -42l-333 283v53l328 279l36 -43l-144 -121h1258l-1 -52h-1318l-101 -85v-8z" />
    <glyph glyph-name="less_equal_greater.liga" 
d="M133 595l327 -278v-54l-334 -283l-35 42l158 134h-1048l158 -134l-36 -42l-333 283v53l328 279l36 -43l-144 -121h1031l-144 121zM403 286v8l-101 85h-1153l-101 -85v-8l92 -78h1171z" />
    <glyph glyph-name="less_equal_less.liga" 
d="M423 -20l-207 176h-1015l158 -134l-36 -42l-333 283v53l328 279l36 -43l-144 -121h1015l193 164l36 -43l-306 -258v-8l311 -264zM-860 208h1015l-65 55v53l74 63h-1015l-101 -85v-8z" />
    <glyph glyph-name="less_hyphen_greater.liga" 
d="M133 595l327 -278v-54l-334 -283l-35 42l286 242h-1303l285 -242l-36 -42l-333 283v53l328 279l36 -43l-280 -236h1303l-280 236z" />
    <glyph glyph-name="less_hyphen_hyphen.liga" 
d="M434 316l-3 -52h-1357l285 -242l-36 -42l-333 283v53l328 279l36 -43l-280 -236h1360z" />
    <glyph glyph-name="ampersand_ampersand.liga" 
d="M296 159q67 -75 115 -132l-48 -40q-65 80 -100 119q-78 -118 -182 -118q-34 0 -65 13q-51 23 -104 105q-78 -118 -182 -118q-65 0 -101.5 39.5t-36.5 99.5q0 110 134 195q-63 81 -63 139q0 72 66 122.5t212 47.5l4 -58q-224 10 -224 -106q0 -38 34.5 -86t130.5 -156
q6 -6 9 -9.5t8.5 -9.5t9.5 -11q43 92 68 209l48 -6q-15 32 -15 63q0 72 66 122.5t212 47.5l4 -58q-224 10 -224 -106q0 -38 34.5 -86t130.5 -156q6 -6 9 -9.5t8.5 -9.5t9.5 -11q43 92 68 209l55 -7q-38 -145 -91 -238zM77 322q-29 37 -43 66q-23 -84 -46 -142q33 41 89 76z
M-258 40q75 0 139 102q-123 142 -130 150q-100 -69 -100 -152q0 -45 23.5 -72.5t67.5 -27.5zM93 40q75 0 139 102q-123 142 -130 150q-100 -69 -100 -152q0 -45 23.5 -72.5t67.5 -27.5zM-55 154z" />
    <glyph glyph-name="bar_bar.liga" 
d="M-170 705v-886h-56v881zM215 705v-886h-56v881z" />
    <glyph glyph-name="bar_greater.liga" 
d="M330 317v-54l-525 -439v-5h-56v949l56 5zM273 286v8l-468 405v-804z" />
    <glyph glyph-name="colon_equal.liga" 
d="M-289 355l1 101h97l-2 -101h-96zM347 379h-425v52h426zM-289 131l1 101h97l-2 -101h-96zM347 156h-425v52h426z" />
    <glyph glyph-name="equal_equal.liga" 
d="M467 379h-935v52h936zM467 156h-935v52h936z" />
    <glyph glyph-name="equal_greater.liga" 
d="M133 595l327 -278v-54l-334 -283l-35 42l158 134h-717v52h779l92 78v8l-101 85h-770v52h709l-144 121z" />
    <glyph glyph-name="exclam_equal.liga" 
d="M66 379l-92 -171h494l-1 -52h-520l-180 -337l-54 19l170 318h-351v52h378l92 171h-470v52h497l153 286l51 -24l-140 -262h375l-1 -52h-401z" />
    <glyph glyph-name="greater_equal.liga" 
d="M-334 22l25 -42l675 283v54l-668 278l-25 -43l605 -258v-8zM366 93v56l-700 -297l25 -42z" />
    <glyph glyph-name="hyphen_greater.liga" 
d="M133 595l327 -278v-54l-334 -283l-35 42l286 242h-807v52h807l-280 236z" />
    <glyph glyph-name="hyphen_hyphen.liga" 
d="M-72 264h-311v52h314zM365 264h-311v52h314z" />
    <glyph glyph-name="less_bar.liga" 
d="M224 773l56 -5v-949h-56v5l-525 439v54zM-244 286l468 -391v804l-468 -405v-8z" />
    <glyph glyph-name="less_equal.liga" 
d="M336 22l-612 264v8l605 258l-25 43l-668 -278v-54l675 -283zM-364 93l675 -283l25 42l-700 297v-56z" />
    <glyph glyph-name="less_hyphen.liga" 
d="M434 316l-3 -52h-807l285 -242l-36 -42l-333 283v53l328 279l36 -43l-280 -236h810z" />
    <glyph glyph-name="less_slash.liga" horiz-adv-x="525" 
d="M266 717l51 -24l-466 -874l-54 19l76 142l-333 283v53l328 279l36 -43l-306 -258v-8l301 -256z" />
    <glyph glyph-name="plus_plus.liga" 
d="M235 316h183l-1 -52h-182v-193h-55v193h-364v-193h-55v193h-184v52h184v192h55v-192h364v192h55v-192z" />
    <glyph glyph-name="question_question.liga" 
d="M-428 678q387 -23 387 -160q0 -30 -21.5 -59.5t-53 -55t-63.5 -51.5t-56.5 -60t-28.5 -69l-42 1q2 39 24 75t51 62.5t58 50.5t49 48t20 45q0 96 -330 116zM-8 678q387 -23 387 -160q0 -30 -21.5 -59.5t-53 -55t-63.5 -51.5t-56.5 -60t-28.5 -69l-42 1q2 39 24 75t51 62.5
t58 50.5t49 48t20 45q0 96 -330 116zM-337 0l1 96h91l-2 -96h-90zM83 0l1 96h91l-2 -96h-90z" />
    <glyph glyph-name="slash_greater.liga" 
d="M133 595l327 -278v-54l-334 -283l-35 42l312 264v8l-297 251l-387 -726l-54 19l469 879l51 -24l-53 -99z" />
    <glyph glyph-name="underscore_underscore.liga" 
d="M562 -100h-1115v50h1115v-50z" />
    <glyph glyph-name="LIG" 
 />
    </font>
</defs>
</svg>
