<?xml version="1.0" standalone="no"?>
<!DOCTYPE svg PUBLIC "-//W3C//DTD SVG 1.1//EN" "http://www.w3.org/Graphics/SVG/1.1/DTD/svg11.dtd" >
<svg xmlns="http://www.w3.org/2000/svg" xmlns:xlink="http://www.w3.org/1999/xlink" version="1.1">
<metadata>
Created by FontForge 20170731 at Wed May 27 05:00:03 2020
 By Aleksey,,,
Copyright (C) 2016 Hoefler &#38; Co. http://www.typography.com
</metadata>
<defs>
<font id="OperatorMonoLig-LightItalic" horiz-adv-x="550" >
  <font-face 
    font-family="Operator Mono Lig Light"
    font-weight="300"
    font-style="italic"
    font-stretch="normal"
    units-per-em="1000"
    panose-1="2 0 0 9 0 0 0 0 0 0"
    ascent="800"
    descent="-200"
    x-height="484"
    cap-height="620"
    bbox="-1557 -375 703 1125"
    underline-thickness="49"
    underline-position="-171"
    slope="-11"
    unicode-range="U+0020-E10D"
  />
<missing-glyph 
d="M8 -200l-15 1000h540l15 -1000h-540zM70 750l199 -390l188 390h-387zM481 676l-180 -376l191 -376zM60 -76l180 376l-191 376zM271 240l-187 -390h387z" />
    <glyph glyph-name=".notdef" 
d="M8 -200l-15 1000h540l15 -1000h-540zM70 750l199 -390l188 390h-387zM481 676l-180 -376l191 -376zM60 -76l180 376l-191 376zM271 240l-187 -390h387z" />
    <glyph glyph-name=".null" horiz-adv-x="0" 
 />
    <glyph glyph-name="nonmarkingreturn" horiz-adv-x="333" 
 />
    <glyph glyph-name="space" unicode=" " 
 />
    <glyph glyph-name="exclam" unicode="!" 
d="M287 226h-39q12 65 38 233t34 216h78q-10 -40 -34.5 -137t-45 -179t-31.5 -133zM263 0h-90l20 96h90z" />
    <glyph glyph-name="quotedbl" unicode="&#x22;" 
d="M422 387h-41l49 279h76l-3 -32zM210 387h-41l49 279h76l-3 -32z" />
    <glyph glyph-name="numbersign" unicode="#" 
d="M199 226l137 21l40 160l-137 -22zM138 -12l-46 -5l47 182l-106 -16l12 53l107 17l41 159l-106 -17l11 54l109 17l47 185l46 5l-47 -183l137 21l46 182l46 6l-46 -180l106 16l-12 -53l-107 -17l-41 -160l107 17l-12 -53l-108 -17l-48 -188l-46 -5l47 186l-137 -21z" />
    <glyph glyph-name="dollar" unicode="$" 
d="M198 480q0 -43 87 -124l57 189q-73 4 -108.5 -15t-35.5 -50zM390 143q0 26 -23 55t-68 71l-60 -197q75 -1 113 19.5t38 51.5zM200 -85l-54 1l32 108q-66 6 -138 22l13 57q81 -22 144 -28l68 224q-60 54 -92.5 95.5t-32.5 81.5q0 53 53 87.5t159 31.5l34 109h55l-37 -113
q54 -6 116 -22l-11 -56q-70 20 -125 28l-66 -216q40 -37 63.5 -60.5t44.5 -57.5t21 -63q0 -51 -54.5 -87t-164.5 -35z" />
    <glyph glyph-name="percent" unicode="%" 
d="M298 537q0 -73 -34.5 -124.5t-84.5 -51.5q-35 0 -56.5 25t-21.5 71q0 73 34.5 124.5t85.5 51.5q35 0 56 -25.5t21 -70.5zM96 -5l-36 30l449 600l37 -31zM247 537q0 48 -33 48q-25 0 -43.5 -39t-18.5 -89q0 -48 33 -48q25 0 43.5 39t18.5 89zM307 82q0 72 35 124t85 52
q35 0 56 -25.5t21 -70.5q0 -73 -34.5 -124.5t-84.5 -51.5q-35 0 -56.5 25t-21.5 71zM358 83q0 -49 33 -49q25 0 43.5 39t18.5 89q0 48 -33 48q-25 0 -43.5 -39t-18.5 -88z" />
    <glyph glyph-name="ampersand" unicode="&#x26;" 
d="M474 -18q-71 68 -122 137q-121 -129 -220 -129q-52 0 -81 30.5t-29 84.5q0 137 218 332q2 74 35.5 138.5t67.5 64.5q19 0 30 -11.5t11 -32.5q0 -78 -92 -175q7 -110 71 -215q51 68 99 162l52 -19q-59 -106 -123 -184q46 -65 128 -142zM148 45q76 0 177 114
q-69 109 -82 220q-163 -161 -163 -262q0 -34 18 -53t50 -19z" />
    <glyph glyph-name="quotesingle" unicode="'" 
d="M318 387h-41l48 279h78l-2 -32z" />
    <glyph glyph-name="parenleft" unicode="(" 
d="M502 714l32 -43q-190 -120 -271.5 -228.5t-81.5 -225.5q0 -174 202 -383l-46 -35q-213 226 -213 417q0 127 89.5 246.5t288.5 251.5z" />
    <glyph glyph-name="parenright" unicode=")" 
d="M43 -213l-32 43q190 119 271.5 228t81.5 226q0 174 -203 383l47 35q213 -227 213 -418q0 -126 -89.5 -245.5t-288.5 -251.5z" />
    <glyph glyph-name="asterisk" unicode="*" 
d="M366 283l-71 141l-135 -82l-23 28l113 110l-122 104l21 30l139 -73l62 147l37 -10l-27 -156l159 -14v-36l-156 -23l37 -153z" />
    <glyph glyph-name="plus" unicode="+" 
d="M494 264h-187l-38 -193h-54l38 193h-188l10 50h187l38 194h54l-38 -194h188z" />
    <glyph glyph-name="comma" unicode="," 
d="M119 -171q63 64 81 122.5t5 148.5l91 3q-4 -92 -39 -157.5t-114 -131.5z" />
    <glyph glyph-name="hyphen" unicode="-" 
d="M428 315l-9 -51h-295l9 51h295z" />
    <glyph glyph-name="period" unicode="." 
d="M278 0h-91l20 100h91z" />
    <glyph glyph-name="slash" unicode="/" 
d="M561 712l47 -23l-612 -867l-53 14z" />
    <glyph glyph-name="zero" unicode="0" 
d="M65 217q0 165 81 289.5t197 124.5q78 0 123.5 -58t45.5 -169q0 -165 -81 -290t-197 -125q-78 0 -123.5 58.5t-45.5 169.5zM331 580q-83 0 -141.5 -99t-64.5 -230l327 171q-4 78 -36 118t-85 40zM246 40q83 0 142 99.5t64 231.5l-327 -170q4 -80 35.5 -120.5t85.5 -40.5z
" />
    <glyph glyph-name="one" unicode="1" 
d="M439 0h-382l10 52h172l89 459l-162 -9l7 44l165 20l15 77l60 4l-115 -595h155z" />
    <glyph glyph-name="two" unicode="2" 
d="M435 0h-390l-1 49q108 73 170 119t119 98t81 95.5t24 88.5q0 151 -280 108l9 57q162 26 246 -14t84 -136q0 -52 -23 -100t-75.5 -100t-113 -98.5t-158.5 -113.5h319z" />
    <glyph glyph-name="three" unicode="3" 
d="M469 168q0 -37 -20.5 -69.5t-65.5 -59.5t-129 -38t-197 -1l7 58q106 -9 174 -6t106.5 21t53 38.5t14.5 46.5q0 99 -249 158l5 30l287 221h-292l10 53h356l-6 -51l-285 -222q231 -60 231 -179z" />
    <glyph glyph-name="four" unicode="4" 
d="M482 138h-72l-27 -138h-56l27 138h-297l2 40q67 110 111.5 210t86.5 238l64 -3q-45 -140 -91 -235.5t-112 -196.5h246l43 222l57 5l-44 -227h78z" />
    <glyph glyph-name="five" unicode="5" 
d="M465 192q0 -33 -13.5 -63t-44.5 -57t-77 -45.5t-117 -26.5t-158 0l7 58q100 -8 167 -2.5t107 26.5t56.5 45t16.5 53q0 112 -274 158l69 282h322l-15 -53h-265l-46 -189q265 -54 265 -186z" />
    <glyph glyph-name="six" unicode="6" 
d="M256 -10q-82 0 -132.5 52.5t-50.5 153.5q0 63 21 124t64.5 121.5t122.5 113t185 87.5l14 -56q-151 -46 -232 -121.5t-106 -165.5q55 50 116 67.5t108 4t78 -56t31 -103.5q0 -96 -63.5 -158.5t-155.5 -62.5zM268 40q68 0 109.5 46t41.5 116q0 65 -41.5 100.5t-109.5 24
t-135 -73.5q-3 -21 -3 -42q0 -87 38.5 -129t99.5 -42z" />
    <glyph glyph-name="seven" unicode="7" 
d="M174 -4l-62 7q162 300 369 560v3h-331l11 54h396l-10 -48q-212 -271 -373 -576z" />
    <glyph glyph-name="eight" unicode="8" 
d="M444 144q0 -64 -60.5 -109.5t-150.5 -45.5q-78 0 -127 36.5t-49 94.5q0 47 38 94.5t143 116.5q-93 91 -93 153q0 74 86.5 117.5t233.5 17.5l-17 -58q-90 22 -144.5 14t-78 -29t-23.5 -52q0 -29 21.5 -59t63.5 -72q70 43 220 126l21 -38q-128 -68 -209 -118
q41 -39 62.5 -62.5t42 -59.5t20.5 -67zM248 39q60 0 100 29t40 71q0 25 -20 56t-39 49.5t-60 56.5q-92 -60 -122.5 -97t-30.5 -71q0 -43 37 -68.5t95 -25.5z" />
    <glyph glyph-name="nine" unicode="9" 
d="M110 -19l-14 55q281 85 338 287q-73 -66 -151.5 -75.5t-129.5 36t-51 127.5q0 97 63 159t155 62q82 0 133 -52.5t51 -153.5q0 -63 -21 -124t-65 -121.5t-123 -112.5t-185 -87zM158 420q0 -66 41.5 -101.5t109 -24t134.5 73.5q3 21 3 43q0 88 -38 129t-99 41
q-68 0 -109.5 -45.5t-41.5 -115.5z" />
    <glyph glyph-name="colon" unicode=":" 
d="M345 335h-91l20 101h91zM274 0h-91l20 100h92z" />
    <glyph glyph-name="semicolon" unicode=";" 
d="M345 335h-91l20 101h91zM116 -172q62 64 80 122.5t7 148.5l90 3q-4 -91 -38.5 -157t-114.5 -131z" />
    <glyph glyph-name="less" unicode="&#x3c;" 
d="M483 591l27 -45l-355 -252l-2 -8l259 -262l-41 -41l-278 286l9 52z" />
    <glyph glyph-name="equal" unicode="=" 
d="M508 430l-11 -51h-391l10 51h392zM465 207l-11 -51h-391l10 51h392z" />
    <glyph glyph-name="greater" unicode="&#x3e;" 
d="M94 -17l-27 46l355 252l2 8l-259 262l41 40l278 -285l-10 -52z" />
    <glyph glyph-name="question" unicode="?" 
d="M143 619l11 59q184 -20 272 -61.5t88 -112.5q0 -63 -69.5 -127t-228.5 -145l-19 33q139 71 194.5 121.5t55.5 97.5q0 56 -72.5 86t-231.5 49zM214 0h-89l20 96h89z" />
    <glyph glyph-name="at" unicode="@" 
d="M402 -140q-346 -80 -346 257q0 142 47 271.5t131 211t181 81.5q86 0 117 -62.5t6 -182.5l-43 -208q-14 -72 -27 -164l-52 1l5 52q-63 -58 -115 -58q-34 0 -54 32t-20 94q0 112 58 202t146 90q27 0 55 -7q26 163 -89 163q-76 0 -144 -73.5t-108.5 -191.5t-40.5 -246
q0 -142 69.5 -197t230.5 -15zM331 111q41 0 97 47l53 259q-42 13 -69 13q-48 0 -87 -76t-39 -161q0 -82 45 -82z" />
    <glyph glyph-name="A" unicode="A" 
d="M405 -2q-13 143 -19 204h-225q-33 -68 -97 -202h-62q142 300 309 623h87q42 -349 67 -621zM341 568q-106 -212 -158 -319h199q-16 166 -33 319h-8z" />
    <glyph glyph-name="B" unicode="B" 
d="M484 185q0 -43 -22.5 -79.5t-73 -67t-132 -40t-199.5 1.5l120 618q168 24 252.5 -12.5t84.5 -111.5q0 -60 -46.5 -106.5t-127.5 -67.5q65 -11 104.5 -47.5t39.5 -87.5zM456 480q0 53 -58 79.5t-169 14.5l-47 -244q137 6 205.5 47.5t68.5 102.5zM424 179q0 58 -61.5 89
t-188.5 23l-46 -241q146 -14 221 24.5t75 104.5z" />
    <glyph glyph-name="C" unicode="C" 
d="M378 633q80 0 110 -54.5t24 -169.5l-58 -1q2 90 -15 130.5t-73 40.5q-64 0 -119 -51.5t-85.5 -131t-30.5 -164.5q0 -136 84 -175t240 22l-6 -57q-177 -65 -278 -11.5t-101 210.5q0 162 90.5 287t217.5 125z" />
    <glyph glyph-name="D" unicode="D" 
d="M518 382q0 -70 -18 -132t-56 -113.5t-92 -86t-132 -48.5t-170 -2l120 619q167 28 257.5 -32t90.5 -205zM457 375q0 225 -235 197l-102 -523q162 -14 249.5 81t87.5 245z" />
    <glyph glyph-name="E" unicode="E" 
d="M439 53l-14 -53h-360l120 620h362l-10 -53h-301l-44 -229h255l-9 -47h-255l-46 -238h302z" />
    <glyph glyph-name="F" unicode="F" 
d="M446 277h-265l-54 -277h-60l120 620h373l-9 -53h-314l-47 -242h266z" />
    <glyph glyph-name="G" unicode="G" 
d="M398 -109l-56 -2l26 118q-139 -43 -219 13.5t-80 198.5q0 163 89 288.5t209 125.5q78 0 109 -54t26 -170l-57 -1q2 90 -15.5 130.5t-71.5 40.5q-62 0 -115.5 -52t-83 -132t-29.5 -165q0 -124 65 -167t186 -1l39 176l59 3z" />
    <glyph glyph-name="H" unicode="H" 
d="M363 0l56 290h-255l-56 -290h-62l120 620h62l-54 -281h255l54 281h62l-120 -620h-62z" />
    <glyph glyph-name="I" unicode="I" 
d="M264 49h155l-12 -49h-365l10 49h151l101 522h-155l10 49h366l-10 -49h-150z" />
    <glyph glyph-name="J" unicode="J" 
d="M47 -12l10 57q116 -2 167 5t73 29q15 15 26 52t30 136l60 304h-211l10 49h271l-66 -345q-22 -119 -36.5 -162.5t-35.5 -64.5q-32 -32 -100 -46t-198 -14z" />
    <glyph glyph-name="K" unicode="K" 
d="M408 -5l-201 317l302 308h69l-301 -308l197 -308zM179 620h61l-121 -620h-61z" />
    <glyph glyph-name="L" unicode="L" 
d="M444 0h-377l120 620h62l-110 -567h317z" />
    <glyph glyph-name="M" unicode="M" 
d="M237 622l31 -444h2l209 442h82l-120 -620h-60l106 529h-3l-207 -431h-48l-31 431h-3l-101 -529h-56l120 618z" />
    <glyph glyph-name="N" unicode="N" 
d="M362 0l-152 531h-5l-101 -531h-57l119 619l72 2l147 -519h5l99 518h57l-120 -620h-64z" />
    <glyph glyph-name="O" unicode="O" 
d="M353 632q79 0 126 -59.5t47 -171.5q0 -103 -36.5 -197.5t-103.5 -155t-148 -60.5q-79 0 -125.5 59.5t-46.5 171.5q0 103 36 197.5t103 155t148 60.5zM248 41q91 0 153 109t62 247q0 89 -32 135t-88 46q-60 0 -110.5 -52t-77.5 -133.5t-27 -169.5q0 -89 32 -135.5
t88 -46.5z" />
    <glyph glyph-name="P" unicode="P" 
d="M120 0h-61l120 618q182 23 271 -22.5t89 -135.5q0 -104 -99.5 -170t-278.5 -81zM478 451q0 65 -61.5 98t-184.5 20l-60 -302q147 1 226.5 50.5t79.5 133.5z" />
    <glyph glyph-name="Q" unicode="Q" 
d="M419 -131l-276 123l15 44q136 56 223 162.5t87 221.5q0 76 -35 118.5t-100 42.5q-72 0 -124 -59.5t-66 -162t24 -239.5l-52 -20q-49 150 -31 268t90 191.5t172 73.5q89 0 136.5 -56.5t47.5 -150.5q0 -125 -84.5 -234t-218.5 -176l219 -97z" />
    <glyph glyph-name="R" unicode="R" 
d="M420 -5l-182 282l1 2q116 52 166 95.5t50 98.5q0 57 -58 83t-171 14l-110 -570h-61l120 619q175 22 258.5 -16.5t83.5 -117.5q0 -67 -50.5 -118.5t-152.5 -98.5l173 -263z" />
    <glyph glyph-name="S" unicode="S" 
d="M506 463l-56 -10q-10 65 -41 95.5t-86 30.5q-56 0 -93 -35t-37 -83q0 -34 27 -66.5t65.5 -60t77 -56t65.5 -64t27 -73.5q0 -39 -23.5 -71t-74.5 -54t-132 -22.5t-196 22.5l13 61q130 -34 208 -30t110.5 26.5t32.5 59.5q0 30 -27 61t-65.5 58.5t-77 56.5t-65.5 66.5
t-27 77.5q0 71 60 124.5t148 53.5q144 0 167 -168z" />
    <glyph glyph-name="T" unicode="T" 
d="M369 567l-110 -567h-62l111 567h-201l10 53h463l-10 -53h-201z" />
    <glyph glyph-name="U" unicode="U" 
d="M145 215q-35 -174 106 -174q122 0 153 156l82 423h61l-82 -422q-20 -104 -77 -158.5t-144 -54.5q-96 0 -139 58.5t-22 166.5l80 410h61z" />
    <glyph glyph-name="V" unicode="V" 
d="M271 0h-88q-44 334 -67 618l59 4q19 -223 59 -566h7q172 332 282 564h62q-132 -278 -314 -620z" />
    <glyph glyph-name="W" unicode="W" 
d="M332 0l-26 346l-161 -346h-70q9 209 69 620h60q-60 -396 -71 -544h4l166 362h41l27 -362h4q54 175 139 544h59q-91 -381 -171 -620h-70z" />
    <glyph glyph-name="X" unicode="X" 
d="M398 -3l-114 272l-211 -269h-67l252 314l-132 303l61 6l115 -271l211 268h68l-253 -313l132 -304z" />
    <glyph glyph-name="Y" unicode="Y" 
d="M259 0h-62l41 210l-128 409l63 2l108 -352l241 351h67l-291 -416z" />
    <glyph glyph-name="Z" unicode="Z" 
d="M434 0h-407l9 52l435 515l-328 -1l11 54h396l-9 -52l-435 -515l337 1z" />
    <glyph glyph-name="bracketleft" unicode="[" 
d="M66 -178l169 870h306l-10 -49h-248l-150 -772h248l-10 -49h-305z" />
    <glyph glyph-name="backslash" unicode="\" 
d="M164 711l280 -877l-50 -15l-279 876z" />
    <glyph glyph-name="bracketright" unicode="]" 
d="M483 693l-170 -870h-305l10 49h248l149 772h-248l10 49h306z" />
    <glyph glyph-name="asciicircum" unicode="^" 
d="M442 165l-138 245l-215 -248l-38 34l255 293l15 2l171 -295z" />
    <glyph glyph-name="underscore" unicode="_" 
d="M461 -50l-9 -48h-482l9 48h482z" />
    <glyph glyph-name="grave" unicode="`" 
d="M371 576l-17 -26q-114 73 -200 162l45 48q34 -45 83.5 -98t88.5 -86z" />
    <glyph glyph-name="a" unicode="a" 
d="M187 46q34 0 82 29.5t89 71.5q24 125 55 280q-61 16 -99 16q-81 0 -139.5 -86.5t-58.5 -200.5q0 -55 19.5 -82.5t51.5 -27.5zM511 34q-67 -40 -106 -42.5t-50.5 24.5t-4.5 81q-46 -46 -97.5 -76.5t-91.5 -30.5q-48 0 -76.5 39t-28.5 114q0 141 83.5 246t206.5 105
q57 0 134 -20l-69 -351q-9 -40 -5.5 -59.5t25.5 -19t73 21.5z" />
    <glyph glyph-name="b" unicode="b" 
d="M202 -10q-60 0 -141 23l133 685l59 5l-61 -313q46 46 97.5 76t92.5 30q49 0 79.5 -42t30.5 -121q0 -138 -83 -240.5t-207 -102.5zM234 41q83 0 141.5 84.5t58.5 195.5q0 58 -22 89t-55 31q-37 0 -86 -31t-89 -75l-54 -277q63 -17 106 -17z" />
    <glyph glyph-name="c" unicode="c" 
d="M489 339l-55 -1q-1 58 -21 81.5t-63 23.5q-87 0 -150.5 -78t-63.5 -182t78.5 -131.5t231.5 28.5l10 -33q-180 -84 -279.5 -43.5t-99.5 170.5q0 126 86.5 223.5t200.5 97.5q66 0 96 -37.5t29 -118.5z" />
    <glyph glyph-name="d" unicode="d" 
d="M191 46q35 0 81.5 27t84.5 67l56 288q-60 17 -103 17q-80 0 -137.5 -85t-57.5 -195q0 -58 21 -88.5t55 -30.5zM514 35q-66 -39 -105.5 -42.5t-52 22t-6.5 76.5q-44 -44 -94.5 -72.5t-90.5 -28.5q-48 0 -78.5 42t-30.5 120q0 138 81.5 240.5t203.5 102.5q34 0 84 -8
l41 211l61 5l-114 -577q-9 -41 -5.5 -61.5t25.5 -20t73 21.5z" />
    <glyph glyph-name="e" unicode="e" 
d="M463 54q-74 -38 -138 -53.5t-110.5 -9t-79.5 30t-49.5 61.5t-16.5 88q0 77 36.5 151.5t104 124t147.5 49.5q62 0 98 -30t36 -82q0 -84 -95 -135.5t-269 -64.5v-5q0 -105 81 -129.5t246 37.5zM344 445q-84 0 -142 -66.5t-72 -156.5q142 11 222.5 49t80.5 103
q0 32 -24 51.5t-65 19.5z" />
    <glyph glyph-name="f" unicode="f" 
d="M398 -6q0 -75 -51.5 -124t-119.5 -49q-65 0 -106.5 56t-41.5 168q0 106 34 219l-34 17l9 34h41q57 163 154 276t193 113q52 0 74.5 -33t2.5 -91t-84 -121l-25 16q43 47 57 86.5t1 60.5t-46 21q-71 0 -146.5 -95t-124.5 -233l305 -1l-8 -49l-279 4q195 -142 195 -275z
M248 -129q44 0 74.5 30.5t30.5 80.5q0 129 -189 263q-28 -103 -28 -197q0 -92 31.5 -134.5t80.5 -42.5z" />
    <glyph glyph-name="g" unicode="g" 
d="M205 77q42 0 84.5 33.5t79.5 95.5q15 105 56 209q-62 30 -109 30q-82 0 -139 -79t-57 -178q0 -54 23.5 -82.5t61.5 -28.5zM418 -91q-50 -99 -368 -79l6 59q158 -10 222 -2t83 27q13 13 13.5 40t-5 84.5t-5.5 101.5q-85 -119 -183 -119q-54 0 -86.5 40.5t-32.5 114.5
q0 127 81 223t199 96q50 0 108 -24q14 24 23 24q13 0 26.5 -7t13.5 -16q0 -22 -28.5 -102.5t-64.5 -154.5q-2 -42 -2 -57q0 -51 5.5 -109.5t5.5 -88.5t-11 -51z" />
    <glyph glyph-name="h" unicode="h" 
d="M512 33q-54 -33 -92.5 -40t-55.5 7.5t-17 46.5q0 38 34.5 164t34.5 168q0 61 -55 61q-79 0 -187 -120l-62 -320h-58l135 698l59 5l-63 -328q109 120 210 120q43 0 63 -25t20 -65q0 -54 -34.5 -182t-34.5 -153q0 -17 7 -23t27 -2t58 21z" />
    <glyph glyph-name="i" unicode="i" 
d="M356 571l-60 -4l30 132l68 3zM467 41q-116 -46 -185.5 -50.5t-92.5 29.5t-5 103l80 307l-183 -30l-4 33l205 52l54 -1l-92 -352q-9 -34 -5.5 -55.5t27 -28.5t69.5 -0.5t124 28.5z" />
    <glyph glyph-name="j" unicode="j" 
d="M413 571l-61 -4l34 133l67 3zM7 -174l4 59q135 -2 175 2t55 19q16 16 18 73.5t13.5 184t48.5 268.5l-189 -22l-6 32l214 43l53 -1q-37 -126 -54.5 -243.5t-18.5 -181.5t-8.5 -114.5t-28.5 -71.5q-26 -26 -82.5 -36t-193.5 -11z" />
    <glyph glyph-name="k" unicode="k" 
d="M418 -5l-196 205q224 108 224 194q0 22 -14 34t-38 12q-89 0 -213 -125l-61 -315h-58l135 698l60 5l-65 -333q59 61 119.5 93t109.5 32q42 0 65.5 -21.5t23.5 -57.5q0 -110 -215 -216l191 -195z" />
    <glyph glyph-name="l" unicode="l" 
d="M455 65q-92 -56 -160.5 -69t-110 19t-50.5 109q-10 -7 -27.5 -18t-20.5 -13l-18 29q21 13 64 43v3q0 98 29.5 197.5t74.5 173t100 120t105 46.5q42 0 65.5 -26t23.5 -73q0 -93 -82 -207.5t-256 -239.5q5 -103 68 -115t181 54zM422 646q-46 0 -98 -62t-90.5 -167
t-42.5 -213q147 111 214.5 208.5t67.5 170.5q0 30 -13.5 46.5t-37.5 16.5z" />
    <glyph glyph-name="m" unicode="m" 
d="M528 21q-130 -69 -130 15q0 34 35 179t35 186q0 39 -27 39q-42 0 -104 -69l-73 -371h-52l70 353q18 87 -22 87q-41 0 -102 -68q-9 -48 -72 -372h-58q65 326 90 482l55 4q-4 -34 -10 -67q67 76 122 76q59 0 56 -82q72 82 130 82q27 0 42.5 -18.5t15.5 -51.5
q0 -53 -36 -199t-36 -169q0 -16 12 -17.5t49 13.5z" />
    <glyph glyph-name="n" unicode="n" 
d="M512 33q-54 -33 -92.5 -40t-55.5 7.5t-17 46.5q0 37 34.5 163t34.5 169q0 61 -55 61q-78 0 -184 -110q-7 -36 -32.5 -164.5t-32.5 -165.5h-58q66 338 89 483l57 4q-2 -11 -7.5 -49.5t-8.5 -57.5q112 115 211 115q43 0 63 -25t20 -65q0 -54 -34.5 -182t-34.5 -153
q0 -17 7 -23t27 -2t58 21z" />
    <glyph glyph-name="o" unicode="o" 
d="M59 185q0 129 75 220t183 91q80 0 127 -51.5t47 -145.5q0 -130 -75 -220t-183 -90q-81 0 -127.5 51t-46.5 145zM431 290q0 73 -32.5 114.5t-92.5 41.5q-81 0 -134 -73.5t-53 -177.5q0 -74 32.5 -114.5t92.5 -40.5q81 0 134 72.5t53 177.5z" />
    <glyph glyph-name="p" unicode="p" 
d="M234 40q83 0 141.5 84.5t58.5 195.5q0 58 -22 89t-56 31q-36 0 -85.5 -30.5t-89.5 -73.5q-16 -90 -53 -278q60 -18 106 -18zM83 -171l-57 -5q95 494 122 659l57 4q-2 -12 -8.5 -50t-8.5 -52q46 48 99 79.5t94 31.5q49 0 80 -42t31 -120q0 -139 -83 -241.5t-206 -102.5
q-38 0 -86 9q-19 -94 -34 -170z" />
    <glyph glyph-name="q" unicode="q" 
d="M496 -135q-109 -56 -148 -41t-23 98l32 166q-46 -43 -95.5 -70.5t-90.5 -27.5q-51 0 -82.5 42t-31.5 120q0 139 83.5 241t208.5 102q61 0 142 -24l-106 -533q-10 -53 6.5 -60.5t96.5 18.5zM195 45q36 0 84.5 27t87.5 67l56 290q-58 16 -108 16q-84 0 -141.5 -84.5
t-57.5 -195.5q0 -58 22 -89t57 -31z" />
    <glyph glyph-name="r" unicode="r" 
d="M508 27q-177 -78 -198 22q-20 97 97 371q-104 -32 -179 -31q-55 -119 -152 -225l-26 23q97 118 134 207q-42 10 -42 40q0 27 27 55.5t55 28.5q31 0 31 -36q0 -18 -8 -45q102 8 210 56l28 -19q-128 -316 -117 -394q7 -50 73 -37q24 4 60 17z" />
    <glyph glyph-name="s" unicode="s" 
d="M457 121q0 -24 -9.5 -44t-32 -38.5t-61 -29t-96 -16t-136.5 0.5l2 56q112 -13 173 -3.5t81 25.5t20 44q0 34 -55.5 110t-70.5 108q-71 -67 -179 -135l-17 28q132 95 180 153q-4 15 -4 33q0 41 29 78.5t60 37.5q34 0 34 -34q0 -45 -57 -112q10 -34 46 -83.5t64.5 -96
t28.5 -82.5z" />
    <glyph glyph-name="t" unicode="t" 
d="M455 51q-73 -37 -130 -52t-91.5 -8.5t-55.5 28t-22.5 58.5t7.5 83l62 276h-93l12 47h66l70 138l46 3l-32 -141h194l-9 -47h-195l-62 -273q-13 -59 -2 -91t65.5 -30t160.5 42z" />
    <glyph glyph-name="u" unicode="u" 
d="M517 34q-106 -57 -139.5 -35.5t-14.5 113.5q-106 -123 -192 -123q-56 0 -78.5 46.5t-1.5 137.5l38 166l-39 23l70 121l60 4l-70 -308q-32 -134 48 -134q68 0 176 122l62 317h57l-71 -361q-6 -33 -6.5 -49t8 -25t28.5 -4t56 21z" />
    <glyph glyph-name="v" unicode="v" 
d="M240 55q91 152 241 429h63q-155 -282 -280 -488h-79q-55 262 -88 487l59 3q36 -234 77 -431h7z" />
    <glyph glyph-name="w" unicode="w" 
d="M335 0l-46 284l-154 -284h-59q7 224 42 484h60q-21 -154 -48 -403h3l152 284h40l44 -285h4q68 239 107 404h63q-66 -241 -153 -484h-55z" />
    <glyph glyph-name="x" unicode="x" 
d="M379 -2l-116 209l-194 -207h-65l231 243l-136 239l63 4l119 -207l193 205h66l-230 -241l134 -240z" />
    <glyph glyph-name="y" unicode="y" 
d="M413 -91q-49 -99 -355 -80l9 61q245 -22 293 24q8 8 12 21.5t4.5 36.5t0.5 44t-1.5 61.5t-1.5 69.5q-45 -53 -100.5 -88t-106.5 -35q-180 0 -9 460l58 2q-35 -98 -54.5 -171.5t-24.5 -117.5t2 -71.5t21 -37t35 -9.5q36 0 85.5 33t94.5 87q8 94 41.5 194t53.5 100
q14 0 27.5 -6t13.5 -16q0 -27 -26 -113t-59 -152q-1 -14 -1 -43q0 -33 1.5 -83t1.5 -74.5t-3.5 -52t-11.5 -44.5z" />
    <glyph glyph-name="z" unicode="z" 
d="M424 0h-391l9 51l395 382l-316 -1l14 52h380l-10 -50l-395 -383l329 2z" />
    <glyph glyph-name="braceleft" unicode="{" 
d="M371 -205q-139 61 -196.5 104.5t-57.5 89.5q0 29 19 56.5t42 45t42 39t19 39.5q0 57 -141 71l8 43q172 12 172 77q0 19 -34 72.5t-34 86.5q0 121 329 200l11 -53q-149 -30 -217 -63.5t-68 -74.5q0 -23 34.5 -77.5t34.5 -79.5q0 -33 -33 -63.5t-98 -45.5q93 -24 93 -83
q0 -24 -18.5 -48.5t-41 -41.5t-41 -41t-18.5 -47q0 -36 51 -71.5t169 -86.5z" />
    <glyph glyph-name="bar" unicode="|" 
d="M334 701l56 2l-172 -883h-55z" />
    <glyph glyph-name="braceright" unicode="}" 
d="M9 -204l-11 53q149 30 217 63.5t68 74.5q0 23 -34.5 77.5t-34.5 79.5q0 33 32.5 63.5t97.5 45.5q-92 26 -92 83q0 24 18.5 48.5t40.5 41.5t40.5 41t18.5 47q0 36 -50.5 71.5t-168.5 87.5l26 47q138 -61 195.5 -104.5t57.5 -89.5q0 -29 -19 -56.5t-41.5 -45t-41.5 -39
t-19 -39.5q0 -57 141 -71l-8 -43q-173 -10 -173 -77q0 -19 34.5 -72.5t34.5 -86.5q0 -121 -329 -200z" />
    <glyph glyph-name="asciitilde" unicode="~" 
d="M375 202q-29 0 -56 24t-44 52t-38.5 52t-40.5 24q-50 0 -113 -144l-39 17q79 181 161 181q29 0 55.5 -24t43.5 -52t38 -52t40 -24q26 0 55.5 39.5t57.5 104.5l40 -17q-79 -181 -160 -181z" />
    <glyph glyph-name="uni00A0" unicode="&#xa0;" 
 />
    <glyph glyph-name="exclamdown" unicode="&#xa1;" 
d="M303 620h90l-20 -96h-90zM279 394h40q-13 -65 -38.5 -233t-34.5 -216h-78q12 49 54.5 217t56.5 232z" />
    <glyph glyph-name="cent" unicode="&#xa2;" 
d="M143 254q0 -97 113 -137l69 300q-182 -28 -182 -163zM421 34q-75 3 -132 15l-29 -135h-55l35 149q-153 51 -153 180q0 83 60.5 146.5t186.5 83.5l32 147h55l-33 -141q63 4 113 0l-11 -58q-62 4 -116 1l-73 -318q60 -13 131 -16z" />
    <glyph glyph-name="sterling" unicode="&#xa3;" 
d="M487 129q-13 -37 -28 -62.5t-29.5 -41.5t-35 -23.5t-36.5 -9.5t-44 2.5t-48 9.5t-58 15t-64 16q-44 -47 -101 -47q-47 0 -52 29t32 52q38 22 96 20q25 62 39 174h-81l9 48h77q15 116 47 180q30 60 81 101.5t113 41.5q129 0 124 -184l-59 -2q0 72 -20 101.5t-58 29.5
q-79 0 -130 -101q-25 -49 -40 -167h200l-9 -48h-196q-16 -131 -41 -181q24 -5 59.5 -14t53 -13t42.5 -7t38.5 1.5t31 15t31 30.5t26.5 50z" />
    <glyph glyph-name="yen" unicode="&#xa5;" 
d="M455 120h-175l-23 -120h-59l24 120h-179l9 48h179l17 84l-8 21h-167l9 48h141l-107 298l62 2l110 -315l229 314h65l-223 -299h136l-9 -48h-163l-19 -25l-15 -80h177z" />
    <glyph glyph-name="section" unicode="&#xa7;" 
d="M131 252q0 -20 18.5 -39.5t42.5 -33t60 -31.5q10 -5 15 -7q158 38 158 92q0 13 -7 24.5t-24.5 24t-30.5 20.5t-41.5 23t-39.5 21q-65 -11 -108 -35t-43 -59zM408 9q0 -43 -39.5 -73.5t-126.5 -41t-225 22.5l13 59q68 -18 123.5 -26t91 -6t59 10.5t33.5 21.5t10 29
q0 24 -28 46t-68 40.5t-80 39t-68 49t-28 61.5q0 51 45 83.5t121 46.5q-72 50 -72 110t55 105t136 46q67 1 102.5 -37t44.5 -113l-54 -11q-14 110 -108 110q-49 0 -82.5 -27t-33.5 -64q0 -30 26 -56.5t63 -46.5t74 -40.5t63 -47t26 -57.5q0 -78 -168 -124q95 -53 95 -109z
" />
    <glyph glyph-name="dieresis" unicode="&#xa8;" 
d="M404 571l-60 -2l31 131l68 2zM192 568l-60 -1l32 131l67 1z" />
    <glyph glyph-name="copyright" unicode="&#xa9;" 
d="M314 613q90 0 147 -67t57 -181q0 -157 -77.5 -257.5t-190.5 -100.5q-90 0 -147.5 67t-57.5 182q0 157 78.5 257t190.5 100zM307 576q-92 0 -157.5 -89.5t-65.5 -222.5q0 -101 49 -160.5t124 -59.5q93 0 157 89.5t64 223.5q0 101 -48 160t-123 59zM317 486q75 0 69 -120
l-40 -1q2 80 -36 80q-43 0 -73 -54.5t-30 -121.5q0 -129 145 -73l-6 -41q-87 -33 -135 -4.5t-48 109.5q0 89 45.5 157.5t108.5 68.5z" />
    <glyph glyph-name="ordfeminine" unicode="&#xaa;" 
d="M230 293q29 0 66.5 21.5t69.5 52.5q15 75 42 205q-44 11 -77 11q-67 0 -114 -61.5t-47 -143.5q0 -40 17.5 -62.5t42.5 -22.5zM490 276q-79 -39 -109 -25t-22 72q-84 -77 -151 -77q-40 0 -65 31.5t-25 88.5q0 103 68 181t167 78q52 0 114 -14l-53 -260q-10 -48 1 -58.5
t68 8.5zM91 167h359l-8 -44h-359z" />
    <glyph glyph-name="guillemotleft" unicode="&#xab;" 
d="M186 -11l-133 224l15 63l216 222l39 -38l-222 -220l135 -219zM417 -11l-131 225l16 63l217 219l39 -38l-224 -217l133 -221z" />
    <glyph glyph-name="registered" unicode="&#xae;" 
d="M329 671q93 0 147.5 -56t54.5 -152q0 -115 -66 -189t-169 -74q-93 0 -147.5 55.5t-54.5 151.5q0 115 66 189.5t169 74.5zM328 637q-86 0 -142 -61.5t-56 -163.5q0 -84 46 -131.5t120 -47.5q86 0 142.5 62t56.5 164q0 84 -46 131t-121 47zM358 322l-77 104q90 30 90 64
q0 39 -81 30l-37 -196h-38l44 225q79 12 113.5 -4t34.5 -48q0 -47 -77 -79l70 -92z" />
    <glyph glyph-name="macron" unicode="&#xaf;" 
d="M439 662l-9 -51h-321l10 51h320z" />
    <glyph glyph-name="degree" unicode="&#xb0;" 
d="M341 670q67 0 109 -43t42 -114q0 -83 -56 -137t-131 -54q-66 0 -107.5 43t-41.5 114q0 83 55.5 137t129.5 54zM313 369q54 0 91.5 39t37.5 101q0 50 -29 82.5t-78 32.5q-54 0 -92 -39.5t-38 -100.5q0 -50 29.5 -82.5t78.5 -32.5z" />
    <glyph glyph-name="plusminus" unicode="&#xb1;" 
d="M446 71h-408l10 49h176l35 180h-179l10 49h179l36 187h54l-36 -187h180l-10 -49h-180l-35 -180h178z" />
    <glyph glyph-name="two.sup" unicode="&#xb2;" 
d="M424 333h-278l-1 40q146 91 206.5 142.5t60.5 101.5q0 90 -195 63l7 45q118 18 179.5 -9t61.5 -89q0 -60 -57.5 -114.5t-187.5 -135.5h214z" />
    <glyph glyph-name="three.sup" unicode="&#xb3;" 
d="M446 442q0 -55 -69.5 -89t-222.5 -20l6 46q94 -11 146.5 -2t71.5 23.5t19 35.5q0 60 -173 94l3 23l194 132h-200l8 43h254l-5 -43l-192 -132q160 -35 160 -111z" />
    <glyph glyph-name="acute" unicode="&#xb4;" 
d="M170 584q49 32 109 80.5t100 89.5l44 -50q-89 -72 -239 -147z" />
    <glyph glyph-name="mu" unicode="&#xb5;" 
d="M82 -171l-59 -5l128 659l59 5l-62 -319q-24 -124 50 -124q68 0 176 122l62 317h57l-71 -361q-6 -33 -6.5 -49t8 -25t28.5 -4t56 21l9 -32q-70 -40 -109 -42t-47.5 30.5t2.5 91.5q-103 -124 -185 -124q-42 0 -62 27z" />
    <glyph glyph-name="paragraph" unicode="&#xb6;" 
d="M397 156l80 409q-48 4 -95 1l-77 -392q40 -12 92 -18zM139 355q0 -111 123 -165l71 369q-94 -19 -144 -74t-50 -130zM250 -108l-53 -7l48 249q-79 31 -121.5 85t-42.5 126q0 131 127 212.5t333 63.5l-137 -702l-55 -7l38 192q-43 3 -93 15z" />
    <glyph glyph-name="periodcentered" unicode="&#xb7;" 
d="M314 258h-93l20 100h93z" />
    <glyph glyph-name="cedilla" unicode="&#xb8;" 
d="M137 -144l-34 11q60 144 143 144q51 0 81 -46.5t24 -136.5l-55 -1q5 70 -11 104t-46 34q-50 0 -102 -109z" />
    <glyph glyph-name="one.sup" unicode="&#xb9;" 
d="M437 333h-289l9 43h126l51 260l-126 -10l6 37l129 18l12 60l50 4l-73 -369h116z" />
    <glyph glyph-name="ordmasculine" unicode="&#xba;" 
d="M486 475q0 -93 -60.5 -161t-146.5 -68q-65 0 -102.5 41t-37.5 111q0 93 61 161t147 68q63 0 101 -41t38 -111zM190 405q0 -54 26.5 -85.5t72.5 -31.5q64 0 105 52t41 128q0 54 -26.5 85.5t-72.5 31.5q-64 0 -105 -52.5t-41 -127.5zM92 167h334l-8 -44h-334z" />
    <glyph glyph-name="guillemotright" unicode="&#xbb;" 
d="M286 -11l-39 37l222 221l-136 218l51 32l132 -223l-14 -63zM50 -10l-39 38l225 217l-133 221l50 31l131 -225l-16 -63z" />
    <glyph glyph-name="onequarter" unicode="&#xbc;" 
d="M456 425h-289l9 43h126l51 260l-126 -10l6 37l129 18l12 60l50 4l-73 -369h116zM64 284l9 41h432l-9 -41h-432zM364 -125h-50l-17 -85h-46l16 85h-206l4 34q83 136 129 280l52 -2q-50 -151 -133 -270h163l26 136l48 4l-28 -140h55z" />
    <glyph glyph-name="onehalf" unicode="&#xbd;" 
d="M456 425h-289l9 43h126l51 260l-126 -10l6 37l129 18l12 60l50 4l-73 -369h116zM64 284l9 41h432l-9 -41h-432zM329 -210h-278l-1 40q146 91 206.5 142.5t60.5 101.5q0 90 -195 63l7 45q118 18 179.5 -9t61.5 -89q0 -60 -57.5 -114.5t-187.5 -135.5h214z" />
    <glyph glyph-name="threequarters" unicode="&#xbe;" 
d="M465 534q0 -55 -69.5 -89t-222.5 -20l6 46q94 -11 146.5 -2t71.5 23.5t19 35.5q0 60 -173 94l3 23l194 132h-200l8 43h254l-5 -43l-192 -132q160 -35 160 -111zM64 284l9 41h432l-9 -41h-432zM364 -125h-50l-17 -85h-46l16 85h-206l4 34q83 136 129 280l52 -2
q-50 -151 -133 -270h163l26 136l48 4l-28 -140h55z" />
    <glyph glyph-name="questiondown" unicode="&#xbf;" 
d="M362 620h90l-21 -96h-90zM433 1l-12 -59q-183 20 -270.5 61.5t-87.5 112.5q0 63 69 127t228 145l19 -33q-139 -72 -195 -122t-56 -97q0 -56 73 -86t232 -49z" />
    <glyph glyph-name="Agrave" unicode="&#xc0;" 
d="M474 714l-17 -26q-114 73 -200 162l45 48q34 -45 83.5 -98t88.5 -86zM405 -2q-13 143 -19 204h-225q-33 -68 -97 -202h-62q142 300 309 623h87q42 -349 67 -621zM341 568q-106 -212 -158 -319h199q-16 166 -33 319h-8z" />
    <glyph glyph-name="Aacute" unicode="&#xc1;" 
d="M258 722q49 32 109 80.5t100 89.5l44 -50q-89 -72 -239 -147zM405 -2q-13 143 -19 204h-225q-33 -68 -97 -202h-62q142 300 309 623h87q42 -349 67 -621zM341 568q-106 -212 -158 -319h199q-16 166 -33 319h-8z" />
    <glyph glyph-name="Acircumflex" unicode="&#xc2;" 
d="M502 696l-104 122l-162 -118l-28 33l200 147h2l133 -151zM405 -2q-13 143 -19 204h-225q-33 -68 -97 -202h-62q142 300 309 623h87q42 -349 67 -621zM341 568q-106 -212 -158 -319h199q-16 166 -33 319h-8z" />
    <glyph glyph-name="Atilde" unicode="&#xc3;" 
d="M458 752q21 0 44.5 27.5t55.5 80.5l32 -19q-79 -136 -145 -136q-23 0 -42.5 17t-31 38t-27 38t-31.5 17q-38 0 -100 -103l-32 19q76 131 145 131q23 0 42.5 -17t31 -38t27 -38t31.5 -17zM405 -2q-13 143 -19 204h-225q-33 -68 -97 -202h-62q142 300 309 623h87
q42 -349 67 -621zM341 568q-106 -212 -158 -319h199q-16 166 -33 319h-8z" />
    <glyph glyph-name="Adieresis" unicode="&#xc4;" 
d="M499 709l-60 -2l31 131l68 2zM287 706l-60 -1l32 131l67 1zM405 -2q-13 143 -19 204h-225q-33 -68 -97 -202h-62q142 300 309 623h87q42 -349 67 -621zM341 568q-106 -212 -158 -319h199q-16 166 -33 319h-8z" />
    <glyph glyph-name="Aring" unicode="&#xc5;" 
d="M392 891q54 0 89 -28t35 -70q0 -47 -39 -79t-98 -32q-54 0 -89 28.5t-35 70.5q0 46 39 78t98 32zM387 852q-36 0 -61 -19.5t-25 -47.5q0 -27 23 -45.5t59 -18.5q37 0 62 19.5t25 47.5q0 27 -23.5 45.5t-59.5 18.5zM405 -2q-13 143 -19 204h-225q-33 -68 -97 -202h-62
q142 300 309 623h87q42 -349 67 -621zM341 568q-106 -212 -158 -319h199q-16 166 -33 319h-8z" />
    <glyph glyph-name="AE" unicode="&#xc6;" 
d="M348 568q-28 -54 -85.5 -163.5t-86.5 -164.5h117l64 328h-9zM246 0l38 193h-133q-98 -187 -101 -193h-64q255 473 336 620h275l-10 -52h-173l-45 -231h146l-8 -46h-147l-46 -239h175l-14 -52h-229z" />
    <glyph glyph-name="Ccedilla" unicode="&#xc7;" 
d="M344 -178l-55 -1q5 70 -11 104t-46 34q-50 0 -102 -109l-34 11q48 112 106 137q-64 20 -98 76.5t-34 146.5q0 162 90.5 287t217.5 125q80 0 110 -54.5t24 -169.5l-58 -1q2 90 -15 130.5t-73 40.5q-64 0 -119 -51.5t-85.5 -131t-30.5 -164.5q0 -136 84 -175t240 22l-6 -57
q-87 -32 -155 -35q57 -42 50 -165z" />
    <glyph glyph-name="Egrave" unicode="&#xc8;" 
d="M487 712l-17 -26q-114 73 -200 162l45 48q34 -45 83.5 -98t88.5 -86zM439 53l-14 -53h-360l120 620h362l-10 -53h-301l-44 -229h255l-9 -47h-255l-46 -238h302z" />
    <glyph glyph-name="Eacute" unicode="&#xc9;" 
d="M271 720q49 32 109 80.5t100 89.5l44 -50q-89 -72 -239 -147zM439 53l-14 -53h-360l120 620h362l-10 -53h-301l-44 -229h255l-9 -47h-255l-46 -238h302z" />
    <glyph glyph-name="Ecircumflex" unicode="&#xca;" 
d="M515 694l-104 122l-162 -118l-28 33l200 147h2l133 -151zM439 53l-14 -53h-360l120 620h362l-10 -53h-301l-44 -229h255l-9 -47h-255l-46 -238h302z" />
    <glyph glyph-name="Edieresis" unicode="&#xcb;" 
d="M513 707l-60 -2l31 131l68 2zM301 704l-60 -1l32 131l67 1zM439 53l-14 -53h-360l120 620h362l-10 -53h-301l-44 -229h255l-9 -47h-255l-46 -238h302z" />
    <glyph glyph-name="Igrave" unicode="&#xcc;" 
d="M464 712l-17 -26q-114 73 -200 162l45 48q34 -45 83.5 -98t88.5 -86zM264 49h155l-12 -49h-365l10 49h151l101 522h-155l10 49h366l-10 -49h-150z" />
    <glyph glyph-name="Iacute" unicode="&#xcd;" 
d="M249 720q49 32 109 80.5t100 89.5l44 -50q-89 -72 -239 -147zM264 49h155l-12 -49h-365l10 49h151l101 522h-155l10 49h366l-10 -49h-150z" />
    <glyph glyph-name="Icircumflex" unicode="&#xce;" 
d="M492 694l-104 122l-162 -118l-28 33l200 147h2l133 -151zM264 49h155l-12 -49h-365l10 49h151l101 522h-155l10 49h366l-10 -49h-150z" />
    <glyph glyph-name="Idieresis" unicode="&#xcf;" 
d="M490 707l-60 -2l31 131l68 2zM278 704l-60 -1l32 131l67 1zM264 49h155l-12 -49h-365l10 49h151l101 522h-155l10 49h366l-10 -49h-150z" />
    <glyph glyph-name="Eth" unicode="&#xd0;" 
d="M518 382q0 -70 -18 -132t-56 -113.5t-92 -86t-132 -48.5t-170 -2l57 292h-76l9 46h76l54 281q167 28 257.5 -32t90.5 -205zM310 292h-143l-47 -243q162 -14 249.5 81t87.5 245q0 225 -235 197l-46 -234h146z" />
    <glyph glyph-name="Ntilde" unicode="&#xd1;" 
d="M461 751q21 0 44.5 27.5t55.5 80.5l32 -19q-79 -136 -145 -136q-23 0 -42.5 17t-31 38t-27 38t-31.5 17q-38 0 -100 -103l-32 19q76 131 145 131q23 0 42.5 -17t31 -38t27 -38t31.5 -17zM362 0l-152 531h-5l-101 -531h-57l119 619l72 2l147 -519h5l99 518h57l-120 -620
h-64z" />
    <glyph glyph-name="Ograve" unicode="&#xd2;" 
d="M478 725l-17 -26q-114 73 -200 162l45 48q34 -45 83.5 -98t88.5 -86zM353 632q79 0 126 -59.5t47 -171.5q0 -103 -36.5 -197.5t-103.5 -155t-148 -60.5q-79 0 -125.5 59.5t-46.5 171.5q0 103 36 197.5t103 155t148 60.5zM248 41q91 0 153 109t62 247q0 89 -32 135t-88 46
q-60 0 -110.5 -52t-77.5 -133.5t-27 -169.5q0 -89 32 -135.5t88 -46.5z" />
    <glyph glyph-name="Oacute" unicode="&#xd3;" 
d="M263 733q49 32 109 80.5t100 89.5l44 -50q-89 -72 -239 -147zM353 632q79 0 126 -59.5t47 -171.5q0 -103 -36.5 -197.5t-103.5 -155t-148 -60.5q-79 0 -125.5 59.5t-46.5 171.5q0 103 36 197.5t103 155t148 60.5zM248 41q91 0 153 109t62 247q0 89 -32 135t-88 46
q-60 0 -110.5 -52t-77.5 -133.5t-27 -169.5q0 -89 32 -135.5t88 -46.5z" />
    <glyph glyph-name="Ocircumflex" unicode="&#xd4;" 
d="M506 707l-104 122l-162 -118l-28 33l200 147h2l133 -151zM353 632q79 0 126 -59.5t47 -171.5q0 -103 -36.5 -197.5t-103.5 -155t-148 -60.5q-79 0 -125.5 59.5t-46.5 171.5q0 103 36 197.5t103 155t148 60.5zM248 41q91 0 153 109t62 247q0 89 -32 135t-88 46
q-60 0 -110.5 -52t-77.5 -133.5t-27 -169.5q0 -89 32 -135.5t88 -46.5z" />
    <glyph glyph-name="Otilde" unicode="&#xd5;" 
d="M462 763q21 0 44.5 27.5t55.5 80.5l32 -19q-79 -136 -145 -136q-23 0 -42.5 17t-31 38t-27 38t-31.5 17q-38 0 -100 -103l-32 19q76 131 145 131q23 0 42.5 -17t31 -38t27 -38t31.5 -17zM353 632q79 0 126 -59.5t47 -171.5q0 -103 -36.5 -197.5t-103.5 -155t-148 -60.5
q-79 0 -125.5 59.5t-46.5 171.5q0 103 36 197.5t103 155t148 60.5zM248 41q91 0 153 109t62 247q0 89 -32 135t-88 46q-60 0 -110.5 -52t-77.5 -133.5t-27 -169.5q0 -89 32 -135.5t88 -46.5z" />
    <glyph glyph-name="Odieresis" unicode="&#xd6;" 
d="M504 720l-60 -2l31 131l68 2zM292 717l-60 -1l32 131l67 1zM353 632q79 0 126 -59.5t47 -171.5q0 -103 -36.5 -197.5t-103.5 -155t-148 -60.5q-79 0 -125.5 59.5t-46.5 171.5q0 103 36 197.5t103 155t148 60.5zM248 41q91 0 153 109t62 247q0 89 -32 135t-88 46
q-60 0 -110.5 -52t-77.5 -133.5t-27 -169.5q0 -89 32 -135.5t88 -46.5z" />
    <glyph glyph-name="multiply" unicode="&#xd7;" 
d="M403 97l-123 153l-176 -146l-34 42l176 146l-124 154l43 36l124 -154l176 146l33 -42l-176 -146l124 -154z" />
    <glyph glyph-name="Oslash" unicode="&#xd8;" 
d="M129 231q0 -52 11 -93l292 390q-31 52 -92 52q-60 0 -109 -51.5t-75.5 -131t-26.5 -166.5zM252 40q89 0 149.5 107t60.5 243q0 53 -11 94l-294 -390q31 -54 95 -54zM241 -13q-76 0 -121 53l-55 -73l-37 26l66 88q-27 59 -27 145q0 102 36 195t102 152.5t145 59.5
q76 0 121 -53l56 73l36 -26l-67 -87q28 -58 28 -146q0 -102 -35.5 -194.5t-101.5 -152.5t-146 -60z" />
    <glyph glyph-name="Ugrave" unicode="&#xd9;" 
d="M475 712l-17 -26q-114 73 -200 162l45 48q34 -45 83.5 -98t88.5 -86zM145 215q-35 -174 106 -174q122 0 153 156l82 423h61l-82 -422q-20 -104 -77 -158.5t-144 -54.5q-96 0 -139 58.5t-22 166.5l80 410h61z" />
    <glyph glyph-name="Uacute" unicode="&#xda;" 
d="M259 720q49 32 109 80.5t100 89.5l44 -50q-89 -72 -239 -147zM145 215q-35 -174 106 -174q122 0 153 156l82 423h61l-82 -422q-20 -104 -77 -158.5t-144 -54.5q-96 0 -139 58.5t-22 166.5l80 410h61z" />
    <glyph glyph-name="Ucircumflex" unicode="&#xdb;" 
d="M503 694l-104 122l-162 -118l-28 33l200 147h2l133 -151zM145 215q-35 -174 106 -174q122 0 153 156l82 423h61l-82 -422q-20 -104 -77 -158.5t-144 -54.5q-96 0 -139 58.5t-22 166.5l80 410h61z" />
    <glyph glyph-name="Udieresis" unicode="&#xdc;" 
d="M501 707l-60 -2l31 131l68 2zM289 704l-60 -1l32 131l67 1zM145 215q-35 -174 106 -174q122 0 153 156l82 423h61l-82 -422q-20 -104 -77 -158.5t-144 -54.5q-96 0 -139 58.5t-22 166.5l80 410h61z" />
    <glyph glyph-name="Yacute" unicode="&#xdd;" 
d="M254 721q49 32 109 80.5t100 89.5l44 -50q-89 -72 -239 -147zM259 0h-62l41 210l-128 409l63 2l108 -352l241 351h67l-291 -416z" />
    <glyph glyph-name="Thorn" unicode="&#xde;" 
d="M120 0h-61l121 620h61l-20 -101q151 10 224.5 -35.5t73.5 -127.5q0 -105 -99.5 -170.5t-279.5 -80.5zM458 347q0 65 -61.5 98t-185.5 20l-59 -302q147 1 226.5 50.5t79.5 133.5z" />
    <glyph glyph-name="germandbls" unicode="&#xdf;" 
d="M200 -6l8 57q221 -24 221 71q0 77 -160 203q94 87 133 141t39 102q0 36 -21.5 58t-60.5 22q-56 0 -96 -46.5t-57 -133.5l-90 -468h-59l90 464q22 110 83 172.5t145 62.5q61 0 93 -33t32 -86q0 -102 -158 -243q146 -119 146 -205q0 -68 -70 -108t-218 -30z" />
    <glyph glyph-name="agrave" unicode="&#xe0;" 
d="M463 585l-17 -26q-114 73 -200 162l45 48q34 -45 83.5 -98t88.5 -86zM187 46q34 0 82 29.5t89 71.5q24 125 55 280q-61 16 -99 16q-81 0 -139.5 -86.5t-58.5 -200.5q0 -55 19.5 -82.5t51.5 -27.5zM511 34q-67 -40 -106 -42.5t-50.5 24.5t-4.5 81q-46 -46 -97.5 -76.5
t-91.5 -30.5q-48 0 -76.5 39t-28.5 114q0 141 83.5 246t206.5 105q57 0 134 -20l-69 -351q-9 -40 -5.5 -59.5t25.5 -19t73 21.5z" />
    <glyph glyph-name="aacute" unicode="&#xe1;" 
d="M248 593q49 32 109 80.5t100 89.5l44 -50q-89 -72 -239 -147zM187 46q34 0 82 29.5t89 71.5q24 125 55 280q-61 16 -99 16q-81 0 -139.5 -86.5t-58.5 -200.5q0 -55 19.5 -82.5t51.5 -27.5zM511 34q-67 -40 -106 -42.5t-50.5 24.5t-4.5 81q-46 -46 -97.5 -76.5
t-91.5 -30.5q-48 0 -76.5 39t-28.5 114q0 141 83.5 246t206.5 105q57 0 134 -20l-69 -351q-9 -40 -5.5 -59.5t25.5 -19t73 21.5z" />
    <glyph glyph-name="acircumflex" unicode="&#xe2;" 
d="M491 567l-104 122l-162 -118l-28 33l200 147h2l133 -151zM187 46q34 0 82 29.5t89 71.5q24 125 55 280q-61 16 -99 16q-81 0 -139.5 -86.5t-58.5 -200.5q0 -55 19.5 -82.5t51.5 -27.5zM511 34q-67 -40 -106 -42.5t-50.5 24.5t-4.5 81q-46 -46 -97.5 -76.5t-91.5 -30.5
q-48 0 -76.5 39t-28.5 114q0 141 83.5 246t206.5 105q57 0 134 -20l-69 -351q-9 -40 -5.5 -59.5t25.5 -19t73 21.5z" />
    <glyph glyph-name="atilde" unicode="&#xe3;" 
d="M447 623q21 0 44.5 27.5t55.5 80.5l32 -19q-79 -136 -145 -136q-23 0 -42.5 17t-31 38t-27 38t-31.5 17q-38 0 -100 -103l-32 19q76 131 145 131q23 0 42.5 -17t31 -38t27 -38t31.5 -17zM187 46q34 0 82 29.5t89 71.5q24 125 55 280q-61 16 -99 16q-81 0 -139.5 -86.5
t-58.5 -200.5q0 -55 19.5 -82.5t51.5 -27.5zM511 34q-67 -40 -106 -42.5t-50.5 24.5t-4.5 81q-46 -46 -97.5 -76.5t-91.5 -30.5q-48 0 -76.5 39t-28.5 114q0 141 83.5 246t206.5 105q57 0 134 -20l-69 -351q-9 -40 -5.5 -59.5t25.5 -19t73 21.5z" />
    <glyph glyph-name="adieresis" unicode="&#xe4;" 
d="M489 580l-60 -2l31 131l68 2zM277 577l-60 -1l32 131l67 1zM187 46q34 0 82 29.5t89 71.5q24 125 55 280q-61 16 -99 16q-81 0 -139.5 -86.5t-58.5 -200.5q0 -55 19.5 -82.5t51.5 -27.5zM511 34q-67 -40 -106 -42.5t-50.5 24.5t-4.5 81q-46 -46 -97.5 -76.5t-91.5 -30.5
q-48 0 -76.5 39t-28.5 114q0 141 83.5 246t206.5 105q57 0 134 -20l-69 -351q-9 -40 -5.5 -59.5t25.5 -19t73 21.5z" />
    <glyph glyph-name="aring" unicode="&#xe5;" 
d="M382 762q54 0 89 -28t35 -70q0 -47 -39 -79t-98 -32q-54 0 -89 28.5t-35 70.5q0 46 39 78t98 32zM377 723q-36 0 -61 -19.5t-25 -47.5q0 -27 23 -45.5t59 -18.5q37 0 62 19.5t25 47.5q0 27 -23.5 45.5t-59.5 18.5zM187 46q34 0 82 29.5t89 71.5q24 125 55 280
q-61 16 -99 16q-81 0 -139.5 -86.5t-58.5 -200.5q0 -55 19.5 -82.5t51.5 -27.5zM511 34q-67 -40 -106 -42.5t-50.5 24.5t-4.5 81q-46 -46 -97.5 -76.5t-91.5 -30.5q-48 0 -76.5 39t-28.5 114q0 141 83.5 246t206.5 105q57 0 134 -20l-69 -351q-9 -40 -5.5 -59.5t25.5 -19
t73 21.5z" />
    <glyph glyph-name="ae" unicode="&#xe6;" 
d="M508 55q-75 -50 -130 -59t-84.5 16t-38.5 77q-73 -96 -141 -96q-73 0 -73 128q0 141 67 255.5t159 114.5q52 0 104 -38q44 41 94 41q40 0 62.5 -25t22.5 -68q0 -80 -64 -141t-177 -75q-2 -26 -2 -37q0 -83 42.5 -99t152.5 39zM450 443q-46 0 -83.5 -66.5t-52.5 -154.5
q81 12 130.5 61t49.5 107q0 53 -44 53zM138 47q41 0 113 94q2 156 81 268q-41 33 -81 33q-41 0 -76.5 -48t-54.5 -119t-19 -144q0 -84 37 -84z" />
    <glyph glyph-name="ccedilla" unicode="&#xe7;" 
d="M343 -182l-55 -1q5 70 -11 104t-46 34q-50 0 -102 -109l-34 11q47 115 110 138q-62 13 -95 60.5t-33 118.5q0 126 86.5 223.5t200.5 97.5q66 0 96 -37.5t29 -118.5l-55 -1q-1 58 -21 81.5t-63 23.5q-87 0 -150.5 -78t-63.5 -182t78.5 -131.5t231.5 28.5l10 -33
q-98 -48 -176 -56q72 -36 63 -173z" />
    <glyph glyph-name="egrave" unicode="&#xe8;" 
d="M458 588l-17 -26q-114 73 -200 162l45 48q34 -45 83.5 -98t88.5 -86zM463 54q-74 -38 -138 -53.5t-110.5 -9t-79.5 30t-49.5 61.5t-16.5 88q0 77 36.5 151.5t104 124t147.5 49.5q62 0 98 -30t36 -82q0 -84 -95 -135.5t-269 -64.5v-5q0 -105 81 -129.5t246 37.5zM344 445
q-84 0 -142 -66.5t-72 -156.5q142 11 222.5 49t80.5 103q0 32 -24 51.5t-65 19.5z" />
    <glyph glyph-name="eacute" unicode="&#xe9;" 
d="M242 596q49 32 109 80.5t100 89.5l44 -50q-89 -72 -239 -147zM463 54q-74 -38 -138 -53.5t-110.5 -9t-79.5 30t-49.5 61.5t-16.5 88q0 77 36.5 151.5t104 124t147.5 49.5q62 0 98 -30t36 -82q0 -84 -95 -135.5t-269 -64.5v-5q0 -105 81 -129.5t246 37.5zM344 445
q-84 0 -142 -66.5t-72 -156.5q142 11 222.5 49t80.5 103q0 32 -24 51.5t-65 19.5z" />
    <glyph glyph-name="ecircumflex" unicode="&#xea;" 
d="M486 570l-104 122l-162 -118l-28 33l200 147h2l133 -151zM463 54q-74 -38 -138 -53.5t-110.5 -9t-79.5 30t-49.5 61.5t-16.5 88q0 77 36.5 151.5t104 124t147.5 49.5q62 0 98 -30t36 -82q0 -84 -95 -135.5t-269 -64.5v-5q0 -105 81 -129.5t246 37.5zM344 445
q-84 0 -142 -66.5t-72 -156.5q142 11 222.5 49t80.5 103q0 32 -24 51.5t-65 19.5z" />
    <glyph glyph-name="edieresis" unicode="&#xeb;" 
d="M483 583l-60 -2l31 131l68 2zM271 580l-60 -1l32 131l67 1zM463 54q-74 -38 -138 -53.5t-110.5 -9t-79.5 30t-49.5 61.5t-16.5 88q0 77 36.5 151.5t104 124t147.5 49.5q62 0 98 -30t36 -82q0 -84 -95 -135.5t-269 -64.5v-5q0 -105 81 -129.5t246 37.5zM344 445
q-84 0 -142 -66.5t-72 -156.5q142 11 222.5 49t80.5 103q0 32 -24 51.5t-65 19.5z" />
    <glyph glyph-name="igrave" unicode="&#xec;" 
d="M429 577l-17 -26q-114 73 -200 162l45 48q34 -45 83.5 -98t88.5 -86zM467 41q-116 -46 -185.5 -50.5t-92.5 29.5t-5 103l80 307l-183 -30l-4 33l205 52l54 -1l-92 -352q-9 -34 -5.5 -55.5t27 -28.5t69.5 -0.5t124 28.5z" />
    <glyph glyph-name="iacute" unicode="&#xed;" 
d="M213 585q49 32 109 80.5t100 89.5l44 -50q-89 -72 -239 -147zM467 41q-116 -46 -185.5 -50.5t-92.5 29.5t-5 103l80 307l-183 -30l-4 33l205 52l54 -1l-92 -352q-9 -34 -5.5 -55.5t27 -28.5t69.5 -0.5t124 28.5z" />
    <glyph glyph-name="icircumflex" unicode="&#xee;" 
d="M456 559l-104 122l-162 -118l-28 33l200 147h2l133 -151zM467 41q-116 -46 -185.5 -50.5t-92.5 29.5t-5 103l80 307l-183 -30l-4 33l205 52l54 -1l-92 -352q-9 -34 -5.5 -55.5t27 -28.5t69.5 -0.5t124 28.5z" />
    <glyph glyph-name="idieresis" unicode="&#xef;" 
d="M454 572l-60 -2l31 131l68 2zM242 569l-60 -1l32 131l67 1zM467 41q-116 -46 -185.5 -50.5t-92.5 29.5t-5 103l80 307l-183 -30l-4 33l205 52l54 -1l-92 -352q-9 -34 -5.5 -55.5t27 -28.5t69.5 -0.5t124 28.5z" />
    <glyph glyph-name="eth" unicode="&#xf0;" 
d="M245 -11q-84 0 -134.5 53.5t-50.5 140.5q0 113 72.5 193.5t182.5 80.5q49 0 98 -14q-26 64 -69 115l-154 -43l-12 40l136 38q-42 43 -92 81l44 36q63 -49 109 -100l119 33l10 -40l-101 -28q94 -122 94 -266q0 -147 -70 -233.5t-182 -86.5zM258 39q81 0 130.5 72.5
t49.5 186.5q0 44 -7 79q-67 31 -133 31q-76 0 -127 -63t-51 -148q0 -71 38 -114.5t100 -43.5z" />
    <glyph glyph-name="ntilde" unicode="&#xf1;" 
d="M422 625q21 0 44.5 27.5t55.5 80.5l32 -19q-79 -136 -145 -136q-23 0 -42.5 17t-31 38t-27 38t-31.5 17q-38 0 -100 -103l-32 19q76 131 145 131q23 0 42.5 -17t31 -38t27 -38t31.5 -17zM512 33q-54 -33 -92.5 -40t-55.5 7.5t-17 46.5q0 37 34.5 163t34.5 169
q0 61 -55 61q-78 0 -184 -110q-7 -36 -32.5 -164.5t-32.5 -165.5h-58q66 338 89 483l57 4q-2 -11 -7.5 -49.5t-8.5 -57.5q112 115 211 115q43 0 63 -25t20 -65q0 -54 -34.5 -182t-34.5 -153q0 -17 7 -23t27 -2t58 21z" />
    <glyph glyph-name="ograve" unicode="&#xf2;" 
d="M444 588l-17 -26q-114 73 -200 162l45 48q34 -45 83.5 -98t88.5 -86zM59 185q0 129 75 220t183 91q80 0 127 -51.5t47 -145.5q0 -130 -75 -220t-183 -90q-81 0 -127.5 51t-46.5 145zM431 290q0 73 -32.5 114.5t-92.5 41.5q-81 0 -134 -73.5t-53 -177.5q0 -74 32.5 -114.5
t92.5 -40.5q81 0 134 72.5t53 177.5z" />
    <glyph glyph-name="oacute" unicode="&#xf3;" 
d="M228 596q49 32 109 80.5t100 89.5l44 -50q-89 -72 -239 -147zM59 185q0 129 75 220t183 91q80 0 127 -51.5t47 -145.5q0 -130 -75 -220t-183 -90q-81 0 -127.5 51t-46.5 145zM431 290q0 73 -32.5 114.5t-92.5 41.5q-81 0 -134 -73.5t-53 -177.5q0 -74 32.5 -114.5
t92.5 -40.5q81 0 134 72.5t53 177.5z" />
    <glyph glyph-name="ocircumflex" unicode="&#xf4;" 
d="M472 570l-104 122l-162 -118l-28 33l200 147h2l133 -151zM59 185q0 129 75 220t183 91q80 0 127 -51.5t47 -145.5q0 -130 -75 -220t-183 -90q-81 0 -127.5 51t-46.5 145zM431 290q0 73 -32.5 114.5t-92.5 41.5q-81 0 -134 -73.5t-53 -177.5q0 -74 32.5 -114.5t92.5 -40.5
q81 0 134 72.5t53 177.5z" />
    <glyph glyph-name="otilde" unicode="&#xf5;" 
d="M428 626q21 0 44.5 27.5t55.5 80.5l32 -19q-79 -136 -145 -136q-23 0 -42.5 17t-31 38t-27 38t-31.5 17q-38 0 -100 -103l-32 19q76 131 145 131q23 0 42.5 -17t31 -38t27 -38t31.5 -17zM59 185q0 129 75 220t183 91q80 0 127 -51.5t47 -145.5q0 -130 -75 -220t-183 -90
q-81 0 -127.5 51t-46.5 145zM431 290q0 73 -32.5 114.5t-92.5 41.5q-81 0 -134 -73.5t-53 -177.5q0 -74 32.5 -114.5t92.5 -40.5q81 0 134 72.5t53 177.5z" />
    <glyph glyph-name="odieresis" unicode="&#xf6;" 
d="M470 583l-60 -2l31 131l68 2zM258 580l-60 -1l32 131l67 1zM59 185q0 129 75 220t183 91q80 0 127 -51.5t47 -145.5q0 -130 -75 -220t-183 -90q-81 0 -127.5 51t-46.5 145zM431 290q0 73 -32.5 114.5t-92.5 41.5q-81 0 -134 -73.5t-53 -177.5q0 -74 32.5 -114.5
t92.5 -40.5q81 0 134 72.5t53 177.5z" />
    <glyph glyph-name="divide" unicode="&#xf7;" 
d="M347 429h-74l16 82h74zM504 314l-10 -50h-429l10 50h429zM279 69h-74l17 81h73z" />
    <glyph glyph-name="oslash" unicode="&#xf8;" 
d="M118 194q0 -50 15 -83l263 297q-33 38 -90 38q-82 0 -135 -74t-53 -178zM244 39q81 0 134 73t53 178q0 48 -13 80l-262 -296q32 -35 88 -35zM233 -11q-73 0 -116 40l-55 -61l-36 27l62 69q-29 47 -29 121q0 129 75 220t183 91q73 0 118 -42l54 60l36 -27l-62 -69
q28 -48 28 -119q0 -130 -75 -220t-183 -90z" />
    <glyph glyph-name="ugrave" unicode="&#xf9;" 
d="M455 579l-17 -26q-114 73 -200 162l45 48q34 -45 83.5 -98t88.5 -86zM517 34q-106 -57 -139.5 -35.5t-14.5 113.5q-106 -123 -192 -123q-56 0 -78.5 46.5t-1.5 137.5l38 166l-39 23l70 121l60 4l-70 -308q-32 -134 48 -134q68 0 176 122l62 317h57l-71 -361
q-6 -33 -6.5 -49t8 -25t28.5 -4t56 21z" />
    <glyph glyph-name="uacute" unicode="&#xfa;" 
d="M239 587q49 32 109 80.5t100 89.5l44 -50q-89 -72 -239 -147zM517 34q-106 -57 -139.5 -35.5t-14.5 113.5q-106 -123 -192 -123q-56 0 -78.5 46.5t-1.5 137.5l38 166l-39 23l70 121l60 4l-70 -308q-32 -134 48 -134q68 0 176 122l62 317h57l-71 -361q-6 -33 -6.5 -49
t8 -25t28.5 -4t56 21z" />
    <glyph glyph-name="ucircumflex" unicode="&#xfb;" 
d="M483 561l-104 122l-162 -118l-28 33l200 147h2l133 -151zM517 34q-106 -57 -139.5 -35.5t-14.5 113.5q-106 -123 -192 -123q-56 0 -78.5 46.5t-1.5 137.5l38 166l-39 23l70 121l60 4l-70 -308q-32 -134 48 -134q68 0 176 122l62 317h57l-71 -361q-6 -33 -6.5 -49t8 -25
t28.5 -4t56 21z" />
    <glyph glyph-name="udieresis" unicode="&#xfc;" 
d="M480 574l-60 -2l31 131l68 2zM268 571l-60 -1l32 131l67 1zM517 34q-106 -57 -139.5 -35.5t-14.5 113.5q-106 -123 -192 -123q-56 0 -78.5 46.5t-1.5 137.5l38 166l-39 23l70 121l60 4l-70 -308q-32 -134 48 -134q68 0 176 122l62 317h57l-71 -361q-6 -33 -6.5 -49t8 -25
t28.5 -4t56 21z" />
    <glyph glyph-name="yacute" unicode="&#xfd;" 
d="M237 593q49 32 109 80.5t100 89.5l44 -50q-89 -72 -239 -147zM413 -91q-49 -99 -355 -80l9 61q245 -22 293 24q8 8 12 21.5t4.5 36.5t0.5 44t-1.5 61.5t-1.5 69.5q-45 -53 -100.5 -88t-106.5 -35q-180 0 -9 460l58 2q-35 -98 -54.5 -171.5t-24.5 -117.5t2 -71.5t21 -37
t35 -9.5q36 0 85.5 33t94.5 87q8 94 41.5 194t53.5 100q14 0 27.5 -6t13.5 -16q0 -27 -26 -113t-59 -152q-1 -14 -1 -43q0 -33 1.5 -83t1.5 -74.5t-3.5 -52t-11.5 -44.5z" />
    <glyph glyph-name="thorn" unicode="&#xfe;" 
d="M234 40q83 0 141.5 84.5t58.5 195.5q0 58 -22 89t-56 31q-36 0 -85.5 -30t-88.5 -73l-54 -279q60 -18 106 -18zM83 -171l-57 -5l169 874l59 5l-61 -313q45 46 96.5 76t91.5 30q49 0 80 -42t31 -120q0 -139 -83 -241.5t-206 -102.5q-39 0 -87 9z" />
    <glyph glyph-name="ydieresis" unicode="&#xff;" 
d="M478 580l-60 -2l31 131l68 2zM266 577l-60 -1l32 131l67 1zM413 -91q-49 -99 -355 -80l9 61q245 -22 293 24q8 8 12 21.5t4.5 36.5t0.5 44t-1.5 61.5t-1.5 69.5q-45 -53 -100.5 -88t-106.5 -35q-180 0 -9 460l58 2q-35 -98 -54.5 -171.5t-24.5 -117.5t2 -71.5t21 -37
t35 -9.5q36 0 85.5 33t94.5 87q8 94 41.5 194t53.5 100q14 0 27.5 -6t13.5 -16q0 -27 -26 -113t-59 -152q-1 -14 -1 -43q0 -33 1.5 -83t1.5 -74.5t-3.5 -52t-11.5 -44.5z" />
    <glyph glyph-name="Amacron" unicode="&#x100;" 
d="M549 800l-9 -51h-321l10 51h320zM405 -2q-13 143 -19 204h-225q-33 -68 -97 -202h-62q142 300 309 623h87q42 -349 67 -621zM341 568q-106 -212 -158 -319h199q-16 166 -33 319h-8z" />
    <glyph glyph-name="amacron" unicode="&#x101;" 
d="M538 671l-9 -51h-321l10 51h320zM187 46q34 0 82 29.5t89 71.5q24 125 55 280q-61 16 -99 16q-81 0 -139.5 -86.5t-58.5 -200.5q0 -55 19.5 -82.5t51.5 -27.5zM511 34q-67 -40 -106 -42.5t-50.5 24.5t-4.5 81q-46 -46 -97.5 -76.5t-91.5 -30.5q-48 0 -76.5 39t-28.5 114
q0 141 83.5 246t206.5 105q57 0 134 -20l-69 -351q-9 -40 -5.5 -59.5t25.5 -19t73 21.5z" />
    <glyph glyph-name="Abreve" unicode="&#x102;" 
d="M541 868l35 -23q-106 -142 -204 -142q-97 0 -153 145l47 24q26 -65 53 -92.5t65 -27.5t74 28t83 88zM405 -2q-13 143 -19 204h-225q-33 -68 -97 -202h-62q142 300 309 623h87q42 -349 67 -621zM341 568q-106 -212 -158 -319h199q-16 166 -33 319h-8z" />
    <glyph glyph-name="abreve" unicode="&#x103;" 
d="M531 739l35 -23q-106 -142 -204 -142q-97 0 -153 145l47 24q26 -65 53 -92.5t65 -27.5t74 28t83 88zM187 46q34 0 82 29.5t89 71.5q24 125 55 280q-61 16 -99 16q-81 0 -139.5 -86.5t-58.5 -200.5q0 -55 19.5 -82.5t51.5 -27.5zM511 34q-67 -40 -106 -42.5t-50.5 24.5
t-4.5 81q-46 -46 -97.5 -76.5t-91.5 -30.5q-48 0 -76.5 39t-28.5 114q0 141 83.5 246t206.5 105q57 0 134 -20l-69 -351q-9 -40 -5.5 -59.5t25.5 -19t73 21.5z" />
    <glyph glyph-name="Aogonek" unicode="&#x104;" 
d="M436 -166q-40 -21 -75.5 -31.5t-60.5 -9.5t-43.5 9t-27 22t-8.5 32q0 79 183 157q-9 93 -18 189h-225q-33 -68 -97 -202h-62q142 300 309 623h87q42 -349 67 -621q-187 -67 -187 -130q0 -18 14.5 -27.5t49 -5.5t85.5 24zM341 568q-106 -212 -158 -319h199
q-16 166 -33 319h-8z" />
    <glyph glyph-name="aogonek" unicode="&#x105;" 
d="M478 -166q-50 -26 -92 -35t-68 -2.5t-40.5 22.5t-14.5 38q0 70 123 144q-48 10 -36 96q-46 -46 -97.5 -76.5t-91.5 -30.5q-48 0 -76.5 39t-28.5 114q0 141 83.5 246t206.5 105q57 0 134 -20l-69 -351q-9 -40 -5.5 -59.5t25.5 -19t73 21.5l7 -32q-101 -49 -146 -87.5
t-45 -73.5q0 -18 14.5 -27.5t49.5 -5.5t86 24zM187 46q34 0 82 29.5t89 71.5q24 125 55 280q-61 16 -99 16q-81 0 -139.5 -86.5t-58.5 -200.5q0 -55 19.5 -82.5t51.5 -27.5z" />
    <glyph glyph-name="Cacute" unicode="&#x106;" 
d="M262 733q49 32 109 80.5t100 89.5l44 -50q-89 -72 -239 -147zM378 633q80 0 110 -54.5t24 -169.5l-58 -1q2 90 -15 130.5t-73 40.5q-64 0 -119 -51.5t-85.5 -131t-30.5 -164.5q0 -136 84 -175t240 22l-6 -57q-177 -65 -278 -11.5t-101 210.5q0 162 90.5 287t217.5 125z
" />
    <glyph glyph-name="cacute" unicode="&#x107;" 
d="M247 595q49 32 109 80.5t100 89.5l44 -50q-89 -72 -239 -147zM489 339l-55 -1q-1 58 -21 81.5t-63 23.5q-87 0 -150.5 -78t-63.5 -182t78.5 -131.5t231.5 28.5l10 -33q-180 -84 -279.5 -43.5t-99.5 170.5q0 126 86.5 223.5t200.5 97.5q66 0 96 -37.5t29 -118.5z" />
    <glyph glyph-name="Cdotaccent" unicode="&#x10a;" 
d="M396 718l-60 -1l31 131l69 1zM378 633q80 0 110 -54.5t24 -169.5l-58 -1q2 90 -15 130.5t-73 40.5q-64 0 -119 -51.5t-85.5 -131t-30.5 -164.5q0 -136 84 -175t240 22l-6 -57q-177 -65 -278 -11.5t-101 210.5q0 162 90.5 287t217.5 125z" />
    <glyph glyph-name="cdotaccent" unicode="&#x10b;" 
d="M382 580l-60 -1l31 131l69 1zM489 339l-55 -1q-1 58 -21 81.5t-63 23.5q-87 0 -150.5 -78t-63.5 -182t78.5 -131.5t231.5 28.5l10 -33q-180 -84 -279.5 -43.5t-99.5 170.5q0 126 86.5 223.5t200.5 97.5q66 0 96 -37.5t29 -118.5z" />
    <glyph glyph-name="Ccaron" unicode="&#x10c;" 
d="M368 704h-3l-134 150l42 34l104 -122l162 118l28 -33zM378 633q80 0 110 -54.5t24 -169.5l-58 -1q2 90 -15 130.5t-73 40.5q-64 0 -119 -51.5t-85.5 -131t-30.5 -164.5q0 -136 84 -175t240 22l-6 -57q-177 -65 -278 -11.5t-101 210.5q0 162 90.5 287t217.5 125z" />
    <glyph glyph-name="ccaron" unicode="&#x10d;" 
d="M354 566h-3l-134 150l42 34l104 -122l162 118l28 -33zM489 339l-55 -1q-1 58 -21 81.5t-63 23.5q-87 0 -150.5 -78t-63.5 -182t78.5 -131.5t231.5 28.5l10 -33q-180 -84 -279.5 -43.5t-99.5 170.5q0 126 86.5 223.5t200.5 97.5q66 0 96 -37.5t29 -118.5z" />
    <glyph glyph-name="Dcaron" unicode="&#x10e;" 
d="M380 698h-3l-134 150l42 34l104 -122l162 118l28 -33zM518 382q0 -70 -18 -132t-56 -113.5t-92 -86t-132 -48.5t-170 -2l120 619q167 28 257.5 -32t90.5 -205zM457 375q0 225 -235 197l-102 -523q162 -14 249.5 81t87.5 245z" />
    <glyph glyph-name="dcaron" unicode="&#x10f;" 
d="M628 798l73 4q-3 -137 -103 -251l-26 13q42 63 51.5 115.5t4.5 118.5zM191 46q35 0 81.5 27t84.5 67l56 288q-60 17 -103 17q-80 0 -137.5 -85t-57.5 -195q0 -58 21 -88.5t55 -30.5zM514 35q-66 -39 -105.5 -42.5t-52 22t-6.5 76.5q-44 -44 -94.5 -72.5t-90.5 -28.5
q-48 0 -78.5 42t-30.5 120q0 138 81.5 240.5t203.5 102.5q34 0 84 -8l41 211l61 5l-114 -577q-9 -41 -5.5 -61.5t25.5 -20t73 21.5z" />
    <glyph glyph-name="Dcroat" unicode="&#x110;" 
d="M518 382q0 -70 -18 -132t-56 -113.5t-92 -86t-132 -48.5t-170 -2l57 292h-76l9 46h76l54 281q167 28 257.5 -32t90.5 -205zM310 292h-143l-47 -243q162 -14 249.5 81t87.5 245q0 225 -235 197l-46 -234h146z" />
    <glyph glyph-name="dcroat" unicode="&#x111;" 
d="M191 46q35 0 81.5 27t84.5 67l56 288q-60 17 -103 17q-80 0 -137.5 -85t-57.5 -195q0 -58 21 -88.5t55 -30.5zM514 35q-66 -39 -105.5 -42.5t-52 22t-6.5 76.5q-44 -44 -94.5 -72.5t-90.5 -28.5q-48 0 -78.5 42t-30.5 120q0 138 81.5 240.5t203.5 102.5q34 0 84 -8l19 97
h-140l8 41h140l14 73l61 5l-15 -78h72l-8 -41h-73l-90 -458q-9 -41 -5.5 -61.5t25.5 -20t73 21.5z" />
    <glyph glyph-name="Emacron" unicode="&#x112;" 
d="M562 798l-9 -51h-321l10 51h320zM439 53l-14 -53h-360l120 620h362l-10 -53h-301l-44 -229h255l-9 -47h-255l-46 -238h302z" />
    <glyph glyph-name="emacron" unicode="&#x113;" 
d="M533 674l-9 -51h-321l10 51h320zM463 54q-74 -38 -138 -53.5t-110.5 -9t-79.5 30t-49.5 61.5t-16.5 88q0 77 36.5 151.5t104 124t147.5 49.5q62 0 98 -30t36 -82q0 -84 -95 -135.5t-269 -64.5v-5q0 -105 81 -129.5t246 37.5zM344 445q-84 0 -142 -66.5t-72 -156.5
q142 11 222.5 49t80.5 103q0 32 -24 51.5t-65 19.5z" />
    <glyph glyph-name="Ebreve" unicode="&#x114;" 
d="M555 866l35 -23q-106 -142 -204 -142q-97 0 -153 145l47 24q26 -65 53 -92.5t65 -27.5t74 28t83 88zM439 53l-14 -53h-360l120 620h362l-10 -53h-301l-44 -229h255l-9 -47h-255l-46 -238h302z" />
    <glyph glyph-name="ebreve" unicode="&#x115;" 
d="M525 742l35 -23q-106 -142 -204 -142q-97 0 -153 145l47 24q26 -65 53 -92.5t65 -27.5t74 28t83 88zM463 54q-74 -38 -138 -53.5t-110.5 -9t-79.5 30t-49.5 61.5t-16.5 88q0 77 36.5 151.5t104 124t147.5 49.5q62 0 98 -30t36 -82q0 -84 -95 -135.5t-269 -64.5v-5
q0 -105 81 -129.5t246 37.5zM344 445q-84 0 -142 -66.5t-72 -156.5q142 11 222.5 49t80.5 103q0 32 -24 51.5t-65 19.5z" />
    <glyph glyph-name="Edotaccent" unicode="&#x116;" 
d="M406 705l-60 -1l31 131l69 1zM439 53l-14 -53h-360l120 620h362l-10 -53h-301l-44 -229h255l-9 -47h-255l-46 -238h302z" />
    <glyph glyph-name="edotaccent" unicode="&#x117;" 
d="M377 581l-60 -1l31 131l69 1zM463 54q-74 -38 -138 -53.5t-110.5 -9t-79.5 30t-49.5 61.5t-16.5 88q0 77 36.5 151.5t104 124t147.5 49.5q62 0 98 -30t36 -82q0 -84 -95 -135.5t-269 -64.5v-5q0 -105 81 -129.5t246 37.5zM344 445q-84 0 -142 -66.5t-72 -156.5
q142 11 222.5 49t80.5 103q0 32 -24 51.5t-65 19.5z" />
    <glyph glyph-name="Eogonek" unicode="&#x118;" 
d="M396 -167q-41 -21 -76.5 -31.5t-60.5 -9.5t-43 9t-26.5 22t-8.5 32q0 74 160 145h-276l120 620h362l-10 -53h-301l-44 -229h255l-9 -47h-255l-46 -238h302l-14 -53q-188 -68 -188 -128q0 -18 14.5 -27.5t49.5 -6t86 23.5z" />
    <glyph glyph-name="eogonek" unicode="&#x119;" 
d="M389 -166q-40 -21 -75.5 -31.5t-60.5 -9.5t-43.5 9t-27 22t-8.5 32q0 68 109 137q-102 -14 -158 35.5t-56 142.5q0 77 36.5 151.5t104 124t147.5 49.5q62 0 98 -30t36 -82q0 -84 -95 -135.5t-269 -64.5v-5q0 -105 81 -129.5t246 37.5l9 -33q-232 -100 -232 -182
q0 -18 14.5 -27.5t49.5 -5.5t86 24zM344 445q-84 0 -142 -66.5t-72 -156.5q142 11 222.5 49t80.5 103q0 32 -24 51.5t-65 19.5z" />
    <glyph glyph-name="Ecaron" unicode="&#x11a;" 
d="M378 691h-3l-134 150l42 34l104 -122l162 118l28 -33zM439 53l-14 -53h-360l120 620h362l-10 -53h-301l-44 -229h255l-9 -47h-255l-46 -238h302z" />
    <glyph glyph-name="ecaron" unicode="&#x11b;" 
d="M349 567h-3l-134 150l42 34l104 -122l162 118l28 -33zM463 54q-74 -38 -138 -53.5t-110.5 -9t-79.5 30t-49.5 61.5t-16.5 88q0 77 36.5 151.5t104 124t147.5 49.5q62 0 98 -30t36 -82q0 -84 -95 -135.5t-269 -64.5v-5q0 -105 81 -129.5t246 37.5zM344 445
q-84 0 -142 -66.5t-72 -156.5q142 11 222.5 49t80.5 103q0 32 -24 51.5t-65 19.5z" />
    <glyph glyph-name="Gbreve" unicode="&#x11e;" 
d="M537 879l35 -23q-106 -142 -204 -142q-97 0 -153 145l47 24q26 -65 53 -92.5t65 -27.5t74 28t83 88zM398 -109l-56 -2l26 118q-139 -43 -219 13.5t-80 198.5q0 163 89 288.5t209 125.5q78 0 109 -54t26 -170l-57 -1q2 90 -15.5 130.5t-71.5 40.5q-62 0 -115.5 -52
t-83 -132t-29.5 -165q0 -124 65 -167t186 -1l39 176l59 3z" />
    <glyph glyph-name="gbreve" unicode="&#x11f;" 
d="M518 741l35 -23q-106 -142 -204 -142q-97 0 -153 145l47 24q26 -65 53 -92.5t65 -27.5t74 28t83 88zM205 77q42 0 84.5 33.5t79.5 95.5q15 105 56 209q-62 30 -109 30q-82 0 -139 -79t-57 -178q0 -54 23.5 -82.5t61.5 -28.5zM418 -91q-50 -99 -368 -79l6 59
q158 -10 222 -2t83 27q13 13 13.5 40t-5 84.5t-5.5 101.5q-85 -119 -183 -119q-54 0 -86.5 40.5t-32.5 114.5q0 127 81 223t199 96q50 0 108 -24q14 24 23 24q13 0 26.5 -7t13.5 -16q0 -22 -28.5 -102.5t-64.5 -154.5q-2 -42 -2 -57q0 -51 5.5 -109.5t5.5 -88.5t-11 -51z
" />
    <glyph glyph-name="Gdotaccent" unicode="&#x120;" 
d="M389 718l-60 -1l31 131l69 1zM398 -109l-56 -2l26 118q-139 -43 -219 13.5t-80 198.5q0 163 89 288.5t209 125.5q78 0 109 -54t26 -170l-57 -1q2 90 -15.5 130.5t-71.5 40.5q-62 0 -115.5 -52t-83 -132t-29.5 -165q0 -124 65 -167t186 -1l39 176l59 3z" />
    <glyph glyph-name="gdotaccent" unicode="&#x121;" 
d="M370 580l-60 -1l31 131l69 1zM205 77q42 0 84.5 33.5t79.5 95.5q15 105 56 209q-62 30 -109 30q-82 0 -139 -79t-57 -178q0 -54 23.5 -82.5t61.5 -28.5zM418 -91q-50 -99 -368 -79l6 59q158 -10 222 -2t83 27q13 13 13.5 40t-5 84.5t-5.5 101.5q-85 -119 -183 -119
q-54 0 -86.5 40.5t-32.5 114.5q0 127 81 223t199 96q50 0 108 -24q14 24 23 24q13 0 26.5 -7t13.5 -16q0 -22 -28.5 -102.5t-64.5 -154.5q-2 -42 -2 -57q0 -51 5.5 -109.5t5.5 -88.5t-11 -51z" />
    <glyph glyph-name="Gcommaaccent" unicode="&#x122;" 
d="M398 -109l-56 -2l26 118q-139 -43 -219 13.5t-80 198.5q0 163 89 288.5t209 125.5q78 0 109 -54t26 -170l-57 -1q2 90 -15.5 130.5t-71.5 40.5q-62 0 -115.5 -52t-83 -132t-29.5 -165q0 -124 65 -167t186 -1l39 176l59 3zM112 -363q62 87 41 187l79 3q2 -106 -96 -202z
" />
    <glyph glyph-name="gcommaaccent" unicode="&#x123;" 
d="M420 758q-62 -87 -41 -187l-80 -3q0 108 97 202zM205 77q42 0 84.5 33.5t79.5 95.5q15 105 56 209q-62 30 -109 30q-82 0 -139 -79t-57 -178q0 -54 23.5 -82.5t61.5 -28.5zM418 -91q-50 -99 -368 -79l6 59q158 -10 222 -2t83 27q13 13 13.5 40t-5 84.5t-5.5 101.5
q-85 -119 -183 -119q-54 0 -86.5 40.5t-32.5 114.5q0 127 81 223t199 96q50 0 108 -24q14 24 23 24q13 0 26.5 -7t13.5 -16q0 -22 -28.5 -102.5t-64.5 -154.5q-2 -42 -2 -57q0 -51 5.5 -109.5t5.5 -88.5t-11 -51z" />
    <glyph glyph-name="Hbar" unicode="&#x126;" 
d="M426 327l24 124h-255l-24 -124h255zM363 0l54 279h-255l-54 -279h-62l87 449h-76l9 45h76l24 126h62l-25 -127h255l25 127h62l-24 -126h74l-9 -45h-74l-87 -449h-62z" />
    <glyph glyph-name="hbar" unicode="&#x127;" 
d="M512 33q-54 -33 -92.5 -40t-55.5 7.5t-17 46.5q0 38 34.5 163.5t34.5 168.5q0 60 -55 60q-80 0 -187 -120l-62 -319h-58l113 584h-75l8 41h75l14 73l59 5l-15 -78h140l-8 -41h-140l-41 -210q111 120 211 120q83 0 83 -90q0 -54 -34.5 -181.5t-34.5 -152.5q0 -17 7 -23
t27 -2t58 21z" />
    <glyph glyph-name="Imacron" unicode="&#x12a;" 
d="M539 798l-9 -51h-321l10 51h320zM264 49h155l-12 -49h-365l10 49h151l101 522h-155l10 49h366l-10 -49h-150z" />
    <glyph glyph-name="imacron" unicode="&#x12b;" 
d="M503 663l-9 -51h-321l10 51h320zM467 41q-116 -46 -185.5 -50.5t-92.5 29.5t-5 103l80 307l-183 -30l-4 33l205 52l54 -1l-92 -352q-9 -34 -5.5 -55.5t27 -28.5t69.5 -0.5t124 28.5z" />
    <glyph glyph-name="Ibreve" unicode="&#x12c;" 
d="M532 866l35 -23q-106 -142 -204 -142q-97 0 -153 145l47 24q26 -65 53 -92.5t65 -27.5t74 28t83 88zM264 49h155l-12 -49h-365l10 49h151l101 522h-155l10 49h366l-10 -49h-150z" />
    <glyph glyph-name="ibreve" unicode="&#x12d;" 
d="M496 731l35 -23q-106 -142 -204 -142q-97 0 -153 145l47 24q26 -65 53 -92.5t65 -27.5t74 28t83 88zM467 41q-116 -46 -185.5 -50.5t-92.5 29.5t-5 103l80 307l-183 -30l-4 33l205 52l54 -1l-92 -352q-9 -34 -5.5 -55.5t27 -28.5t69.5 -0.5t124 28.5z" />
    <glyph glyph-name="Iogonek" unicode="&#x12e;" 
d="M304 -166q-40 -21 -75.5 -31.5t-60.5 -9.5t-43.5 9t-27 22t-8.5 32q0 73 107 144h-154l10 49h151l101 522h-155l10 49h366l-10 -49h-150l-101 -522h155l-12 -49h-146q-115 -66 -115 -128q0 -18 14.5 -27.5t49.5 -5.5t86 24z" />
    <glyph glyph-name="iogonek" unicode="&#x12f;" 
d="M356 571l-60 -4l30 132l68 3zM372 -166q-40 -21 -75.5 -31.5t-60.5 -9.5t-43.5 9t-27 22t-8.5 32q0 72 119 134q-67 -3 -88.5 30.5t-3.5 102.5l80 307l-183 -30l-4 33l205 52l54 -1l-92 -352q-9 -34 -5.5 -55.5t27 -28.5t69.5 -0.5t124 28.5l8 -35q-145 -54 -199 -94
t-54 -75q0 -18 14.5 -27.5t49.5 -5.5t86 24z" />
    <glyph glyph-name="Idotaccent" unicode="&#x130;" 
d="M384 705l-60 -1l31 131l69 1zM264 49h155l-12 -49h-365l10 49h151l101 522h-155l10 49h366l-10 -49h-150z" />
    <glyph glyph-name="dotlessi" unicode="&#x131;" 
d="M467 41q-116 -46 -185.5 -50.5t-92.5 29.5t-5 103l80 307l-183 -30l-4 33l205 52l54 -1l-92 -352q-9 -34 -5.5 -55.5t27 -28.5t69.5 -0.5t124 28.5z" />
    <glyph glyph-name="Kcommaaccent" unicode="&#x136;" 
d="M408 -5l-201 317l302 308h69l-301 -308l197 -308zM179 620h61l-121 -620h-61zM171 -264q62 87 41 187l79 3q2 -106 -96 -202z" />
    <glyph glyph-name="kcommaaccent" unicode="&#x137;" 
d="M418 -5l-196 205q224 108 224 194q0 22 -14 34t-38 12q-89 0 -213 -125l-61 -315h-58l135 698l60 5l-65 -333q59 61 119.5 93t109.5 32q42 0 65.5 -21.5t23.5 -57.5q0 -110 -215 -216l191 -195zM162 -264q62 87 41 187l79 3q2 -106 -96 -202z" />
    <glyph glyph-name="Lacute" unicode="&#x139;" 
d="M281 720q49 32 109 80.5t100 89.5l44 -50q-89 -72 -239 -147zM444 0h-377l120 620h62l-110 -567h317z" />
    <glyph glyph-name="lacute" unicode="&#x13a;" 
d="M385 803q49 32 109 80.5t100 89.5l44 -50q-89 -72 -239 -147zM455 65q-92 -56 -160.5 -69t-110 19t-50.5 109q-10 -7 -27.5 -18t-20.5 -13l-18 29q21 13 64 43v3q0 98 29.5 197.5t74.5 173t100 120t105 46.5q42 0 65.5 -26t23.5 -73q0 -93 -82 -207.5t-256 -239.5
q5 -103 68 -115t181 54zM422 646q-46 0 -98 -62t-90.5 -167t-42.5 -213q147 111 214.5 208.5t67.5 170.5q0 30 -13.5 46.5t-37.5 16.5z" />
    <glyph glyph-name="Lcommaaccent" unicode="&#x13b;" 
d="M444 0h-377l120 620h62l-110 -567h317zM162 -259q62 87 41 187l79 3q2 -106 -96 -202z" />
    <glyph glyph-name="lcommaaccent" unicode="&#x13c;" 
d="M455 65q-92 -56 -160.5 -69t-110 19t-50.5 109q-10 -7 -27.5 -18t-20.5 -13l-18 29q21 13 64 43v3q0 98 29.5 197.5t74.5 173t100 120t105 46.5q42 0 65.5 -26t23.5 -73q0 -93 -82 -207.5t-256 -239.5q5 -103 68 -115t181 54zM422 646q-46 0 -98 -62t-90.5 -167
t-42.5 -213q147 111 214.5 208.5t67.5 170.5q0 30 -13.5 46.5t-37.5 16.5zM187 -267q62 87 41 187l79 3q2 -106 -96 -202z" />
    <glyph glyph-name="Lcaron" unicode="&#x13d;" 
d="M481 696l73 4q-3 -137 -103 -251l-26 13q42 63 51.5 115.5t4.5 118.5zM444 0h-377l120 620h62l-110 -567h317z" />
    <glyph glyph-name="lcaron" unicode="&#x13e;" 
d="M630 798l73 4q-3 -137 -103 -251l-26 13q42 63 51.5 115.5t4.5 118.5zM455 65q-92 -56 -160.5 -69t-110 19t-50.5 109q-10 -7 -27.5 -18t-20.5 -13l-18 29q21 13 64 43v3q0 98 29.5 197.5t74.5 173t100 120t105 46.5q42 0 65.5 -26t23.5 -73q0 -93 -82 -207.5
t-256 -239.5q5 -103 68 -115t181 54zM422 646q-46 0 -98 -62t-90.5 -167t-42.5 -213q147 111 214.5 208.5t67.5 170.5q0 30 -13.5 46.5t-37.5 16.5z" />
    <glyph glyph-name="Ldot" unicode="&#x13f;" 
d="M444 0h-377l120 620h62l-110 -567h317zM463 269h-80l23 96h79z" />
    <glyph glyph-name="ldot" unicode="&#x140;" 
d="M455 65q-92 -56 -160.5 -69t-110 19t-50.5 109q-10 -7 -27.5 -18t-20.5 -13l-18 29q21 13 64 43v3q0 98 29.5 197.5t74.5 173t100 120t105 46.5q42 0 65.5 -26t23.5 -73q0 -93 -82 -207.5t-256 -239.5q5 -103 68 -115t181 54zM422 646q-46 0 -98 -62t-90.5 -167
t-42.5 -213q147 111 214.5 208.5t67.5 170.5q0 30 -13.5 46.5t-37.5 16.5zM582 268h-78l22 95h77z" />
    <glyph glyph-name="Lslash" unicode="&#x141;" 
d="M456 0h-377l59 306l-82 -39l-2 44l94 44l51 265h62l-45 -232l168 79l3 -43l-181 -86l-55 -285h317z" />
    <glyph glyph-name="lslash" unicode="&#x142;" 
d="M156 721q0 50 69.5 81.5t183 32.5t256.5 -37l-20 -48q-121 35 -228 39.5t-163 -13.5t-56 -45q0 -21 54 -61l-32 -39q-64 44 -64 90zM455 65q-92 -56 -160.5 -69t-110 19t-50.5 109q-10 -7 -27.5 -18t-20.5 -13l-18 29q21 13 64 43v3q0 98 29.5 197.5t74.5 173t100 120
t105 46.5q42 0 65.5 -26t23.5 -73q0 -93 -82 -207.5t-256 -239.5q5 -103 68 -115t181 54zM422 646q-46 0 -98 -62t-90.5 -167t-42.5 -213q147 111 214.5 208.5t67.5 170.5q0 30 -13.5 46.5t-37.5 16.5z" />
    <glyph glyph-name="Nacute" unicode="&#x143;" 
d="M261 721q49 32 109 80.5t100 89.5l44 -50q-89 -72 -239 -147zM362 0l-152 531h-5l-101 -531h-57l119 619l72 2l147 -519h5l99 518h57l-120 -620h-64z" />
    <glyph glyph-name="nacute" unicode="&#x144;" 
d="M223 595q49 32 109 80.5t100 89.5l44 -50q-89 -72 -239 -147zM512 33q-54 -33 -92.5 -40t-55.5 7.5t-17 46.5q0 37 34.5 163t34.5 169q0 61 -55 61q-78 0 -184 -110q-7 -36 -32.5 -164.5t-32.5 -165.5h-58q66 338 89 483l57 4q-2 -11 -7.5 -49.5t-8.5 -57.5
q112 115 211 115q43 0 63 -25t20 -65q0 -54 -34.5 -182t-34.5 -153q0 -17 7 -23t27 -2t58 21z" />
    <glyph glyph-name="Ncommaaccent" unicode="&#x145;" 
d="M362 0l-152 531h-5l-101 -531h-57l119 619l72 2l147 -519h5l99 518h57l-120 -620h-64zM142 -259q62 87 41 187l79 3q2 -106 -96 -202z" />
    <glyph glyph-name="ncommaaccent" unicode="&#x146;" 
d="M512 33q-54 -33 -92.5 -40t-55.5 7.5t-17 46.5q0 37 34.5 163t34.5 169q0 61 -55 61q-78 0 -184 -110q-7 -36 -32.5 -164.5t-32.5 -165.5h-58q66 338 89 483l57 4q-2 -11 -7.5 -49.5t-8.5 -57.5q112 115 211 115q43 0 63 -25t20 -65q0 -54 -34.5 -182t-34.5 -153
q0 -17 7 -23t27 -2t58 21zM138 -269q62 87 41 187l79 3q2 -106 -96 -202z" />
    <glyph glyph-name="Ncaron" unicode="&#x147;" 
d="M368 692h-3l-134 150l42 34l104 -122l162 118l28 -33zM362 0l-152 531h-5l-101 -531h-57l119 619l72 2l147 -519h5l99 518h57l-120 -620h-64z" />
    <glyph glyph-name="ncaron" unicode="&#x148;" 
d="M330 566h-3l-134 150l42 34l104 -122l162 118l28 -33zM512 33q-54 -33 -92.5 -40t-55.5 7.5t-17 46.5q0 37 34.5 163t34.5 169q0 61 -55 61q-78 0 -184 -110q-7 -36 -32.5 -164.5t-32.5 -165.5h-58q66 338 89 483l57 4q-2 -11 -7.5 -49.5t-8.5 -57.5q112 115 211 115
q43 0 63 -25t20 -65q0 -54 -34.5 -182t-34.5 -153q0 -17 7 -23t27 -2t58 21z" />
    <glyph glyph-name="Omacron" unicode="&#x14c;" 
d="M553 811l-9 -51h-321l10 51h320zM353 632q79 0 126 -59.5t47 -171.5q0 -103 -36.5 -197.5t-103.5 -155t-148 -60.5q-79 0 -125.5 59.5t-46.5 171.5q0 103 36 197.5t103 155t148 60.5zM248 41q91 0 153 109t62 247q0 89 -32 135t-88 46q-60 0 -110.5 -52t-77.5 -133.5
t-27 -169.5q0 -89 32 -135.5t88 -46.5z" />
    <glyph glyph-name="omacron" unicode="&#x14d;" 
d="M519 674l-9 -51h-321l10 51h320zM59 185q0 129 75 220t183 91q80 0 127 -51.5t47 -145.5q0 -130 -75 -220t-183 -90q-81 0 -127.5 51t-46.5 145zM431 290q0 73 -32.5 114.5t-92.5 41.5q-81 0 -134 -73.5t-53 -177.5q0 -74 32.5 -114.5t92.5 -40.5q81 0 134 72.5t53 177.5
z" />
    <glyph glyph-name="Obreve" unicode="&#x14e;" 
d="M546 879l35 -23q-106 -142 -204 -142q-97 0 -153 145l47 24q26 -65 53 -92.5t65 -27.5t74 28t83 88zM353 632q79 0 126 -59.5t47 -171.5q0 -103 -36.5 -197.5t-103.5 -155t-148 -60.5q-79 0 -125.5 59.5t-46.5 171.5q0 103 36 197.5t103 155t148 60.5zM248 41
q91 0 153 109t62 247q0 89 -32 135t-88 46q-60 0 -110.5 -52t-77.5 -133.5t-27 -169.5q0 -89 32 -135.5t88 -46.5z" />
    <glyph glyph-name="obreve" unicode="&#x14f;" 
d="M512 742l35 -23q-106 -142 -204 -142q-97 0 -153 145l47 24q26 -65 53 -92.5t65 -27.5t74 28t83 88zM59 185q0 129 75 220t183 91q80 0 127 -51.5t47 -145.5q0 -130 -75 -220t-183 -90q-81 0 -127.5 51t-46.5 145zM431 290q0 73 -32.5 114.5t-92.5 41.5q-81 0 -134 -73.5
t-53 -177.5q0 -74 32.5 -114.5t92.5 -40.5q81 0 134 72.5t53 177.5z" />
    <glyph glyph-name="Ohungarumlaut" unicode="&#x150;" 
d="M253 706l-26 21q73 82 139 192l60 -33q-72 -91 -173 -180zM461 706l-27 21q76 84 137 189l62 -30q-74 -96 -172 -180zM353 632q79 0 126 -59.5t47 -171.5q0 -103 -36.5 -197.5t-103.5 -155t-148 -60.5q-79 0 -125.5 59.5t-46.5 171.5q0 103 36 197.5t103 155t148 60.5z
M248 41q91 0 153 109t62 247q0 89 -32 135t-88 46q-60 0 -110.5 -52t-77.5 -133.5t-27 -169.5q0 -89 32 -135.5t88 -46.5z" />
    <glyph glyph-name="ohungarumlaut" unicode="&#x151;" 
d="M219 569l-26 21q73 82 139 192l60 -33q-72 -91 -173 -180zM427 569l-27 21q76 84 137 189l62 -30q-74 -96 -172 -180zM59 185q0 129 75 220t183 91q80 0 127 -51.5t47 -145.5q0 -130 -75 -220t-183 -90q-81 0 -127.5 51t-46.5 145zM431 290q0 73 -32.5 114.5t-92.5 41.5
q-81 0 -134 -73.5t-53 -177.5q0 -74 32.5 -114.5t92.5 -40.5q81 0 134 72.5t53 177.5z" />
    <glyph glyph-name="OE" unicode="&#x152;" 
d="M120 207q0 -83 34.5 -118t100.5 -37l100 516q-54 -1 -97.5 -30t-68 -70t-41 -92.5t-22.5 -93t-6 -75.5zM486 52l-15 -52h-204q-99 0 -153 45.5t-54 158.5q0 45 8 95t31.5 108.5t59 104.5t96.5 77t139 31h199l-10 -52h-170l-45 -231h144l-9 -46h-144l-46 -239h173z" />
    <glyph glyph-name="oe" unicode="&#x153;" 
d="M515 57q-71 -53 -123 -62.5t-79 17t-35 82.5q-59 -102 -135 -102q-48 0 -74.5 39.5t-26.5 118.5q0 129 60.5 236.5t142.5 107.5q38 0 61.5 -29t30.5 -81q60 110 139 110q37 0 58.5 -26.5t21.5 -72.5q0 -82 -61.5 -139t-169.5 -71q-1 -11 -1 -33q0 -168 179 -66zM288 338
q0 106 -55 106q-50 0 -91.5 -98t-41.5 -195q0 -53 16 -81.5t43 -28.5q51 0 90 97.5t39 199.5zM458 441q-43 0 -79 -66t-49 -152q77 13 123 57.5t46 104.5q0 56 -41 56z" />
    <glyph glyph-name="Racute" unicode="&#x154;" 
d="M247 726q49 32 109 80.5t100 89.5l44 -50q-89 -72 -239 -147zM420 -5l-182 282l1 2q116 52 166 95.5t50 98.5q0 57 -58 83t-171 14l-110 -570h-61l120 619q175 22 258.5 -16.5t83.5 -117.5q0 -67 -50.5 -118.5t-152.5 -98.5l173 -263z" />
    <glyph glyph-name="racute" unicode="&#x155;" 
d="M266 604q49 32 109 80.5t100 89.5l44 -50q-89 -72 -239 -147zM508 27q-177 -78 -198 22q-20 97 97 371q-104 -32 -179 -31q-55 -119 -152 -225l-26 23q97 118 134 207q-42 10 -42 40q0 27 27 55.5t55 28.5q31 0 31 -36q0 -18 -8 -45q102 8 210 56l28 -19
q-128 -316 -117 -394q7 -50 73 -37q24 4 60 17z" />
    <glyph glyph-name="Rcommaaccent" unicode="&#x156;" 
d="M420 -5l-182 282l1 2q116 52 166 95.5t50 98.5q0 57 -58 83t-171 14l-110 -570h-61l120 619q175 22 258.5 -16.5t83.5 -117.5q0 -67 -50.5 -118.5t-152.5 -98.5l173 -263zM154 -264q62 87 41 187l79 3q2 -106 -96 -202z" />
    <glyph glyph-name="rcommaaccent" unicode="&#x157;" 
d="M508 27q-177 -78 -198 22q-20 97 97 371q-104 -32 -179 -31q-55 -119 -152 -225l-26 23q97 118 134 207q-42 10 -42 40q0 27 27 55.5t55 28.5q31 0 31 -36q0 -18 -8 -45q102 8 210 56l28 -19q-128 -316 -117 -394q7 -50 73 -37q24 4 60 17zM121 -244q62 87 41 187l79 3
q2 -106 -96 -202z" />
    <glyph glyph-name="Rcaron" unicode="&#x158;" 
d="M353 697h-3l-134 150l42 34l104 -122l162 118l28 -33zM420 -5l-182 282l1 2q116 52 166 95.5t50 98.5q0 57 -58 83t-171 14l-110 -570h-61l120 619q175 22 258.5 -16.5t83.5 -117.5q0 -67 -50.5 -118.5t-152.5 -98.5l173 -263z" />
    <glyph glyph-name="rcaron" unicode="&#x159;" 
d="M367 575h-3l-134 150l42 34l104 -122l162 118l28 -33zM508 27q-177 -78 -198 22q-20 97 97 371q-104 -32 -179 -31q-55 -119 -152 -225l-26 23q97 118 134 207q-42 10 -42 40q0 27 27 55.5t55 28.5q31 0 31 -36q0 -18 -8 -45q102 8 210 56l28 -19q-128 -316 -117 -394
q7 -50 73 -37q24 4 60 17z" />
    <glyph glyph-name="Sacute" unicode="&#x15a;" 
d="M257 731q49 32 109 80.5t100 89.5l44 -50q-89 -72 -239 -147zM506 463l-56 -10q-10 65 -41 95.5t-86 30.5q-56 0 -93 -35t-37 -83q0 -34 27 -66.5t65.5 -60t77 -56t65.5 -64t27 -73.5q0 -39 -23.5 -71t-74.5 -54t-132 -22.5t-196 22.5l13 61q130 -34 208 -30t110.5 26.5
t32.5 59.5q0 30 -27 61t-65.5 58.5t-77 56.5t-65.5 66.5t-27 77.5q0 71 60 124.5t148 53.5q144 0 167 -168z" />
    <glyph glyph-name="sacute" unicode="&#x15b;" 
d="M240 628q49 32 109 80.5t100 89.5l44 -50q-89 -72 -239 -147zM457 121q0 -24 -9.5 -44t-32 -38.5t-61 -29t-96 -16t-136.5 0.5l2 56q112 -13 173 -3.5t81 25.5t20 44q0 34 -55.5 110t-70.5 108q-71 -67 -179 -135l-17 28q132 95 180 153q-4 15 -4 33q0 41 29 78.5
t60 37.5q34 0 34 -34q0 -45 -57 -112q10 -34 46 -83.5t64.5 -96t28.5 -82.5z" />
    <glyph glyph-name="Scedilla" unicode="&#x15e;" 
d="M262 -181q5 70 -11 104t-46 34q-50 0 -102 -109l-34 11q46 109 104 136q-63 3 -144 21l13 61q130 -34 208 -30t110.5 26.5t32.5 59.5q0 30 -27 61t-65.5 58.5t-77 56.5t-65.5 66.5t-27 77.5q0 71 60 124.5t148 53.5q144 0 167 -168l-56 -10q-10 65 -41 95.5t-86 30.5
q-56 0 -93 -35t-37 -83q0 -34 27 -66.5t65.5 -60t77 -56t65.5 -64t27 -73.5q0 -58 -50.5 -99t-152.5 -48q74 -34 65 -174z" />
    <glyph glyph-name="scedilla" unicode="&#x15f;" 
d="M283 -182q5 70 -11 104t-46 34q-50 0 -102 -109l-34 11q44 105 99 133q-31 0 -67 3l2 56q112 -13 173 -3.5t81 25.5t20 44q0 34 -55.5 110t-70.5 108q-71 -67 -179 -135l-17 28q132 95 180 153q-4 15 -4 33q0 41 29 78.5t60 37.5q34 0 34 -34q0 -45 -57 -112
q10 -34 46 -83.5t64.5 -96t28.5 -82.5q0 -110 -186 -127q76 -33 67 -175z" />
    <glyph glyph-name="Scaron" unicode="&#x160;" 
d="M364 702h-3l-134 150l42 34l104 -122l162 118l28 -33zM506 463l-56 -10q-10 65 -41 95.5t-86 30.5q-56 0 -93 -35t-37 -83q0 -34 27 -66.5t65.5 -60t77 -56t65.5 -64t27 -73.5q0 -39 -23.5 -71t-74.5 -54t-132 -22.5t-196 22.5l13 61q130 -34 208 -30t110.5 26.5
t32.5 59.5q0 30 -27 61t-65.5 58.5t-77 56.5t-65.5 66.5t-27 77.5q0 71 60 124.5t148 53.5q144 0 167 -168z" />
    <glyph glyph-name="scaron" unicode="&#x161;" 
d="M347 599h-3l-134 150l42 34l104 -122l162 118l28 -33zM457 121q0 -24 -9.5 -44t-32 -38.5t-61 -29t-96 -16t-136.5 0.5l2 56q112 -13 173 -3.5t81 25.5t20 44q0 34 -55.5 110t-70.5 108q-71 -67 -179 -135l-17 28q132 95 180 153q-4 15 -4 33q0 41 29 78.5t60 37.5
q34 0 34 -34q0 -45 -57 -112q10 -34 46 -83.5t64.5 -96t28.5 -82.5z" />
    <glyph glyph-name="Tcommaaccent" unicode="&#x162;" 
d="M369 567l-110 -567h-62l111 567h-201l10 53h463l-10 -53h-201zM133 -259q62 87 41 187l79 3q2 -106 -96 -202z" />
    <glyph glyph-name="tcommaaccent" unicode="&#x163;" 
d="M455 51q-73 -37 -130 -52t-91.5 -8.5t-55.5 28t-22.5 58.5t7.5 83l62 276h-93l12 47h66l70 138l46 3l-32 -141h194l-9 -47h-195l-62 -273q-13 -59 -2 -91t65.5 -30t160.5 42zM150 -270q62 87 41 187l79 3q2 -106 -96 -202z" />
    <glyph glyph-name="Tcaron" unicode="&#x164;" 
d="M359 691h-3l-134 150l42 34l104 -122l162 118l28 -33zM369 567l-110 -567h-62l111 567h-201l10 53h463l-10 -53h-201z" />
    <glyph glyph-name="tcaron" unicode="&#x165;" 
d="M442 827l73 4q-3 -137 -103 -251l-26 13q42 63 51.5 115.5t4.5 118.5zM455 51q-73 -37 -130 -52t-91.5 -8.5t-55.5 28t-22.5 58.5t7.5 83l62 276h-93l12 47h66l70 138l46 3l-32 -141h194l-9 -47h-195l-62 -273q-13 -59 -2 -91t65.5 -30t160.5 42z" />
    <glyph glyph-name="Umacron" unicode="&#x16a;" 
d="M550 798l-9 -51h-321l10 51h320zM145 215q-35 -174 106 -174q122 0 153 156l82 423h61l-82 -422q-20 -104 -77 -158.5t-144 -54.5q-96 0 -139 58.5t-22 166.5l80 410h61z" />
    <glyph glyph-name="umacron" unicode="&#x16b;" 
d="M530 665l-9 -51h-321l10 51h320zM517 34q-106 -57 -139.5 -35.5t-14.5 113.5q-106 -123 -192 -123q-56 0 -78.5 46.5t-1.5 137.5l38 166l-39 23l70 121l60 4l-70 -308q-32 -134 48 -134q68 0 176 122l62 317h57l-71 -361q-6 -33 -6.5 -49t8 -25t28.5 -4t56 21z" />
    <glyph glyph-name="Ubreve" unicode="&#x16c;" 
d="M543 866l35 -23q-106 -142 -204 -142q-97 0 -153 145l47 24q26 -65 53 -92.5t65 -27.5t74 28t83 88zM145 215q-35 -174 106 -174q122 0 153 156l82 423h61l-82 -422q-20 -104 -77 -158.5t-144 -54.5q-96 0 -139 58.5t-22 166.5l80 410h61z" />
    <glyph glyph-name="ubreve" unicode="&#x16d;" 
d="M522 733l35 -23q-106 -142 -204 -142q-97 0 -153 145l47 24q26 -65 53 -92.5t65 -27.5t74 28t83 88zM517 34q-106 -57 -139.5 -35.5t-14.5 113.5q-106 -123 -192 -123q-56 0 -78.5 46.5t-1.5 137.5l38 166l-39 23l70 121l60 4l-70 -308q-32 -134 48 -134q68 0 176 122
l62 317h57l-71 -361q-6 -33 -6.5 -49t8 -25t28.5 -4t56 21z" />
    <glyph glyph-name="Uring" unicode="&#x16e;" 
d="M393 889q54 0 89 -28t35 -70q0 -47 -39 -79t-98 -32q-54 0 -89 28.5t-35 70.5q0 46 39 78t98 32zM388 850q-36 0 -61 -19.5t-25 -47.5q0 -27 23 -45.5t59 -18.5q37 0 62 19.5t25 47.5q0 27 -23.5 45.5t-59.5 18.5zM145 215q-35 -174 106 -174q122 0 153 156l82 423h61
l-82 -422q-20 -104 -77 -158.5t-144 -54.5q-96 0 -139 58.5t-22 166.5l80 410h61z" />
    <glyph glyph-name="uring" unicode="&#x16f;" 
d="M373 756q54 0 89 -28t35 -70q0 -47 -39 -79t-98 -32q-54 0 -89 28.5t-35 70.5q0 46 39 78t98 32zM368 717q-36 0 -61 -19.5t-25 -47.5q0 -27 23 -45.5t59 -18.5q37 0 62 19.5t25 47.5q0 27 -23.5 45.5t-59.5 18.5zM517 34q-106 -57 -139.5 -35.5t-14.5 113.5
q-106 -123 -192 -123q-56 0 -78.5 46.5t-1.5 137.5l38 166l-39 23l70 121l60 4l-70 -308q-32 -134 48 -134q68 0 176 122l62 317h57l-71 -361q-6 -33 -6.5 -49t8 -25t28.5 -4t56 21z" />
    <glyph glyph-name="Uhungarumlaut" unicode="&#x170;" 
d="M250 693l-26 21q73 82 139 192l60 -33q-72 -91 -173 -180zM458 693l-27 21q76 84 137 189l62 -30q-74 -96 -172 -180zM145 215q-35 -174 106 -174q122 0 153 156l82 423h61l-82 -422q-20 -104 -77 -158.5t-144 -54.5q-96 0 -139 58.5t-22 166.5l80 410h61z" />
    <glyph glyph-name="uhungarumlaut" unicode="&#x171;" 
d="M230 560l-26 21q73 82 139 192l60 -33q-72 -91 -173 -180zM438 560l-27 21q76 84 137 189l62 -30q-74 -96 -172 -180zM517 34q-106 -57 -139.5 -35.5t-14.5 113.5q-106 -123 -192 -123q-56 0 -78.5 46.5t-1.5 137.5l38 166l-39 23l70 121l60 4l-70 -308q-32 -134 48 -134
q68 0 176 122l62 317h57l-71 -361q-6 -33 -6.5 -49t8 -25t28.5 -4t56 21z" />
    <glyph glyph-name="Uogonek" unicode="&#x172;" 
d="M328 -166q-41 -21 -76.5 -31.5t-60.5 -9.5t-43 9t-26.5 22t-8.5 32q0 64 122 129q-91 3 -132 61.5t-20 163.5l80 410h61l-79 -405q-35 -174 106 -174q122 0 153 156l82 423h61l-82 -422q-28 -145 -132 -195q-87 -42 -125.5 -72.5t-38.5 -58.5q0 -18 14.5 -27.5t49.5 -5.5
t86 24z" />
    <glyph glyph-name="uogonek" unicode="&#x173;" 
d="M494 -166q-41 -21 -76.5 -31.5t-60.5 -9.5t-43 9t-26.5 22t-8.5 32q0 72 113 142q-50 11 -29 114q-109 -123 -192 -123q-56 0 -78.5 46.5t-1.5 137.5l38 166l-39 23l70 121l60 4l-70 -308q-32 -134 48 -134q68 0 176 122l62 317h57l-71 -361q-6 -33 -6.5 -49t8 -25
t28.5 -4t56 21l9 -32q-181 -86 -181 -162q0 -18 14.5 -27.5t49 -5.5t85.5 24z" />
    <glyph glyph-name="Wcircumflex" unicode="&#x174;" 
d="M506 694l-104 122l-162 -118l-28 33l200 147h2l133 -151zM332 0l-26 346l-161 -346h-70q9 209 69 620h60q-60 -396 -71 -544h4l166 362h41l27 -362h4q54 175 139 544h59q-91 -381 -171 -620h-70z" />
    <glyph glyph-name="wcircumflex" unicode="&#x175;" 
d="M478 558l-104 122l-162 -118l-28 33l200 147h2l133 -151zM335 0l-46 284l-154 -284h-59q7 224 42 484h60q-21 -154 -48 -403h3l152 284h40l44 -285h4q68 239 107 404h63q-66 -241 -153 -484h-55z" />
    <glyph glyph-name="Ycircumflex" unicode="&#x176;" 
d="M497 695l-104 122l-162 -118l-28 33l200 147h2l133 -151zM259 0h-62l41 210l-128 409l63 2l108 -352l241 351h67l-291 -416z" />
    <glyph glyph-name="ycircumflex" unicode="&#x177;" 
d="M481 567l-104 122l-162 -118l-28 33l200 147h2l133 -151zM413 -91q-49 -99 -355 -80l9 61q245 -22 293 24q8 8 12 21.5t4.5 36.5t0.5 44t-1.5 61.5t-1.5 69.5q-45 -53 -100.5 -88t-106.5 -35q-180 0 -9 460l58 2q-35 -98 -54.5 -171.5t-24.5 -117.5t2 -71.5t21 -37
t35 -9.5q36 0 85.5 33t94.5 87q8 94 41.5 194t53.5 100q14 0 27.5 -6t13.5 -16q0 -27 -26 -113t-59 -152q-1 -14 -1 -43q0 -33 1.5 -83t1.5 -74.5t-3.5 -52t-11.5 -44.5z" />
    <glyph glyph-name="Ydieresis" unicode="&#x178;" 
d="M495 708l-60 -2l31 131l68 2zM283 705l-60 -1l32 131l67 1zM259 0h-62l41 210l-128 409l63 2l108 -352l241 351h67l-291 -416z" />
    <glyph glyph-name="Zacute" unicode="&#x179;" 
d="M254 720q49 32 109 80.5t100 89.5l44 -50q-89 -72 -239 -147zM434 0h-407l9 52l435 515l-328 -1l11 54h396l-9 -52l-435 -515l337 1z" />
    <glyph glyph-name="zacute" unicode="&#x17a;" 
d="M229 584q49 32 109 80.5t100 89.5l44 -50q-89 -72 -239 -147zM424 0h-391l9 51l395 382l-316 -1l14 52h380l-10 -50l-395 -383l329 2z" />
    <glyph glyph-name="Zdotaccent" unicode="&#x17b;" 
d="M389 705l-60 -1l31 131l69 1zM434 0h-407l9 52l435 515l-328 -1l11 54h396l-9 -52l-435 -515l337 1z" />
    <glyph glyph-name="zdotaccent" unicode="&#x17c;" 
d="M364 569l-60 -1l31 131l69 1zM424 0h-391l9 51l395 382l-316 -1l14 52h380l-10 -50l-395 -383l329 2z" />
    <glyph glyph-name="Zcaron" unicode="&#x17d;" 
d="M361 691h-3l-134 150l42 34l104 -122l162 118l28 -33zM434 0h-407l9 52l435 515l-328 -1l11 54h396l-9 -52l-435 -515l337 1z" />
    <glyph glyph-name="zcaron" unicode="&#x17e;" 
d="M336 555h-3l-134 150l42 34l104 -122l162 118l28 -33zM424 0h-391l9 51l395 382l-316 -1l14 52h380l-10 -50l-395 -383l329 2z" />
    <glyph glyph-name="Aringacute" unicode="&#x1fa;" 
d="M322 955q49 32 109 80.5t100 89.5l44 -50q-89 -72 -239 -147zM392 891q54 0 89 -28t35 -70q0 -47 -39 -79t-98 -32q-54 0 -89 28.5t-35 70.5q0 46 39 78t98 32zM387 852q-36 0 -61 -19.5t-25 -47.5q0 -27 23 -45.5t59 -18.5q37 0 62 19.5t25 47.5q0 27 -23.5 45.5
t-59.5 18.5zM405 -2q-13 143 -19 204h-225q-33 -68 -97 -202h-62q142 300 309 623h87q42 -349 67 -621zM341 568q-106 -212 -158 -319h199q-16 166 -33 319h-8z" />
    <glyph glyph-name="aringacute" unicode="&#x1fb;" 
d="M312 830q49 32 109 80.5t100 89.5l44 -50q-89 -72 -239 -147zM382 762q54 0 89 -28t35 -70q0 -47 -39 -79t-98 -32q-54 0 -89 28.5t-35 70.5q0 46 39 78t98 32zM377 723q-36 0 -61 -19.5t-25 -47.5q0 -27 23 -45.5t59 -18.5q37 0 62 19.5t25 47.5q0 27 -23.5 45.5
t-59.5 18.5zM187 46q34 0 82 29.5t89 71.5q24 125 55 280q-61 16 -99 16q-81 0 -139.5 -86.5t-58.5 -200.5q0 -55 19.5 -82.5t51.5 -27.5zM511 34q-67 -40 -106 -42.5t-50.5 24.5t-4.5 81q-46 -46 -97.5 -76.5t-91.5 -30.5q-48 0 -76.5 39t-28.5 114q0 141 83.5 246
t206.5 105q57 0 134 -20l-69 -351q-9 -40 -5.5 -59.5t25.5 -19t73 21.5z" />
    <glyph glyph-name="AEacute" unicode="&#x1fc;" 
d="M363 720q49 32 109 80.5t100 89.5l44 -50q-89 -72 -239 -147zM348 568q-28 -54 -85.5 -163.5t-86.5 -164.5h117l64 328h-9zM246 0l38 193h-133q-98 -187 -101 -193h-64q255 473 336 620h275l-10 -52h-173l-45 -231h146l-8 -46h-147l-46 -239h175l-14 -52h-229z" />
    <glyph glyph-name="aeacute" unicode="&#x1fd;" 
d="M256 586q49 32 109 80.5t100 89.5l44 -50q-89 -72 -239 -147zM508 55q-75 -50 -130 -59t-84.5 16t-38.5 77q-73 -96 -141 -96q-73 0 -73 128q0 141 67 255.5t159 114.5q52 0 104 -38q44 41 94 41q40 0 62.5 -25t22.5 -68q0 -80 -64 -141t-177 -75q-2 -26 -2 -37
q0 -83 42.5 -99t152.5 39zM450 443q-46 0 -83.5 -66.5t-52.5 -154.5q81 12 130.5 61t49.5 107q0 53 -44 53zM138 47q41 0 113 94q2 156 81 268q-41 33 -81 33q-41 0 -76.5 -48t-54.5 -119t-19 -144q0 -84 37 -84z" />
    <glyph glyph-name="Oslashacute" unicode="&#x1fe;" 
d="M263 733q49 32 109 80.5t100 89.5l44 -50q-89 -72 -239 -147zM129 231q0 -52 11 -93l292 390q-31 52 -92 52q-60 0 -109 -51.5t-75.5 -131t-26.5 -166.5zM252 40q89 0 149.5 107t60.5 243q0 53 -11 94l-294 -390q31 -54 95 -54zM241 -13q-76 0 -121 53l-55 -73l-37 26
l66 88q-27 59 -27 145q0 102 36 195t102 152.5t145 59.5q76 0 121 -53l56 73l36 -26l-67 -87q28 -58 28 -146q0 -102 -35.5 -194.5t-101.5 -152.5t-146 -60z" />
    <glyph glyph-name="oslashacute" unicode="&#x1ff;" 
d="M229 596q49 32 109 80.5t100 89.5l44 -50q-89 -72 -239 -147zM118 194q0 -50 15 -83l263 297q-33 38 -90 38q-82 0 -135 -74t-53 -178zM244 39q81 0 134 73t53 178q0 48 -13 80l-262 -296q32 -35 88 -35zM233 -11q-73 0 -116 40l-55 -61l-36 27l62 69q-29 47 -29 121
q0 129 75 220t183 91q73 0 118 -42l54 60l36 -27l-62 -69q28 -48 28 -119q0 -130 -75 -220t-183 -90z" />
    <glyph glyph-name="Scommaaccent" unicode="&#x218;" 
d="M506 463l-56 -10q-10 65 -41 95.5t-86 30.5q-56 0 -93 -35t-37 -83q0 -34 27 -66.5t65.5 -60t77 -56t65.5 -64t27 -73.5q0 -39 -23.5 -71t-74.5 -54t-132 -22.5t-196 22.5l13 61q130 -34 208 -30t110.5 26.5t32.5 59.5q0 30 -27 61t-65.5 58.5t-77 56.5t-65.5 66.5
t-27 77.5q0 71 60 124.5t148 53.5q144 0 167 -168zM118 -266q62 87 41 187l79 3q2 -106 -96 -202z" />
    <glyph glyph-name="scommaaccent" unicode="&#x219;" 
d="M457 121q0 -24 -9.5 -44t-32 -38.5t-61 -29t-96 -16t-136.5 0.5l2 56q112 -13 173 -3.5t81 25.5t20 44q0 34 -55.5 110t-70.5 108q-71 -67 -179 -135l-17 28q132 95 180 153q-4 15 -4 33q0 41 29 78.5t60 37.5q34 0 34 -34q0 -45 -57 -112q10 -34 46 -83.5t64.5 -96
t28.5 -82.5zM129 -268q62 87 41 187l79 3q2 -106 -96 -202z" />
    <glyph glyph-name="schwa" unicode="&#x259;" 
d="M193 -11q-62 0 -98 30t-36 82q0 84 94.5 135t269.5 65v4q0 105 -81 129.5t-246 -36.5l-10 32q74 38 138.5 53.5t111 9t79.5 -30t49.5 -61.5t16.5 -88q0 -77 -36.5 -151t-104 -123.5t-147.5 -49.5zM206 39q84 0 142 66.5t72 156.5q-142 -10 -222.5 -48.5t-80.5 -102.5
q0 -33 24 -52.5t65 -19.5z" />
    <glyph glyph-name="circumflex" unicode="&#x2c6;" 
d="M398 558l-104 122l-162 -118l-28 33l200 147h2l133 -151z" />
    <glyph glyph-name="caron" unicode="&#x2c7;" 
d="M265 555h-3l-134 150l42 34l104 -122l162 118l28 -33z" />
    <glyph glyph-name="breve" unicode="&#x2d8;" 
d="M429 730l35 -23q-106 -142 -204 -142q-97 0 -153 145l47 24q26 -65 53 -92.5t65 -27.5t74 28t83 88z" />
    <glyph glyph-name="dotaccent" unicode="&#x2d9;" 
d="M289 569l-60 -1l31 131l69 1z" />
    <glyph glyph-name="ring" unicode="&#x2da;" 
d="M362 753q54 0 89 -28t35 -70q0 -47 -39 -79t-98 -32q-54 0 -89 28.5t-35 70.5q0 46 39 78t98 32zM357 714q-36 0 -61 -19.5t-25 -47.5q0 -27 23 -45.5t59 -18.5q37 0 62 19.5t25 47.5q0 27 -23.5 45.5t-59.5 18.5z" />
    <glyph glyph-name="ogonek" unicode="&#x2db;" 
d="M379 27l20 -26q-188 -68 -188 -128q0 -18 14.5 -27.5t49.5 -6t86 23.5l9 -29q-41 -21 -76.5 -31.5t-60.5 -9.5t-43 9t-26.5 22t-8.5 32q0 88 224 171z" />
    <glyph glyph-name="tilde" unicode="&#x2dc;" 
d="M350 614q21 0 44.5 27.5t55.5 80.5l32 -19q-79 -136 -145 -136q-23 0 -42.5 17t-31 38t-27 38t-31.5 17q-38 0 -100 -103l-32 19q76 131 145 131q23 0 42.5 -17t31 -38t27 -38t31.5 -17z" />
    <glyph glyph-name="hungarumlaut" unicode="&#x2dd;" 
d="M157 557l-26 21q73 82 139 192l60 -33q-72 -91 -173 -180zM365 557l-27 21q76 84 137 189l62 -30q-74 -96 -172 -180z" />
    <glyph glyph-name="commaaccent" unicode="&#x326;" 
d="M192 -259q62 87 41 187l79 3q2 -106 -96 -202z" />
    <glyph glyph-name="Wgrave" unicode="&#x1e80;" 
d="M478 712l-17 -26q-114 73 -200 162l45 48q34 -45 83.5 -98t88.5 -86zM332 0l-26 346l-161 -346h-70q9 209 69 620h60q-60 -396 -71 -544h4l166 362h41l27 -362h4q54 175 139 544h59q-91 -381 -171 -620h-70z" />
    <glyph glyph-name="wgrave" unicode="&#x1e81;" 
d="M450 576l-17 -26q-114 73 -200 162l45 48q34 -45 83.5 -98t88.5 -86zM335 0l-46 284l-154 -284h-59q7 224 42 484h60q-21 -154 -48 -403h3l152 284h40l44 -285h4q68 239 107 404h63q-66 -241 -153 -484h-55z" />
    <glyph glyph-name="Wacute" unicode="&#x1e82;" 
d="M262 720q49 32 109 80.5t100 89.5l44 -50q-89 -72 -239 -147zM332 0l-26 346l-161 -346h-70q9 209 69 620h60q-60 -396 -71 -544h4l166 362h41l27 -362h4q54 175 139 544h59q-91 -381 -171 -620h-70z" />
    <glyph glyph-name="wacute" unicode="&#x1e83;" 
d="M234 584q49 32 109 80.5t100 89.5l44 -50q-89 -72 -239 -147zM335 0l-46 284l-154 -284h-59q7 224 42 484h60q-21 -154 -48 -403h3l152 284h40l44 -285h4q68 239 107 404h63q-66 -241 -153 -484h-55z" />
    <glyph glyph-name="Wdieresis" unicode="&#x1e84;" 
d="M503 707l-60 -2l31 131l68 2zM291 704l-60 -1l32 131l67 1zM332 0l-26 346l-161 -346h-70q9 209 69 620h60q-60 -396 -71 -544h4l166 362h41l27 -362h4q54 175 139 544h59q-91 -381 -171 -620h-70z" />
    <glyph glyph-name="wdieresis" unicode="&#x1e85;" 
d="M476 571l-60 -2l31 131l68 2zM264 568l-60 -1l32 131l67 1zM335 0l-46 284l-154 -284h-59q7 224 42 484h60q-21 -154 -48 -403h3l152 284h40l44 -285h4q68 239 107 404h63q-66 -241 -153 -484h-55z" />
    <glyph glyph-name="Ygrave" unicode="&#x1ef2;" 
d="M469 713l-17 -26q-114 73 -200 162l45 48q34 -45 83.5 -98t88.5 -86zM259 0h-62l41 210l-128 409l63 2l108 -352l241 351h67l-291 -416z" />
    <glyph glyph-name="ygrave" unicode="&#x1ef3;" 
d="M453 585l-17 -26q-114 73 -200 162l45 48q34 -45 83.5 -98t88.5 -86zM413 -91q-49 -99 -355 -80l9 61q245 -22 293 24q8 8 12 21.5t4.5 36.5t0.5 44t-1.5 61.5t-1.5 69.5q-45 -53 -100.5 -88t-106.5 -35q-180 0 -9 460l58 2q-35 -98 -54.5 -171.5t-24.5 -117.5t2 -71.5
t21 -37t35 -9.5q36 0 85.5 33t94.5 87q8 94 41.5 194t53.5 100q14 0 27.5 -6t13.5 -16q0 -27 -26 -113t-59 -152q-1 -14 -1 -43q0 -33 1.5 -83t1.5 -74.5t-3.5 -52t-11.5 -44.5z" />
    <glyph glyph-name="endash" unicode="&#x2013;" 
d="M487 314l-8 -48h-400l9 48h399z" />
    <glyph glyph-name="emdash" unicode="&#x2014;" 
d="M521 314l-9 -48h-441l8 48h442z" />
    <glyph glyph-name="quoteleft" unicode="&#x2018;" 
d="M428 672q-63 -64 -81 -122t-5 -149l-91 -3q4 92 39 158t114 131z" />
    <glyph glyph-name="quoteright" unicode="&#x2019;" 
d="M226 389q63 64 81 122.5t5 148.5l91 4q-4 -92 -39 -158.5t-114 -131.5z" />
    <glyph glyph-name="quotesinglbase" unicode="&#x201a;" 
d="M120 -171q63 64 81 122.5t5 148.5l90 3q-3 -92 -38 -158t-114 -131z" />
    <glyph glyph-name="quotedblleft" unicode="&#x201c;" 
d="M532 672q-62 -64 -80 -122t-5 -148l-90 -3q4 91 38.5 157t112.5 131zM327 672q-63 -64 -81 -122t-6 -149l-90 -3q4 92 39 158t114 131z" />
    <glyph glyph-name="quotedblright" unicode="&#x201d;" 
d="M331 389q63 64 81 122.5t5 148.5l90 4q-4 -92 -39 -158.5t-114 -131.5zM125 389q62 64 80 122.5t6 148.5l89 3q-3 -92 -37.5 -157.5t-113.5 -131.5z" />
    <glyph glyph-name="quotedblbase" unicode="&#x201e;" 
d="M17 -171q62 64 80 122t6 148l90 4q-4 -92 -39 -158t-113 -131zM223 -171q63 63 81 122t6 149l89 3q-3 -92 -38 -158t-114 -131z" />
    <glyph glyph-name="dagger" unicode="&#x2020;" 
d="M262 122l-39 -17l-8 7l72 370l-161 17l10 49l160 -17l32 164l58 -6l-33 -164l161 -17l-10 -48l-161 17z" />
    <glyph glyph-name="daggerdbl" unicode="&#x2021;" 
d="M253 71l-40 -16l-8 7l43 221l-163 17l10 49l162 -17l30 150l-161 17l10 49l160 -17l32 164l58 -6l-33 -164l161 -17l-10 -48l-161 17l-33 -151l163 -17l-9 -48l-165 17z" />
    <glyph glyph-name="bullet" unicode="&#x2022;" 
d="M393 310q0 -55 -36.5 -92t-84.5 -37q-42 0 -70.5 30t-28.5 75q0 55 36 92t83 37q44 0 72.5 -29.5t28.5 -75.5z" />
    <glyph glyph-name="ellipsis" unicode="&#x2026;" 
d="M484 0h-85l22 101h84zM301 0h-85l22 101h84zM118 0h-85l22 101h84z" />
    <glyph glyph-name="guilsinglleft" unicode="&#x2039;" 
d="M319 -16l-194 230l16 63l284 223l34 -45l-281 -215l185 -215z" />
    <glyph glyph-name="guilsinglright" unicode="&#x203a;" 
d="M119 -14l-35 45l281 214l-185 216l44 41l195 -230l-17 -63z" />
    <glyph glyph-name="fraction" unicode="&#x2044;" 
d="M11 -160l-46 26l581 886l45 -27z" />
    <glyph glyph-name="zero.sup" unicode="&#x2070;" 
d="M163 478q0 104 57 181t138 77q58 0 91.5 -40.5t33.5 -114.5q0 -104 -56.5 -181t-137.5 -77q-58 0 -92 41t-34 114zM434 576q0 57 -22.5 87t-62.5 30q-59 0 -97.5 -63.5t-38.5 -146.5q0 -57 22 -87t62 -30q59 0 98 63.5t39 146.5z" />
    <glyph glyph-name="four.sup" unicode="&#x2074;" 
d="M459 418h-50l-17 -85h-46l16 85h-206l4 34q83 136 129 280l52 -2q-50 -151 -133 -270h163l26 136l48 4l-28 -140h55z" />
    <glyph glyph-name="five.sup" unicode="&#x2075;" 
d="M447 456q0 -59 -72 -97t-221 -26l6 46q87 -8 142.5 2t75.5 27.5t20 41.5q0 65 -193 93l46 185h233l-13 -43h-185l-28 -110q189 -33 189 -119z" />
    <glyph glyph-name="six.sup" unicode="&#x2076;" 
d="M307 324q-60 0 -99 36t-39 104q0 86 65 161t207 114l12 -42q-190 -47 -228 -170q51 40 106 44t91 -26.5t36 -81.5q0 -61 -43 -100t-108 -39zM315 364q44 0 70.5 26t26.5 66q0 39 -28.5 61.5t-74.5 17.5t-91 -41q-1 -8 -1 -22q0 -55 27.5 -81.5t70.5 -26.5z" />
    <glyph glyph-name="seven.sup" unicode="&#x2077;" 
d="M247 330l-53 5q111 190 249 347v3h-230l9 43h283l-9 -40q-136 -161 -249 -358z" />
    <glyph glyph-name="eight.sup" unicode="&#x2078;" 
d="M436 427q0 -43 -42.5 -73.5t-106.5 -30.5q-58 0 -93.5 24.5t-35.5 63.5q0 31 25.5 61t97.5 72q-65 56 -65 97q0 49 62 77.5t169 10.5l-16 -48q-62 15 -99.5 11t-53 -15.5t-15.5 -30.5q0 -27 59 -79q56 31 151 76l16 -28q-85 -40 -140 -70q27 -23 43 -38t30 -37.5
t14 -42.5zM296 364q41 0 67 17t26 42q0 15 -14 33.5t-26 29.5t-41 35q-60 -35 -80.5 -56.5t-20.5 -41.5q0 -27 25 -43t64 -16z" />
    <glyph glyph-name="nine.sup" unicode="&#x2079;" 
d="M204 322l-11 43q190 47 228 170q-51 -40 -106 -44t-91 26.5t-36 81.5q0 61 43 100t107 39q61 0 100 -36t39 -104q0 -87 -65.5 -161.5t-207.5 -114.5zM233 606q0 -39 28.5 -61.5t75 -17.5t91.5 41q1 8 1 22q0 55 -28 81t-70 26q-45 0 -71.5 -25.5t-26.5 -65.5z" />
    <glyph glyph-name="zero.inf" unicode="&#x2080;" 
d="M80 -5q0 104 57 181t138 77q58 0 91.5 -40.5t33.5 -114.5q0 -104 -56.5 -181t-137.5 -77q-58 0 -92 41t-34 114zM351 93q0 57 -22.5 87t-62.5 30q-59 0 -97.5 -63.5t-38.5 -146.5q0 -57 22 -87t62 -30q59 0 98 63.5t39 146.5z" />
    <glyph glyph-name="one.inf" unicode="&#x2081;" 
d="M354 -150h-289l9 43h126l51 260l-126 -10l6 37l129 18l12 60l50 4l-73 -369h116z" />
    <glyph glyph-name="two.inf" unicode="&#x2082;" 
d="M341 -150h-278l-1 40q146 91 206.5 142.5t60.5 101.5q0 90 -195 63l7 45q118 18 179.5 -9t61.5 -89q0 -60 -57.5 -114.5t-187.5 -135.5h214z" />
    <glyph glyph-name="three.inf" unicode="&#x2083;" 
d="M363 -41q0 -55 -69.5 -89t-222.5 -20l6 46q94 -11 146.5 -2t71.5 23.5t19 35.5q0 60 -173 94l3 23l194 132h-200l8 43h254l-5 -43l-192 -132q160 -35 160 -111z" />
    <glyph glyph-name="four.inf" unicode="&#x2084;" 
d="M376 -65h-50l-17 -85h-46l16 85h-206l4 34q83 136 129 280l52 -2q-50 -151 -133 -270h163l26 136l48 4l-28 -140h55z" />
    <glyph glyph-name="five.inf" unicode="&#x2085;" 
d="M364 -27q0 -59 -72 -97t-221 -26l6 46q87 -8 142.5 2t75.5 27.5t20 41.5q0 65 -193 93l46 185h233l-13 -43h-185l-28 -110q189 -33 189 -119z" />
    <glyph glyph-name="six.inf" unicode="&#x2086;" 
d="M224 -159q-60 0 -99 36t-39 104q0 86 65 161t207 114l12 -42q-190 -47 -228 -170q51 40 106 44t91 -26.5t36 -81.5q0 -61 -43 -100t-108 -39zM232 -119q44 0 70.5 26t26.5 66q0 39 -28.5 61.5t-74.5 17.5t-91 -41q-1 -8 -1 -22q0 -55 27.5 -81.5t70.5 -26.5z" />
    <glyph glyph-name="seven.inf" unicode="&#x2087;" 
d="M164 -153l-53 5q111 190 249 347v3h-230l9 43h283l-9 -40q-136 -161 -249 -358z" />
    <glyph glyph-name="eight.inf" unicode="&#x2088;" 
d="M353 -56q0 -43 -42.5 -73.5t-106.5 -30.5q-58 0 -93.5 24.5t-35.5 63.5q0 31 25.5 61t97.5 72q-65 56 -65 97q0 49 62 77.5t169 10.5l-16 -48q-62 15 -99.5 11t-53 -15.5t-15.5 -30.5q0 -27 59 -79q56 31 151 76l16 -28q-85 -40 -140 -70q27 -23 43 -38t30 -37.5
t14 -42.5zM213 -119q41 0 67 17t26 42q0 15 -14 33.5t-26 29.5t-41 35q-60 -35 -80.5 -56.5t-20.5 -41.5q0 -27 25 -43t64 -16z" />
    <glyph glyph-name="nine.inf" unicode="&#x2089;" 
d="M121 -161l-11 43q190 47 228 170q-51 -40 -106 -44t-91 26.5t-36 81.5q0 61 43 100t107 39q61 0 100 -36t39 -104q0 -87 -65.5 -161.5t-207.5 -114.5zM150 123q0 -39 28.5 -61.5t75 -17.5t91.5 41q1 8 1 22q0 55 -28 81t-70 26q-45 0 -71.5 -25.5t-26.5 -65.5z" />
    <glyph glyph-name="colonmonetary" unicode="&#x20a1;" 
d="M315 98l121 433q-53 -8 -91 -19l-107 -387q33 -16 77 -27zM133 282q0 -89 69 -136l97 351q-166 -63 -166 -215zM265 -74l34 119q-47 12 -76 25l-40 -144h-47l46 165q-104 63 -104 183q0 92 56 164.5t176 114.5l38 140h47l-34 -125q41 11 88 18l28 107h47l-28 -101
q47 4 75 5l-5 -55q-48 -2 -88 -6l-124 -447q32 -7 93 -14l-21 -51q-33 3 -85 11l-29 -109h-47z" />
    <glyph glyph-name="naira" unicode="&#x20a6;" 
d="M200 521l-17 -88h46l-24 88h-5zM336 227h67l31 164l-141 -1zM143 226l142 1l-44 163l-66 -1zM372 94h6l17 90h-47zM346 0l-50 183l-161 -1l-35 -182h-49l35 181l-74 -1l9 49l75 1l29 154l-74 -1l10 50h74l36 186l60 2l50 -188l162 1l35 186h49l-36 -186l73 1l-9 -49
l-74 -1l-30 -153h74l-10 -50h-73l-36 -182h-60z" />
    <glyph glyph-name="rupee" unicode="&#x20a8;" 
d="M222 -5l-58 282v2q66 64 95.5 114.5t29.5 100.5q0 82 -83 81l-113 -575h-53l120 619q93 13 138 -17t45 -96q0 -60 -30 -113t-96 -118l60 -270zM516 118q0 -145 -199 -125l2 55q48 -5 76 -5.5t43 11t19 24t4 34.5q0 25 -7.5 54.5t-21.5 69t-20 60.5q-45 -49 -76 -78
l-18 21q52 59 83 107q-3 18 -3 36q0 56 26 101t56 45q21 0 28.5 -20.5t-5 -61.5t-47.5 -91q5 -23 32.5 -108t27.5 -129z" />
    <glyph glyph-name="Euro" unicode="&#x20ac;" 
d="M465 32q-169 -72 -261 -24.5t-99 190.5h-77l10 48h68q3 58 18 110h-66l10 48h73q40 101 111.5 165t155.5 64q70 0 102 -42.5t34 -131.5l-57 -7q-2 66 -21.5 98t-69.5 32q-62 0 -115 -51t-85 -131h230l-11 -44h-234q-17 -58 -18 -108h231l-11 -46h-220q7 -118 81 -149.5
t214 18.5z" />
    <glyph glyph-name="peso" unicode="&#x20b1;" 
d="M448 431q0 71 -56.5 111t-169.5 30l-27 -141h253zM160 250h6q114 -1 185.5 35.5t90.5 100.5h-256zM564 382h-67q-24 -80 -114.5 -129t-234.5 -62l-37 -191h-57l74 382h-81l10 50h80l36 186q167 22 249.5 -31t82.5 -149v-6h68z" />
    <glyph glyph-name="rupeeindia" unicode="&#x20b9;" 
d="M435 19l-51 -32q-109 103 -167 143.5t-145 66.5l18 46q119 9 185 45t81 90h-248l9 46h242q-6 55 -59 94.5t-157 50.5l13 51h406l-14 -52h-257q57 -20 89.5 -58.5t36.5 -85.5h101l-8 -46h-96q-14 -62 -81 -105.5t-170 -57.5q60 -18 117.5 -61t154.5 -135z" />
    <glyph glyph-name="ruble" unicode="&#x20bd;" 
d="M483 459q0 130 -221 112l-48 -248q135 1 202 33.5t67 102.5zM399 127h-222l-25 -127h-60l25 127h-93l9 48h93l19 99h-91l9 49h92l57 295q168 19 249 -23t81 -127q0 -177 -337 -192l-20 -103h227z" />
    <glyph glyph-name="numero" unicode="&#x2116;" 
d="M515 624q35 0 54.5 -31t19.5 -91q0 -108 -45.5 -190t-105.5 -82q-35 0 -55 31t-20 91q0 108 46.5 190t105.5 82zM200 0l-32 489h-2l-92 -489h-51l121 620h54l33 -463h2l87 463l51 -1l-121 -620zM413 358q0 -37 10 -58t26 -21q33 0 61.5 70t28.5 147q0 78 -36 78
q-33 0 -61.5 -70t-28.5 -146zM515 127h-194l10 48h194z" />
    <glyph glyph-name="published" unicode="&#x2117;" 
d="M518 367q0 -159 -79 -259.5t-191 -100.5q-90 0 -146.5 67t-56.5 181q0 157 78.5 257.5t190.5 100.5q90 0 147 -66.5t57 -179.5zM307 576q-92 0 -157.5 -90t-65.5 -223q0 -101 48 -160t123 -59q92 0 158 90.5t66 224.5q0 100 -48.5 158.5t-123.5 58.5zM210 143h-42l63 333
q91 13 135 -12t44 -74q0 -53 -48 -88t-130 -45zM367 382q0 30 -25 46.5t-74 12.5l-28 -141q62 1 94.5 22.5t32.5 59.5z" />
    <glyph glyph-name="servicemark" unicode="&#x2120;" 
d="M395 346l-17 221h-3l-52 -273h-41l63 325l60 2l17 -216h2l98 215h60l-63 -326h-43l54 273h-3l-102 -221h-30zM280 539l-40 -6q-7 56 -41 56q-19 0 -32 -14t-13 -37q0 -25 22.5 -52.5t45 -56.5t22.5 -58q0 -30 -18 -50t-59 -28t-108 11l7 43q136 -42 136 20q0 18 -14 38.5
t-30.5 37t-30.5 41t-14 49.5q0 39 27 66t67 27q64 0 73 -87z" />
    <glyph glyph-name="trademark" unicode="&#x2122;" 
d="M297 620l-8 -40h-71l-56 -284h-42l56 284h-75l8 40h188zM405 621l17 -216h2l98 215h60l-63 -326h-43l54 273h-3l-102 -221h-30l-17 221h-3l-52 -273h-41l63 325z" />
    <glyph glyph-name="Omega" unicode="&#x2126;" 
d="M183 5l-2 -5h-175l9 49h115q-38 136 -38 243q0 156 63 248t175 92q82 0 127.5 -51.5t45.5 -141.5q0 -168 -141 -390h106l-9 -49h-173l-1 5q159 265 159 421q0 73 -32 112t-91 39q-81 0 -127.5 -81t-46.5 -220q0 -122 36 -271z" />
    <glyph glyph-name="onethird" unicode="&#x2153;" 
d="M456 425h-289l9 43h126l51 260l-126 -10l6 37l129 18l12 60l50 4l-73 -369h116zM64 284l9 41h432l-9 -41h-432zM351 -101q0 -55 -69.5 -89t-222.5 -20l6 46q94 -11 146.5 -2t71.5 23.5t19 35.5q0 60 -173 94l3 23l194 132h-200l8 43h254l-5 -43l-192 -132
q160 -35 160 -111z" />
    <glyph glyph-name="twothirds" unicode="&#x2154;" 
d="M443 425h-278l-1 40q146 91 206.5 142.5t60.5 101.5q0 90 -195 63l7 45q118 18 179.5 -9t61.5 -89q0 -60 -57.5 -114.5t-187.5 -135.5h214zM64 284l9 41h432l-9 -41h-432zM351 -101q0 -55 -69.5 -89t-222.5 -20l6 46q94 -11 146.5 -2t71.5 23.5t19 35.5q0 60 -173 94
l3 23l194 132h-200l8 43h254l-5 -43l-192 -132q160 -35 160 -111z" />
    <glyph glyph-name="onefifth" unicode="&#x2155;" 
d="M456 425h-289l9 43h126l51 260l-126 -10l6 37l129 18l12 60l50 4l-73 -369h116zM64 284l9 41h432l-9 -41h-432zM352 -87q0 -59 -72 -97t-221 -26l6 46q87 -8 142.5 2t75.5 27.5t20 41.5q0 65 -193 93l46 185h233l-13 -43h-185l-28 -110q189 -33 189 -119z" />
    <glyph glyph-name="twofifths" unicode="&#x2156;" 
d="M443 425h-278l-1 40q146 91 206.5 142.5t60.5 101.5q0 90 -195 63l7 45q118 18 179.5 -9t61.5 -89q0 -60 -57.5 -114.5t-187.5 -135.5h214zM64 284l9 41h432l-9 -41h-432zM352 -87q0 -59 -72 -97t-221 -26l6 46q87 -8 142.5 2t75.5 27.5t20 41.5q0 65 -193 93l46 185h233
l-13 -43h-185l-28 -110q189 -33 189 -119z" />
    <glyph glyph-name="threefifths" unicode="&#x2157;" 
d="M465 534q0 -55 -69.5 -89t-222.5 -20l6 46q94 -11 146.5 -2t71.5 23.5t19 35.5q0 60 -173 94l3 23l194 132h-200l8 43h254l-5 -43l-192 -132q160 -35 160 -111zM64 284l9 41h432l-9 -41h-432zM352 -87q0 -59 -72 -97t-221 -26l6 46q87 -8 142.5 2t75.5 27.5t20 41.5
q0 65 -193 93l46 185h233l-13 -43h-185l-28 -110q189 -33 189 -119z" />
    <glyph glyph-name="fourfifths" unicode="&#x2158;" 
d="M478 510h-50l-17 -85h-46l16 85h-206l4 34q83 136 129 280l52 -2q-50 -151 -133 -270h163l26 136l48 4l-28 -140h55zM64 284l9 41h432l-9 -41h-432zM352 -87q0 -59 -72 -97t-221 -26l6 46q87 -8 142.5 2t75.5 27.5t20 41.5q0 65 -193 93l46 185h233l-13 -43h-185
l-28 -110q189 -33 189 -119z" />
    <glyph glyph-name="onesixth" unicode="&#x2159;" 
d="M456 425h-289l9 43h126l51 260l-126 -10l6 37l129 18l12 60l50 4l-73 -369h116zM64 284l9 41h432l-9 -41h-432zM212 -219q-60 0 -99 36t-39 104q0 86 65 161t207 114l12 -42q-190 -47 -228 -170q51 40 106 44t91 -26.5t36 -81.5q0 -61 -43 -100t-108 -39zM220 -179
q44 0 70.5 26t26.5 66q0 39 -28.5 61.5t-74.5 17.5t-91 -41q-1 -8 -1 -22q0 -55 27.5 -81.5t70.5 -26.5z" />
    <glyph glyph-name="fivesixths" unicode="&#x215a;" 
d="M466 548q0 -59 -72 -97t-221 -26l6 46q87 -8 142.5 2t75.5 27.5t20 41.5q0 65 -193 93l46 185h233l-13 -43h-185l-28 -110q189 -33 189 -119zM64 284l9 41h432l-9 -41h-432zM212 -219q-60 0 -99 36t-39 104q0 86 65 161t207 114l12 -42q-190 -47 -228 -170q51 40 106 44
t91 -26.5t36 -81.5q0 -61 -43 -100t-108 -39zM220 -179q44 0 70.5 26t26.5 66q0 39 -28.5 61.5t-74.5 17.5t-91 -41q-1 -8 -1 -22q0 -55 27.5 -81.5t70.5 -26.5z" />
    <glyph glyph-name="oneeighth" unicode="&#x215b;" 
d="M456 425h-289l9 43h126l51 260l-126 -10l6 37l129 18l12 60l50 4l-73 -369h116zM64 284l9 41h432l-9 -41h-432zM341 -116q0 -43 -42.5 -73.5t-106.5 -30.5q-58 0 -93.5 24.5t-35.5 63.5q0 31 25.5 61t97.5 72q-65 56 -65 97q0 49 62 77.5t169 10.5l-16 -48
q-62 15 -99.5 11t-53 -15.5t-15.5 -30.5q0 -27 59 -79q56 31 151 76l16 -28q-85 -40 -140 -70q27 -23 43 -38t30 -37.5t14 -42.5zM201 -179q41 0 67 17t26 42q0 15 -14 33.5t-26 29.5t-41 35q-60 -35 -80.5 -56.5t-20.5 -41.5q0 -27 25 -43t64 -16z" />
    <glyph glyph-name="threeeighths" unicode="&#x215c;" 
d="M465 534q0 -55 -69.5 -89t-222.5 -20l6 46q94 -11 146.5 -2t71.5 23.5t19 35.5q0 60 -173 94l3 23l194 132h-200l8 43h254l-5 -43l-192 -132q160 -35 160 -111zM64 284l9 41h432l-9 -41h-432zM341 -116q0 -43 -42.5 -73.5t-106.5 -30.5q-58 0 -93.5 24.5t-35.5 63.5
q0 31 25.5 61t97.5 72q-65 56 -65 97q0 49 62 77.5t169 10.5l-16 -48q-62 15 -99.5 11t-53 -15.5t-15.5 -30.5q0 -27 59 -79q56 31 151 76l16 -28q-85 -40 -140 -70q27 -23 43 -38t30 -37.5t14 -42.5zM201 -179q41 0 67 17t26 42q0 15 -14 33.5t-26 29.5t-41 35
q-60 -35 -80.5 -56.5t-20.5 -41.5q0 -27 25 -43t64 -16z" />
    <glyph glyph-name="fiveeighths" unicode="&#x215d;" 
d="M466 548q0 -59 -72 -97t-221 -26l6 46q87 -8 142.5 2t75.5 27.5t20 41.5q0 65 -193 93l46 185h233l-13 -43h-185l-28 -110q189 -33 189 -119zM64 284l9 41h432l-9 -41h-432zM341 -116q0 -43 -42.5 -73.5t-106.5 -30.5q-58 0 -93.5 24.5t-35.5 63.5q0 31 25.5 61t97.5 72
q-65 56 -65 97q0 49 62 77.5t169 10.5l-16 -48q-62 15 -99.5 11t-53 -15.5t-15.5 -30.5q0 -27 59 -79q56 31 151 76l16 -28q-85 -40 -140 -70q27 -23 43 -38t30 -37.5t14 -42.5zM201 -179q41 0 67 17t26 42q0 15 -14 33.5t-26 29.5t-41 35q-60 -35 -80.5 -56.5t-20.5 -41.5
q0 -27 25 -43t64 -16z" />
    <glyph glyph-name="seveneighths" unicode="&#x215e;" 
d="M266 422l-53 5q111 190 249 347v3h-230l9 43h283l-9 -40q-136 -161 -249 -358zM64 284l9 41h432l-9 -41h-432zM341 -116q0 -43 -42.5 -73.5t-106.5 -30.5q-58 0 -93.5 24.5t-35.5 63.5q0 31 25.5 61t97.5 72q-65 56 -65 97q0 49 62 77.5t169 10.5l-16 -48
q-62 15 -99.5 11t-53 -15.5t-15.5 -30.5q0 -27 59 -79q56 31 151 76l16 -28q-85 -40 -140 -70q27 -23 43 -38t30 -37.5t14 -42.5zM201 -179q41 0 67 17t26 42q0 15 -14 33.5t-26 29.5t-41 35q-60 -35 -80.5 -56.5t-20.5 -41.5q0 -27 25 -43t64 -16z" />
    <glyph glyph-name="minus" unicode="&#x2212;" 
d="M485 314l-11 -50h-390l10 50h391z" />
    <glyph glyph-name="approxequal" unicode="&#x2248;" 
d="M380 311q-27 0 -51 18t-38.5 40t-33.5 40t-37 18q-22 0 -47 -28.5t-60 -84.5l-33 19q44 77 78.5 111t72.5 34q27 0 50.5 -18t38 -40t33 -40t35.5 -18q23 0 46.5 27t58.5 83l34 -19q-44 -77 -76.5 -109.5t-70.5 -32.5zM340 103q-27 0 -51 18t-38.5 40t-33.5 40t-37 18
q-23 0 -47 -28t-60 -85l-33 19q44 77 78.5 111t73.5 34q26 0 50 -18t38.5 -40t32.5 -40t35 -18q23 0 47.5 28t57.5 82l34 -19q-44 -77 -76.5 -109.5t-70.5 -32.5z" />
    <glyph glyph-name="notequal" unicode="&#x2260;" 
d="M454 156h-220l-82 -145l-43 15l73 130h-119l10 51h138l97 172h-202l10 51h221l81 144l44 -15l-73 -129h119l-11 -51h-137l-97 -172h202z" />
    <glyph glyph-name="lessequal" unicode="&#x2264;" 
d="M172 349l-1 -8l268 -166l-29 -44l-306 190l11 50l374 211l18 -46zM437 70l-9 -50h-391l9 50h391z" />
    <glyph glyph-name="greaterequal" unicode="&#x2265;" 
d="M421 350l-259 190l31 43l293 -218l-9 -48l-378 -189l-15 48l335 166zM437 70l-9 -50h-391l9 50h391z" />
    <glyph glyph-name="uniE0A0" unicode="&#xe0a0;" 
d="M428 576q45 0 75.5 -31t30.5 -75q0 -60 -53 -91v-14q0 -79 -65.5 -145t-145.5 -66q-51 0 -81 -34q28 -31 28 -73q0 -44 -31 -75t-74 -31q-45 0 -75.5 31t-30.5 75q0 63 53 91v347q-53 28 -53 91q0 44 30.5 75t75.5 31q43 0 74 -31t31 -75q0 -62 -53 -91v-251
q45 24 106 24q40 0 73 33t33 73v15q-53 31 -53 90q0 45 30.5 76t74.5 31zM112 629q-22 0 -37.5 -15.5t-15.5 -37.5q0 -23 15.5 -38.5t37.5 -15.5q21 0 36.5 16t15.5 38t-15.5 37.5t-36.5 15.5zM428 417q22 0 37.5 15.5t15.5 36.5q0 23 -15.5 38t-37.5 15q-21 0 -36.5 -15.5
t-15.5 -37.5q0 -21 15.5 -36.5t36.5 -15.5zM112 -6q21 0 36.5 15.5t15.5 37.5t-15.5 37.5t-36.5 15.5q-22 0 -37.5 -15.5t-15.5 -37.5q0 -23 15.5 -38t37.5 -15z" />
    <glyph glyph-name="uniE0B0" unicode="&#xe0b0;" 
d="M609 313l-629 -518l2 1099z" />
    <glyph glyph-name="uniE0B2" unicode="&#xe0b2;" 
d="M-20 313l627 581l2 -1099z" />
    <glyph glyph-name="hcoslug" unicode="&#xe10b;" 
d="M500 700v-800h-450v800h450zM200 296q0 22 20 22q22 0 22 -29q0 -17 -14 -37q-28 26 -28 44zM249 232q17 11 31 25q22 -22 -1 -60q-23 28 -30 35zM210 139q-16 0 -27.5 12t-11.5 29q0 18 12 30q28 -26 56 -62q-12 -9 -29 -9zM301 173q15 20 35 32q10 -19 32 -19
q16 0 26.5 11.5t10.5 28.5q0 18 -10.5 28.5t-26.5 10.5q-26 0 -45 -28q-3 28 -37 28q7 10 7 25q0 21 -19.5 38.5t-51.5 17.5q-37 0 -59.5 -19.5t-22.5 -44.5q0 -28 23 -52q-61 -20 -61 -68q0 -30 23.5 -50t57.5 -20q47 0 78 34q33 -34 64 -34q25 0 42 19.5t18 51.5l-5 1
q-14 -22 -32 -22q-20 0 -47 31zM229 68l-9 -1v-7h-5v-5h5v-15q0 -10 9 -10q8 0 11 10l-4 1q-1 -5 -4 -5t-3 4v15h10v5h-10v8zM145 46q0 -16 16 -16t16 16q0 15 -16 15t-16 -15zM167 46q0 -12 -6 -12t-6 12q0 11 6 11t6 -11zM299 45q0 -10 -5 -10q-6 0 -6 10t6 10q5 0 5 -10z
M179 36v-5h16v5h-3v11q0 8 6 8q4 0 4 -6v-13h-3v-5h17v5h-5v14q0 11 -9 11q-6 0 -10 -7v6h-13v-5h4v-19h-4zM108 36v-5h23v5h-7v12h3q4 0 5 -6h5v17h-5q-1 -6 -5 -6h-3v14h8q6 0 9 -10h5v15h-38v-5h6v-31h-6zM241 41v-10h5l1 3q4 -4 10 -4q10 0 10 9q0 6 -9 9t-9 5q0 3 4 3
t8 -5h5v10h-5l-1 -4q-3 4 -8 4q-11 0 -11 -9q0 -7 9 -9.5t9 -5.5t-4 -3t-9 7h-5zM279 69v-39h4l3 6q3 -6 11 -6q12 0 12 16q0 15 -12 15q-7 0 -9 -7v20h-14v-5h5zM318 24q2 2 0.5 4.5t-4.5 2.5q-5 0 -5 -5q0 -7 9 -7q8 0 13 12l10 24h4v5h-13v-5h4l-6 -15l-7 15h4v5h-18v-5
h3q9 -18 12 -25q0 -6 -6 -6zM363 0h-14v-6h5q-2 -4 -5 -7q-2 2 -5 5.5t-4 4.5q8 5 8 10q0 9 -10 9q-13 0 -13 -11q0 -5 5 -10q-10 -3 -10 -11q0 -10 12 -10q8 0 13 5q5 -5 9 -5q7 0 9 9l-3 1q-1 -4 -3 -4q-1 0 -5 4q4 4 7 10h4v6zM235 4v4q0 8 4 8l3 -1q-1 -1 -1 -3
q0 -4 5 -4v-4h-11zM367 -5q0 -21 21 -21q16 0 18 17h-6q-2 -12 -10 -12q-12 0 -12 17t10 17q7 0 11 -12h6v16h-6v-4q-5 5 -12 5q-20 0 -20 -23zM338 -1q-5 5 -5 8q0 4 4 4q5 0 5 -5t-4 -7zM270 -12h19q2 17 -14 17q-15 0 -15 -16q0 -15 16 -15q11 0 13 11h-5q-2 -6 -7 -6
q-7 0 -7 9zM200 -12h19q2 17 -14 17q-15 0 -15 -16q0 -15 16 -15q11 0 13 11h-5q-2 -6 -7 -6q-7 0 -7 9zM156 -10q0 -16 16 -16t16 16q0 15 -16 15t-16 -15zM408 -10q0 -16 16 -16t16 16q0 15 -16 15t-16 -15zM270 -8q0 9 5 9t5 -9h-10zM200 -8q0 9 5 9t5 -9h-10zM178 -10
q0 -12 -6 -12t-6 12q0 11 6 11t6 -11zM430 -10q0 -12 -6 -12t-6 12q0 11 6 11t6 -11zM222 -20v-5h17v5h-4v19h11v-19h-4v-5h17v5h-4v39l-8 -2q-4 2 -8 2q-13 0 -13 -14v-1h-5v-5h5v-19h-4zM291 -20v-5h19v5h-6v12q2 7 5 7v-1q0 -4 5 -4t5 5q0 6 -6 6t-9 -7v6h-13v-5h4v-19
h-4zM108 -20v-5h21v5h-5v14h16v-14h-5v-5h21v5h-6v31h6v5h-21v-5h5v-12h-16v12h5v5h-21v-5h6v-31h-6zM342 -18q-3 -3 -6 -3q-7 0 -7 7q0 4 3 7q2 -2 5.5 -6t4.5 -5zM453 -20q0 6 -6 6t-6 -6t6 -6t6 6z" />
    <glyph glyph-name="check.1" unicode="&#xe10c;" 
d="M575 638q-209 -302 -355 -659l-53 1l-81 359l55 17l61 -298h4q129 333 311 610z" />
    <glyph glyph-name="check.2" unicode="&#xe10d;" 
d="M309 -4l-71 227l-164 -223l-37 19l183 256l-70 208l57 16l55 -176l239 347l55 -30l-275 -370l87 -266z" />
    <glyph glyph-name="NUL" horiz-adv-x="0" 
 />
    <glyph glyph-name="zero.alt" 
d="M65 218q0 165 81 289t197 124q78 0 123.5 -58.5t45.5 -169.5q0 -107 -36 -202t-100.5 -153.5t-141.5 -58.5q-79 0 -124 58.5t-45 170.5zM124 225q0 -91 32 -137.5t89 -46.5q59 0 107.5 51.5t74.5 132.5t26 170q0 91 -32 137.5t-89 46.5q-58 0 -106.5 -51.5t-75 -132.5
t-26.5 -170z" />
    <glyph glyph-name="colon.alt" 
d="M364 428h-91l20 100h91zM293 92h-91l20 101h92z" />
    <glyph glyph-name="guillemotleft.cap" 
d="M200 57l-133 224l15 63l216 222l39 -38l-222 -220l135 -219zM431 57l-131 225l16 63l217 219l39 -38l-224 -217l133 -221z" />
    <glyph glyph-name="guillemotright.cap" 
d="M300 57l-39 37l222 221l-136 218l51 32l132 -223l-14 -63zM64 58l-39 38l225 217l-133 221l50 31l131 -225l-16 -63z" />
    <glyph glyph-name="guilsinglleft.cap" 
d="M333 52l-194 230l16 63l284 223l34 -45l-281 -215l185 -215z" />
    <glyph glyph-name="guilsinglright.cap" 
d="M133 54l-35 45l281 214l-185 216l44 41l195 -230l-17 -63z" />
    <glyph glyph-name="parenleft.cap" 
d="M512 763l32 -43q-190 -120 -271.5 -228.5t-81.5 -225.5q0 -174 202 -383l-46 -35q-213 226 -213 417q0 127 89.5 246.5t288.5 251.5z" />
    <glyph glyph-name="parenright.cap" 
d="M53 -164l-32 43q190 119 271.5 228t81.5 226q0 174 -203 383l47 35q213 -227 213 -418q0 -126 -89.5 -245.5t-288.5 -251.5z" />
    <glyph glyph-name="bracketleft.cap" 
d="M76 -129l169 870h306l-10 -49h-248l-150 -772h248l-10 -49h-305z" />
    <glyph glyph-name="bracketright.cap" 
d="M493 742l-170 -870h-305l10 49h248l149 772h-248l10 49h306z" />
    <glyph glyph-name="braceleft.cap" 
d="M381 -156q-139 61 -196.5 104.5t-57.5 89.5q0 29 19 56.5t42 45t42 39t19 39.5q0 57 -141 71l8 43q172 12 172 77q0 19 -34 72.5t-34 86.5q0 121 329 200l11 -53q-149 -30 -217 -63.5t-68 -74.5q0 -23 34.5 -77.5t34.5 -79.5q0 -33 -33 -63.5t-98 -45.5q93 -24 93 -83
q0 -24 -18.5 -48.5t-41 -41.5t-41 -41t-18.5 -47q0 -36 51 -71.5t169 -86.5z" />
    <glyph glyph-name="braceright.cap" 
d="M19 -155l-11 53q149 30 217 63.5t68 74.5q0 23 -34.5 77.5t-34.5 79.5q0 33 32.5 63.5t97.5 45.5q-92 26 -92 83q0 24 18.5 48.5t40.5 41.5t40.5 41t18.5 47q0 36 -50.5 71.5t-168.5 87.5l26 47q138 -61 195.5 -104.5t57.5 -89.5q0 -29 -19 -56.5t-41.5 -45t-41.5 -39
t-19 -39.5q0 -57 141 -71l-8 -43q-173 -10 -173 -77q0 -18 34.5 -72t34.5 -87q0 -121 -329 -200z" />
    <glyph glyph-name="registered.alt" 
d="M45 255q0 157 78.5 257.5t190.5 100.5q89 0 146.5 -67t57.5 -180q0 -160 -78.5 -259.5t-191.5 -99.5q-90 0 -146.5 67t-56.5 181zM84 263q0 -101 48 -160t123 -59q94 0 159 89t65 225q0 99 -48.5 158.5t-123.5 59.5q-92 0 -157.5 -90t-65.5 -223zM332 145l-84 156
q56 26 81 48t25 49q0 53 -89 47l-58 -298h-43l65 331q85 13 126.5 -8t41.5 -63q0 -66 -95 -116l78 -141z" />
    <glyph glyph-name="asterisk.alt" 
d="M346 552l-29 7l21 133l58 -16zM272 549l-21 -23l-105 84l43 43zM387 488l-9 31l125 47l16 -58zM237 482l10 -30l-126 -48l-16 58zM354 421l20 23l104 -84l-41 -43zM279 417l28 -6l-19 -133l-59 16z" />
    <glyph glyph-name="bullet.alt" 
d="M362 198h-193l40 198h192z" />
    <glyph glyph-name="R_p" 
d="M204 -5l-56 282v2q66 64 95.5 114.5t29.5 100.5q0 82 -83 81l-113 -575h-53l120 619q93 13 137.5 -17t44.5 -96q0 -60 -30 -113t-96 -119l59 -269zM386 45q42 0 80 111t38 215q0 72 -31 72q-24 0 -61 -37q-3 -19 -66 -351q27 -10 40 -10zM302 -171l-53 -5q98 502 124 659
l51 3l-6 -41q46 51 83 51q55 0 55 -112q0 -90 -24 -179t-67.5 -149.5t-93.5 -60.5q-17 0 -36 6q-4 -21 -16 -82.5t-17 -89.5z" />
    <glyph glyph-name="f.lig" 
d="M398 7q0 -68 -51.5 -113t-119.5 -45q-65 0 -106 53t-41 161q0 95 31 202l-32 16l9 34h40q56 161 154 275t194 114q52 0 74.5 -33t2.5 -91t-84 -121l-25 16q43 47 57 86.5t1 60.5t-46 21q-71 0 -147 -95.5t-125 -232.5l306 -1l-8 -49l-278 4q194 -136 194 -262zM248 -101
q44 0 75 27.5t31 73.5q0 119 -191 246q-25 -94 -25 -178q0 -90 30.5 -129.5t79.5 -39.5z" />
    <glyph glyph-name="l.ultra" 
d="M448 65q-149 -92 -236 -65.5t-87 168.5q0 98 29.5 197.5t75 173t101 120t104.5 46.5q42 0 65 -26t23 -73q0 -94 -82 -212t-255 -245q9 -92 71 -103t177 52zM415 646q-46 0 -99 -63.5t-91 -171t-40 -218.5q146 114 213.5 214.5t67.5 175.5q0 30 -13.5 46.5t-37.5 16.5z
" />
    <glyph glyph-name="fraction.afrc" 
d="M64 284l9 41h432l-9 -41h-432z" />
    <glyph glyph-name="zero.num" 
d="M182 570q0 104 57 181t138 77q58 0 91.5 -40.5t33.5 -114.5q0 -104 -56.5 -181t-137.5 -77q-58 0 -92 41t-34 114zM453 668q0 57 -22.5 87t-62.5 30q-59 0 -97.5 -63.5t-38.5 -146.5q0 -57 22 -87t62 -30q59 0 98 63.5t39 146.5z" />
    <glyph glyph-name="one.num" 
d="M456 425h-289l9 43h126l51 260l-126 -10l6 37l129 18l12 60l50 4l-73 -369h116z" />
    <glyph glyph-name="two.num" 
d="M443 425h-278l-1 40q146 91 206.5 142.5t60.5 101.5q0 90 -195 63l7 45q118 18 179.5 -9t61.5 -89q0 -60 -57.5 -114.5t-187.5 -135.5h214z" />
    <glyph glyph-name="three.num" 
d="M465 534q0 -55 -69.5 -89t-222.5 -20l6 46q94 -11 146.5 -2t71.5 23.5t19 35.5q0 60 -173 94l3 23l194 132h-200l8 43h254l-5 -43l-192 -132q160 -35 160 -111z" />
    <glyph glyph-name="four.num" 
d="M478 510h-50l-17 -85h-46l16 85h-206l4 34q83 136 129 280l52 -2q-50 -151 -133 -270h163l26 136l48 4l-28 -140h55z" />
    <glyph glyph-name="five.num" 
d="M466 548q0 -59 -72 -97t-221 -26l6 46q87 -8 142.5 2t75.5 27.5t20 41.5q0 65 -193 93l46 185h233l-13 -43h-185l-28 -110q189 -33 189 -119z" />
    <glyph glyph-name="six.num" 
d="M326 416q-60 0 -99 36t-39 104q0 86 65 161t207 114l12 -42q-190 -47 -228 -170q51 40 106 44t91 -26.5t36 -81.5q0 -61 -43 -100t-108 -39zM334 456q44 0 70.5 26t26.5 66q0 39 -28.5 61.5t-74.5 17.5t-91 -41q-1 -8 -1 -22q0 -55 27.5 -81.5t70.5 -26.5z" />
    <glyph glyph-name="seven.num" 
d="M266 422l-53 5q111 190 249 347v3h-230l9 43h283l-9 -40q-136 -161 -249 -358z" />
    <glyph glyph-name="eight.num" 
d="M455 519q0 -43 -42.5 -73.5t-106.5 -30.5q-58 0 -93.5 24.5t-35.5 63.5q0 31 25.5 61t97.5 72q-65 56 -65 97q0 49 62 77.5t169 10.5l-16 -48q-62 15 -99.5 11t-53 -15.5t-15.5 -30.5q0 -27 59 -79q56 31 151 76l16 -28q-85 -40 -140 -70q27 -23 43 -38t30 -37.5
t14 -42.5zM315 456q41 0 67 17t26 42q0 15 -14 33.5t-26 29.5t-41 35q-60 -35 -80.5 -56.5t-20.5 -41.5q0 -27 25 -43t64 -16z" />
    <glyph glyph-name="nine.num" 
d="M223 414l-11 43q190 47 228 170q-51 -40 -106 -44t-91 26.5t-36 81.5q0 61 43 100t107 39q61 0 100 -36t39 -104q0 -87 -65.5 -161.5t-207.5 -114.5zM252 698q0 -39 28.5 -61.5t75 -17.5t91.5 41q1 8 1 22q0 55 -28 81t-70 26q-45 0 -71.5 -25.5t-26.5 -65.5z" />
    <glyph glyph-name="zero.den" 
d="M68 -65q0 104 57 181t138 77q58 0 91.5 -40.5t33.5 -114.5q0 -104 -56.5 -181t-137.5 -77q-58 0 -92 41t-34 114zM339 33q0 57 -22.5 87t-62.5 30q-59 0 -97.5 -63.5t-38.5 -146.5q0 -57 22 -87t62 -30q59 0 98 63.5t39 146.5z" />
    <glyph glyph-name="one.den" 
d="M342 -210h-289l9 43h126l51 260l-126 -10l6 37l129 18l12 60l50 4l-73 -369h116z" />
    <glyph glyph-name="two.den" 
d="M329 -210h-278l-1 40q146 91 206.5 142.5t60.5 101.5q0 90 -195 63l7 45q118 18 179.5 -9t61.5 -89q0 -60 -57.5 -114.5t-187.5 -135.5h214z" />
    <glyph glyph-name="three.den" 
d="M351 -101q0 -55 -69.5 -89t-222.5 -20l6 46q94 -11 146.5 -2t71.5 23.5t19 35.5q0 60 -173 94l3 23l194 132h-200l8 43h254l-5 -43l-192 -132q160 -35 160 -111z" />
    <glyph glyph-name="four.den" 
d="M364 -125h-50l-17 -85h-46l16 85h-206l4 34q83 136 129 280l52 -2q-50 -151 -133 -270h163l26 136l48 4l-28 -140h55z" />
    <glyph glyph-name="five.den" 
d="M352 -87q0 -59 -72 -97t-221 -26l6 46q87 -8 142.5 2t75.5 27.5t20 41.5q0 65 -193 93l46 185h233l-13 -43h-185l-28 -110q189 -33 189 -119z" />
    <glyph glyph-name="six.den" 
d="M212 -219q-60 0 -99 36t-39 104q0 86 65 161t207 114l12 -42q-190 -47 -228 -170q51 40 106 44t91 -26.5t36 -81.5q0 -61 -43 -100t-108 -39zM220 -179q44 0 70.5 26t26.5 66q0 39 -28.5 61.5t-74.5 17.5t-91 -41q-1 -8 -1 -22q0 -55 27.5 -81.5t70.5 -26.5z" />
    <glyph glyph-name="seven.den" 
d="M152 -213l-53 5q111 190 249 347v3h-230l9 43h283l-9 -40q-136 -161 -249 -358z" />
    <glyph glyph-name="eight.den" 
d="M341 -116q0 -43 -42.5 -73.5t-106.5 -30.5q-58 0 -93.5 24.5t-35.5 63.5q0 31 25.5 61t97.5 72q-65 56 -65 97q0 49 62 77.5t169 10.5l-16 -48q-62 15 -99.5 11t-53 -15.5t-15.5 -30.5q0 -27 59 -79q56 31 151 76l16 -28q-85 -40 -140 -70q27 -23 43 -38t30 -37.5
t14 -42.5zM201 -179q41 0 67 17t26 42q0 15 -14 33.5t-26 29.5t-41 35q-60 -35 -80.5 -56.5t-20.5 -41.5q0 -27 25 -43t64 -16z" />
    <glyph glyph-name="nine.den" 
d="M109 -221l-11 43q190 47 228 170q-51 -40 -106 -44t-91 26.5t-36 81.5q0 61 43 100t107 39q61 0 100 -36t39 -104q0 -87 -65.5 -161.5t-207.5 -114.5zM138 63q0 -39 28.5 -61.5t75 -17.5t91.5 41q1 8 1 22q0 55 -28 81t-70 26q-45 0 -71.5 -25.5t-26.5 -65.5z" />
    <glyph glyph-name="zero.small" 
d="M104 145q0 104 57 181t138 77q58 0 91.5 -40.5t33.5 -114.5q0 -104 -56.5 -181t-137.5 -77q-58 0 -92 41t-34 114zM375 243q0 57 -22.5 87t-62.5 30q-59 0 -97.5 -63.5t-38.5 -146.5q0 -57 22 -87t62 -30q59 0 98 63.5t39 146.5z" />
    <glyph glyph-name="one.small" 
d="M378 0h-289l9 43h126l51 260l-126 -10l6 37l129 18l12 60l50 4l-73 -369h116z" />
    <glyph glyph-name="two.small" 
d="M365 0h-278l-1 40q146 91 206.5 142.5t60.5 101.5q0 90 -195 63l7 45q118 18 179.5 -9t61.5 -89q0 -60 -57.5 -114.5t-187.5 -135.5h214z" />
    <glyph glyph-name="three.small" 
d="M387 109q0 -55 -69.5 -89t-222.5 -20l6 46q94 -11 146.5 -2t71.5 23.5t19 35.5q0 60 -173 94l3 23l194 132h-200l8 43h254l-5 -43l-192 -132q160 -35 160 -111z" />
    <glyph glyph-name="four.small" 
d="M400 85h-50l-17 -85h-46l16 85h-206l4 34q83 136 129 280l52 -2q-50 -151 -133 -270h163l26 136l48 4l-28 -140h55z" />
    <glyph glyph-name="five.small" 
d="M388 123q0 -59 -72 -97t-221 -26l6 46q87 -8 142.5 2t75.5 27.5t20 41.5q0 65 -193 93l46 185h233l-13 -43h-185l-28 -110q189 -33 189 -119z" />
    <glyph glyph-name="six.small" 
d="M248 -9q-60 0 -99 36t-39 104q0 86 65 161t207 114l12 -42q-190 -47 -228 -170q51 40 106 44t91 -26.5t36 -81.5q0 -61 -43 -100t-108 -39zM256 31q44 0 70.5 26t26.5 66q0 39 -28.5 61.5t-74.5 17.5t-91 -41q-1 -8 -1 -22q0 -55 27.5 -81.5t70.5 -26.5z" />
    <glyph glyph-name="seven.small" 
d="M188 -3l-53 5q111 190 249 347v3h-230l9 43h283l-9 -40q-136 -161 -249 -358z" />
    <glyph glyph-name="eight.small" 
d="M377 94q0 -43 -42.5 -73.5t-106.5 -30.5q-58 0 -93.5 24.5t-35.5 63.5q0 31 25.5 61t97.5 72q-65 56 -65 97q0 49 62 77.5t169 10.5l-16 -48q-62 15 -99.5 11t-53 -15.5t-15.5 -30.5q0 -27 59 -79q56 31 151 76l16 -28q-85 -40 -140 -70q27 -23 43 -38t30 -37.5t14 -42.5
zM237 31q41 0 67 17t26 42q0 15 -14 33.5t-26 29.5t-41 35q-60 -35 -80.5 -56.5t-20.5 -41.5q0 -27 25 -43t64 -16z" />
    <glyph glyph-name="nine.small" 
d="M145 -11l-11 43q190 47 228 170q-51 -40 -106 -44t-91 26.5t-36 81.5q0 61 43 100t107 39q61 0 100 -36t39 -104q0 -87 -65.5 -161.5t-207.5 -114.5zM174 273q0 -39 28.5 -61.5t75 -17.5t91.5 41q1 8 1 22q0 55 -28 81t-70 26q-45 0 -71.5 -25.5t-26.5 -65.5z" />
    <glyph glyph-name="caron.alt" 
d="M282 798l73 4q-3 -137 -103 -251l-26 13q42 63 51.5 115.5t4.5 118.5z" />
    <glyph glyph-name="commaaccent.rot" 
d="M349 747q-62 -87 -41 -187l-80 -3q0 108 97 202z" />
    <glyph glyph-name="underscore.alt" 
d="M511 -50l-9 -48h-569l9 48h569z" />
    <glyph glyph-name="less_exclam_hyphen_hyphen.liga" 
d="M-852 226q12 65 38 233t34 216h78q-10 -40 -34.5 -137t-45 -179t-31.5 -133h-39zM-1140 546l-324 -230h448l-13 -52h-446l237 -240l-41 -41l-278 286l9 52l381 270zM-603 316h1047l-13 -52h-1044zM-927 0l20 96h90l-20 -96h-90z" />
    <glyph glyph-name="equal_equal_equal.liga" 
d="M563 511h-1485l12 60h1486zM515 264h-1485l12 60h1486zM467 16h-1485l12 61h1486z" />
    <glyph glyph-name="equal_equal_greater.liga" 
d="M206 591l278 -285l-10 -52l-380 -271l-27 46l179 127h-1264l10 52h1327l103 73l2 8l-89 90h-1310l10 52h1249l-119 120z" />
    <glyph glyph-name="equal_less_less.liga" 
d="M-145 294l-2 -8l259 -262l-41 -41l-168 173h-921l10 52h860l-59 61l9 52l82 58h-859l10 52h922l226 160l27 -45zM155 294l-2 -8l259 -262l-41 -41l-278 286l9 52l381 270l27 -45z" />
    <glyph glyph-name="exclam_equal_equal.liga" 
d="M563 511h-627l-132 -187h724l-13 -60h-753l-132 -187h850l-13 -61h-880l-137 -194l-53 14l127 180h-542l12 61h573l132 187h-669l12 60h699l132 187h-795l12 60h826l99 141l47 -23l-83 -118h597z" />
    <glyph glyph-name="greater_equal_greater.liga" 
d="M206 591l278 -285l-10 -52l-380 -271l-27 46l179 127h-1009l-243 -173l-27 46l355 252l2 8l-259 262l41 40l156 -160h1022l-119 120zM422 281l2 8l-89 90h-1022l71 -73l-10 -52l-65 -46h1010z" />
    <glyph glyph-name="greater_greater_equal.liga" 
d="M-616 306l-10 -52l-380 -271l-27 46l355 252l2 8l-259 262l41 40zM521 431l-11 -52h-897l71 -73l-10 -52l-65 -46h869l-11 -52h-930l-243 -173l-27 46l355 252l2 8l-259 262l41 40l156 -160h959z" />
    <glyph glyph-name="hyphen_hyphen_greater.liga" 
d="M206 591l278 -285l-10 -52l-380 -271l-27 46l331 235h-1378l10 52h1367l-232 235z" />
    <glyph glyph-name="less_equal_equal.liga" 
d="M-825 379l-120 -85l-2 -8l77 -78h1348l-11 -52h-1285l130 -132l-41 -41l-278 286l9 52l381 270l27 -45l-162 -115h1273l-11 -52h-1335z" />
    <glyph glyph-name="less_equal_greater.liga" 
d="M206 591l278 -285l-10 -52l-380 -271l-27 46l179 127h-1064l130 -132l-41 -41l-278 286l9 52l381 270l27 -45l-162 -115h1036l-119 120zM422 281l2 8l-89 90h-1160l-120 -85l-2 -8l77 -78h1189z" />
    <glyph glyph-name="less_equal_less.liga" 
d="M155 294l-2 -8l259 -262l-41 -41l-168 173h-1021l130 -132l-41 -41l-278 286l9 52l381 270l27 -45l-162 -115h1009l226 160l27 -45zM-870 208h1022l-59 61l9 52l82 58h-1009l-120 -85l-2 -8z" />
    <glyph glyph-name="less_hyphen_greater.liga" 
d="M206 591l278 -285l-10 -52l-380 -271l-27 46l331 235h-1323l237 -240l-41 -41l-278 286l9 52l381 270l27 -45l-324 -230h1311l-232 235z" />
    <glyph glyph-name="less_hyphen_hyphen.liga" 
d="M444 316l-13 -52h-1356l237 -240l-41 -41l-278 286l9 52l381 270l27 -45l-324 -230h1358z" />
    <glyph glyph-name="ampersand_ampersand.liga" 
d="M311 165q46 -65 128 -142l-45 -41q-71 68 -122 137q-121 -129 -220 -129q-48 0 -78 27q-11 9 -24 23t-21 24.5t-21.5 29.5t-17.5 25q-121 -129 -220 -129q-52 0 -81 30.5t-29 84.5q0 137 218 332q2 74 35.5 138.5t67.5 64.5q19 0 30 -11.5t11 -32.5q0 -78 -92 -175
q7 -110 71 -215q51 68 99 162l52 -19q-33 -57 -44 -74q52 72 152 162q2 74 35.5 138.5t67.5 64.5q19 0 30 -11.5t11 -32.5q0 -78 -92 -175q7 -110 71 -215q51 68 99 162l52 -19q-59 -106 -123 -184zM-314 45q77 0 177 114q-69 109 -82 220q-163 -161 -163 -262q0 -34 18 -53
t50 -19zM68 45q76 0 177 114q-69 109 -82 220q-163 -161 -163 -262q0 -34 18 -53t50 -19zM-15 240q-25 -37 -56 -75q5 -8 17 -22q9 47 39 97z" />
    <glyph glyph-name="bar_bar.liga" 
d="M-85 703l-172 -883h-55l171 881zM300 703l-172 -883h-55l171 881z" />
    <glyph glyph-name="bar_greater.liga" 
d="M334 317l-10 -54l-611 -440l-1 -4h-56l185 949l57 5zM271 286l2 8l-390 404l-156 -804z" />
    <glyph glyph-name="colon_equal.liga" 
d="M-277 355l21 101h97l-22 -101h-96zM364 379h-425l10 52h426zM-321 131l21 101h97l-22 -101h-96zM320 156h-425l10 52h426z" />
    <glyph glyph-name="equal_equal.liga" 
d="M510 379h-935l10 52h936zM467 156h-935l10 52h936z" />
    <glyph glyph-name="equal_greater.liga" 
d="M206 591l278 -285l-10 -52l-380 -271l-27 46l179 127h-714l10 52h777l103 73l2 8l-89 90h-760l10 52h699l-119 120z" />
    <glyph glyph-name="exclam_equal.liga" 
d="M510 379h-424l-121 -171h513l-11 -52h-538l-236 -334l-53 14l226 320h-334l10 52h360l121 171h-448l10 52h475l198 281l47 -23l-182 -258h398z" />
    <glyph glyph-name="greater_equal.liga" 
d="M-293 22l17 -42l730 283l11 54l-614 278l-34 -43l555 -258l-1 -8zM421 93l11 56l-758 -297l17 -42z" />
    <glyph glyph-name="hyphen_greater.liga" 
d="M206 591l278 -285l-10 -52l-380 -271l-27 46l331 235h-828l10 52h817l-232 235z" />
    <glyph glyph-name="hyphen_hyphen.liga" 
d="M-84 264h-295l9 51h295zM353 264h-295l9 51h295z" />
    <glyph glyph-name="less_bar.liga" 
d="M257 -194h-56l-1 4l-611 472l-10 58l436 489l57 -5zM-358 307l544 -420l-156 862l-390 -434z" />
    <glyph glyph-name="less_equal.liga" 
d="M377 22l-560 264l1 8l655 258l-16 43l-722 -278l-11 -54l620 -283zM-309 93l620 -283l33 42l-642 297z" />
    <glyph glyph-name="less_hyphen.liga" 
d="M444 316l-13 -52h-806l237 -240l-41 -41l-278 286l9 52l381 270l27 -45l-324 -230h808z" />
    <glyph glyph-name="less_slash.liga" horiz-adv-x="525" 
d="M333 712l47 -23l-612 -867l-53 14l105 148l-277 285l9 52l381 270l27 -45l-355 -252l-2 -8l251 -254z" />
    <glyph glyph-name="plus_plus.liga" 
d="M248 314h188l-10 -50h-187l-38 -193h-54l38 193h-365l-38 -193h-54l38 193h-188l10 50h187l38 194h54l-38 -194h365l38 194h54z" />
    <glyph glyph-name="question_question.liga" 
d="M-367 678q184 -20 272 -61.5t88 -112.5q0 -63 -69.5 -127t-228.5 -145l-19 33q139 71 194.5 121.5t55.5 97.5q0 56 -72.5 86t-231.5 49zM53 678q184 -20 272 -61.5t88 -112.5q0 -63 -69.5 -127t-228.5 -145l-19 33q139 71 194.5 121.5t55.5 97.5q0 56 -72.5 86t-231.5 49
zM-396 0l20 96h89l-20 -96h-89zM24 0l20 96h89l-20 -96h-89z" />
    <glyph glyph-name="slash_greater.liga" 
d="M213 584l271 -278l-10 -52l-380 -271l-27 46l355 252l2 8l-245 247l-504 -714l-53 14l618 876l47 -23z" />
    <glyph glyph-name="underscore_underscore.liga" 
d="M562 -100h-1115l10 50h1115z" />
    <glyph glyph-name="LIG" 
 />
    </font>
</defs>
</svg>
