<?xml version="1.0" standalone="no"?>
<!DOCTYPE svg PUBLIC "-//W3C//DTD SVG 1.1//EN" "http://www.w3.org/Graphics/SVG/1.1/DTD/svg11.dtd" >
<svg xmlns="http://www.w3.org/2000/svg" xmlns:xlink="http://www.w3.org/1999/xlink" version="1.1">
<metadata>
Created by FontForge 20170731 at Wed May 27 04:59:59 2020
 By Aleksey,,,
Copyright (C) 2016 Hoefler &#38; Co. http://www.typography.com
</metadata>
<defs>
<font id="OperatorMonoLig-BookItalic" horiz-adv-x="550" >
  <font-face 
    font-family="Operator Mono Lig Book"
    font-weight="325"
    font-style="italic"
    font-stretch="normal"
    units-per-em="1000"
    panose-1="2 0 0 9 0 0 0 0 0 0"
    ascent="800"
    descent="-200"
    x-height="489"
    cap-height="620"
    bbox="-1562 -371 717 1130"
    underline-thickness="64"
    underline-position="-211"
    slope="-11"
    unicode-range="U+0020-E10D"
  />
<missing-glyph 
d="M8 -200l-15 1000h540l15 -1000h-540zM70 750l199 -390l188 390h-387zM481 676l-180 -376l191 -376zM60 -76l180 376l-191 376zM271 240l-187 -390h387z" />
    <glyph glyph-name=".notdef" 
d="M8 -200l-15 1000h540l15 -1000h-540zM70 750l199 -390l188 390h-387zM481 676l-180 -376l191 -376zM60 -76l180 376l-191 376zM271 240l-187 -390h387z" />
    <glyph glyph-name=".null" horiz-adv-x="0" 
 />
    <glyph glyph-name="nonmarkingreturn" horiz-adv-x="333" 
 />
    <glyph glyph-name="space" unicode=" " 
 />
    <glyph glyph-name="exclam" unicode="!" 
d="M295 233h-52q9 48 33 225t31 218h102q-9 -38 -56.5 -216t-57.5 -227zM272 0h-108l23 110h107z" />
    <glyph glyph-name="quotedbl" unicode="&#x22;" 
d="M426 384h-55l48 285h96l-4 -36zM213 384h-55l48 285h96l-4 -36z" />
    <glyph glyph-name="numbersign" unicode="#" 
d="M206 233l125 20l35 145l-125 -21zM148 -11l-58 -7l41 172l-100 -16l15 69l102 16l34 144l-100 -16l14 69l103 17l42 177l58 7l-42 -175l125 20l41 173l58 7l-41 -170l101 16l-14 -68l-103 -17l-35 -144l102 16l-15 -69l-103 -17l-43 -179l-57 -7l42 177l-125 -20z" />
    <glyph glyph-name="dollar" unicode="$" 
d="M203 473q0 -36 79 -108l49 163q-64 3 -96 -13t-32 -42zM381 150q0 38 -82 108l-50 -168q66 -1 99 16t33 44zM208 -81l-71 1l32 108q-55 4 -132 20l16 73q82 -21 143 -27l61 200q-40 35 -63 57.5t-44 56t-21 62.5q0 53 53 88.5t161 34.5l33 107h72l-37 -112q46 -6 110 -20
l-14 -72q-73 20 -124 27l-60 -194q41 -35 65 -58.5t45.5 -58t21.5 -63.5q0 -51 -54.5 -87t-164.5 -37z" />
    <glyph glyph-name="percent" unicode="%" 
d="M222 633q29 0 48 -26t19 -71q0 -65 -32.5 -112.5t-73.5 -47.5q-29 0 -48 26t-19 71q0 64 32.5 112t73.5 48zM551 589l-453 -596l-45 38l452 596zM382 -13q-29 0 -48 25.5t-19 69.5q0 63 33 112.5t73 49.5q29 0 48 -26t19 -71q0 -62 -33 -111t-73 -49z" />
    <glyph glyph-name="ampersand" unicode="&#x26;" 
d="M459 -19q-64 66 -109 128q-117 -119 -216 -119q-55 0 -85 32t-30 89q0 141 208 318v7q0 78 37 141t77 63q24 0 39 -14t15 -38q0 -79 -95 -174q12 -97 67 -191q46 64 90 151l66 -24q-60 -105 -120 -180q43 -62 119 -138zM157 61q70 0 159 98q-64 102 -81 198
q-140 -137 -140 -229q0 -32 16.5 -49.5t45.5 -17.5z" />
    <glyph glyph-name="quotesingle" unicode="'" 
d="M320 384h-56l49 285h99l-3 -36z" />
    <glyph glyph-name="parenleft" unicode="(" 
d="M491 716l42 -54q-185 -120 -262 -225.5t-77 -220.5q0 -171 192 -374l-61 -45q-208 229 -208 418q0 127 88 247t286 254z" />
    <glyph glyph-name="parenright" unicode=")" 
d="M52 -212l-42 54q185 120 262.5 225.5t77.5 220.5q0 171 -193 374l61 45q208 -229 208 -418q0 -127 -88 -247t-286 -254z" />
    <glyph glyph-name="asterisk" unicode="*" 
d="M363 263l-72 138l-135 -79l-31 39l110 110l-119 105l28 41l138 -71l64 145l49 -13l-23 -156l156 -15l2 -49l-156 -25l35 -152z" />
    <glyph glyph-name="plus" unicode="+" 
d="M495 259h-181l-37 -188h-71l37 188h-182l13 67h182l36 187h71l-36 -187h182z" />
    <glyph glyph-name="comma" unicode="," 
d="M115 -157q58 64 75 124t7 150l109 3q-2 -91 -39.5 -159.5t-119.5 -136.5z" />
    <glyph glyph-name="hyphen" unicode="-" 
d="M433 327l-12 -68h-298l13 68h297z" />
    <glyph glyph-name="period" unicode="." 
d="M285 0h-109l22 116h110z" />
    <glyph glyph-name="slash" unicode="/" 
d="M550 718l63 -29l-606 -871l-70 20z" />
    <glyph glyph-name="zero" unicode="0" 
d="M60 218q0 108 36.5 203t102 153t143.5 58q80 0 127 -59t47 -170q0 -108 -36.5 -203t-102.5 -153.5t-144 -58.5q-80 0 -126.5 59t-46.5 171zM328 566q-73 0 -126.5 -89.5t-62.5 -209.5l298 154q-4 72 -32.5 108.5t-76.5 36.5zM248 54q74 0 127 90.5t62 211.5l-298 -155
q4 -73 32 -110t77 -37z" />
    <glyph glyph-name="one" unicode="1" 
d="M441 0h-389l14 67h166l83 427l-157 -7l9 57l161 19l15 76l77 6l-111 -578h151z" />
    <glyph glyph-name="two" unicode="2" 
d="M437 0h-394l-1 62q205 139 291.5 220.5t86.5 160.5q0 140 -271 98l12 75q165 26 251.5 -15t86.5 -138q0 -96 -82 -182.5t-267 -211.5h301z" />
    <glyph glyph-name="three" unicode="3" 
d="M471 172q0 -38 -21.5 -71t-67.5 -60.5t-130.5 -39t-197.5 -1.5l9 75q101 -9 165.5 -7.5t102 17t51.5 33.5t14 42q0 90 -240 148l5 37l273 206h-278l13 69h360l-8 -66l-270 -206q220 -59 220 -176z" />
    <glyph glyph-name="four" unicode="4" 
d="M481 131h-67l-25 -131h-73l26 131h-292l4 52q63 108 106.5 207t85.5 237l83 -5q-46 -138 -91 -232.5t-107 -189.5h224l42 212l73 7l-42 -219h74z" />
    <glyph glyph-name="five" unicode="5" 
d="M470 197q0 -42 -23 -79.5t-70 -68t-131 -44.5t-194 -5l10 75q96 -8 160.5 -3.5t102.5 23t54 40t16 48.5q0 102 -266 147l69 290h331l-20 -69h-256l-40 -171q257 -51 257 -183z" />
    <glyph glyph-name="six" unicode="6" 
d="M255 -11q-84 0 -135 53.5t-51 155.5q0 64 21 125t66 121t124.5 111t185.5 85l17 -70q-267 -77 -326 -263q73 63 149 70t124.5 -38.5t48.5 -125.5q0 -98 -65 -161t-159 -63zM270 53q61 0 99 42.5t38 106.5q0 59 -37.5 91.5t-99.5 23.5t-125 -64q-2 -26 -2 -38
q0 -84 35.5 -123t91.5 -39z" />
    <glyph glyph-name="seven" unicode="7" 
d="M183 -5l-80 8q152 286 356 542v4h-318l15 71h403l-14 -64q-200 -257 -362 -561z" />
    <glyph glyph-name="eight" unicode="8" 
d="M450 148q0 -66 -62.5 -113t-155.5 -47q-82 0 -131.5 37t-49.5 97q0 48 36.5 94t138.5 113q-88 88 -88 150q0 76 89 121t240 22l-22 -76q-86 21 -138 15t-73.5 -24t-21.5 -47q0 -45 79 -120q83 51 214 121l25 -48q-100 -53 -199 -111q57 -54 88 -97t31 -87zM250 52
q54 0 90.5 26t36.5 64q0 23 -18 51t-36.5 46t-55.5 52q-83 -54 -111.5 -87.5t-28.5 -64.5q0 -41 34.5 -64t88.5 -23z" />
    <glyph glyph-name="nine" unicode="9" 
d="M110 -19l-18 71q268 78 326 262q-73 -62 -148.5 -69.5t-124 38t-48.5 126.5q0 97 65 160.5t159 63.5q84 0 135 -53.5t51 -155.5q0 -136 -96 -256.5t-301 -186.5zM169 420q0 -44 22.5 -74t58 -40t84 5.5t96.5 56.5q2 26 2 38q0 84 -35 123t-91 39q-62 0 -99.5 -42
t-37.5 -106z" />
    <glyph glyph-name="colon" unicode=":" 
d="M351 330h-110l23 116h110zM282 0h-110l23 116h110z" />
    <glyph glyph-name="semicolon" unicode=";" 
d="M351 330h-110l23 116h110zM114 -158q57 64 74.5 124t9.5 149l108 3q-4 -90 -41 -158t-119 -136z" />
    <glyph glyph-name="less" unicode="&#x3c;" 
d="M478 599l34 -61l-344 -237l-2 -10l255 -257l-54 -53l-279 288l12 67z" />
    <glyph glyph-name="equal" unicode="=" 
d="M514 440l-14 -66h-399l13 66h400zM471 218l-14 -66h-399l13 66h400z" />
    <glyph glyph-name="greater" unicode="&#x3e;" 
d="M97 -19l-34 61l344 238l2 9l-255 257l54 53l279 -287l-12 -68z" />
    <glyph glyph-name="question" unicode="?" 
d="M140 600l16 79q184 -20 272 -62.5t88 -113.5q0 -64 -69.5 -128.5t-228.5 -144.5l-25 43q130 67 182 112.5t52 89.5q0 52 -68.5 80t-218.5 45zM225 0h-107l22 109h107z" />
    <glyph glyph-name="at" unicode="@" 
d="M407 -142q-358 -77 -358 266q0 140 47.5 268.5t132.5 209.5t184 81q90 0 123 -64t8 -187l-41 -200q-14 -70 -28 -168l-67 1l5 52q-62 -59 -114 -59q-34 0 -53.5 32t-19.5 94q0 72 24.5 139t73 111.5t109.5 44.5q25 0 49 -4q22 147 -83 147q-71 0 -137.5 -70t-106.5 -185
t-40 -238q0 -138 70 -191t231 -17zM334 125q38 0 86 41l49 240q-37 13 -63 13q-42 0 -77 -72t-35 -149q0 -73 40 -73z" />
    <glyph glyph-name="A" unicode="A" 
d="M390 -3q-3 32 -7.5 96t-6.5 96h-211q-58 -126 -86 -189h-82q132 288 300 622h114q35 -331 59 -619zM337 551q-40 -80 -143 -300h177q-13 157 -27 300h-7z" />
    <glyph glyph-name="B" unicode="B" 
d="M488 188q0 -44 -23.5 -82t-75.5 -68.5t-135.5 -40t-203.5 2.5l120 618q174 26 261.5 -12t87.5 -115q0 -57 -42.5 -102.5t-117.5 -68.5q59 -12 94 -47.5t35 -84.5zM440 473q0 49 -51.5 73t-149.5 13l-44 -225q123 6 184 44.5t61 94.5zM409 182q0 54 -55 82t-168 21
l-42 -219q130 -15 197.5 19.5t67.5 96.5z" />
    <glyph glyph-name="C" unicode="C" 
d="M377 633q83 0 114 -56t26 -175l-76 -1q2 86 -14 123t-66 37q-89 0 -152 -101t-63 -223q0 -127 80 -163t234 21l-8 -73q-183 -64 -285 -10.5t-102 211.5q0 162 92 286t220 124z" />
    <glyph glyph-name="D" unicode="D" 
d="M522 384q0 -88 -29 -162.5t-85.5 -130.5t-150.5 -81.5t-214 -9.5l120 618q175 29 267 -30t92 -204zM441 375q0 205 -209 182l-96 -493q99 -8 169.5 34t103 114t32.5 163z" />
    <glyph glyph-name="E" unicode="E" 
d="M443 69l-18 -69h-367l120 620h370l-14 -69h-288l-40 -207h244l-12 -61h-244l-42 -214h291z" />
    <glyph glyph-name="F" unicode="F" 
d="M447 268h-254l-52 -268h-81l120 620h380l-12 -70h-300l-43 -219h254z" />
    <glyph glyph-name="G" unicode="G" 
d="M403 -109l-73 -1l26 114q-137 -38 -214.5 19.5t-77.5 195.5q0 163 90.5 288.5t212.5 125.5q81 0 113.5 -55.5t27.5 -175.5h-76q2 84 -14 121.5t-64 37.5q-86 0 -147 -102.5t-61 -226.5q0 -113 58 -153t168 -3l37 164l77 3z" />
    <glyph glyph-name="H" unicode="H" 
d="M349 0l55 282h-228l-55 -282h-81l120 620h81l-53 -274h228l53 274h82l-120 -620h-82z" />
    <glyph glyph-name="I" unicode="I" 
d="M277 65h150l-15 -65h-376l13 65h147l95 490h-150l13 65h375l-12 -65h-145z" />
    <glyph glyph-name="J" unicode="J" 
d="M353 50q-32 -32 -104 -47t-209 -14l13 74q120 -2 168 4t68 26q14 14 24 48t30 132l55 282h-205l14 65h285l-66 -338q-23 -123 -37.5 -167t-35.5 -65z" />
    <glyph glyph-name="K" unicode="K" 
d="M394 -6l-181 318l282 308h88l-281 -309l178 -306zM170 620h81l-121 -620h-81z" />
    <glyph glyph-name="L" unicode="L" 
d="M446 0h-385l120 620h82l-106 -550h304z" />
    <glyph glyph-name="M" unicode="M" 
d="M245 622l29 -413h3l192 411h96l-119 -620h-78l98 488h-4l-180 -380h-53l-28 380h-3l-91 -488h-74l119 618z" />
    <glyph glyph-name="N" unicode="N" 
d="M355 0l-142 489h-5l-92 -489h-76l120 619l85 2l136 -480h5l91 479h76l-121 -620h-77z" />
    <glyph glyph-name="O" unicode="O" 
d="M350 632q82 0 131 -59.5t49 -173.5q0 -104 -36.5 -198t-104 -153.5t-149.5 -59.5t-131 59t-49 173q0 104 36.5 198.5t104 154t149.5 59.5zM251 58q83 0 139 103.5t56 233.5q0 83 -28.5 125t-78.5 42q-83 0 -139 -103.5t-56 -233.5q0 -83 28.5 -125t78.5 -42z" />
    <glyph glyph-name="P" unicode="P" 
d="M133 0h-81l120 617q187 26 278 -20.5t91 -139.5q0 -106 -97 -173.5t-272 -84.5zM462 444q0 61 -56 91.5t-165 18.5l-55 -280q131 -2 203.5 44.5t72.5 125.5z" />
    <glyph glyph-name="Q" unicode="Q" 
d="M415 -138l-285 126l20 58q133 53 216.5 157t83.5 216q0 70 -31 107.5t-89 37.5q-102 0 -152 -123t-1 -304l-69 -26q-46 142 -29 258t90 190t175 74q91 0 140 -56.5t49 -152.5q0 -122 -82.5 -230t-212.5 -173l211 -93z" />
    <glyph glyph-name="R" unicode="R" 
d="M401 -6l-163 283l1 3q107 48 153.5 90.5t46.5 94.5q0 53 -51.5 77t-151.5 12l-108 -554h-80l120 618q182 24 267 -16t85 -121q0 -124 -187 -215l156 -260z" />
    <glyph glyph-name="S" unicode="S" 
d="M512 460l-72 -14q-10 61 -39 89t-80 28q-50 0 -83 -30.5t-33 -73.5q0 -32 26.5 -63t64 -58t75 -55t64 -64t26.5 -74q0 -40 -24 -72.5t-75.5 -55.5t-133.5 -24.5t-199 21.5l16 80q72 -19 130 -26t95.5 -4t62 14t35 26t10.5 34q0 28 -26.5 57t-63.5 55.5t-74.5 55t-64 66
t-26.5 77.5q0 73 62 127.5t155 54.5q147 0 172 -171z" />
    <glyph glyph-name="T" unicode="T" 
d="M375 550l-107 -550h-81l107 550h-192l13 70h465l-13 -70h-192z" />
    <glyph glyph-name="U" unicode="U" 
d="M160 221q-33 -164 93 -164q109 0 137 143l82 420h81l-82 -418q-21 -108 -79 -162t-148 -54q-99 0 -143.5 59t-22.5 175l78 400h81z" />
    <glyph glyph-name="V" unicode="V" 
d="M284 0h-114q-38 304 -61 617l80 6q13 -193 48 -549h8q159 319 263 546h81q-128 -278 -305 -620z" />
    <glyph glyph-name="W" unicode="W" 
d="M324 0l-23 327l-149 -327h-85q9 220 68 620h80q-63 -413 -71 -515h4l151 331h49l23 -331h3q35 114 128 515h78q-94 -392 -170 -620h-86z" />
    <glyph glyph-name="X" unicode="X" 
d="M383 -3l-104 258l-193 -255h-87l247 315l-128 302l82 6l106 -259l192 256h89l-248 -315l128 -302z" />
    <glyph glyph-name="Y" unicode="Y" 
d="M269 0h-81l40 209l-123 409l83 4l97 -336l222 334h87l-286 -417z" />
    <glyph glyph-name="Z" unicode="Z" 
d="M437 0h-414l12 69l414 481l-314 -1l14 71h403l-12 -69l-411 -481l321 1z" />
    <glyph glyph-name="bracketleft" unicode="[" 
d="M61 -179l170 873h311l-13 -64h-233l-145 -745h234l-13 -64h-311z" />
    <glyph glyph-name="backslash" unicode="\" 
d="M172 718l277 -884l-66 -20l-276 883z" />
    <glyph glyph-name="bracketright" unicode="]" 
d="M486 695l-170 -873h-310l13 64h233l144 745h-233l12 64h311z" />
    <glyph glyph-name="asciicircum" unicode="^" 
d="M434 158l-136 233l-200 -235l-50 43l255 294l17 3l179 -297z" />
    <glyph glyph-name="underscore" unicode="_" 
d="M465 -50l-12 -62h-486l12 62h486z" />
    <glyph glyph-name="grave" unicode="`" 
d="M387 585l-20 -33q-123 65 -220 153l53 62q38 -45 91.5 -97.5t95.5 -84.5z" />
    <glyph glyph-name="a" unicode="a" 
d="M193 63q30 0 73.5 26t81.5 64q16 82 52 264q-52 16 -94 16q-72 0 -124.5 -83.5t-52.5 -188.5q0 -49 17.5 -73.5t46.5 -24.5zM513 37q-71 -42 -112 -45.5t-54 23t-7 80.5q-107 -105 -186 -105q-47 0 -75.5 39t-28.5 114q0 142 84.5 249.5t213.5 107.5q64 0 140 -21
l-69 -352q-11 -54 2.5 -64t83.5 14z" />
    <glyph glyph-name="b" unicode="b" 
d="M201 -10q-65 0 -147 24l133 683l77 6l-59 -302q107 101 183 101q50 0 80.5 -42t30.5 -122q0 -140 -84.5 -244t-213.5 -104zM242 56q73 0 126 80.5t53 182.5q0 55 -19.5 83t-50.5 28q-32 0 -76 -26.5t-82 -66.5l-51 -264q60 -17 100 -17z" />
    <glyph glyph-name="c" unicode="c" 
d="M493 334h-72q-1 55 -19 77.5t-58 22.5q-80 0 -138 -73.5t-58 -171.5q0 -97 72 -122.5t229 22.5l10 -42q-127 -61 -213.5 -57.5t-131 53t-44.5 133.5q0 129 88 227t206 98q70 0 101.5 -39.5t27.5 -127.5z" />
    <glyph glyph-name="d" unicode="d" 
d="M197 63q32 0 73.5 24.5t77.5 61.5l53 270q-59 17 -97 17q-71 0 -123.5 -81.5t-52.5 -182.5q0 -53 19 -81t50 -28zM517 38q-71 -41 -112.5 -45.5t-55.5 20.5t-9 77q-44 -44 -92.5 -72t-88.5 -28q-49 0 -79 42t-30 120q0 90 36.5 169.5t104.5 129.5t152 50q33 0 73 -6
l39 202l78 6l-112 -574q-9 -36 -5 -53.5t24 -17t68 18.5z" />
    <glyph glyph-name="e" unicode="e" 
d="M470 56q-96 -49 -175 -61.5t-129 8t-77 65t-27 106.5q0 78 38 153t107.5 125t150.5 50q64 0 101.5 -31.5t37.5 -85.5q0 -85 -92.5 -136t-266.5 -64v-1q0 -98 76 -120t246 33zM339 437q-76 0 -129.5 -61.5t-67.5 -144.5q132 9 206 44t74 95q0 30 -22.5 48.5t-60.5 18.5z
" />
    <glyph glyph-name="f" unicode="f" 
d="M403 2q0 -78 -52.5 -129.5t-123.5 -51.5q-68 0 -110 58t-42 171q0 97 30 206l-37 16l11 47h46q57 162 154.5 274t194.5 112q54 0 77 -35t3.5 -96t-82.5 -126l-33 17q37 44 49 81t0 57t-43 20q-64 0 -132.5 -87t-113.5 -217h296l-12 -64l-251 4q171 -130 171 -257z
M255 -115q39 0 66 28t27 74q0 123 -174 247q-23 -92 -23 -179q0 -89 29 -129.5t75 -40.5z" />
    <glyph glyph-name="g" unicode="g" 
d="M211 96q76 0 144 104q13 104 54 207q-57 29 -102 29q-72 0 -122.5 -74.5t-50.5 -164.5q0 -50 21 -75.5t56 -25.5zM422 -82q-54 -107 -377 -88l8 76q148 -9 214 -1.5t84 25.5q11 11 12 35.5t-4.5 77t-6.5 88.5q-86 -107 -177 -107q-53 0 -86 39.5t-33 114.5
q0 128 81.5 225.5t201.5 97.5q53 0 104 -24q16 25 26 25q16 0 34 -8.5t18 -19.5q0 -27 -29.5 -106.5t-67.5 -153.5q-2 -34 -2 -46q0 -49 5.5 -107t5.5 -89.5t-11 -53.5z" />
    <glyph glyph-name="h" unicode="h" 
d="M514 36q-58 -36 -99 -44t-59.5 8t-18.5 50q0 38 32.5 159.5t32.5 161.5q0 57 -50 57q-68 0 -166 -105l-63 -323h-76l135 697l78 6l-61 -314q105 112 200 112q86 0 86 -93q0 -55 -33.5 -179t-33.5 -147q0 -15 6 -20t25 -2t54 17z" />
    <glyph glyph-name="i" unicode="i" 
d="M370 574l-81 -4l31 133l90 5zM473 44q-121 -49 -193.5 -53t-95.5 32t-4 109l76 289l-177 -24l-5 42l206 51l69 -1l-90 -344q-7 -33 -6 -54t24 -28t66.5 -1t120.5 25z" />
    <glyph glyph-name="j" unicode="j" 
d="M430 574l-82 -4l33 135l90 4zM2 -173l5 76q138 -3 177 0t54 18t17 68.5t13.5 175t46.5 258.5l-189 -18l-7 41l219 45l71 -1q-38 -128 -56 -247t-19.5 -182t-10 -112.5t-30.5 -71.5q-28 -28 -87.5 -38.5t-203.5 -11.5z" />
    <glyph glyph-name="k" unicode="k" 
d="M403 -6l-180 204q209 108 209 189q0 42 -48 42q-80 0 -192 -114l-61 -315h-77l135 697l78 6l-62 -320q116 118 220 118q43 0 67 -22.5t24 -59.5q0 -110 -201 -218l177 -195z" />
    <glyph glyph-name="l" unicode="l" 
d="M463 65q-139 -84 -227 -71.5t-106 123.5q-30 -18 -48 -30l-21 36l25 17q26 16 39 25v13q0 131 49 255.5t122 198.5t143 74q44 0 69 -27.5t25 -76.5q0 -94 -80.5 -207.5t-247.5 -232.5q5 -62 34.5 -86.5t79.5 -16.5t129 46zM412 629q-42 0 -89 -56.5t-81 -154t-38 -202.5
q131 103 193 194.5t62 158.5q0 60 -47 60z" />
    <glyph glyph-name="m" unicode="m" 
d="M526 21q-139 -69 -139 16q0 33 34 175.5t34 179.5q0 34 -25 34q-37 0 -90 -56l-72 -370h-61l68 346q16 80 -20 80q-35 0 -89 -55q-26 -145 -71 -371h-75q63 320 91 487l71 5q-2 -25 -9 -64q66 73 118 73q60 0 55 -80q72 80 131 80q58 0 58 -70q0 -51 -36 -196t-36 -167
q0 -10 4.5 -13.5t16 -2t32.5 9.5z" />
    <glyph glyph-name="n" unicode="n" 
d="M514 36q-58 -36 -99 -44t-59.5 8t-18.5 50q0 38 32.5 159t32.5 162q0 57 -50 57q-68 0 -164 -98q-14 -77 -65 -330h-76q70 361 89 488l76 5q-6 -32 -15 -103q106 111 202 111q86 0 86 -93q0 -55 -33.5 -179t-33.5 -147q0 -15 6 -20t25 -2t54 17z" />
    <glyph glyph-name="o" unicode="o" 
d="M54 188q0 130 76 222t187 92q82 0 131 -52.5t49 -147.5q0 -131 -76.5 -222t-187.5 -91q-83 0 -131 52t-48 147zM417 291q0 69 -29.5 107.5t-83.5 38.5q-75 0 -123 -70.5t-48 -167.5q0 -69 29.5 -107t83.5 -38q74 0 122.5 69.5t48.5 167.5z" />
    <glyph glyph-name="p" unicode="p" 
d="M241 55q74 0 127 80.5t53 182.5q0 54 -19.5 82t-50.5 28q-32 0 -76.5 -26.5t-82.5 -65.5q-36 -192 -50 -264q60 -17 99 -17zM95 -170l-77 -6q103 536 123 664l75 5q-6 -43 -15 -97q106 106 187 106q49 0 79.5 -42.5t30.5 -121.5q0 -140 -84 -244.5t-212 -104.5
q-37 0 -75 7q-6 -31 -17 -88.5t-15 -77.5z" />
    <glyph glyph-name="q" unicode="q" 
d="M502 -132q-119 -60 -161 -45t-26 102l30 159q-99 -94 -179 -94q-50 0 -82 42t-32 121q0 141 85 244.5t216 103.5q64 0 146 -25l-105 -530q-8 -47 7 -53.5t92 16.5zM202 62q67 0 155 84l53 273q-59 17 -102 17q-75 0 -127 -80.5t-52 -183.5q0 -54 20.5 -82t52.5 -28z" />
    <glyph glyph-name="r" unicode="r" 
d="M507 29q-191 -85 -209 25q-16 96 93 350q-88 -26 -158 -27q-52 -108 -158 -220l-31 29q95 114 133 196q-49 11 -49 46q0 32 31.5 64t66.5 32q17 0 27.5 -11.5t10.5 -32.5q0 -18 -6 -39q101 12 199 56l37 -21q-126 -306 -118 -381q4 -48 60 -40q24 3 64 16z" />
    <glyph glyph-name="s" unicode="s" 
d="M463 130q0 -31 -16.5 -56.5t-53.5 -46.5t-107 -30t-167 -4l2 72q106 -11 165 -3t79.5 22.5t20.5 40.5q0 24 -19.5 54.5t-52.5 71.5t-49 68q-69 -60 -172 -121l-21 36q123 85 170 136q-6 21 -6 43q0 44 33 81t71 37q29 0 40.5 -18.5t-1.5 -54.5t-52 -80q10 -26 73 -113
t63 -135z" />
    <glyph glyph-name="t" unicode="t" 
d="M459 52q-75 -38 -133 -53.5t-94 -8.5t-58.5 29t-24.5 60t7 86l58 262h-93l16 61h63l77 138l60 5l-32 -143h189l-12 -61h-191l-58 -258q-13 -55 -1 -84t64.5 -28t154.5 36z" />
    <glyph glyph-name="u" unicode="u" 
d="M519 37q-109 -60 -146 -41.5t-23 108.5q-100 -115 -184 -115q-57 0 -79.5 46.5t-1.5 137.5l37 166l-43 26l75 123l78 5l-70 -312q-26 -118 43 -118q65 0 158 108l62 319h76l-71 -363q-8 -35 -5 -52t21.5 -16.5t63.5 18.5z" />
    <glyph glyph-name="v" unicode="v" 
d="M246 77q85 148 224 413h82q-138 -259 -277 -494h-99q-53 265 -84 491l78 5q28 -199 68 -415h8z" />
    <glyph glyph-name="w" unicode="w" 
d="M324 0l-40 264l-141 -264h-76q7 213 45 489h79q-16 -103 -53 -390h3l140 267h49l38 -268h4q61 234 97 391h82q-63 -232 -153 -489h-74z" />
    <glyph glyph-name="x" unicode="x" 
d="M366 -2l-105 201l-179 -199h-85l225 245l-129 242l85 5l107 -201l178 199h85l-225 -244l129 -243z" />
    <glyph glyph-name="y" unicode="y" 
d="M419 -82q-53 -105 -365 -89l11 78q242 -21 287 22q7 7 10.5 19.5t4 34t0 40.5t-2 54.5t-1.5 60.5q-45 -49 -98 -80t-102 -31q-183 0 -10 462l76 2q-34 -95 -53.5 -166.5t-24.5 -114t1 -68.5t18.5 -35t32.5 -9q32 0 76 27.5t85 73.5q6 98 41.5 199t59.5 101q18 0 36 -7.5
t18 -18.5q0 -31 -26.5 -115.5t-61.5 -153.5q-1 -9 -1 -28q0 -32 2 -79.5t3 -74t-3 -56t-13 -48.5z" />
    <glyph glyph-name="z" unicode="z" 
d="M426 0h-395l13 66l372 357l-300 -2l19 69h384l-13 -66l-372 -357l311 2z" />
    <glyph glyph-name="braceleft" unicode="{" 
d="M365 -207q-140 62 -198 106t-58 91q0 30 19 57t41.5 44t41.5 37.5t19 38.5q0 53 -134 69l11 56q163 10 163 69q0 18 -33 70.5t-33 86.5q0 125 332 205l14 -67q-273 -53 -273 -128q0 -22 33 -75.5t33 -78.5q0 -33 -32 -63.5t-96 -45.5q90 -27 90 -86q0 -24 -18 -48.5
t-40 -41.5t-40 -39.5t-18 -44.5q0 -34 49 -68.5t161 -83.5z" />
    <glyph glyph-name="bar" unicode="|" 
d="M325 705l74 2l-173 -888h-74z" />
    <glyph glyph-name="braceright" unicode="}" 
d="M11 -207l-14 68q273 53 273 128q0 21 -32.5 74.5t-32.5 78.5q0 34 31.5 64.5t96.5 45.5q-91 27 -91 85q0 24 18.5 48.5t40 41.5t40 40t18.5 45q0 34 -49 68.5t-161 83.5l33 60q141 -63 198.5 -106.5t57.5 -91.5q0 -29 -19 -56.5t-41 -44t-41 -37t-19 -38.5q0 -55 134 -69
l-11 -57q-164 -9 -164 -69q0 -17 33.5 -69.5t33.5 -86.5q0 -126 -333 -206z" />
    <glyph glyph-name="asciitilde" unicode="~" 
d="M375 197q-28 0 -56 22.5t-46.5 49t-40.5 49t-39 22.5q-45 0 -104 -136l-50 22q80 187 167 187q28 0 55.5 -22.5t45.5 -49t39 -49t38 -22.5q45 0 105 136l51 -23q-42 -94 -81.5 -140t-83.5 -46z" />
    <glyph glyph-name="uni00A0" unicode="&#xa0;" 
 />
    <glyph glyph-name="exclamdown" unicode="&#xa1;" 
d="M293 620h108l-23 -110h-108zM270 387h53q-10 -47 -33.5 -224t-31.5 -219h-102q9 38 56.5 216t57.5 227z" />
    <glyph glyph-name="cent" unicode="&#xa2;" 
d="M153 257q0 -87 102 -125l62 270q-164 -25 -164 -145zM423 31q-67 3 -126 14l-28 -130h-71l34 147q-153 54 -153 181q0 82 60.5 147t187.5 86l30 144h71l-31 -137q52 3 106 -1l-14 -76q-53 4 -113 2l-66 -292q52 -10 126 -15z" />
    <glyph glyph-name="sterling" unicode="&#xa3;" 
d="M492 132q-43 -118 -108 -135t-179 23q-34 8 -53 13q-43 -46 -103 -46q-51 0 -59 34q-7 33 31 59q37 27 98 25q21 61 32 153h-80l12 60h75q15 113 45 173q31 60 84 101.5t117 41.5q133 0 128 -189l-76 -4q0 66 -17.5 93t-52.5 27q-71 0 -116 -89q-24 -48 -37 -154h190
l-11 -60h-186q-13 -107 -35 -163q17 -4 46 -10.5t41.5 -9.5t34 -6.5t31.5 -3t26 2t25 8t21 16.5t21.5 24.5t19.5 34.5z" />
    <glyph glyph-name="yen" unicode="&#xa5;" 
d="M460 121h-171l-23 -121h-77l24 121h-174l11 60h175l12 61l-11 33h-157l11 60h126l-96 283l79 4l102 -312l213 310h83l-205 -285h120l-11 -60h-152l-29 -39l-10 -55h173z" />
    <glyph glyph-name="section" unicode="&#xa7;" 
d="M142 252q0 -20 21.5 -39.5t41.5 -30.5t65 -32q144 33 144 82q0 12 -7 23t-23 22.5t-29.5 19.5t-39 22t-38.5 21q-58 -11 -96.5 -33.5t-38.5 -54.5zM414 15q0 -44 -40 -76t-128 -44.5t-228 18.5l17 75q65 -17 117 -24.5t85.5 -6.5t56 8t31.5 18.5t9 25.5q0 26 -41.5 52.5
t-91 47t-91 55t-41.5 75.5q0 49 44 82.5t115 48.5q-66 49 -66 106q0 61 57.5 108t142.5 47q68 1 104 -37.5t46 -115.5l-70 -14q-7 53 -31.5 77.5t-67.5 24.5q-44 0 -72.5 -23.5t-28.5 -56.5q0 -27 25.5 -52t61.5 -44.5t72 -40t61.5 -47.5t25.5 -58q0 -79 -162 -123
q88 -50 88 -106z" />
    <glyph glyph-name="dieresis" unicode="&#xa8;" 
d="M418 573l-81 -1l31 132l90 2zM203 571l-81 -1l32 132l89 1z" />
    <glyph glyph-name="copyright" unicode="&#xa9;" 
d="M316 613q91 0 148 -65.5t57 -180.5q0 -158 -76.5 -259t-192.5 -101q-92 0 -150.5 66.5t-58.5 181.5q0 156 79.5 257t193.5 101zM309 568q-90 0 -153.5 -87t-63.5 -217q0 -99 47 -155.5t120 -56.5q92 0 152.5 87t60.5 218q0 100 -45.5 155.5t-117.5 55.5zM316 481
q76 0 71 -119l-48 -1q2 68 -32 68q-36 0 -61.5 -48t-25.5 -107q0 -114 134 -66l-8 -50q-88 -31 -134 -2t-46 107q0 86 44 152t106 66z" />
    <glyph glyph-name="ordfeminine" unicode="&#xaa;" 
d="M236 304q24 0 57.5 19t62.5 47q31 155 39 193q-43 10 -69 10q-60 0 -102.5 -58t-42.5 -133q0 -37 16 -57.5t39 -20.5zM488 277q-81 -40 -113.5 -27.5t-26.5 68.5q-82 -73 -143 -73q-40 0 -65 31.5t-25 88.5q0 104 67.5 182.5t168.5 78.5q51 0 119 -15l-52 -260
q-9 -41 1 -50t62 6zM89 172h363l-11 -55h-362z" />
    <glyph glyph-name="guillemotleft" unicode="&#xab;" 
d="M176 -12l-131 218l18 81l210 217l51 -49l-216 -212l133 -213zM412 -12l-130 220l20 82l212 213l49 -50l-217 -209l130 -216z" />
    <glyph glyph-name="registered" unicode="&#xae;" 
d="M327 674q97 0 154 -57t57 -156q0 -117 -68 -191.5t-174 -74.5q-97 0 -154 57t-57 156q0 117 68 191.5t174 74.5zM326 633q-85 0 -140.5 -60t-55.5 -159q0 -84 45.5 -131t121.5 -47q85 0 140.5 60t55.5 160q0 83 -45.5 130t-121.5 47zM351 321l-59 87l-19 -3l-16 -81h-46
l44 225q81 11 117.5 -5.5t36.5 -49.5q0 -46 -71 -76l64 -91z" />
    <glyph glyph-name="macron" unicode="&#xaf;" 
d="M449 673l-13 -66h-330l13 66h330z" />
    <glyph glyph-name="degree" unicode="&#xb0;" 
d="M339 675q70 0 114 -45t44 -119q0 -86 -58 -141.5t-136 -55.5q-69 0 -112.5 44.5t-43.5 118.5q0 86 57.5 142t134.5 56zM312 374q51 0 86 36.5t35 94.5q0 48 -28 79t-74 31q-51 0 -85.5 -37t-34.5 -95q0 -48 27.5 -78.5t73.5 -30.5z" />
    <glyph glyph-name="plusminus" unicode="&#xb1;" 
d="M448 62h-415l13 65h170l34 171h-174l14 66h173l35 181h72l-35 -181h173l-13 -66h-173l-34 -171h172z" />
    <glyph glyph-name="two.sup" unicode="&#xb2;" 
d="M428 331h-284l-1 50q139 85 198.5 134t59.5 95q0 82 -190 57l9 56q121 18 185 -8.5t64 -89.5q0 -58 -55 -111.5t-177 -127.5h203z" />
    <glyph glyph-name="three.sup" unicode="&#xb3;" 
d="M449 443q0 -57 -72 -92t-226 -20l7 57q228 -22 228 49q0 53 -167 86l4 27l184 122h-192l11 54h259l-6 -54l-181 -120q151 -35 151 -109z" />
    <glyph glyph-name="acute" unicode="&#xb4;" 
d="M161 593q113 68 216 169l55 -63q-96 -73 -255 -141z" />
    <glyph glyph-name="mu" unicode="&#xb5;" 
d="M94 -170l-77 -6l128 663l78 6l-62 -319q-21 -111 44 -111t158 108l62 319h76l-71 -363q-8 -35 -5 -52t21.5 -16.5t63.5 18.5l9 -40q-110 -60 -147 -41t-22 109q-92 -115 -172 -115q-34 0 -54 17z" />
    <glyph glyph-name="paragraph" unicode="&#xb6;" 
d="M392 164l75 383q-43 5 -88 2l-72 -370q45 -12 85 -15zM151 350q0 -102 105 -152l66 343q-84 -19 -127.5 -70.5t-43.5 -120.5zM252 -108l-68 -8l47 244q-75 30 -115 83.5t-40 124.5q0 136 128 219t345 67l-138 -704l-69 -8l37 187q-46 3 -85 12z" />
    <glyph glyph-name="periodcentered" unicode="&#xb7;" 
d="M326 248h-116l23 116h115z" />
    <glyph glyph-name="cedilla" unicode="&#xb8;" 
d="M146 -147l-42 13q61 149 147 149q54 0 85.5 -48t25.5 -140l-70 -2q8 132 -50 132q-45 0 -96 -104z" />
    <glyph glyph-name="one.sup" unicode="&#xb9;" 
d="M439 331h-295l11 54h123l46 236l-121 -7l8 47l124 16l12 60l64 6l-71 -358h112z" />
    <glyph glyph-name="ordmasculine" unicode="&#xba;" 
d="M489 474q0 -93 -61.5 -161t-149.5 -68q-66 0 -105 41.5t-39 112.5q0 93 61.5 160.5t149.5 67.5q66 0 105 -41t39 -112zM200 407q0 -50 24 -79t66 -29q58 0 96 48.5t38 118.5q0 50 -24.5 79.5t-65.5 29.5q-59 0 -96.5 -49.5t-37.5 -118.5zM92 172h335l-10 -55h-335z" />
    <glyph glyph-name="guillemotright" unicode="&#xbb;" 
d="M297 -12l-50 49l215 213l-133 213l65 41l131 -217l-17 -81zM57 -10l-50 50l218 210l-131 214l65 40l129 -220l-19 -81z" />
    <glyph glyph-name="onequarter" unicode="&#xbc;" 
d="M457 425h-295l11 54h123l46 236l-121 -7l8 47l124 16l12 60l64 6l-71 -358h112zM61 279l11 52h433l-10 -52h-434zM367 -129h-47l-16 -81h-59l16 81h-204l5 43q81 136 124 275l67 -3q-50 -151 -128 -262h146l25 129l60 5l-26 -134h53z" />
    <glyph glyph-name="onehalf" unicode="&#xbd;" 
d="M457 425h-295l11 54h123l46 236l-121 -7l8 47l124 16l12 60l64 6l-71 -358h112zM61 279l11 52h433l-10 -52h-434zM334 -210h-284l-1 50q139 85 198.5 134t59.5 95q0 82 -190 57l9 56q121 18 185 -9t64 -89q0 -58 -55 -111.5t-177 -127.5h203z" />
    <glyph glyph-name="threequarters" unicode="&#xbe;" 
d="M467 537q0 -57 -72 -92t-226 -20l7 57q228 -22 228 49q0 53 -167 86l4 27l184 122h-192l11 54h259l-6 -54l-181 -120q151 -35 151 -109zM61 279l11 52h433l-10 -52h-434zM367 -129h-47l-16 -81h-59l16 81h-204l5 43q81 136 124 275l67 -3q-50 -151 -128 -262h146l25 129
l60 5l-26 -134h53z" />
    <glyph glyph-name="questiondown" unicode="&#xbf;" 
d="M350 620h107l-23 -109h-107zM435 20l-17 -79q-183 20 -270.5 62.5t-87.5 113.5q0 64 69.5 128.5t228.5 144.5l25 -43q-130 -67 -182.5 -112.5t-52.5 -89.5q0 -52 68.5 -80t218.5 -45z" />
    <glyph glyph-name="Agrave" unicode="&#xc0;" 
d="M489 717l-20 -33q-123 65 -220 153l53 62q38 -45 91.5 -97.5t95.5 -84.5zM390 -3q-3 32 -7.5 96t-6.5 96h-211q-58 -126 -86 -189h-82q132 288 300 622h114q35 -331 59 -619zM337 551q-40 -80 -143 -300h177q-13 157 -27 300h-7z" />
    <glyph glyph-name="Aacute" unicode="&#xc1;" 
d="M248 725q113 68 216 169l55 -63q-96 -73 -255 -141zM390 -3q-3 32 -7.5 96t-6.5 96h-211q-58 -126 -86 -189h-82q132 288 300 622h114q35 -331 59 -619zM337 551q-40 -80 -143 -300h177q-13 157 -27 300h-7z" />
    <glyph glyph-name="Acircumflex" unicode="&#xc2;" 
d="M496 690l-101 115l-158 -111l-35 41l205 147h4l139 -150zM390 -3q-3 32 -7.5 96t-6.5 96h-211q-58 -126 -86 -189h-82q132 288 300 622h114q35 -331 59 -619zM337 551q-40 -80 -143 -300h177q-13 157 -27 300h-7z" />
    <glyph glyph-name="Atilde" unicode="&#xc3;" 
d="M459 760q32 0 94 100l40 -24q-79 -136 -150 -136q-23 0 -43 16t-32.5 35t-28 35t-29.5 16q-33 0 -94 -95l-40 23q77 133 150 133q23 0 43 -16t32.5 -35.5t28 -35.5t29.5 -16zM390 -3q-3 32 -7.5 96t-6.5 96h-211q-58 -126 -86 -189h-82q132 288 300 622h114
q35 -331 59 -619zM337 551q-40 -80 -143 -300h177q-13 157 -27 300h-7z" />
    <glyph glyph-name="Adieresis" unicode="&#xc4;" 
d="M510 705l-81 -1l31 132l90 2zM295 703l-81 -1l32 132l89 1zM390 -3q-3 32 -7.5 96t-6.5 96h-211q-58 -126 -86 -189h-82q132 288 300 622h114q35 -331 59 -619zM337 551q-40 -80 -143 -300h177q-13 157 -27 300h-7z" />
    <glyph glyph-name="Aring" unicode="&#xc5;" 
d="M393 889q55 0 90 -28.5t35 -69.5q0 -46 -40 -79t-100 -33q-55 0 -90 28.5t-35 70.5q0 46 40 78.5t100 32.5zM390 -3q-3 32 -7.5 96t-6.5 96h-211q-58 -126 -86 -189h-82q132 288 300 622h114q35 -331 59 -619zM337 551q-40 -80 -143 -300h177q-13 157 -27 300h-7z" />
    <glyph glyph-name="AE" unicode="&#xc6;" 
d="M339 552l-156 -309h105l60 309h-9zM241 0l35 183h-123q-15 -31 -45.5 -92t-46.5 -91h-82q192 367 326 620h294l-13 -68h-166l-41 -210h138l-11 -57h-138l-43 -217h170l-18 -68h-236z" />
    <glyph glyph-name="Ccedilla" unicode="&#xc7;" 
d="M352 -181l-70 -2q8 132 -50 132q-45 0 -96 -104l-42 13q46 113 106 140q-135 42 -135 225q0 162 92 286t220 124q83 0 114 -56t26 -175l-76 -1q2 86 -14 123t-66 37q-89 0 -152 -101t-63 -223q0 -127 80 -163t234 21l-8 -73q-82 -29 -152 -34q59 -46 52 -169z" />
    <glyph glyph-name="Egrave" unicode="&#xc8;" 
d="M500 715l-20 -33q-123 65 -220 153l53 62q38 -45 91.5 -97.5t95.5 -84.5zM443 69l-18 -69h-367l120 620h370l-14 -69h-288l-40 -207h244l-12 -61h-244l-42 -214h291z" />
    <glyph glyph-name="Eacute" unicode="&#xc9;" 
d="M259 723q113 68 216 169l55 -63q-96 -73 -255 -141zM443 69l-18 -69h-367l120 620h370l-14 -69h-288l-40 -207h244l-12 -61h-244l-42 -214h291z" />
    <glyph glyph-name="Ecircumflex" unicode="&#xca;" 
d="M506 688l-101 115l-158 -111l-35 41l205 147h4l139 -150zM443 69l-18 -69h-367l120 620h370l-14 -69h-288l-40 -207h244l-12 -61h-244l-42 -214h291z" />
    <glyph glyph-name="Edieresis" unicode="&#xcb;" 
d="M521 703l-81 -1l31 132l90 2zM306 701l-81 -1l32 132l89 1zM443 69l-18 -69h-367l120 620h370l-14 -69h-288l-40 -207h244l-12 -61h-244l-42 -214h291z" />
    <glyph glyph-name="Igrave" unicode="&#xcc;" 
d="M480 715l-20 -33q-123 65 -220 153l53 62q38 -45 91.5 -97.5t95.5 -84.5zM277 65h150l-15 -65h-376l13 65h147l95 490h-150l13 65h375l-12 -65h-145z" />
    <glyph glyph-name="Iacute" unicode="&#xcd;" 
d="M239 723q113 68 216 169l55 -63q-96 -73 -255 -141zM277 65h150l-15 -65h-376l13 65h147l95 490h-150l13 65h375l-12 -65h-145z" />
    <glyph glyph-name="Icircumflex" unicode="&#xce;" 
d="M486 688l-101 115l-158 -111l-35 41l205 147h4l139 -150zM277 65h150l-15 -65h-376l13 65h147l95 490h-150l13 65h375l-12 -65h-145z" />
    <glyph glyph-name="Idieresis" unicode="&#xcf;" 
d="M501 703l-81 -1l31 132l90 2zM286 701l-81 -1l32 132l89 1zM277 65h150l-15 -65h-376l13 65h147l95 490h-150l13 65h375l-12 -65h-145z" />
    <glyph glyph-name="Eth" unicode="&#xd0;" 
d="M522 384q0 -88 -29 -162.5t-85.5 -130.5t-150.5 -81.5t-214 -9.5l55 285h-70l11 58h71l53 275q175 29 267 -30t92 -204zM308 285h-129l-43 -221q99 -8 169.5 34t103 114t32.5 163q0 205 -209 182l-42 -214h132z" />
    <glyph glyph-name="Ntilde" unicode="&#xd1;" 
d="M462 760q32 0 94 100l40 -24q-79 -136 -150 -136q-23 0 -43 16t-32.5 35t-28 35t-29.5 16q-33 0 -94 -95l-40 23q77 133 150 133q23 0 43 -16t32.5 -35.5t28 -35.5t29.5 -16zM355 0l-142 489h-5l-92 -489h-76l120 619l85 2l136 -480h5l91 479h76l-121 -620h-77z" />
    <glyph glyph-name="Ograve" unicode="&#xd2;" 
d="M494 729l-20 -33q-123 65 -220 153l53 62q38 -45 91.5 -97.5t95.5 -84.5zM350 632q82 0 131 -59.5t49 -173.5q0 -104 -36.5 -198t-104 -153.5t-149.5 -59.5t-131 59t-49 173q0 104 36.5 198.5t104 154t149.5 59.5zM251 58q83 0 139 103.5t56 233.5q0 83 -28.5 125
t-78.5 42q-83 0 -139 -103.5t-56 -233.5q0 -83 28.5 -125t78.5 -42z" />
    <glyph glyph-name="Oacute" unicode="&#xd3;" 
d="M253 737q113 68 216 169l55 -63q-96 -73 -255 -141zM350 632q82 0 131 -59.5t49 -173.5q0 -104 -36.5 -198t-104 -153.5t-149.5 -59.5t-131 59t-49 173q0 104 36.5 198.5t104 154t149.5 59.5zM251 58q83 0 139 103.5t56 233.5q0 83 -28.5 125t-78.5 42q-83 0 -139 -103.5
t-56 -233.5q0 -83 28.5 -125t78.5 -42z" />
    <glyph glyph-name="Ocircumflex" unicode="&#xd4;" 
d="M500 702l-101 115l-158 -111l-35 41l205 147h4l139 -150zM350 632q82 0 131 -59.5t49 -173.5q0 -104 -36.5 -198t-104 -153.5t-149.5 -59.5t-131 59t-49 173q0 104 36.5 198.5t104 154t149.5 59.5zM251 58q83 0 139 103.5t56 233.5q0 83 -28.5 125t-78.5 42
q-83 0 -139 -103.5t-56 -233.5q0 -83 28.5 -125t78.5 -42z" />
    <glyph glyph-name="Otilde" unicode="&#xd5;" 
d="M463 772q32 0 94 100l40 -24q-79 -136 -150 -136q-23 0 -43 16t-32.5 35t-28 35t-29.5 16q-33 0 -94 -95l-40 23q77 133 150 133q23 0 43 -16t32.5 -35.5t28 -35.5t29.5 -16zM350 632q82 0 131 -59.5t49 -173.5q0 -104 -36.5 -198t-104 -153.5t-149.5 -59.5t-131 59
t-49 173q0 104 36.5 198.5t104 154t149.5 59.5zM251 58q83 0 139 103.5t56 233.5q0 83 -28.5 125t-78.5 42q-83 0 -139 -103.5t-56 -233.5q0 -83 28.5 -125t78.5 -42z" />
    <glyph glyph-name="Odieresis" unicode="&#xd6;" 
d="M515 717l-81 -1l31 132l90 2zM300 715l-81 -1l32 132l89 1zM350 632q82 0 131 -59.5t49 -173.5q0 -104 -36.5 -198t-104 -153.5t-149.5 -59.5t-131 59t-49 173q0 104 36.5 198.5t104 154t149.5 59.5zM251 58q83 0 139 103.5t56 233.5q0 83 -28.5 125t-78.5 42
q-83 0 -139 -103.5t-56 -233.5q0 -83 28.5 -125t78.5 -42z" />
    <glyph glyph-name="multiply" unicode="&#xd7;" 
d="M398 92l-120 149l-172 -143l-44 54l172 143l-121 151l57 48l121 -151l172 143l43 -55l-171 -142l120 -150z" />
    <glyph glyph-name="Oslash" unicode="&#xd8;" 
d="M145 231q0 -44 7 -73l266 359q-28 47 -83 47q-81 0 -135.5 -101.5t-54.5 -231.5zM255 56q54 0 98.5 49t68 125t23.5 160q0 44 -7 75l-267 -361q29 -48 84 -48zM243 -13q-73 0 -119 46l-52 -70l-48 32l66 88q-28 58 -28 145q0 104 36 196.5t102.5 150.5t146.5 58
q73 0 119 -46l52 70l47 -32l-65 -86q28 -59 28 -147q0 -103 -36 -195.5t-102 -151t-147 -58.5z" />
    <glyph glyph-name="Ugrave" unicode="&#xd9;" 
d="M490 715l-20 -33q-123 65 -220 153l53 62q38 -45 91.5 -97.5t95.5 -84.5zM160 221q-33 -164 93 -164q109 0 137 143l82 420h81l-82 -418q-21 -108 -79 -162t-148 -54q-99 0 -143.5 59t-22.5 175l78 400h81z" />
    <glyph glyph-name="Uacute" unicode="&#xda;" 
d="M249 723q113 68 216 169l55 -63q-96 -73 -255 -141zM160 221q-33 -164 93 -164q109 0 137 143l82 420h81l-82 -418q-21 -108 -79 -162t-148 -54q-99 0 -143.5 59t-22.5 175l78 400h81z" />
    <glyph glyph-name="Ucircumflex" unicode="&#xdb;" 
d="M496 688l-101 115l-158 -111l-35 41l205 147h4l139 -150zM160 221q-33 -164 93 -164q109 0 137 143l82 420h81l-82 -418q-21 -108 -79 -162t-148 -54q-99 0 -143.5 59t-22.5 175l78 400h81z" />
    <glyph glyph-name="Udieresis" unicode="&#xdc;" 
d="M511 703l-81 -1l31 132l90 2zM296 701l-81 -1l32 132l89 1zM160 221q-33 -164 93 -164q109 0 137 143l82 420h81l-82 -418q-21 -108 -79 -162t-148 -54q-99 0 -143.5 59t-22.5 175l78 400h81z" />
    <glyph glyph-name="Yacute" unicode="&#xdd;" 
d="M244 725q113 68 216 169l55 -63q-96 -73 -255 -141zM269 0h-81l40 209l-123 409l83 4l97 -336l222 334h87l-286 -417z" />
    <glyph glyph-name="Thorn" unicode="&#xde;" 
d="M133 0h-81l121 620h81l-18 -94q145 6 215.5 -40t70.5 -128q0 -106 -97.5 -174t-272.5 -84zM442 345q0 61 -55.5 91.5t-164.5 18.5l-55 -281q132 -1 203.5 45.5t71.5 125.5z" />
    <glyph glyph-name="germandbls" unicode="&#xdf;" 
d="M205 -7l9 73q202 -22 202 61q0 73 -151 197q90 87 126.5 139t36.5 98q0 33 -19 53.5t-55 20.5q-50 0 -85.5 -43.5t-51.5 -125.5l-91 -466h-78l90 461q22 112 85.5 176t152.5 64q64 0 97.5 -34t33.5 -87q0 -102 -149 -240q136 -115 136 -202q0 -69 -69.5 -111t-219.5 -34z
" />
    <glyph glyph-name="agrave" unicode="&#xe0;" 
d="M481 595l-20 -33q-123 65 -220 153l53 62q38 -45 91.5 -97.5t95.5 -84.5zM193 63q30 0 73.5 26t81.5 64q16 82 52 264q-52 16 -94 16q-72 0 -124.5 -83.5t-52.5 -188.5q0 -49 17.5 -73.5t46.5 -24.5zM513 37q-71 -42 -112 -45.5t-54 23t-7 80.5q-107 -105 -186 -105
q-47 0 -75.5 39t-28.5 114q0 142 84.5 249.5t213.5 107.5q64 0 140 -21l-69 -352q-11 -54 2.5 -64t83.5 14z" />
    <glyph glyph-name="aacute" unicode="&#xe1;" 
d="M240 603q113 68 216 169l55 -63q-96 -73 -255 -141zM193 63q30 0 73.5 26t81.5 64q16 82 52 264q-52 16 -94 16q-72 0 -124.5 -83.5t-52.5 -188.5q0 -49 17.5 -73.5t46.5 -24.5zM513 37q-71 -42 -112 -45.5t-54 23t-7 80.5q-107 -105 -186 -105q-47 0 -75.5 39t-28.5 114
q0 142 84.5 249.5t213.5 107.5q64 0 140 -21l-69 -352q-11 -54 2.5 -64t83.5 14z" />
    <glyph glyph-name="acircumflex" unicode="&#xe2;" 
d="M487 568l-101 115l-158 -111l-35 41l205 147h4l139 -150zM193 63q30 0 73.5 26t81.5 64q16 82 52 264q-52 16 -94 16q-72 0 -124.5 -83.5t-52.5 -188.5q0 -49 17.5 -73.5t46.5 -24.5zM513 37q-71 -42 -112 -45.5t-54 23t-7 80.5q-107 -105 -186 -105q-47 0 -75.5 39
t-28.5 114q0 142 84.5 249.5t213.5 107.5q64 0 140 -21l-69 -352q-11 -54 2.5 -64t83.5 14z" />
    <glyph glyph-name="atilde" unicode="&#xe3;" 
d="M451 638q32 0 94 100l40 -24q-79 -136 -150 -136q-23 0 -43 16t-32.5 35t-28 35t-29.5 16q-33 0 -94 -95l-40 23q77 133 150 133q23 0 43 -16t32.5 -35.5t28 -35.5t29.5 -16zM193 63q30 0 73.5 26t81.5 64q16 82 52 264q-52 16 -94 16q-72 0 -124.5 -83.5t-52.5 -188.5
q0 -49 17.5 -73.5t46.5 -24.5zM513 37q-71 -42 -112 -45.5t-54 23t-7 80.5q-107 -105 -186 -105q-47 0 -75.5 39t-28.5 114q0 142 84.5 249.5t213.5 107.5q64 0 140 -21l-69 -352q-11 -54 2.5 -64t83.5 14z" />
    <glyph glyph-name="adieresis" unicode="&#xe4;" 
d="M502 583l-81 -1l31 132l90 2zM287 581l-81 -1l32 132l89 1zM193 63q30 0 73.5 26t81.5 64q16 82 52 264q-52 16 -94 16q-72 0 -124.5 -83.5t-52.5 -188.5q0 -49 17.5 -73.5t46.5 -24.5zM513 37q-71 -42 -112 -45.5t-54 23t-7 80.5q-107 -105 -186 -105q-47 0 -75.5 39
t-28.5 114q0 142 84.5 249.5t213.5 107.5q64 0 140 -21l-69 -352q-11 -54 2.5 -64t83.5 14z" />
    <glyph glyph-name="aring" unicode="&#xe5;" 
d="M384 767q55 0 90 -28.5t35 -69.5q0 -46 -40 -79t-100 -33q-55 0 -90 28.5t-35 70.5q0 46 40 78.5t100 32.5zM193 63q30 0 73.5 26t81.5 64q16 82 52 264q-52 16 -94 16q-72 0 -124.5 -83.5t-52.5 -188.5q0 -49 17.5 -73.5t46.5 -24.5zM513 37q-71 -42 -112 -45.5t-54 23
t-7 80.5q-107 -105 -186 -105q-47 0 -75.5 39t-28.5 114q0 142 84.5 249.5t213.5 107.5q64 0 140 -21l-69 -352q-11 -54 2.5 -64t83.5 14z" />
    <glyph glyph-name="ae" unicode="&#xe6;" 
d="M445 434q-39 0 -73 -60t-48 -142q75 13 117 59t42 96q0 47 -38 47zM147 64q37 0 96 78q0 151 77 264q-36 27 -72 27q-55 0 -95.5 -92.5t-40.5 -198.5q0 -78 35 -78zM514 57q-76 -50 -133.5 -60.5t-89 13t-42.5 72.5q-73 -89 -139 -89q-77 0 -77 130q0 92 30 177.5
t84 140.5t117 55q54 0 107 -34q45 37 94 37q43 0 67 -26.5t24 -71.5q0 -79 -61.5 -138.5t-176.5 -75.5q-1 -11 -1 -33q0 -76 41 -90.5t148 34.5z" />
    <glyph glyph-name="ccedilla" unicode="&#xe7;" 
d="M349 -184l-70 -2q8 132 -50 132q-45 0 -96 -104l-42 13q48 115 107 140q-62 15 -95 63t-33 118q0 129 88 227t206 98q70 0 101.5 -39.5t27.5 -127.5h-72q-1 55 -19 77.5t-58 22.5q-80 0 -138 -73.5t-58 -171.5q0 -97 72 -122.5t229 22.5l10 -42q-92 -45 -172 -55
q71 -41 62 -176z" />
    <glyph glyph-name="egrave" unicode="&#xe8;" 
d="M474 597l-20 -33q-123 65 -220 153l53 62q38 -45 91.5 -97.5t95.5 -84.5zM470 56q-96 -49 -175 -61.5t-129 8t-77 65t-27 106.5q0 78 38 153t107.5 125t150.5 50q64 0 101.5 -31.5t37.5 -85.5q0 -85 -92.5 -136t-266.5 -64v-1q0 -98 76 -120t246 33zM339 437
q-76 0 -129.5 -61.5t-67.5 -144.5q132 9 206 44t74 95q0 30 -22.5 48.5t-60.5 18.5z" />
    <glyph glyph-name="eacute" unicode="&#xe9;" 
d="M233 605q113 68 216 169l55 -63q-96 -73 -255 -141zM470 56q-96 -49 -175 -61.5t-129 8t-77 65t-27 106.5q0 78 38 153t107.5 125t150.5 50q64 0 101.5 -31.5t37.5 -85.5q0 -85 -92.5 -136t-266.5 -64v-1q0 -98 76 -120t246 33zM339 437q-76 0 -129.5 -61.5t-67.5 -144.5
q132 9 206 44t74 95q0 30 -22.5 48.5t-60.5 18.5z" />
    <glyph glyph-name="ecircumflex" unicode="&#xea;" 
d="M481 570l-101 115l-158 -111l-35 41l205 147h4l139 -150zM470 56q-96 -49 -175 -61.5t-129 8t-77 65t-27 106.5q0 78 38 153t107.5 125t150.5 50q64 0 101.5 -31.5t37.5 -85.5q0 -85 -92.5 -136t-266.5 -64v-1q0 -98 76 -120t246 33zM339 437q-76 0 -129.5 -61.5
t-67.5 -144.5q132 9 206 44t74 95q0 30 -22.5 48.5t-60.5 18.5z" />
    <glyph glyph-name="edieresis" unicode="&#xeb;" 
d="M495 585l-81 -1l31 132l90 2zM280 583l-81 -1l32 132l89 1zM470 56q-96 -49 -175 -61.5t-129 8t-77 65t-27 106.5q0 78 38 153t107.5 125t150.5 50q64 0 101.5 -31.5t37.5 -85.5q0 -85 -92.5 -136t-266.5 -64v-1q0 -98 76 -120t246 33zM339 437q-76 0 -129.5 -61.5
t-67.5 -144.5q132 9 206 44t74 95q0 30 -22.5 48.5t-60.5 18.5z" />
    <glyph glyph-name="igrave" unicode="&#xec;" 
d="M449 586l-20 -33q-123 65 -220 153l53 62q38 -45 91.5 -97.5t95.5 -84.5zM473 44q-121 -49 -193.5 -53t-95.5 32t-4 109l76 289l-177 -24l-5 42l206 51l69 -1l-90 -344q-7 -33 -6 -54t24 -28t66.5 -1t120.5 25z" />
    <glyph glyph-name="iacute" unicode="&#xed;" 
d="M208 594q113 68 216 169l55 -63q-96 -73 -255 -141zM473 44q-121 -49 -193.5 -53t-95.5 32t-4 109l76 289l-177 -24l-5 42l206 51l69 -1l-90 -344q-7 -33 -6 -54t24 -28t66.5 -1t120.5 25z" />
    <glyph glyph-name="icircumflex" unicode="&#xee;" 
d="M456 559l-101 115l-158 -111l-35 41l205 147h4l139 -150zM473 44q-121 -49 -193.5 -53t-95.5 32t-4 109l76 289l-177 -24l-5 42l206 51l69 -1l-90 -344q-7 -33 -6 -54t24 -28t66.5 -1t120.5 25z" />
    <glyph glyph-name="idieresis" unicode="&#xef;" 
d="M470 574l-81 -1l31 132l90 2zM255 572l-81 -1l32 132l89 1zM473 44q-121 -49 -193.5 -53t-95.5 32t-4 109l76 289l-177 -24l-5 42l206 51l69 -1l-90 -344q-7 -33 -6 -54t24 -28t66.5 -1t120.5 25z" />
    <glyph glyph-name="eth" unicode="&#xf0;" 
d="M242 -12q-85 0 -136 53.5t-51 140.5q0 114 75 195.5t187 81.5q39 0 78 -10q-21 53 -59 101l-149 -41l-14 48l127 35q-34 37 -84 76l59 44q61 -49 103 -98l117 33l12 -49l-95 -26q88 -121 88 -261q0 -146 -72 -234.5t-186 -88.5zM257 52q75 0 120.5 70t45.5 178
q0 31 -5 68q-67 27 -122 27q-69 0 -115.5 -58.5t-46.5 -137.5q0 -66 34 -106.5t89 -40.5z" />
    <glyph glyph-name="ntilde" unicode="&#xf1;" 
d="M426 639q32 0 94 100l40 -24q-79 -136 -150 -136q-23 0 -43 16t-32.5 35t-28 35t-29.5 16q-33 0 -94 -95l-40 23q77 133 150 133q23 0 43 -16t32.5 -35.5t28 -35.5t29.5 -16zM514 36q-58 -36 -99 -44t-59.5 8t-18.5 50q0 38 32.5 159t32.5 162q0 57 -50 57
q-68 0 -164 -98q-14 -77 -65 -330h-76q70 361 89 488l76 5q-6 -32 -15 -103q106 111 202 111q86 0 86 -93q0 -55 -33.5 -179t-33.5 -147q0 -15 6 -20t25 -2t54 17z" />
    <glyph glyph-name="ograve" unicode="&#xf2;" 
d="M461 597l-20 -33q-123 65 -220 153l53 62q38 -45 91.5 -97.5t95.5 -84.5zM54 188q0 130 76 222t187 92q82 0 131 -52.5t49 -147.5q0 -131 -76.5 -222t-187.5 -91q-83 0 -131 52t-48 147zM417 291q0 69 -29.5 107.5t-83.5 38.5q-75 0 -123 -70.5t-48 -167.5
q0 -69 29.5 -107t83.5 -38q74 0 122.5 69.5t48.5 167.5z" />
    <glyph glyph-name="oacute" unicode="&#xf3;" 
d="M220 605q113 68 216 169l55 -63q-96 -73 -255 -141zM54 188q0 130 76 222t187 92q82 0 131 -52.5t49 -147.5q0 -131 -76.5 -222t-187.5 -91q-83 0 -131 52t-48 147zM417 291q0 69 -29.5 107.5t-83.5 38.5q-75 0 -123 -70.5t-48 -167.5q0 -69 29.5 -107t83.5 -38
q74 0 122.5 69.5t48.5 167.5z" />
    <glyph glyph-name="ocircumflex" unicode="&#xf4;" 
d="M467 570l-101 115l-158 -111l-35 41l205 147h4l139 -150zM54 188q0 130 76 222t187 92q82 0 131 -52.5t49 -147.5q0 -131 -76.5 -222t-187.5 -91q-83 0 -131 52t-48 147zM417 291q0 69 -29.5 107.5t-83.5 38.5q-75 0 -123 -70.5t-48 -167.5q0 -69 29.5 -107t83.5 -38
q74 0 122.5 69.5t48.5 167.5z" />
    <glyph glyph-name="otilde" unicode="&#xf5;" 
d="M431 640q32 0 94 100l40 -24q-79 -136 -150 -136q-23 0 -43 16t-32.5 35t-28 35t-29.5 16q-33 0 -94 -95l-40 23q77 133 150 133q23 0 43 -16t32.5 -35.5t28 -35.5t29.5 -16zM54 188q0 130 76 222t187 92q82 0 131 -52.5t49 -147.5q0 -131 -76.5 -222t-187.5 -91
q-83 0 -131 52t-48 147zM417 291q0 69 -29.5 107.5t-83.5 38.5q-75 0 -123 -70.5t-48 -167.5q0 -69 29.5 -107t83.5 -38q74 0 122.5 69.5t48.5 167.5z" />
    <glyph glyph-name="odieresis" unicode="&#xf6;" 
d="M482 585l-81 -1l31 132l90 2zM267 583l-81 -1l32 132l89 1zM54 188q0 130 76 222t187 92q82 0 131 -52.5t49 -147.5q0 -131 -76.5 -222t-187.5 -91q-83 0 -131 52t-48 147zM417 291q0 69 -29.5 107.5t-83.5 38.5q-75 0 -123 -70.5t-48 -167.5q0 -69 29.5 -107t83.5 -38
q74 0 122.5 69.5t48.5 167.5z" />
    <glyph glyph-name="divide" unicode="&#xf7;" 
d="M354 427h-90l19 93h90zM509 326l-14 -67h-434l13 67h435zM286 66h-90l19 93h89z" />
    <glyph glyph-name="oslash" unicode="&#xf8;" 
d="M132 199q0 -40 10 -69l243 273q-30 35 -81 35q-75 0 -123.5 -70.5t-48.5 -168.5zM246 53q74 0 123 70t49 169q0 36 -9 65l-241 -272q29 -32 78 -32zM233 -11q-69 0 -115 37l-55 -61l-45 34l64 69q-28 50 -28 120q0 130 76 222t187 92q71 0 118 -39l54 60l45 -34l-64 -70
q27 -47 27 -117q0 -131 -76.5 -222t-187.5 -91z" />
    <glyph glyph-name="ugrave" unicode="&#xf9;" 
d="M472 588l-20 -33q-123 65 -220 153l53 62q38 -45 91.5 -97.5t95.5 -84.5zM519 37q-109 -60 -146 -41.5t-23 108.5q-100 -115 -184 -115q-57 0 -79.5 46.5t-1.5 137.5l37 166l-43 26l75 123l78 5l-70 -312q-26 -118 43 -118q65 0 158 108l62 319h76l-71 -363
q-8 -35 -5 -52t21.5 -16.5t63.5 18.5z" />
    <glyph glyph-name="uacute" unicode="&#xfa;" 
d="M231 596q113 68 216 169l55 -63q-96 -73 -255 -141zM519 37q-109 -60 -146 -41.5t-23 108.5q-100 -115 -184 -115q-57 0 -79.5 46.5t-1.5 137.5l37 166l-43 26l75 123l78 5l-70 -312q-26 -118 43 -118q65 0 158 108l62 319h76l-71 -363q-8 -35 -5 -52t21.5 -16.5
t63.5 18.5z" />
    <glyph glyph-name="ucircumflex" unicode="&#xfb;" 
d="M479 561l-101 115l-158 -111l-35 41l205 147h4l139 -150zM519 37q-109 -60 -146 -41.5t-23 108.5q-100 -115 -184 -115q-57 0 -79.5 46.5t-1.5 137.5l37 166l-43 26l75 123l78 5l-70 -312q-26 -118 43 -118q65 0 158 108l62 319h76l-71 -363q-8 -35 -5 -52t21.5 -16.5
t63.5 18.5z" />
    <glyph glyph-name="udieresis" unicode="&#xfc;" 
d="M493 576l-81 -1l31 132l90 2zM278 574l-81 -1l32 132l89 1zM519 37q-109 -60 -146 -41.5t-23 108.5q-100 -115 -184 -115q-57 0 -79.5 46.5t-1.5 137.5l37 166l-43 26l75 123l78 5l-70 -312q-26 -118 43 -118q65 0 158 108l62 319h76l-71 -363q-8 -35 -5 -52t21.5 -16.5
t63.5 18.5z" />
    <glyph glyph-name="yacute" unicode="&#xfd;" 
d="M228 602q113 68 216 169l55 -63q-96 -73 -255 -141zM419 -82q-53 -105 -365 -89l11 78q242 -21 287 22q7 7 10.5 19.5t4 34t0 40.5t-2 54.5t-1.5 60.5q-45 -49 -98 -80t-102 -31q-183 0 -10 462l76 2q-34 -95 -53.5 -166.5t-24.5 -114t1 -68.5t18.5 -35t32.5 -9
q32 0 76 27.5t85 73.5q6 98 41.5 199t59.5 101q18 0 36 -7.5t18 -18.5q0 -31 -26.5 -115.5t-61.5 -153.5q-1 -9 -1 -28q0 -32 2 -79.5t3 -74t-3 -56t-13 -48.5z" />
    <glyph glyph-name="thorn" unicode="&#xfe;" 
d="M241 55q74 0 127 80.5t53 182.5q0 54 -19.5 82t-50.5 28q-32 0 -75.5 -26t-81.5 -64l-52 -266q60 -17 99 -17zM95 -170l-77 -6l170 873l77 6l-59 -302q105 101 182 101q49 0 79.5 -42.5t30.5 -121.5q0 -140 -84 -244.5t-212 -104.5q-36 0 -75 7z" />
    <glyph glyph-name="ydieresis" unicode="&#xff;" 
d="M490 582l-81 -1l31 132l90 2zM275 580l-81 -1l32 132l89 1zM419 -82q-53 -105 -365 -89l11 78q242 -21 287 22q7 7 10.5 19.5t4 34t0 40.5t-2 54.5t-1.5 60.5q-45 -49 -98 -80t-102 -31q-183 0 -10 462l76 2q-34 -95 -53.5 -166.5t-24.5 -114t1 -68.5t18.5 -35t32.5 -9
q32 0 76 27.5t85 73.5q6 98 41.5 199t59.5 101q18 0 36 -7.5t18 -18.5q0 -31 -26.5 -115.5t-61.5 -153.5q-1 -9 -1 -28q0 -32 2 -79.5t3 -74t-3 -56t-13 -48.5z" />
    <glyph glyph-name="Amacron" unicode="&#x100;" 
d="M555 805l-13 -66h-330l13 66h330zM390 -3q-3 32 -7.5 96t-6.5 96h-211q-58 -126 -86 -189h-82q132 288 300 622h114q35 -331 59 -619zM337 551q-40 -80 -143 -300h177q-13 157 -27 300h-7z" />
    <glyph glyph-name="amacron" unicode="&#x101;" 
d="M546 683l-13 -66h-330l13 66h330zM193 63q30 0 73.5 26t81.5 64q16 82 52 264q-52 16 -94 16q-72 0 -124.5 -83.5t-52.5 -188.5q0 -49 17.5 -73.5t46.5 -24.5zM513 37q-71 -42 -112 -45.5t-54 23t-7 80.5q-107 -105 -186 -105q-47 0 -75.5 39t-28.5 114q0 142 84.5 249.5
t213.5 107.5q64 0 140 -21l-69 -352q-11 -54 2.5 -64t83.5 14z" />
    <glyph glyph-name="Abreve" unicode="&#x102;" 
d="M537 869l45 -28q-109 -144 -212 -144t-159 146l60 31q26 -62 52 -88t63 -26t71 26.5t80 82.5zM390 -3q-3 32 -7.5 96t-6.5 96h-211q-58 -126 -86 -189h-82q132 288 300 622h114q35 -331 59 -619zM337 551q-40 -80 -143 -300h177q-13 157 -27 300h-7z" />
    <glyph glyph-name="abreve" unicode="&#x103;" 
d="M529 747l45 -28q-109 -144 -212 -144t-159 146l60 31q26 -62 52 -88t63 -26t71 26.5t80 82.5zM193 63q30 0 73.5 26t81.5 64q16 82 52 264q-52 16 -94 16q-72 0 -124.5 -83.5t-52.5 -188.5q0 -49 17.5 -73.5t46.5 -24.5zM513 37q-71 -42 -112 -45.5t-54 23t-7 80.5
q-107 -105 -186 -105q-47 0 -75.5 39t-28.5 114q0 142 84.5 249.5t213.5 107.5q64 0 140 -21l-69 -352q-11 -54 2.5 -64t83.5 14z" />
    <glyph glyph-name="Aogonek" unicode="&#x104;" 
d="M440 -167q-53 -27 -97.5 -36.5t-72 -2.5t-42.5 24t-15 41q-1 37 42.5 77t133.5 77q-2 29 -6.5 88t-6.5 88h-211q-58 -126 -86 -189h-82q132 288 300 622h114q35 -331 59 -619q-184 -60 -184 -122q0 -17 14 -26t47.5 -6.5t82.5 21.5zM337 551q-40 -80 -143 -300h177
q-13 157 -27 300h-7z" />
    <glyph glyph-name="aogonek" unicode="&#x105;" 
d="M473 -167q-53 -27 -97.5 -36t-72 -1.5t-42.5 24t-15 39.5q0 72 125 145q-40 14 -31 91q-107 -105 -186 -105q-47 0 -75.5 39t-28.5 114q0 142 84.5 249.5t213.5 107.5q64 0 140 -21l-69 -352q-11 -54 2.5 -64t83.5 14l8 -40q-194 -88 -194 -155q0 -18 14 -27t47.5 -6
t83.5 22zM193 63q30 0 73.5 26t81.5 64q16 82 52 264q-52 16 -94 16q-72 0 -124.5 -83.5t-52.5 -188.5q0 -49 17.5 -73.5t46.5 -24.5z" />
    <glyph glyph-name="Cacute" unicode="&#x106;" 
d="M255 736q113 68 216 169l55 -63q-96 -73 -255 -141zM377 633q83 0 114 -56t26 -175l-76 -1q2 86 -14 123t-66 37q-89 0 -152 -101t-63 -223q0 -127 80 -163t234 21l-8 -73q-183 -64 -285 -10.5t-102 211.5q0 162 92 286t220 124z" />
    <glyph glyph-name="cacute" unicode="&#x107;" 
d="M236 604q113 68 216 169l55 -63q-96 -73 -255 -141zM493 334h-72q-1 55 -19 77.5t-58 22.5q-80 0 -138 -73.5t-58 -171.5q0 -97 72 -122.5t229 22.5l10 -42q-127 -61 -213.5 -57.5t-131 53t-44.5 133.5q0 129 88 227t206 98q70 0 101.5 -39.5t27.5 -127.5z" />
    <glyph glyph-name="Cdotaccent" unicode="&#x10a;" 
d="M409 715l-82 -1l32 132l91 1zM377 633q83 0 114 -56t26 -175l-76 -1q2 86 -14 123t-66 37q-89 0 -152 -101t-63 -223q0 -127 80 -163t234 21l-8 -73q-183 -64 -285 -10.5t-102 211.5q0 162 92 286t220 124z" />
    <glyph glyph-name="cdotaccent" unicode="&#x10b;" 
d="M390 583l-82 -1l32 132l91 1zM493 334h-72q-1 55 -19 77.5t-58 22.5q-80 0 -138 -73.5t-58 -171.5q0 -97 72 -122.5t229 22.5l10 -42q-127 -61 -213.5 -57.5t-131 53t-44.5 133.5q0 129 88 227t206 98q70 0 101.5 -39.5t27.5 -127.5z" />
    <glyph glyph-name="Ccaron" unicode="&#x10c;" 
d="M371 698h-4l-140 150l54 42l102 -116l157 112l36 -42zM377 633q83 0 114 -56t26 -175l-76 -1q2 86 -14 123t-66 37q-89 0 -152 -101t-63 -223q0 -127 80 -163t234 21l-8 -73q-183 -64 -285 -10.5t-102 211.5q0 162 92 286t220 124z" />
    <glyph glyph-name="ccaron" unicode="&#x10d;" 
d="M352 566h-4l-140 150l54 42l102 -116l157 112l36 -42zM493 334h-72q-1 55 -19 77.5t-58 22.5q-80 0 -138 -73.5t-58 -171.5q0 -97 72 -122.5t229 22.5l10 -42q-127 -61 -213.5 -57.5t-131 53t-44.5 133.5q0 129 88 227t206 98q70 0 101.5 -39.5t27.5 -127.5z" />
    <glyph glyph-name="Dcaron" unicode="&#x10e;" 
d="M372 693h-4l-140 150l54 42l102 -116l157 112l36 -42zM522 384q0 -88 -29 -162.5t-85.5 -130.5t-150.5 -81.5t-214 -9.5l120 618q175 29 267 -30t92 -204zM441 375q0 205 -209 182l-96 -493q99 -8 169.5 34t103 114t32.5 163z" />
    <glyph glyph-name="dcaron" unicode="&#x10f;" 
d="M627 798l90 5q-8 -138 -108 -254l-34 15q36 62 46 115t6 119zM197 63q32 0 73.5 24.5t77.5 61.5l53 270q-59 17 -97 17q-71 0 -123.5 -81.5t-52.5 -182.5q0 -53 19 -81t50 -28zM517 38q-71 -41 -112.5 -45.5t-55.5 20.5t-9 77q-44 -44 -92.5 -72t-88.5 -28q-49 0 -79 42
t-30 120q0 90 36.5 169.5t104.5 129.5t152 50q33 0 73 -6l39 202l78 6l-112 -574q-9 -36 -5 -53.5t24 -17t68 18.5z" />
    <glyph glyph-name="Dcroat" unicode="&#x110;" 
d="M522 384q0 -88 -29 -162.5t-85.5 -130.5t-150.5 -81.5t-214 -9.5l55 285h-70l11 58h71l53 275q175 29 267 -30t92 -204zM308 285h-129l-43 -221q99 -8 169.5 34t103 114t32.5 163q0 205 -209 182l-42 -214h132z" />
    <glyph glyph-name="dcroat" unicode="&#x111;" 
d="M197 63q32 0 73.5 24.5t77.5 61.5l53 270q-59 17 -97 17q-71 0 -123.5 -81.5t-52.5 -182.5q0 -53 19 -81t50 -28zM517 38q-71 -41 -112.5 -45.5t-55.5 20.5t-9 77q-44 -44 -92.5 -72t-88.5 -28q-49 0 -79 42t-30 120q0 90 36.5 169.5t104.5 129.5t152 50q33 0 73 -6
l16 84h-136l11 52h135l13 66l78 6l-14 -72h69l-10 -53h-69l-88 -449q-9 -36 -5 -53.5t24 -17t68 18.5z" />
    <glyph glyph-name="Emacron" unicode="&#x112;" 
d="M565 803l-13 -66h-330l13 66h330zM443 69l-18 -69h-367l120 620h370l-14 -69h-288l-40 -207h244l-12 -61h-244l-42 -214h291z" />
    <glyph glyph-name="emacron" unicode="&#x113;" 
d="M540 685l-13 -66h-330l13 66h330zM470 56q-96 -49 -175 -61.5t-129 8t-77 65t-27 106.5q0 78 38 153t107.5 125t150.5 50q64 0 101.5 -31.5t37.5 -85.5q0 -85 -92.5 -136t-266.5 -64v-1q0 -98 76 -120t246 33zM339 437q-76 0 -129.5 -61.5t-67.5 -144.5q132 9 206 44
t74 95q0 30 -22.5 48.5t-60.5 18.5z" />
    <glyph glyph-name="Ebreve" unicode="&#x114;" 
d="M548 867l45 -28q-109 -144 -212 -144t-159 146l60 31q26 -62 52 -88t63 -26t71 26.5t80 82.5zM443 69l-18 -69h-367l120 620h370l-14 -69h-288l-40 -207h244l-12 -61h-244l-42 -214h291z" />
    <glyph glyph-name="ebreve" unicode="&#x115;" 
d="M522 749l45 -28q-109 -144 -212 -144t-159 146l60 31q26 -62 52 -88t63 -26t71 26.5t80 82.5zM470 56q-96 -49 -175 -61.5t-129 8t-77 65t-27 106.5q0 78 38 153t107.5 125t150.5 50q64 0 101.5 -31.5t37.5 -85.5q0 -85 -92.5 -136t-266.5 -64v-1q0 -98 76 -120t246 33z
M339 437q-76 0 -129.5 -61.5t-67.5 -144.5q132 9 206 44t74 95q0 30 -22.5 48.5t-60.5 18.5z" />
    <glyph glyph-name="Edotaccent" unicode="&#x116;" 
d="M413 702l-82 -1l32 132l91 1zM443 69l-18 -69h-367l120 620h370l-14 -69h-288l-40 -207h244l-12 -61h-244l-42 -214h291z" />
    <glyph glyph-name="edotaccent" unicode="&#x117;" 
d="M388 584l-82 -1l32 132l91 1zM470 56q-96 -49 -175 -61.5t-129 8t-77 65t-27 106.5q0 78 38 153t107.5 125t150.5 50q64 0 101.5 -31.5t37.5 -85.5q0 -85 -92.5 -136t-266.5 -64v-1q0 -98 76 -120t246 33zM339 437q-76 0 -129.5 -61.5t-67.5 -144.5q132 9 206 44t74 95
q0 30 -22.5 48.5t-60.5 18.5z" />
    <glyph glyph-name="Eogonek" unicode="&#x118;" 
d="M395 -168q-70 -36 -124 -40t-79 15t-25 51q0 74 153 142h-262l120 620h370l-14 -69h-288l-40 -207h244l-12 -61h-244l-42 -214h291l-18 -69q-185 -60 -185 -119q0 -18 14 -27t48 -6.5t83 21.5z" />
    <glyph glyph-name="eogonek" unicode="&#x119;" 
d="M401 -167q-53 -27 -97.5 -36.5t-72 -2t-42.5 24t-15 40.5q0 69 106 133q-104 -13 -161 38t-57 144q0 78 38 153t107.5 125t150.5 50q64 0 101.5 -31.5t37.5 -85.5q0 -85 -92.5 -136t-266.5 -64v-1q0 -98 76 -120t246 33l10 -41q-224 -101 -224 -175q0 -17 14 -26t48 -6.5
t83 21.5zM339 437q-76 0 -129.5 -61.5t-67.5 -144.5q132 9 206 44t74 95q0 30 -22.5 48.5t-60.5 18.5z" />
    <glyph glyph-name="Ecaron" unicode="&#x11a;" 
d="M375 685h-4l-140 150l54 42l102 -116l157 112l36 -42zM443 69l-18 -69h-367l120 620h370l-14 -69h-288l-40 -207h244l-12 -61h-244l-42 -214h291z" />
    <glyph glyph-name="ecaron" unicode="&#x11b;" 
d="M350 567h-4l-140 150l54 42l102 -116l157 112l36 -42zM470 56q-96 -49 -175 -61.5t-129 8t-77 65t-27 106.5q0 78 38 153t107.5 125t150.5 50q64 0 101.5 -31.5t37.5 -85.5q0 -85 -92.5 -136t-266.5 -64v-1q0 -98 76 -120t246 33zM339 437q-76 0 -129.5 -61.5
t-67.5 -144.5q132 9 206 44t74 95q0 30 -22.5 48.5t-60.5 18.5z" />
    <glyph glyph-name="Gbreve" unicode="&#x11e;" 
d="M537 880l45 -28q-109 -144 -212 -144t-159 146l60 31q26 -62 52 -88t63 -26t71 26.5t80 82.5zM403 -109l-73 -1l26 114q-137 -38 -214.5 19.5t-77.5 195.5q0 163 90.5 288.5t212.5 125.5q81 0 113.5 -55.5t27.5 -175.5h-76q2 84 -14 121.5t-64 37.5q-86 0 -147 -102.5
t-61 -226.5q0 -113 58 -153t168 -3l37 164l77 3z" />
    <glyph glyph-name="gbreve" unicode="&#x11f;" 
d="M519 750l45 -28q-109 -144 -212 -144t-159 146l60 31q26 -62 52 -88t63 -26t71 26.5t80 82.5zM211 96q76 0 144 104q13 104 54 207q-57 29 -102 29q-72 0 -122.5 -74.5t-50.5 -164.5q0 -50 21 -75.5t56 -25.5zM422 -82q-54 -107 -377 -88l8 76q148 -9 214 -1.5t84 25.5
q11 11 12 35.5t-4.5 77t-6.5 88.5q-86 -107 -177 -107q-53 0 -86 39.5t-33 114.5q0 128 81.5 225.5t201.5 97.5q53 0 104 -24q16 25 26 25q16 0 34 -8.5t18 -19.5q0 -27 -29.5 -106.5t-67.5 -153.5q-2 -34 -2 -46q0 -49 5.5 -107t5.5 -89.5t-11 -53.5z" />
    <glyph glyph-name="Gdotaccent" unicode="&#x120;" 
d="M402 715l-82 -1l32 132l91 1zM403 -109l-73 -1l26 114q-137 -38 -214.5 19.5t-77.5 195.5q0 163 90.5 288.5t212.5 125.5q81 0 113.5 -55.5t27.5 -175.5h-76q2 84 -14 121.5t-64 37.5q-86 0 -147 -102.5t-61 -226.5q0 -113 58 -153t168 -3l37 164l77 3z" />
    <glyph glyph-name="gdotaccent" unicode="&#x121;" 
d="M385 585l-82 -1l32 132l91 1zM211 96q76 0 144 104q13 104 54 207q-57 29 -102 29q-72 0 -122.5 -74.5t-50.5 -164.5q0 -50 21 -75.5t56 -25.5zM422 -82q-54 -107 -377 -88l8 76q148 -9 214 -1.5t84 25.5q11 11 12 35.5t-4.5 77t-6.5 88.5q-86 -107 -177 -107
q-53 0 -86 39.5t-33 114.5q0 128 81.5 225.5t201.5 97.5q53 0 104 -24q16 25 26 25q16 0 34 -8.5t18 -19.5q0 -27 -29.5 -106.5t-67.5 -153.5q-2 -34 -2 -46q0 -49 5.5 -107t5.5 -89.5t-11 -53.5z" />
    <glyph glyph-name="Gcommaaccent" unicode="&#x122;" 
d="M403 -109l-73 -1l26 114q-137 -38 -214.5 19.5t-77.5 195.5q0 163 90.5 288.5t212.5 125.5q81 0 113.5 -55.5t27.5 -175.5h-76q2 84 -14 121.5t-64 37.5q-86 0 -147 -102.5t-61 -226.5q0 -113 58 -153t168 -3l37 164l77 3zM109 -355q56 86 38 188l102 3
q-5 -113 -109 -207z" />
    <glyph glyph-name="gcommaaccent" unicode="&#x123;" 
d="M426 766q-57 -87 -39 -189l-101 -2q5 115 108 206zM211 96q76 0 144 104q13 104 54 207q-57 29 -102 29q-72 0 -122.5 -74.5t-50.5 -164.5q0 -50 21 -75.5t56 -25.5zM422 -82q-54 -107 -377 -88l8 76q148 -9 214 -1.5t84 25.5q11 11 12 35.5t-4.5 77t-6.5 88.5
q-86 -107 -177 -107q-53 0 -86 39.5t-33 114.5q0 128 81.5 225.5t201.5 97.5q53 0 104 -24q16 25 26 25q16 0 34 -8.5t18 -19.5q0 -27 -29.5 -106.5t-67.5 -153.5q-2 -34 -2 -46q0 -49 5.5 -107t5.5 -89.5t-11 -53.5z" />
    <glyph glyph-name="Hbar" unicode="&#x126;" 
d="M413 332l22 114h-228l-22 -114h228zM349 0l52 268h-228l-52 -268h-81l86 444h-72l12 58h71l23 118h81l-23 -121h228l23 121h82l-23 -118h70l-11 -58h-70l-86 -444h-82z" />
    <glyph glyph-name="hbar" unicode="&#x127;" 
d="M514 36q-58 -36 -99 -44t-59.5 8t-18.5 50q0 38 32.5 159t32.5 161q0 56 -50 56q-70 0 -166 -104l-63 -322h-76l112 578h-71l10 53h71l13 66l78 6l-14 -72h135l-10 -52h-135l-37 -191q106 112 200 112q86 0 86 -94q0 -54 -33.5 -177.5t-33.5 -146.5q0 -15 6 -20t25 -2
t54 17z" />
    <glyph glyph-name="Imacron" unicode="&#x12a;" 
d="M545 803l-13 -66h-330l13 66h330zM277 65h150l-15 -65h-376l13 65h147l95 490h-150l13 65h375l-12 -65h-145z" />
    <glyph glyph-name="imacron" unicode="&#x12b;" 
d="M515 674l-13 -66h-330l13 66h330zM473 44q-121 -49 -193.5 -53t-95.5 32t-4 109l76 289l-177 -24l-5 42l206 51l69 -1l-90 -344q-7 -33 -6 -54t24 -28t66.5 -1t120.5 25z" />
    <glyph glyph-name="Ibreve" unicode="&#x12c;" 
d="M528 867l45 -28q-109 -144 -212 -144t-159 146l60 31q26 -62 52 -88t63 -26t71 26.5t80 82.5zM277 65h150l-15 -65h-376l13 65h147l95 490h-150l13 65h375l-12 -65h-145z" />
    <glyph glyph-name="ibreve" unicode="&#x12d;" 
d="M497 738l45 -28q-109 -144 -212 -144t-159 146l60 31q26 -62 52 -88t63 -26t71 26.5t80 82.5zM473 44q-121 -49 -193.5 -53t-95.5 32t-4 109l76 289l-177 -24l-5 42l206 51l69 -1l-90 -344q-7 -33 -6 -54t24 -28t66.5 -1t120.5 25z" />
    <glyph glyph-name="Iogonek" unicode="&#x12e;" 
d="M310 -167q-53 -27 -97.5 -36.5t-72 -2t-42.5 24t-15 40.5q0 73 106 141h-153l13 65h147l95 490h-150l13 65h375l-12 -65h-145l-95 -490h150l-15 -65h-140q-117 -61 -117 -119q0 -17 14 -26t48 -6.5t83 21.5z" />
    <glyph glyph-name="iogonek" unicode="&#x12f;" 
d="M370 574l-81 -4l31 133l90 5zM388 -167q-70 -36 -124 -40t-79 15t-25 51q0 69 111 131q-67 -2 -88.5 34.5t-2.5 107.5l76 289l-177 -24l-5 42l206 51l69 -1l-90 -344q-7 -33 -6 -54t24 -28t66.5 -1t120.5 25l9 -43q-136 -53 -188 -91t-52 -72q0 -17 14 -26t48 -6.5
t83 21.5z" />
    <glyph glyph-name="Idotaccent" unicode="&#x130;" 
d="M393 702l-82 -1l32 132l91 1zM277 65h150l-15 -65h-376l13 65h147l95 490h-150l13 65h375l-12 -65h-145z" />
    <glyph glyph-name="dotlessi" unicode="&#x131;" 
d="M473 44q-121 -49 -193.5 -53t-95.5 32t-4 109l76 289l-177 -24l-5 42l206 51l69 -1l-90 -344q-7 -33 -6 -54t24 -28t66.5 -1t120.5 25z" />
    <glyph glyph-name="Kcommaaccent" unicode="&#x136;" 
d="M394 -6l-181 318l282 308h88l-281 -309l178 -306zM170 620h81l-121 -620h-81zM161 -265q56 86 38 188l102 3q-5 -113 -109 -207z" />
    <glyph glyph-name="kcommaaccent" unicode="&#x137;" 
d="M403 -6l-180 204q209 108 209 189q0 42 -48 42q-80 0 -192 -114l-61 -315h-77l135 697l78 6l-62 -320q116 118 220 118q43 0 67 -22.5t24 -59.5q0 -110 -201 -218l177 -195zM156 -265q56 86 38 188l102 3q-5 -113 -109 -207z" />
    <glyph glyph-name="Lacute" unicode="&#x139;" 
d="M269 723q113 68 216 169l55 -63q-96 -73 -255 -141zM446 0h-385l120 620h82l-106 -550h304z" />
    <glyph glyph-name="lacute" unicode="&#x13a;" 
d="M373 806q113 68 216 169l55 -63q-96 -73 -255 -141zM463 65q-139 -84 -227 -71.5t-106 123.5q-30 -18 -48 -30l-21 36l25 17q26 16 39 25v13q0 131 49 255.5t122 198.5t143 74q44 0 69 -27.5t25 -76.5q0 -94 -80.5 -207.5t-247.5 -232.5q5 -62 34.5 -86.5t79.5 -16.5
t129 46zM412 629q-42 0 -89 -56.5t-81 -154t-38 -202.5q131 103 193 194.5t62 158.5q0 60 -47 60z" />
    <glyph glyph-name="Lcommaaccent" unicode="&#x13b;" 
d="M446 0h-385l120 620h82l-106 -550h304zM152 -259q56 86 38 188l102 3q-5 -113 -109 -207z" />
    <glyph glyph-name="lcommaaccent" unicode="&#x13c;" 
d="M463 65q-139 -84 -227 -71.5t-106 123.5q-30 -18 -48 -30l-21 36l25 17q26 16 39 25v13q0 131 49 255.5t122 198.5t143 74q44 0 69 -27.5t25 -76.5q0 -94 -80.5 -207.5t-247.5 -232.5q5 -62 34.5 -86.5t79.5 -16.5t129 46zM412 629q-42 0 -89 -56.5t-81 -154t-38 -202.5
q131 103 193 194.5t62 158.5q0 60 -47 60zM170 -267q56 86 38 188l102 3q-5 -113 -109 -207z" />
    <glyph glyph-name="Lcaron" unicode="&#x13d;" 
d="M474 695l90 5q-8 -138 -108 -254l-34 15q36 62 46 115t6 119zM446 0h-385l120 620h82l-106 -550h304z" />
    <glyph glyph-name="lcaron" unicode="&#x13e;" 
d="M625 798l90 5q-8 -138 -108 -254l-34 15q36 62 46 115t6 119zM463 65q-139 -84 -227 -71.5t-106 123.5q-30 -18 -48 -30l-21 36l25 17q26 16 39 25v13q0 131 49 255.5t122 198.5t143 74q44 0 69 -27.5t25 -76.5q0 -94 -80.5 -207.5t-247.5 -232.5q5 -62 34.5 -86.5
t79.5 -16.5t129 46zM412 629q-42 0 -89 -56.5t-81 -154t-38 -202.5q131 103 193 194.5t62 158.5q0 60 -47 60z" />
    <glyph glyph-name="Ldot" unicode="&#x13f;" 
d="M446 0h-385l120 620h82l-106 -550h304zM472 266h-92l26 108h92z" />
    <glyph glyph-name="ldot" unicode="&#x140;" 
d="M463 65q-139 -84 -227 -71.5t-106 123.5q-30 -18 -48 -30l-21 36l25 17q26 16 39 25v13q0 131 49 255.5t122 198.5t143 74q44 0 69 -27.5t25 -76.5q0 -94 -80.5 -207.5t-247.5 -232.5q5 -62 34.5 -86.5t79.5 -16.5t129 46zM412 629q-42 0 -89 -56.5t-81 -154t-38 -202.5
q131 103 193 194.5t62 158.5q0 60 -47 60zM586 263h-88l24 108h88z" />
    <glyph glyph-name="Lslash" unicode="&#x141;" 
d="M460 0h-385l57 296l-76 -36l-2 55l90 43l51 262h82l-42 -220l152 72l3 -56l-167 -78l-52 -268h304z" />
    <glyph glyph-name="lslash" unicode="&#x142;" 
d="M142 719q0 55 70.5 89t187 35t265.5 -37l-26 -63q-119 35 -225.5 41t-162 -10t-55.5 -42q0 -19 53 -60l-42 -50q-65 48 -65 97zM463 65q-139 -84 -227 -71.5t-106 123.5q-30 -18 -48 -30l-21 36l25 17q26 16 39 25v13q0 131 49 255.5t122 198.5t143 74q44 0 69 -27.5
t25 -76.5q0 -94 -80.5 -207.5t-247.5 -232.5q5 -62 34.5 -86.5t79.5 -16.5t129 46zM412 629q-42 0 -89 -56.5t-81 -154t-38 -202.5q131 103 193 194.5t62 158.5q0 60 -47 60z" />
    <glyph glyph-name="Nacute" unicode="&#x143;" 
d="M251 725q113 68 216 169l55 -63q-96 -73 -255 -141zM355 0l-142 489h-5l-92 -489h-76l120 619l85 2l136 -480h5l91 479h76l-121 -620h-77z" />
    <glyph glyph-name="nacute" unicode="&#x144;" 
d="M215 604q113 68 216 169l55 -63q-96 -73 -255 -141zM514 36q-58 -36 -99 -44t-59.5 8t-18.5 50q0 38 32.5 159t32.5 162q0 57 -50 57q-68 0 -164 -98q-14 -77 -65 -330h-76q70 361 89 488l76 5q-6 -32 -15 -103q106 111 202 111q86 0 86 -93q0 -55 -33.5 -179t-33.5 -147
q0 -15 6 -20t25 -2t54 17z" />
    <glyph glyph-name="Ncommaaccent" unicode="&#x145;" 
d="M355 0l-142 489h-5l-92 -489h-76l120 619l85 2l136 -480h5l91 479h76l-121 -620h-77zM134 -259q56 86 38 188l102 3q-5 -113 -109 -207z" />
    <glyph glyph-name="ncommaaccent" unicode="&#x146;" 
d="M514 36q-58 -36 -99 -44t-59.5 8t-18.5 50q0 38 32.5 159t32.5 162q0 57 -50 57q-68 0 -164 -98q-14 -77 -65 -330h-76q70 361 89 488l76 5q-6 -32 -15 -103q106 111 202 111q86 0 86 -93q0 -55 -33.5 -179t-33.5 -147q0 -15 6 -20t25 -2t54 17zM131 -269q56 86 38 188
l102 3q-5 -113 -109 -207z" />
    <glyph glyph-name="Ncaron" unicode="&#x147;" 
d="M367 687h-4l-140 150l54 42l102 -116l157 112l36 -42zM355 0l-142 489h-5l-92 -489h-76l120 619l85 2l136 -480h5l91 479h76l-121 -620h-77z" />
    <glyph glyph-name="ncaron" unicode="&#x148;" 
d="M331 566h-4l-140 150l54 42l102 -116l157 112l36 -42zM514 36q-58 -36 -99 -44t-59.5 8t-18.5 50q0 38 32.5 159t32.5 162q0 57 -50 57q-68 0 -164 -98q-14 -77 -65 -330h-76q70 361 89 488l76 5q-6 -32 -15 -103q106 111 202 111q86 0 86 -93q0 -55 -33.5 -179
t-33.5 -147q0 -15 6 -20t25 -2t54 17z" />
    <glyph glyph-name="Omacron" unicode="&#x14c;" 
d="M559 817l-13 -66h-330l13 66h330zM350 632q82 0 131 -59.5t49 -173.5q0 -104 -36.5 -198t-104 -153.5t-149.5 -59.5t-131 59t-49 173q0 104 36.5 198.5t104 154t149.5 59.5zM251 58q83 0 139 103.5t56 233.5q0 83 -28.5 125t-78.5 42q-83 0 -139 -103.5t-56 -233.5
q0 -83 28.5 -125t78.5 -42z" />
    <glyph glyph-name="omacron" unicode="&#x14d;" 
d="M526 685l-13 -66h-330l13 66h330zM54 188q0 130 76 222t187 92q82 0 131 -52.5t49 -147.5q0 -131 -76.5 -222t-187.5 -91q-83 0 -131 52t-48 147zM417 291q0 69 -29.5 107.5t-83.5 38.5q-75 0 -123 -70.5t-48 -167.5q0 -69 29.5 -107t83.5 -38q74 0 122.5 69.5
t48.5 167.5z" />
    <glyph glyph-name="Obreve" unicode="&#x14e;" 
d="M541 881l45 -28q-109 -144 -212 -144t-159 146l60 31q26 -62 52 -88t63 -26t71 26.5t80 82.5zM350 632q82 0 131 -59.5t49 -173.5q0 -104 -36.5 -198t-104 -153.5t-149.5 -59.5t-131 59t-49 173q0 104 36.5 198.5t104 154t149.5 59.5zM251 58q83 0 139 103.5t56 233.5
q0 83 -28.5 125t-78.5 42q-83 0 -139 -103.5t-56 -233.5q0 -83 28.5 -125t78.5 -42z" />
    <glyph glyph-name="obreve" unicode="&#x14f;" 
d="M508 749l45 -28q-109 -144 -212 -144t-159 146l60 31q26 -62 52 -88t63 -26t71 26.5t80 82.5zM54 188q0 130 76 222t187 92q82 0 131 -52.5t49 -147.5q0 -131 -76.5 -222t-187.5 -91q-83 0 -131 52t-48 147zM417 291q0 69 -29.5 107.5t-83.5 38.5q-75 0 -123 -70.5
t-48 -167.5q0 -69 29.5 -107t83.5 -38q74 0 122.5 69.5t48.5 167.5z" />
    <glyph glyph-name="Ohungarumlaut" unicode="&#x150;" 
d="M254 703l-34 27q70 81 137 194l76 -41q-77 -94 -179 -180zM464 703l-35 27q79 90 134 189l78 -37q-78 -98 -177 -179zM350 632q82 0 131 -59.5t49 -173.5q0 -104 -36.5 -198t-104 -153.5t-149.5 -59.5t-131 59t-49 173q0 104 36.5 198.5t104 154t149.5 59.5zM251 58
q83 0 139 103.5t56 233.5q0 83 -28.5 125t-78.5 42q-83 0 -139 -103.5t-56 -233.5q0 -83 28.5 -125t78.5 -42z" />
    <glyph glyph-name="ohungarumlaut" unicode="&#x151;" 
d="M221 571l-34 27q70 81 137 194l76 -41q-77 -94 -179 -180zM431 571l-35 27q79 90 134 189l78 -37q-78 -98 -177 -179zM54 188q0 130 76 222t187 92q82 0 131 -52.5t49 -147.5q0 -131 -76.5 -222t-187.5 -91q-83 0 -131 52t-48 147zM417 291q0 69 -29.5 107.5t-83.5 38.5
q-75 0 -123 -70.5t-48 -167.5q0 -69 29.5 -107t83.5 -38q74 0 122.5 69.5t48.5 167.5z" />
    <glyph glyph-name="OE" unicode="&#x152;" 
d="M134 210q0 -139 117 -142l94 484q-59 -1 -103 -40t-66 -96.5t-32 -109.5t-10 -96zM492 68l-19 -68h-208q-102 0 -157 47t-55 160q0 39 6.5 80.5t21 89.5t41 90.5t62.5 77t90 55t120 20.5h201l-12 -68h-165l-41 -210h137l-12 -57h-136l-42 -217h168z" />
    <glyph glyph-name="oe" unicode="&#x153;" 
d="M280 346q0 90 -47 90q-46 0 -84.5 -98.5t-38.5 -188.5q0 -46 13.5 -70.5t37.5 -24.5q47 0 83 99t36 193zM453 433q-38 0 -70 -59.5t-45 -140.5q70 12 110.5 54.5t40.5 95.5q0 50 -36 50zM519 59q-71 -52 -124 -63t-82 12.5t-39 75.5q-60 -93 -133 -93q-50 0 -78 40.5
t-28 119.5q0 130 62.5 239t148.5 109q76 0 95 -97q60 97 135 97q40 0 63 -27.5t23 -75.5q0 -80 -60 -137.5t-170 -72.5q-1 -10 -1 -30q0 -75 39.5 -90.5t136.5 30.5z" />
    <glyph glyph-name="Racute" unicode="&#x154;" 
d="M236 730q113 68 216 169l55 -63q-96 -73 -255 -141zM401 -6l-163 283l1 3q107 48 153.5 90.5t46.5 94.5q0 53 -51.5 77t-151.5 12l-108 -554h-80l120 618q182 24 267 -16t85 -121q0 -124 -187 -215l156 -260z" />
    <glyph glyph-name="racute" unicode="&#x155;" 
d="M260 612q113 68 216 169l55 -63q-96 -73 -255 -141zM507 29q-191 -85 -209 25q-16 96 93 350q-88 -26 -158 -27q-52 -108 -158 -220l-31 29q95 114 133 196q-49 11 -49 46q0 32 31.5 64t66.5 32q17 0 27.5 -11.5t10.5 -32.5q0 -18 -6 -39q101 12 199 56l37 -21
q-126 -306 -118 -381q4 -48 60 -40q24 3 64 16z" />
    <glyph glyph-name="Rcommaaccent" unicode="&#x156;" 
d="M401 -6l-163 283l1 3q107 48 153.5 90.5t46.5 94.5q0 53 -51.5 77t-151.5 12l-108 -554h-80l120 618q182 24 267 -16t85 -121q0 -124 -187 -215l156 -260zM145 -265q56 86 38 188l102 3q-5 -113 -109 -207z" />
    <glyph glyph-name="rcommaaccent" unicode="&#x157;" 
d="M507 29q-191 -85 -209 25q-16 96 93 350q-88 -26 -158 -27q-52 -108 -158 -220l-31 29q95 114 133 196q-49 11 -49 46q0 32 31.5 64t66.5 32q17 0 27.5 -11.5t10.5 -32.5q0 -18 -6 -39q101 12 199 56l37 -21q-126 -306 -118 -381q4 -48 60 -40q24 3 64 16zM113 -248
q56 86 38 188l102 3q-5 -113 -109 -207z" />
    <glyph glyph-name="Rcaron" unicode="&#x158;" 
d="M352 692h-4l-140 150l54 42l102 -116l157 112l36 -42zM401 -6l-163 283l1 3q107 48 153.5 90.5t46.5 94.5q0 53 -51.5 77t-151.5 12l-108 -554h-80l120 618q182 24 267 -16t85 -121q0 -124 -187 -215l156 -260z" />
    <glyph glyph-name="rcaron" unicode="&#x159;" 
d="M365 574h-4l-140 150l54 42l102 -116l157 112l36 -42zM507 29q-191 -85 -209 25q-16 96 93 350q-88 -26 -158 -27q-52 -108 -158 -220l-31 29q95 114 133 196q-49 11 -49 46q0 32 31.5 64t66.5 32q17 0 27.5 -11.5t10.5 -32.5q0 -18 -6 -39q101 12 199 56l37 -21
q-126 -306 -118 -381q4 -48 60 -40q24 3 64 16z" />
    <glyph glyph-name="Sacute" unicode="&#x15a;" 
d="M252 735q113 68 216 169l55 -63q-96 -73 -255 -141zM512 460l-72 -14q-10 61 -39 89t-80 28q-50 0 -83 -30.5t-33 -73.5q0 -32 26.5 -63t64 -58t75 -55t64 -64t26.5 -74q0 -40 -24 -72.5t-75.5 -55.5t-133.5 -24.5t-199 21.5l16 80q72 -19 130 -26t95.5 -4t62 14t35 26
t10.5 34q0 28 -26.5 57t-63.5 55.5t-74.5 55t-64 66t-26.5 77.5q0 73 62 127.5t155 54.5q147 0 172 -171z" />
    <glyph glyph-name="sacute" unicode="&#x15b;" 
d="M231 634q113 68 216 169l55 -63q-96 -73 -255 -141zM463 130q0 -31 -16.5 -56.5t-53.5 -46.5t-107 -30t-167 -4l2 72q106 -11 165 -3t79.5 22.5t20.5 40.5q0 24 -19.5 54.5t-52.5 71.5t-49 68q-69 -60 -172 -121l-21 36q123 85 170 136q-6 21 -6 43q0 44 33 81t71 37
q29 0 40.5 -18.5t-1.5 -54.5t-52 -80q10 -26 73 -113t63 -135z" />
    <glyph glyph-name="Scedilla" unicode="&#x15e;" 
d="M255 -184q8 132 -50 132q-45 0 -96 -104l-42 13q45 107 100 137q-69 5 -138 20l16 80q72 -19 130 -26t95.5 -4t62 14t35 26t10.5 34q0 28 -26.5 57t-63.5 55.5t-74.5 55t-64 66t-26.5 77.5q0 73 62 127.5t155 54.5q147 0 172 -171l-72 -14q-10 61 -39 89t-80 28
q-50 0 -83 -30.5t-33 -73.5q0 -32 26.5 -63t64 -58t75 -55t64 -64t26.5 -74q0 -57 -50 -99.5t-149 -51.5q72 -39 63 -176z" />
    <glyph glyph-name="scedilla" unicode="&#x15f;" 
d="M279 -184q8 132 -50 132q-45 0 -96 -104l-42 13q43 103 95 134q-19 0 -67 2l2 72q106 -11 165 -3t79.5 22.5t20.5 40.5q0 24 -19.5 54.5t-52.5 71.5t-49 68q-69 -60 -172 -121l-21 36q123 85 170 136q-6 21 -6 43q0 44 33 81t71 37q29 0 40.5 -18.5t-1.5 -54.5t-52 -80
q10 -26 73 -113t63 -135q0 -111 -182 -133q77 -36 68 -179z" />
    <glyph glyph-name="Scaron" unicode="&#x160;" 
d="M368 697h-4l-140 150l54 42l102 -116l157 112l36 -42zM512 460l-72 -14q-10 61 -39 89t-80 28q-50 0 -83 -30.5t-33 -73.5q0 -32 26.5 -63t64 -58t75 -55t64 -64t26.5 -74q0 -40 -24 -72.5t-75.5 -55.5t-133.5 -24.5t-199 21.5l16 80q72 -19 130 -26t95.5 -4t62 14t35 26
t10.5 34q0 28 -26.5 57t-63.5 55.5t-74.5 55t-64 66t-26.5 77.5q0 73 62 127.5t155 54.5q147 0 172 -171z" />
    <glyph glyph-name="scaron" unicode="&#x161;" 
d="M347 596h-4l-140 150l54 42l102 -116l157 112l36 -42zM463 130q0 -31 -16.5 -56.5t-53.5 -46.5t-107 -30t-167 -4l2 72q106 -11 165 -3t79.5 22.5t20.5 40.5q0 24 -19.5 54.5t-52.5 71.5t-49 68q-69 -60 -172 -121l-21 36q123 85 170 136q-6 21 -6 43q0 44 33 81t71 37
q29 0 40.5 -18.5t-1.5 -54.5t-52 -80q10 -26 73 -113t63 -135z" />
    <glyph glyph-name="Tcommaaccent" unicode="&#x162;" 
d="M375 550l-107 -550h-81l107 550h-192l13 70h465l-13 -70h-192zM125 -259q56 86 38 188l102 3q-5 -113 -109 -207z" />
    <glyph glyph-name="tcommaaccent" unicode="&#x163;" 
d="M459 52q-75 -38 -133 -53.5t-94 -8.5t-58.5 29t-24.5 60t7 86l58 262h-93l16 61h63l77 138l60 5l-32 -143h189l-12 -61h-191l-58 -258q-13 -55 -1 -84t64.5 -28t154.5 36zM139 -271q56 86 38 188l102 3q-5 -113 -109 -207z" />
    <glyph glyph-name="Tcaron" unicode="&#x164;" 
d="M358 685h-4l-140 150l54 42l102 -116l157 112l36 -42zM375 550l-107 -550h-81l107 550h-192l13 70h465l-13 -70h-192z" />
    <glyph glyph-name="tcaron" unicode="&#x165;" 
d="M444 829l90 5q-8 -138 -108 -254l-34 15q36 62 46 115t6 119zM459 52q-75 -38 -133 -53.5t-94 -8.5t-58.5 29t-24.5 60t7 86l58 262h-93l16 61h63l77 138l60 5l-32 -143h189l-12 -61h-191l-58 -258q-13 -55 -1 -84t64.5 -28t154.5 36z" />
    <glyph glyph-name="Umacron" unicode="&#x16a;" 
d="M555 803l-13 -66h-330l13 66h330zM160 221q-33 -164 93 -164q109 0 137 143l82 420h81l-82 -418q-21 -108 -79 -162t-148 -54q-99 0 -143.5 59t-22.5 175l78 400h81z" />
    <glyph glyph-name="umacron" unicode="&#x16b;" 
d="M538 676l-13 -66h-330l13 66h330zM519 37q-109 -60 -146 -41.5t-23 108.5q-100 -115 -184 -115q-57 0 -79.5 46.5t-1.5 137.5l37 166l-43 26l75 123l78 5l-70 -312q-26 -118 43 -118q65 0 158 108l62 319h76l-71 -363q-8 -35 -5 -52t21.5 -16.5t63.5 18.5z" />
    <glyph glyph-name="Ubreve" unicode="&#x16c;" 
d="M538 867l45 -28q-109 -144 -212 -144t-159 146l60 31q26 -62 52 -88t63 -26t71 26.5t80 82.5zM160 221q-33 -164 93 -164q109 0 137 143l82 420h81l-82 -418q-21 -108 -79 -162t-148 -54q-99 0 -143.5 59t-22.5 175l78 400h81z" />
    <glyph glyph-name="ubreve" unicode="&#x16d;" 
d="M520 740l45 -28q-109 -144 -212 -144t-159 146l60 31q26 -62 52 -88t63 -26t71 26.5t80 82.5zM519 37q-109 -60 -146 -41.5t-23 108.5q-100 -115 -184 -115q-57 0 -79.5 46.5t-1.5 137.5l37 166l-43 26l75 123l78 5l-70 -312q-26 -118 43 -118q65 0 158 108l62 319h76
l-71 -363q-8 -35 -5 -52t21.5 -16.5t63.5 18.5z" />
    <glyph glyph-name="Uring" unicode="&#x16e;" 
d="M394 887q55 0 90 -28.5t35 -69.5q0 -46 -40 -79t-100 -33q-55 0 -90 28.5t-35 70.5q0 46 40 78.5t100 32.5zM160 221q-33 -164 93 -164q109 0 137 143l82 420h81l-82 -418q-21 -108 -79 -162t-148 -54q-99 0 -143.5 59t-22.5 175l78 400h81z" />
    <glyph glyph-name="uring" unicode="&#x16f;" 
d="M376 760q55 0 90 -28.5t35 -69.5q0 -46 -40 -79t-100 -33q-55 0 -90 28.5t-35 70.5q0 46 40 78.5t100 32.5zM519 37q-109 -60 -146 -41.5t-23 108.5q-100 -115 -184 -115q-57 0 -79.5 46.5t-1.5 137.5l37 166l-43 26l75 123l78 5l-70 -312q-26 -118 43 -118q65 0 158 108
l62 319h76l-71 -363q-8 -35 -5 -52t21.5 -16.5t63.5 18.5z" />
    <glyph glyph-name="Uhungarumlaut" unicode="&#x170;" 
d="M251 689l-34 27q70 81 137 194l76 -41q-77 -94 -179 -180zM461 689l-35 27q79 90 134 189l78 -37q-78 -98 -177 -179zM160 221q-33 -164 93 -164q109 0 137 143l82 420h81l-82 -418q-21 -108 -79 -162t-148 -54q-99 0 -143.5 59t-22.5 175l78 400h81z" />
    <glyph glyph-name="uhungarumlaut" unicode="&#x171;" 
d="M233 562l-34 27q70 81 137 194l76 -41q-77 -94 -179 -180zM443 562l-35 27q79 90 134 189l78 -37q-78 -98 -177 -179zM519 37q-109 -60 -146 -41.5t-23 108.5q-100 -115 -184 -115q-57 0 -79.5 46.5t-1.5 137.5l37 166l-43 26l75 123l78 5l-70 -312q-26 -118 43 -118
q65 0 158 108l62 319h76l-71 -363q-8 -35 -5 -52t21.5 -16.5t63.5 18.5z" />
    <glyph glyph-name="Uogonek" unicode="&#x172;" 
d="M337 -167q-53 -27 -97.5 -36.5t-72 -2.5t-42.5 24t-15 41q0 64 119 127q-92 5 -132 64t-19 170l78 400h81l-77 -399q-33 -164 93 -164q109 0 137 143l82 420h81l-82 -418q-28 -146 -128 -195q-87 -43 -123.5 -71.5t-36.5 -54.5q0 -17 14 -26t47.5 -6.5t82.5 21.5z" />
    <glyph glyph-name="uogonek" unicode="&#x173;" 
d="M488 -167q-53 -27 -97.5 -36.5t-72 -2t-42.5 24t-15 40.5q0 75 119 143q-44 16 -30 102q-103 -115 -184 -115q-57 0 -79.5 46.5t-1.5 137.5l37 166l-43 26l75 123l78 5l-70 -312q-26 -118 43 -118q65 0 158 108l62 319h76l-71 -363q-8 -35 -5 -52t21.5 -16.5t63.5 18.5
l9 -40q-185 -84 -185 -156q0 -17 14 -26t47.5 -6.5t82.5 21.5z" />
    <glyph glyph-name="Wcircumflex" unicode="&#x174;" 
d="M499 688l-101 115l-158 -111l-35 41l205 147h4l139 -150zM324 0l-23 327l-149 -327h-85q9 220 68 620h80q-63 -413 -71 -515h4l151 331h49l23 -331h3q35 114 128 515h78q-94 -392 -170 -620h-86z" />
    <glyph glyph-name="wcircumflex" unicode="&#x175;" 
d="M473 557l-101 115l-158 -111l-35 41l205 147h4l139 -150zM324 0l-40 264l-141 -264h-76q7 213 45 489h79q-16 -103 -53 -390h3l140 267h49l38 -268h4q61 234 97 391h82q-63 -232 -153 -489h-74z" />
    <glyph glyph-name="Ycircumflex" unicode="&#x176;" 
d="M492 690l-101 115l-158 -111l-35 41l205 147h4l139 -150zM269 0h-81l40 209l-123 409l83 4l97 -336l222 334h87l-286 -417z" />
    <glyph glyph-name="ycircumflex" unicode="&#x177;" 
d="M475 567l-101 115l-158 -111l-35 41l205 147h4l139 -150zM419 -82q-53 -105 -365 -89l11 78q242 -21 287 22q7 7 10.5 19.5t4 34t0 40.5t-2 54.5t-1.5 60.5q-45 -49 -98 -80t-102 -31q-183 0 -10 462l76 2q-34 -95 -53.5 -166.5t-24.5 -114t1 -68.5t18.5 -35t32.5 -9
q32 0 76 27.5t85 73.5q6 98 41.5 199t59.5 101q18 0 36 -7.5t18 -18.5q0 -31 -26.5 -115.5t-61.5 -153.5q-1 -9 -1 -28q0 -32 2 -79.5t3 -74t-3 -56t-13 -48.5z" />
    <glyph glyph-name="Ydieresis" unicode="&#x178;" 
d="M506 705l-81 -1l31 132l90 2zM291 703l-81 -1l32 132l89 1zM269 0h-81l40 209l-123 409l83 4l97 -336l222 334h87l-286 -417z" />
    <glyph glyph-name="Zacute" unicode="&#x179;" 
d="M244 723q113 68 216 169l55 -63q-96 -73 -255 -141zM437 0h-414l12 69l414 481l-314 -1l14 71h403l-12 -69l-411 -481l321 1z" />
    <glyph glyph-name="zacute" unicode="&#x17a;" 
d="M221 593q113 68 216 169l55 -63q-96 -73 -255 -141zM426 0h-395l13 66l372 357l-300 -2l19 69h384l-13 -66l-372 -357l311 2z" />
    <glyph glyph-name="Zdotaccent" unicode="&#x17b;" 
d="M399 702l-82 -1l32 132l91 1zM437 0h-414l12 69l414 481l-314 -1l14 71h403l-12 -69l-411 -481l321 1z" />
    <glyph glyph-name="zdotaccent" unicode="&#x17c;" 
d="M376 572l-82 -1l32 132l91 1zM426 0h-395l13 66l372 357l-300 -2l19 69h384l-13 -66l-372 -357l311 2z" />
    <glyph glyph-name="Zcaron" unicode="&#x17d;" 
d="M360 685h-4l-140 150l54 42l102 -116l157 112l36 -42zM437 0h-414l12 69l414 481l-314 -1l14 71h403l-12 -69l-411 -481l321 1z" />
    <glyph glyph-name="zcaron" unicode="&#x17e;" 
d="M337 555h-4l-140 150l54 42l102 -116l157 112l36 -42zM426 0h-395l13 66l372 357l-300 -2l19 69h384l-13 -66l-372 -357l311 2z" />
    <glyph glyph-name="Aringacute" unicode="&#x1fa;" 
d="M308 961q113 68 216 169l55 -63q-96 -73 -255 -141zM393 889q55 0 90 -28.5t35 -69.5q0 -46 -40 -79t-100 -33q-55 0 -90 28.5t-35 70.5q0 46 40 78.5t100 32.5zM390 -3q-3 32 -7.5 96t-6.5 96h-211q-58 -126 -86 -189h-82q132 288 300 622h114q35 -331 59 -619zM337 551
q-40 -80 -143 -300h177q-13 157 -27 300h-7z" />
    <glyph glyph-name="aringacute" unicode="&#x1fb;" 
d="M300 841q113 68 216 169l55 -63q-96 -73 -255 -141zM384 767q55 0 90 -28.5t35 -69.5q0 -46 -40 -79t-100 -33q-55 0 -90 28.5t-35 70.5q0 46 40 78.5t100 32.5zM193 63q30 0 73.5 26t81.5 64q16 82 52 264q-52 16 -94 16q-72 0 -124.5 -83.5t-52.5 -188.5
q0 -49 17.5 -73.5t46.5 -24.5zM513 37q-71 -42 -112 -45.5t-54 23t-7 80.5q-107 -105 -186 -105q-47 0 -75.5 39t-28.5 114q0 142 84.5 249.5t213.5 107.5q64 0 140 -21l-69 -352q-11 -54 2.5 -64t83.5 14z" />
    <glyph glyph-name="AEacute" unicode="&#x1fc;" 
d="M340 723q113 68 216 169l55 -63q-96 -73 -255 -141zM339 552l-156 -309h105l60 309h-9zM241 0l35 183h-123q-15 -31 -45.5 -92t-46.5 -91h-82q192 367 326 620h294l-13 -68h-166l-41 -210h138l-11 -57h-138l-43 -217h170l-18 -68h-236z" />
    <glyph glyph-name="aeacute" unicode="&#x1fd;" 
d="M245 597q113 68 216 169l55 -63q-96 -73 -255 -141zM445 434q-39 0 -73 -60t-48 -142q75 13 117 59t42 96q0 47 -38 47zM147 64q37 0 96 78q0 151 77 264q-36 27 -72 27q-55 0 -95.5 -92.5t-40.5 -198.5q0 -78 35 -78zM514 57q-76 -50 -133.5 -60.5t-89 13t-42.5 72.5
q-73 -89 -139 -89q-77 0 -77 130q0 92 30 177.5t84 140.5t117 55q54 0 107 -34q45 37 94 37q43 0 67 -26.5t24 -71.5q0 -79 -61.5 -138.5t-176.5 -75.5q-1 -11 -1 -33q0 -76 41 -90.5t148 34.5z" />
    <glyph glyph-name="Oslashacute" unicode="&#x1fe;" 
d="M252 737q113 68 216 169l55 -63q-96 -73 -255 -141zM145 231q0 -44 7 -73l266 359q-28 47 -83 47q-81 0 -135.5 -101.5t-54.5 -231.5zM255 56q54 0 98.5 49t68 125t23.5 160q0 44 -7 75l-267 -361q29 -48 84 -48zM243 -13q-73 0 -119 46l-52 -70l-48 32l66 88
q-28 58 -28 145q0 104 36 196.5t102.5 150.5t146.5 58q73 0 119 -46l52 70l47 -32l-65 -86q28 -59 28 -147q0 -103 -36 -195.5t-102 -151t-147 -58.5z" />
    <glyph glyph-name="oslashacute" unicode="&#x1ff;" 
d="M220 605q113 68 216 169l55 -63q-96 -73 -255 -141zM132 199q0 -40 10 -69l243 273q-30 35 -81 35q-75 0 -123.5 -70.5t-48.5 -168.5zM246 53q74 0 123 70t49 169q0 36 -9 65l-241 -272q29 -32 78 -32zM233 -11q-69 0 -115 37l-55 -61l-45 34l64 69q-28 50 -28 120
q0 130 76 222t187 92q71 0 118 -39l54 60l45 -34l-64 -70q27 -47 27 -117q0 -131 -76.5 -222t-187.5 -91z" />
    <glyph glyph-name="Scommaaccent" unicode="&#x218;" 
d="M512 460l-72 -14q-10 61 -39 89t-80 28q-50 0 -83 -30.5t-33 -73.5q0 -32 26.5 -63t64 -58t75 -55t64 -64t26.5 -74q0 -40 -24 -72.5t-75.5 -55.5t-133.5 -24.5t-199 21.5l16 80q72 -19 130 -26t95.5 -4t62 14t35 26t10.5 34q0 28 -26.5 57t-63.5 55.5t-74.5 55t-64 66
t-26.5 77.5q0 73 62 127.5t155 54.5q147 0 172 -171zM115 -267q56 86 38 188l102 3q-5 -113 -109 -207z" />
    <glyph glyph-name="scommaaccent" unicode="&#x219;" 
d="M463 130q0 -31 -16.5 -56.5t-53.5 -46.5t-107 -30t-167 -4l2 72q106 -11 165 -3t79.5 22.5t20.5 40.5q0 24 -19.5 54.5t-52.5 71.5t-49 68q-69 -60 -172 -121l-21 36q123 85 170 136q-6 21 -6 43q0 44 33 81t71 37q29 0 40.5 -18.5t-1.5 -54.5t-52 -80q10 -26 73 -113
t63 -135zM121 -268q56 86 38 188l102 3q-5 -113 -109 -207z" />
    <glyph glyph-name="schwa" unicode="&#x259;" 
d="M192 -12q-64 0 -101.5 31.5t-37.5 85.5q0 85 92.5 136.5t265.5 64.5q0 98 -75.5 120t-245.5 -33l-10 42q96 49 175 61.5t128.5 -8.5t76.5 -65.5t27 -106.5q0 -78 -37.5 -153t-107 -125t-150.5 -50zM211 53q75 0 128.5 61.5t67.5 144.5q-131 -9 -205 -44t-74 -95
q0 -30 22.5 -48.5t60.5 -18.5z" />
    <glyph glyph-name="circumflex" unicode="&#x2c6;" 
d="M396 558l-101 115l-158 -111l-35 41l205 147h4l139 -150z" />
    <glyph glyph-name="caron" unicode="&#x2c7;" 
d="M269 555h-4l-140 150l54 42l102 -116l157 112l36 -42z" />
    <glyph glyph-name="breve" unicode="&#x2d8;" 
d="M430 737l45 -28q-109 -144 -212 -144t-159 146l60 31q26 -62 52 -88t63 -26t71 26.5t80 82.5z" />
    <glyph glyph-name="dotaccent" unicode="&#x2d9;" 
d="M301 572l-82 -1l32 132l91 1z" />
    <glyph glyph-name="ring" unicode="&#x2da;" 
d="M349 757q55 0 90 -28.5t35 -69.5q0 -46 -40 -79t-100 -33q-55 0 -90 28.5t-35 70.5q0 46 40 78.5t100 32.5z" />
    <glyph glyph-name="ogonek" unicode="&#x2db;" 
d="M376 33l24 -32q-185 -60 -185 -119q0 -18 14 -27t48 -6.5t83 21.5l10 -37q-70 -36 -124 -40t-79 15t-25 51q0 43 57 87.5t177 86.5z" />
    <glyph glyph-name="tilde" unicode="&#x2dc;" 
d="M355 628q32 0 94 100l40 -24q-79 -136 -150 -136q-23 0 -43 16t-32.5 35t-28 35t-29.5 16q-33 0 -94 -95l-40 23q77 133 150 133q23 0 43 -16t32.5 -35.5t28 -35.5t29.5 -16z" />
    <glyph glyph-name="hungarumlaut" unicode="&#x2dd;" 
d="M165 559l-34 27q70 81 137 194l76 -41q-77 -94 -179 -180zM375 559l-35 27q79 90 134 189l78 -37q-78 -98 -177 -179z" />
    <glyph glyph-name="commaaccent" unicode="&#x326;" 
d="M183 -259q56 86 38 188l102 3q-5 -113 -109 -207z" />
    <glyph glyph-name="Wgrave" unicode="&#x1e80;" 
d="M493 715l-20 -33q-123 65 -220 153l53 62q38 -45 91.5 -97.5t95.5 -84.5zM324 0l-23 327l-149 -327h-85q9 220 68 620h80q-63 -413 -71 -515h4l151 331h49l23 -331h3q35 114 128 515h78q-94 -392 -170 -620h-86z" />
    <glyph glyph-name="wgrave" unicode="&#x1e81;" 
d="M467 584l-20 -33q-123 65 -220 153l53 62q38 -45 91.5 -97.5t95.5 -84.5zM324 0l-40 264l-141 -264h-76q7 213 45 489h79q-16 -103 -53 -390h3l140 267h49l38 -268h4q61 234 97 391h82q-63 -232 -153 -489h-74z" />
    <glyph glyph-name="Wacute" unicode="&#x1e82;" 
d="M252 723q113 68 216 169l55 -63q-96 -73 -255 -141zM324 0l-23 327l-149 -327h-85q9 220 68 620h80q-63 -413 -71 -515h4l151 331h49l23 -331h3q35 114 128 515h78q-94 -392 -170 -620h-86z" />
    <glyph glyph-name="wacute" unicode="&#x1e83;" 
d="M226 592q113 68 216 169l55 -63q-96 -73 -255 -141zM324 0l-40 264l-141 -264h-76q7 213 45 489h79q-16 -103 -53 -390h3l140 267h49l38 -268h4q61 234 97 391h82q-63 -232 -153 -489h-74z" />
    <glyph glyph-name="Wdieresis" unicode="&#x1e84;" 
d="M514 703l-81 -1l31 132l90 2zM299 701l-81 -1l32 132l89 1zM324 0l-23 327l-149 -327h-85q9 220 68 620h80q-63 -413 -71 -515h4l151 331h49l23 -331h3q35 114 128 515h78q-94 -392 -170 -620h-86z" />
    <glyph glyph-name="wdieresis" unicode="&#x1e85;" 
d="M488 572l-81 -1l31 132l90 2zM273 570l-81 -1l32 132l89 1zM324 0l-40 264l-141 -264h-76q7 213 45 489h79q-16 -103 -53 -390h3l140 267h49l38 -268h4q61 234 97 391h82q-63 -232 -153 -489h-74z" />
    <glyph glyph-name="Ygrave" unicode="&#x1ef2;" 
d="M485 717l-20 -33q-123 65 -220 153l53 62q38 -45 91.5 -97.5t95.5 -84.5zM269 0h-81l40 209l-123 409l83 4l97 -336l222 334h87l-286 -417z" />
    <glyph glyph-name="ygrave" unicode="&#x1ef3;" 
d="M469 594l-20 -33q-123 65 -220 153l53 62q38 -45 91.5 -97.5t95.5 -84.5zM419 -82q-53 -105 -365 -89l11 78q242 -21 287 22q7 7 10.5 19.5t4 34t0 40.5t-2 54.5t-1.5 60.5q-45 -49 -98 -80t-102 -31q-183 0 -10 462l76 2q-34 -95 -53.5 -166.5t-24.5 -114t1 -68.5
t18.5 -35t32.5 -9q32 0 76 27.5t85 73.5q6 98 41.5 199t59.5 101q18 0 36 -7.5t18 -18.5q0 -31 -26.5 -115.5t-61.5 -153.5q-1 -9 -1 -28q0 -32 2 -79.5t3 -74t-3 -56t-13 -48.5z" />
    <glyph glyph-name="endash" unicode="&#x2013;" 
d="M491 324l-12 -62h-403l12 62h403z" />
    <glyph glyph-name="emdash" unicode="&#x2014;" 
d="M523 324l-12 -62h-443l12 62h443z" />
    <glyph glyph-name="quoteleft" unicode="&#x2018;" 
d="M432 669q-59 -64 -76 -124t-6 -149l-110 -4q4 92 41.5 161t118.5 135z" />
    <glyph glyph-name="quoteright" unicode="&#x2019;" 
d="M221 390q58 64 75.5 124t6.5 149l109 4q-3 -92 -40.5 -160.5t-118.5 -135.5z" />
    <glyph glyph-name="quotesinglbase" unicode="&#x201a;" 
d="M120 -156q58 63 75.5 123t6.5 150l110 3q-4 -92 -41.5 -160.5t-118.5 -135.5z" />
    <glyph glyph-name="quotedblleft" unicode="&#x201c;" 
d="M541 669q-56 -64 -73 -123.5t-7 -148.5l-108 -4q3 91 40 159.5t117 135.5zM328 669q-58 -64 -75.5 -124t-7.5 -149l-108 -4q3 92 40.5 161t118.5 135z" />
    <glyph glyph-name="quotedblright" unicode="&#x201d;" 
d="M330 390q58 64 75.5 124t7.5 149l108 4q-4 -92 -41.5 -160.5t-118.5 -135.5zM116 390q57 64 74 124t7 149l108 3q-4 -92 -41 -160t-117 -135z" />
    <glyph glyph-name="quotedblbase" unicode="&#x201e;" 
d="M227 -156q58 63 75.5 123.5t7.5 149.5l108 3q-3 -92 -40.5 -160.5t-119.5 -135.5zM14 -156q57 63 74 123t6 149l108 3q-3 -91 -40 -159.5t-117 -135.5z" />
    <glyph glyph-name="dagger" unicode="&#x2020;" 
d="M270 126l-53 -20l-11 8l73 361l-157 16l13 64l157 -16l32 158l75 -8l-33 -158l154 -16l-13 -62l-155 15z" />
    <glyph glyph-name="daggerdbl" unicode="&#x2021;" 
d="M260 76l-54 -21l-10 9l43 212l-157 16l13 63l157 -16l27 136l-157 16l13 64l157 -16l32 158l75 -8l-33 -158l154 -16l-13 -62l-155 15l-32 -136l160 -16l-13 -63l-161 16z" />
    <glyph glyph-name="bullet" unicode="&#x2022;" 
d="M402 312q0 -60 -39.5 -100t-91.5 -40q-46 0 -77 32t-31 80q0 61 38.5 100.5t90.5 39.5q49 0 79.5 -31t30.5 -81z" />
    <glyph glyph-name="ellipsis" unicode="&#x2026;" 
d="M481 0h-96l26 119h96zM298 0h-96l26 119h96zM115 0h-96l26 119h96z" />
    <glyph glyph-name="guilsinglleft" unicode="&#x2039;" 
d="M311 -18l-193 226l21 82l278 218l45 -61l-274 -204l180 -208z" />
    <glyph glyph-name="guilsinglright" unicode="&#x203a;" 
d="M127 -16l-45 60l274 204l-180 208l57 54l192 -227l-20 -81z" />
    <glyph glyph-name="fraction" unicode="&#x2044;" 
d="M20 -160l-62 34l579 880l61 -34z" />
    <glyph glyph-name="zero.sup" unicode="&#x2070;" 
d="M158 478q0 103 58.5 180t140.5 77q60 0 95 -41.5t35 -116.5q0 -103 -58.5 -179.5t-140.5 -76.5q-59 0 -94.5 41.5t-35.5 115.5zM424 572q0 53 -20 81t-57 28q-54 0 -90 -60t-36 -138q0 -52 20 -80t56 -28q54 0 90.5 60t36.5 137z" />
    <glyph glyph-name="four.sup" unicode="&#x2074;" 
d="M461 412h-47l-16 -81h-59l16 81h-204l5 43q81 136 124 275l67 -3q-50 -151 -128 -262h146l25 129l60 5l-26 -134h53z" />
    <glyph glyph-name="five.sup" unicode="&#x2075;" 
d="M451 457q0 -61 -73.5 -99.5t-226.5 -27.5l7 58q84 -7 138.5 1.5t73.5 24t19 36.5q0 59 -189 85l46 191h242l-16 -54h-181l-24 -98q184 -32 184 -117z" />
    <glyph glyph-name="six.sup" unicode="&#x2076;" 
d="M305 322q-62 0 -101.5 36t-39.5 104q0 88 67 163t211 113l14 -53q-182 -42 -222 -156q51 38 105 41t88.5 -27t34.5 -80q0 -62 -45 -101.5t-112 -39.5zM315 371q40 0 64 24t24 60q0 55 -55 69t-122 -33q-1 -7 -1 -20q0 -51 25.5 -75.5t64.5 -24.5z" />
    <glyph glyph-name="seven.sup" unicode="&#x2077;" 
d="M255 327l-68 7q107 183 242 335l-1 3h-223l13 55h290l-11 -53q-131 -153 -242 -347z" />
    <glyph glyph-name="eight.sup" unicode="&#x2078;" 
d="M442 428q0 -45 -44.5 -76t-111.5 -31q-60 0 -96 24.5t-36 65.5q0 31 25 60.5t94 69.5q-62 53 -62 94q0 50 64.5 80.5t175.5 13.5l-21 -60q-60 15 -95.5 12.5t-50 -13t-14.5 -27.5q0 -27 55 -71q72 38 148 72l19 -36q-86 -40 -133 -64q83 -67 83 -114zM298 371
q37 0 61 15.5t24 37.5q0 14 -13 31t-24 26.5t-39 32.5q-54 -31 -73 -51t-19 -38q0 -25 23.5 -39.5t59.5 -14.5z" />
    <glyph glyph-name="nine.sup" unicode="&#x2079;" 
d="M202 319l-14 53q182 42 222 157q-51 -38 -105 -41.5t-88.5 26t-34.5 80.5q0 62 45 102t111 40q63 0 102.5 -36t39.5 -104q0 -89 -67 -163.5t-211 -113.5zM241 602q0 -35 25 -55t67 -16.5t85 35.5q1 7 1 20q0 51 -25.5 75.5t-64.5 24.5q-41 0 -64.5 -24t-23.5 -60z" />
    <glyph glyph-name="zero.inf" unicode="&#x2080;" 
d="M76 -3q0 103 58.5 180t140.5 77q60 0 95 -41.5t35 -116.5q0 -103 -58.5 -179.5t-140.5 -76.5q-59 0 -94.5 41.5t-35.5 115.5zM342 91q0 53 -20 81t-57 28q-54 0 -90 -60t-36 -138q0 -52 20 -80t56 -28q54 0 90.5 60t36.5 137z" />
    <glyph glyph-name="one.inf" unicode="&#x2081;" 
d="M357 -150h-295l11 54h123l46 236l-121 -7l8 47l124 16l12 60l64 6l-71 -358h112z" />
    <glyph glyph-name="two.inf" unicode="&#x2082;" 
d="M346 -150h-284l-1 50q139 85 198.5 134t59.5 95q0 82 -190 57l9 56q121 18 185 -8.5t64 -89.5q0 -58 -55 -111.5t-177 -127.5h203z" />
    <glyph glyph-name="three.inf" unicode="&#x2083;" 
d="M367 -38q0 -57 -72 -92t-226 -20l7 57q228 -22 228 49q0 53 -167 86l4 27l184 122h-192l11 54h259l-6 -54l-181 -120q151 -35 151 -109z" />
    <glyph glyph-name="four.inf" unicode="&#x2084;" 
d="M379 -69h-47l-16 -81h-59l16 81h-204l5 43q81 136 124 275l67 -3q-50 -151 -128 -262h146l25 129l60 5l-26 -134h53z" />
    <glyph glyph-name="five.inf" unicode="&#x2085;" 
d="M369 -24q0 -61 -73.5 -99.5t-226.5 -27.5l7 58q84 -7 138.5 1.5t73.5 24t19 36.5q0 59 -189 85l46 191h242l-16 -54h-181l-24 -98q184 -32 184 -117z" />
    <glyph glyph-name="six.inf" unicode="&#x2086;" 
d="M223 -159q-62 0 -101.5 36t-39.5 104q0 88 67 163t211 113l14 -53q-182 -42 -222 -156q51 38 105 41t88.5 -27t34.5 -80q0 -62 -45 -101.5t-112 -39.5zM233 -110q40 0 64 24t24 60q0 55 -55 69t-122 -33q-1 -7 -1 -20q0 -51 25.5 -75.5t64.5 -24.5z" />
    <glyph glyph-name="seven.inf" unicode="&#x2087;" 
d="M173 -154l-68 7q107 183 242 335l-1 3h-223l13 55h290l-11 -53q-131 -153 -242 -347z" />
    <glyph glyph-name="eight.inf" unicode="&#x2088;" 
d="M360 -53q0 -45 -44.5 -76t-111.5 -31q-60 0 -96 24.5t-36 65.5q0 31 25 60.5t94 69.5q-62 53 -62 94q0 50 64.5 80.5t175.5 13.5l-21 -60q-60 15 -95.5 12.5t-50 -13t-14.5 -27.5q0 -27 55 -71q72 38 148 72l19 -36q-86 -40 -133 -64q83 -67 83 -114zM216 -110
q37 0 61 15.5t24 37.5q0 14 -13 31t-24 26.5t-39 32.5q-54 -31 -73 -51t-19 -38q0 -25 23.5 -39.5t59.5 -14.5z" />
    <glyph glyph-name="nine.inf" unicode="&#x2089;" 
d="M120 -162l-14 53q182 42 222 157q-51 -38 -105 -41.5t-88.5 26t-34.5 80.5q0 62 45 102t111 40q63 0 102.5 -36t39.5 -104q0 -89 -67 -163.5t-211 -113.5zM159 121q0 -35 25 -55t67 -16.5t85 35.5q1 7 1 20q0 51 -25.5 75.5t-64.5 24.5q-41 0 -64.5 -24t-23.5 -60z" />
    <glyph glyph-name="colonmonetary" unicode="&#x20a1;" 
d="M316 114l110 401q-44 -6 -82 -17l-99 -360q29 -13 71 -24zM142 284q0 -77 59 -121l87 317q-146 -59 -146 -196zM260 -74l34 119q-38 9 -69 21l-38 -140h-59l47 165q-105 62 -105 181q0 92 55 165.5t176 115.5l38 140h58l-33 -122q26 7 79 16l28 106h58l-28 -100
q23 3 70 5l-8 -72q-57 -2 -85 -5l-114 -418q33 -6 88 -13l-28 -67q-51 6 -76 10l-29 -107h-59z" />
    <glyph glyph-name="naira" unicode="&#x20a6;" 
d="M203 494l-51 -265l125 2l-69 263h-5zM368 122h7l50 264l-124 -1zM108 0h-63l34 173l-71 -1l12 63l71 1l27 138l-71 -1l12 64h71l35 181l76 3l46 -182l148 1l34 180h62l-35 -181l70 2l-13 -64l-70 -1l-26 -137h70l-12 -64h-71l-34 -175h-73l-46 176h-149z" />
    <glyph glyph-name="rupee" unicode="&#x20a8;" 
d="M209 -5l-48 281v3q117 117 117 211q0 74 -71 71l-111 -561h-64l120 620q192 27 192 -115q0 -111 -119 -230l51 -269zM521 129q0 -153 -210 -136l1 69q46 -5 73.5 -5.5t41.5 10t18.5 22.5t4.5 33q0 22 -6.5 47t-19 62t-17.5 54q-31 -31 -72 -66l-20 27q47 48 79 90
q-4 30 -4 45q0 59 28 104t64 45q26 0 35.5 -22t-3.5 -64t-50 -92q6 -23 21.5 -68t25.5 -83.5t10 -71.5z" />
    <glyph glyph-name="Euro" unicode="&#x20ac;" 
d="M472 34q-116 -53 -196 -45.5t-122.5 60t-48.5 142.5h-77l12 60h65q3 45 16 98h-64l13 59h71q40 100 112.5 162.5t157.5 62.5q70 0 103 -41.5t37 -128.5l-73 -11q-3 59 -21 86.5t-63 27.5q-55 0 -103 -45.5t-77 -117.5h225l-14 -54h-230q-14 -55 -15 -96h226l-14 -55h-212
q9 -105 77.5 -132.5t206.5 17.5z" />
    <glyph glyph-name="peso" unicode="&#x20b1;" 
d="M439 434q-3 63 -56 98.5t-152 25.5l-25 -124h233zM172 257q105 -3 172 29.5t87 90.5h-236zM563 372h-61q-27 -78 -116.5 -126.5t-227.5 -62.5l-36 -183h-75l72 372h-76l13 65h75l35 181q173 23 259.5 -30t86.5 -151h63z" />
    <glyph glyph-name="rupeeindia" unicode="&#x20b9;" 
d="M439 28l-65 -43q-112 100 -167.5 138t-143.5 63l24 59q214 15 251 120h-236l11 58h231q-18 111 -209 130l17 67h406l-18 -68h-232q49 -19 77.5 -53t33.5 -76h94l-10 -58h-89q-17 -57 -79.5 -97.5t-158.5 -55.5q56 -18 110.5 -57.5t152.5 -126.5z" />
    <glyph glyph-name="ruble" unicode="&#x20bd;" 
d="M470 456q0 120 -200 103l-44 -229q244 1 244 126zM162 0h-77l23 120h-86l12 61h86l17 87h-85l11 62h86l55 288q174 21 258 -21t84 -129q0 -177 -332 -198l-17 -91h217l-17 -58h-212z" />
    <glyph glyph-name="numero" unicode="&#x2116;" 
d="M514 624q78 0 78 -124q0 -110 -47 -195t-109 -85q-77 0 -77 124q0 110 46.5 195t108.5 85zM192 0l-29 443h-2l-81 -443h-66l121 620h63l30 -413h2l76 413l65 -1l-120 -620zM419 349q0 -67 30 -67q29 0 55.5 71.5t26.5 142.5q0 67 -30 67q-29 0 -55.5 -72t-26.5 -142z
M515 112h-201l12 58h201z" />
    <glyph glyph-name="published" unicode="&#x2117;" 
d="M43 252q0 158 79.5 259.5t193.5 101.5q91 0 148.5 -65t57.5 -177q0 -160 -80 -262t-195 -102q-90 0 -147 66t-57 179zM92 261q0 -98 45.5 -153.5t116.5 -55.5q91 0 155 89t64 222q0 96 -46 150.5t-118 54.5q-90 0 -153.5 -88t-63.5 -219zM219 147h-52l62 323
q92 13 136 -11.5t44 -75.5q0 -52 -45.5 -86.5t-124.5 -44.5z" />
    <glyph glyph-name="servicemark" unicode="&#x2120;" 
d="M395 345l-17 201h-2l-49 -255h-50l64 328l64 2l19 -203h2l94 202h65l-64 -329h-52l50 255h-2l-94 -201h-28zM280 539l-48 -8q-8 51 -38 51q-17 0 -28 -12t-11 -32q0 -24 22.5 -51t45 -56t22.5 -59q0 -49 -48 -72.5t-145 0.5l10 53q130 -41 130 15q0 21 -22.5 46.5t-45 55
t-22.5 61.5q0 40 28.5 68.5t72.5 28.5q68 0 77 -89z" />
    <glyph glyph-name="trademark" unicode="&#x2122;" 
d="M299 620l-10 -47h-69l-55 -281h-51l55 281h-74l9 47h195zM405 621l19 -203h2l94 202h65l-64 -329h-52l50 255h-2l-94 -201h-28l-17 201h-2l-49 -255h-50l64 328z" />
    <glyph glyph-name="Omega" unicode="&#x2126;" 
d="M188 5l-3 -5h-181l13 65h102q-31 126 -31 223q0 156 63.5 250t181.5 94q84 0 130 -51.5t46 -143.5q0 -158 -133 -372h96l-12 -65h-180l-1 5q151 268 151 418q0 67 -28.5 102.5t-81.5 35.5q-76 0 -118.5 -81t-42.5 -215q0 -125 29 -260z" />
    <glyph glyph-name="onethird" unicode="&#x2153;" 
d="M457 425h-295l11 54h123l46 236l-121 -7l8 47l124 16l12 60l64 6l-71 -358h112zM61 279l11 52h433l-10 -52h-434zM355 -98q0 -57 -72 -92t-226 -20l7 57q228 -22 228 49q0 53 -167 86l4 27l184 122h-192l11 54h259l-6 -54l-181 -120q151 -35 151 -109z" />
    <glyph glyph-name="twothirds" unicode="&#x2154;" 
d="M446 425h-284l-1 50q139 85 198.5 134t59.5 95q0 82 -190 57l9 56q121 18 185 -8.5t64 -89.5q0 -58 -55 -111.5t-177 -127.5h203zM61 279l11 52h433l-10 -52h-434zM355 -98q0 -57 -72 -92t-226 -20l7 57q228 -22 228 49q0 53 -167 86l4 27l184 122h-192l11 54h259l-6 -54
l-181 -120q151 -35 151 -109z" />
    <glyph glyph-name="onefifth" unicode="&#x2155;" 
d="M457 425h-295l11 54h123l46 236l-121 -7l8 47l124 16l12 60l64 6l-71 -358h112zM61 279l11 52h433l-10 -52h-434zM357 -84q0 -61 -73.5 -99.5t-226.5 -27.5l7 58q84 -7 138.5 1.5t73.5 24t19 36.5q0 59 -189 85l46 191h242l-16 -54h-181l-24 -98q184 -32 184 -117z" />
    <glyph glyph-name="twofifths" unicode="&#x2156;" 
d="M446 425h-284l-1 50q139 85 198.5 134t59.5 95q0 82 -190 57l9 56q121 18 185 -8.5t64 -89.5q0 -58 -55 -111.5t-177 -127.5h203zM61 279l11 52h433l-10 -52h-434zM357 -84q0 -61 -73.5 -99.5t-226.5 -27.5l7 58q84 -7 138.5 1.5t73.5 24t19 36.5q0 59 -189 85l46 191
h242l-16 -54h-181l-24 -98q184 -32 184 -117z" />
    <glyph glyph-name="threefifths" unicode="&#x2157;" 
d="M467 537q0 -57 -72 -92t-226 -20l7 57q228 -22 228 49q0 53 -167 86l4 27l184 122h-192l11 54h259l-6 -54l-181 -120q151 -35 151 -109zM61 279l11 52h433l-10 -52h-434zM357 -84q0 -61 -73.5 -99.5t-226.5 -27.5l7 58q84 -7 138.5 1.5t73.5 24t19 36.5q0 59 -189 85
l46 191h242l-16 -54h-181l-24 -98q184 -32 184 -117z" />
    <glyph glyph-name="fourfifths" unicode="&#x2158;" 
d="M479 506h-47l-16 -81h-59l16 81h-204l5 43q81 136 124 275l67 -3q-50 -151 -128 -262h146l25 129l60 5l-26 -134h53zM61 279l11 52h433l-10 -52h-434zM357 -84q0 -61 -73.5 -99.5t-226.5 -27.5l7 58q84 -7 138.5 1.5t73.5 24t19 36.5q0 59 -189 85l46 191h242l-16 -54
h-181l-24 -98q184 -32 184 -117z" />
    <glyph glyph-name="onesixth" unicode="&#x2159;" 
d="M457 425h-295l11 54h123l46 236l-121 -7l8 47l124 16l12 60l64 6l-71 -358h112zM61 279l11 52h433l-10 -52h-434zM211 -219q-62 0 -101.5 36t-39.5 104q0 88 67 163t211 113l14 -53q-182 -42 -222 -156q51 38 105 41t88.5 -27t34.5 -80q0 -62 -45 -101.5t-112 -39.5z
M221 -170q40 0 64 24t24 60q0 55 -55 69t-122 -33q-1 -7 -1 -20q0 -51 25.5 -75.5t64.5 -24.5z" />
    <glyph glyph-name="fivesixths" unicode="&#x215a;" 
d="M469 551q0 -61 -73.5 -99.5t-226.5 -27.5l7 58q84 -7 138.5 1.5t73.5 24t19 36.5q0 59 -189 85l46 191h242l-16 -54h-181l-24 -98q184 -32 184 -117zM61 279l11 52h433l-10 -52h-434zM211 -219q-62 0 -101.5 36t-39.5 104q0 88 67 163t211 113l14 -53q-182 -42 -222 -156
q51 38 105 41t88.5 -27t34.5 -80q0 -62 -45 -101.5t-112 -39.5zM221 -170q40 0 64 24t24 60q0 55 -55 69t-122 -33q-1 -7 -1 -20q0 -51 25.5 -75.5t64.5 -24.5z" />
    <glyph glyph-name="oneeighth" unicode="&#x215b;" 
d="M457 425h-295l11 54h123l46 236l-121 -7l8 47l124 16l12 60l64 6l-71 -358h112zM61 279l11 52h433l-10 -52h-434zM348 -113q0 -45 -44.5 -76t-111.5 -31q-60 0 -96 24.5t-36 65.5q0 31 25 60.5t94 69.5q-62 53 -62 94q0 50 64.5 80.5t175.5 13.5l-21 -60
q-60 15 -95.5 12.5t-50 -13t-14.5 -27.5q0 -27 55 -71q72 38 148 72l19 -36q-86 -40 -133 -64q83 -67 83 -114zM204 -170q37 0 61 15.5t24 37.5q0 14 -13 31t-24 26.5t-39 32.5q-54 -31 -73 -51t-19 -38q0 -25 23.5 -39.5t59.5 -14.5z" />
    <glyph glyph-name="threeeighths" unicode="&#x215c;" 
d="M467 537q0 -57 -72 -92t-226 -20l7 57q228 -22 228 49q0 53 -167 86l4 27l184 122h-192l11 54h259l-6 -54l-181 -120q151 -35 151 -109zM61 279l11 52h433l-10 -52h-434zM348 -113q0 -45 -44.5 -76t-111.5 -31q-60 0 -96 24.5t-36 65.5q0 31 25 60.5t94 69.5
q-62 53 -62 94q0 50 64.5 80.5t175.5 13.5l-21 -60q-60 15 -95.5 12.5t-50 -13t-14.5 -27.5q0 -27 55 -71q72 38 148 72l19 -36q-86 -40 -133 -64q83 -67 83 -114zM204 -170q37 0 61 15.5t24 37.5q0 14 -13 31t-24 26.5t-39 32.5q-54 -31 -73 -51t-19 -38q0 -25 23.5 -39.5
t59.5 -14.5z" />
    <glyph glyph-name="fiveeighths" unicode="&#x215d;" 
d="M469 551q0 -61 -73.5 -99.5t-226.5 -27.5l7 58q84 -7 138.5 1.5t73.5 24t19 36.5q0 59 -189 85l46 191h242l-16 -54h-181l-24 -98q184 -32 184 -117zM61 279l11 52h433l-10 -52h-434zM348 -113q0 -45 -44.5 -76t-111.5 -31q-60 0 -96 24.5t-36 65.5q0 31 25 60.5t94 69.5
q-62 53 -62 94q0 50 64.5 80.5t175.5 13.5l-21 -60q-60 15 -95.5 12.5t-50 -13t-14.5 -27.5q0 -27 55 -71q72 38 148 72l19 -36q-86 -40 -133 -64q83 -67 83 -114zM204 -170q37 0 61 15.5t24 37.5q0 14 -13 31t-24 26.5t-39 32.5q-54 -31 -73 -51t-19 -38q0 -25 23.5 -39.5
t59.5 -14.5z" />
    <glyph glyph-name="seveneighths" unicode="&#x215e;" 
d="M273 421l-68 7q107 183 242 335l-1 3h-223l13 55h290l-11 -53q-131 -153 -242 -347zM61 279l11 52h433l-10 -52h-434zM348 -113q0 -45 -44.5 -76t-111.5 -31q-60 0 -96 24.5t-36 65.5q0 31 25 60.5t94 69.5q-62 53 -62 94q0 50 64.5 80.5t175.5 13.5l-21 -60
q-60 15 -95.5 12.5t-50 -13t-14.5 -27.5q0 -27 55 -71q72 38 148 72l19 -36q-86 -40 -133 -64q83 -67 83 -114zM204 -170q37 0 61 15.5t24 37.5q0 14 -13 31t-24 26.5t-39 32.5q-54 -31 -73 -51t-19 -38q0 -25 23.5 -39.5t59.5 -14.5z" />
    <glyph glyph-name="minus" unicode="&#x2212;" 
d="M491 326l-14 -67h-399l14 67h399z" />
    <glyph glyph-name="approxequal" unicode="&#x2248;" 
d="M378 313q-27 0 -51 17t-39 37t-33.5 37t-34.5 17q-21 0 -43.5 -26.5t-57.5 -80.5l-44 24q45 79 82 114.5t78 35.5q27 0 51 -17t38.5 -37t32 -37t33.5 -17q20 0 42.5 25.5t54.5 77.5l44 -24q-45 -79 -78.5 -112.5t-74.5 -33.5zM337 100q-27 0 -51 17t-39 37t-33.5 37
t-35.5 17q-20 0 -43 -26.5t-57 -80.5l-44 24q44 78 81.5 114t79.5 36q26 0 50 -17t38.5 -37t32 -37t33.5 -17q20 0 42 25t55 78l44 -24q-45 -79 -78.5 -112.5t-74.5 -33.5z" />
    <glyph glyph-name="notequal" unicode="&#x2260;" 
d="M457 152h-218l-82 -145l-57 19l71 126h-113l13 66h137l87 156h-194l13 66h219l81 145l57 -20l-70 -125h113l-14 -66h-136l-88 -156h195z" />
    <glyph glyph-name="lessequal" unicode="&#x2264;" 
d="M189 356l-2 -8l261 -153l-38 -59l-312 184l14 64l377 209l23 -62zM443 82l-12 -67h-399l12 67h399z" />
    <glyph glyph-name="greaterequal" unicode="&#x2265;" 
d="M406 358l-252 178l42 57l297 -214l-11 -61l-382 -184l-17 63l322 154zM443 82l-12 -67h-399l12 67h399z" />
    <glyph glyph-name="uniE0A0" unicode="&#xe0a0;" 
d="M428 576q45 0 75.5 -31t30.5 -75q0 -60 -53 -91v-14q0 -79 -65.5 -145t-145.5 -66q-51 0 -81 -34q28 -31 28 -73q0 -44 -31 -75t-74 -31q-45 0 -75.5 31t-30.5 75q0 63 53 91v347q-53 28 -53 91q0 44 30.5 75t75.5 31q43 0 74 -31t31 -75q0 -62 -53 -91v-251
q45 24 106 24q40 0 73 33t33 73v15q-53 31 -53 90q0 45 30.5 76t74.5 31zM112 629q-22 0 -37.5 -15.5t-15.5 -37.5q0 -23 15.5 -38.5t37.5 -15.5q21 0 36.5 16t15.5 38t-15.5 37.5t-36.5 15.5zM428 417q22 0 37.5 15.5t15.5 36.5q0 23 -15.5 38t-37.5 15q-21 0 -36.5 -15.5
t-15.5 -37.5q0 -21 15.5 -36.5t36.5 -15.5zM112 -6q21 0 36.5 15.5t15.5 37.5t-15.5 37.5t-36.5 15.5q-22 0 -37.5 -15.5t-15.5 -37.5q0 -23 15.5 -38t37.5 -15z" />
    <glyph glyph-name="uniE0B0" unicode="&#xe0b0;" 
d="M609 313l-629 -518l2 1099z" />
    <glyph glyph-name="uniE0B2" unicode="&#xe0b2;" 
d="M-20 313l627 581l2 -1099z" />
    <glyph glyph-name="hcoslug" unicode="&#xe10b;" 
d="M500 700v-800h-450v800h450zM200 296q0 22 20 22q22 0 22 -29q0 -17 -14 -37q-28 26 -28 44zM249 232q17 11 31 25q22 -22 -1 -60q-23 28 -30 35zM210 139q-16 0 -27.5 12t-11.5 29q0 18 12 30q28 -26 56 -62q-12 -9 -29 -9zM301 173q15 20 35 32q10 -19 32 -19
q16 0 26.5 11.5t10.5 28.5q0 18 -10.5 28.5t-26.5 10.5q-26 0 -45 -28q-3 28 -37 28q7 10 7 25q0 21 -19.5 38.5t-51.5 17.5q-37 0 -59.5 -19.5t-22.5 -44.5q0 -28 23 -52q-61 -20 -61 -68q0 -30 23.5 -50t57.5 -20q47 0 78 34q33 -34 64 -34q25 0 42 19.5t18 51.5l-5 1
q-14 -22 -32 -22q-20 0 -47 31zM229 68l-9 -1v-7h-5v-5h5v-15q0 -10 9 -10q8 0 11 10l-4 1q-1 -5 -4 -5t-3 4v15h10v5h-10v8zM145 46q0 -16 16 -16t16 16q0 15 -16 15t-16 -15zM167 46q0 -12 -6 -12t-6 12q0 11 6 11t6 -11zM299 45q0 -10 -5 -10q-6 0 -6 10t6 10q5 0 5 -10z
M179 36v-5h16v5h-3v11q0 8 6 8q4 0 4 -6v-13h-3v-5h17v5h-5v14q0 11 -9 11q-6 0 -10 -7v6h-13v-5h4v-19h-4zM108 36v-5h23v5h-7v12h3q4 0 5 -6h5v17h-5q-1 -6 -5 -6h-3v14h8q6 0 9 -10h5v15h-38v-5h6v-31h-6zM241 41v-10h5l1 3q4 -4 10 -4q10 0 10 9q0 6 -9 9t-9 5q0 3 4 3
t8 -5h5v10h-5l-1 -4q-3 4 -8 4q-11 0 -11 -9q0 -7 9 -9.5t9 -5.5t-4 -3t-9 7h-5zM279 69v-39h4l3 6q3 -6 11 -6q12 0 12 16q0 15 -12 15q-7 0 -9 -7v20h-14v-5h5zM318 24q2 2 0.5 4.5t-4.5 2.5q-5 0 -5 -5q0 -7 9 -7q8 0 13 12l10 24h4v5h-13v-5h4l-6 -15l-7 15h4v5h-18v-5
h3q9 -18 12 -25q0 -6 -6 -6zM363 0h-14v-6h5q-2 -4 -5 -7q-2 2 -5 5.5t-4 4.5q8 5 8 10q0 9 -10 9q-13 0 -13 -11q0 -5 5 -10q-10 -3 -10 -11q0 -10 12 -10q8 0 13 5q5 -5 9 -5q7 0 9 9l-3 1q-1 -4 -3 -4q-1 0 -5 4q4 4 7 10h4v6zM235 4v4q0 8 4 8l3 -1q-1 -1 -1 -3
q0 -4 5 -4v-4h-11zM367 -5q0 -21 21 -21q16 0 18 17h-6q-2 -12 -10 -12q-12 0 -12 17t10 17q7 0 11 -12h6v16h-6v-4q-5 5 -12 5q-20 0 -20 -23zM338 -1q-5 5 -5 8q0 4 4 4q5 0 5 -5t-4 -7zM270 -12h19q2 17 -14 17q-15 0 -15 -16q0 -15 16 -15q11 0 13 11h-5q-2 -6 -7 -6
q-7 0 -7 9zM200 -12h19q2 17 -14 17q-15 0 -15 -16q0 -15 16 -15q11 0 13 11h-5q-2 -6 -7 -6q-7 0 -7 9zM156 -10q0 -16 16 -16t16 16q0 15 -16 15t-16 -15zM408 -10q0 -16 16 -16t16 16q0 15 -16 15t-16 -15zM270 -8q0 9 5 9t5 -9h-10zM200 -8q0 9 5 9t5 -9h-10zM178 -10
q0 -12 -6 -12t-6 12q0 11 6 11t6 -11zM430 -10q0 -12 -6 -12t-6 12q0 11 6 11t6 -11zM222 -20v-5h17v5h-4v19h11v-19h-4v-5h17v5h-4v39l-8 -2q-4 2 -8 2q-13 0 -13 -14v-1h-5v-5h5v-19h-4zM291 -20v-5h19v5h-6v12q2 7 5 7v-1q0 -4 5 -4t5 5q0 6 -6 6t-9 -7v6h-13v-5h4v-19
h-4zM108 -20v-5h21v5h-5v14h16v-14h-5v-5h21v5h-6v31h6v5h-21v-5h5v-12h-16v12h5v5h-21v-5h6v-31h-6zM342 -18q-3 -3 -6 -3q-7 0 -7 7q0 4 3 7q2 -2 5.5 -6t4.5 -5zM453 -20q0 6 -6 6t-6 -6t6 -6t6 6z" />
    <glyph glyph-name="check.1" unicode="&#xe10c;" 
d="M579 636q-211 -312 -350 -655l-69 1l-84 361l72 22l59 -281h4q124 332 292 588z" />
    <glyph glyph-name="check.2" unicode="&#xe10d;" 
d="M298 -5l-66 212l-154 -210l-49 23l179 253l-73 215l76 21l52 -172l227 337l73 -37l-274 -369l87 -263z" />
    <glyph glyph-name="NUL" horiz-adv-x="0" 
 />
    <glyph glyph-name="zero.alt" 
d="M60 220q0 107 36.5 201.5t102 152.5t143.5 58q80 0 127 -59.5t47 -171.5q0 -165 -82.5 -289t-200.5 -124q-80 0 -126.5 59.5t-46.5 172.5zM137 227q0 -85 29 -128t81 -43q81 0 136.5 103.5t55.5 233.5q0 85 -29 128t-81 43q-81 0 -136.5 -103.5t-55.5 -233.5z" />
    <glyph glyph-name="colon.alt" 
d="M368 416h-109l23 117h109zM299 86h-110l24 117h110z" />
    <glyph glyph-name="guillemotleft.cap" 
d="M189 54l-131 218l18 81l210 217l51 -49l-216 -212l133 -213zM425 54l-130 220l20 82l212 213l49 -50l-217 -209l130 -216z" />
    <glyph glyph-name="guillemotright.cap" 
d="M310 54l-50 49l215 213l-133 213l65 41l131 -217l-17 -81zM70 56l-50 50l218 210l-131 214l65 40l129 -220l-19 -81z" />
    <glyph glyph-name="guilsinglleft.cap" 
d="M324 48l-193 226l21 82l278 218l45 -61l-274 -204l180 -208z" />
    <glyph glyph-name="guilsinglright.cap" 
d="M140 50l-45 60l274 204l-180 208l57 54l192 -227l-20 -81z" />
    <glyph glyph-name="parenleft.cap" 
d="M501 765l42 -54q-185 -120 -262 -225.5t-77 -220.5q0 -171 192 -374l-61 -45q-208 229 -208 418q0 127 88 247t286 254z" />
    <glyph glyph-name="parenright.cap" 
d="M62 -163l-42 54q185 120 262.5 225.5t77.5 220.5q0 171 -193 374l61 45q208 -229 208 -418q0 -127 -88 -247t-286 -254z" />
    <glyph glyph-name="bracketleft.cap" 
d="M71 -130l170 873h311l-13 -64h-233l-145 -745h234l-13 -64h-311z" />
    <glyph glyph-name="bracketright.cap" 
d="M496 744l-170 -873h-310l13 64h233l144 745h-233l12 64h311z" />
    <glyph glyph-name="braceleft.cap" 
d="M375 -158q-140 62 -198 106t-58 91q0 30 19 57t41.5 44t41.5 37.5t19 38.5q0 53 -134 69l11 56q163 10 163 69q0 18 -33 70.5t-33 86.5q0 125 332 205l14 -67q-273 -53 -273 -128q0 -22 33 -75.5t33 -78.5q0 -33 -32 -63.5t-96 -45.5q90 -27 90 -86q0 -24 -18 -48.5
t-40 -41.5t-40 -39.5t-18 -44.5q0 -34 49 -68.5t161 -83.5z" />
    <glyph glyph-name="braceright.cap" 
d="M21 -158l-14 68q273 53 273 128q0 21 -32.5 74.5t-32.5 78.5q0 34 31.5 64.5t96.5 45.5q-91 27 -91 85q0 24 18.5 48.5t40 41.5t40 40t18.5 45q0 34 -49 68.5t-161 83.5l33 60q141 -63 198.5 -106.5t57.5 -91.5q0 -29 -19 -56.5t-41 -44t-41 -37t-19 -38.5q0 -55 134 -69
l-11 -57q-164 -9 -164 -69q0 -17 33.5 -69.5t33.5 -86.5q0 -126 -333 -206z" />
    <glyph glyph-name="registered.alt" 
d="M43 252q0 158 79.5 259.5t193.5 101.5q91 0 148.5 -66t57.5 -177q0 -163 -78.5 -263t-196.5 -100q-90 0 -147 66t-57 179zM92 261q0 -98 45.5 -153.5t116.5 -55.5q94 0 156.5 86t62.5 222q0 96 -46 152t-118 56q-90 0 -153.5 -88t-63.5 -219zM322 149l-62 133l-19 -3
l-25 -127h-52l62 320q89 13 132 -9.5t43 -65.5q0 -59 -91 -104l70 -137z" />
    <glyph glyph-name="asterisk.alt" 
d="M352 546l-39 9l19 140l73 -19zM273 546l-28 -29l-112 85l54 54zM392 476l-12 40l131 53l20 -72zM233 477l12 -39l-130 -54l-21 73zM353 407l28 30l111 -86l-52 -54zM274 407l38 -9l-18 -140l-73 19z" />
    <glyph glyph-name="bullet.alt" 
d="M369 190h-211l43 215h211z" />
    <glyph glyph-name="R_p" 
d="M189 -5l-45 281v3q117 116 117 211q0 37 -17 54.5t-53 16.5l-111 -561h-65l121 620q191 27 191 -115q0 -113 -119 -230l49 -269zM390 59q38 0 72.5 109.5t34.5 202.5q0 63 -28 63q-20 0 -48 -25q-60 -317 -64 -341q18 -9 33 -9zM311 -169l-67 -7q116 601 126 663l62 5
l-5 -38q45 48 81 48q55 0 55 -112q0 -91 -24 -182t-68.5 -153t-95.5 -62q-14 0 -32 5q-31 -162 -32 -167z" />
    <glyph glyph-name="f.lig" 
d="M403 16q0 -72 -52.5 -119.5t-123.5 -47.5q-68 0 -109.5 54.5t-41.5 164.5q0 90 28 188l-36 16l11 47h44q57 160 155.5 273t195.5 113q54 0 77 -35t3.5 -96t-82.5 -126l-33 17q37 44 49 81t0 57t-43 20q-65 0 -134 -88t-113 -216h297l-12 -64l-250 4q170 -123 170 -243z
M255 -87q40 0 66.5 25t26.5 67q0 113 -174 230q-21 -81 -21 -161q0 -161 102 -161z" />
    <glyph glyph-name="l.ultra" 
d="M454 65q-156 -95 -246.5 -65t-90.5 178q0 130 49 255t122 199t142 74q44 0 69 -27.5t25 -76.5q0 -95 -80.5 -212t-244.5 -242q8 -53 37.5 -74.5t79 -13t123.5 44.5zM404 629q-44 0 -92.5 -60t-82 -161.5t-33.5 -207.5q130 109 192.5 204.5t62.5 164.5q0 29 -13 44.5
t-34 15.5z" />
    <glyph glyph-name="fraction.afrc" 
d="M61 279l11 52h433l-10 -52h-434z" />
    <glyph glyph-name="zero.num" 
d="M176 572q0 103 58.5 180t140.5 77q60 0 95 -41.5t35 -116.5q0 -103 -58.5 -179.5t-140.5 -76.5q-59 0 -94.5 41.5t-35.5 115.5zM442 666q0 53 -20 81t-57 28q-54 0 -90 -60t-36 -138q0 -52 20 -80t56 -28q54 0 90.5 60t36.5 137z" />
    <glyph glyph-name="one.num" 
d="M457 425h-295l11 54h123l46 236l-121 -7l8 47l124 16l12 60l64 6l-71 -358h112z" />
    <glyph glyph-name="two.num" 
d="M446 425h-284l-1 50q139 85 198.5 134t59.5 95q0 82 -190 57l9 56q121 18 185 -8.5t64 -89.5q0 -58 -55 -111.5t-177 -127.5h203z" />
    <glyph glyph-name="three.num" 
d="M467 537q0 -57 -72 -92t-226 -20l7 57q228 -22 228 49q0 53 -167 86l4 27l184 122h-192l11 54h259l-6 -54l-181 -120q151 -35 151 -109z" />
    <glyph glyph-name="four.num" 
d="M479 506h-47l-16 -81h-59l16 81h-204l5 43q81 136 124 275l67 -3q-50 -151 -128 -262h146l25 129l60 5l-26 -134h53z" />
    <glyph glyph-name="five.num" 
d="M469 551q0 -61 -73.5 -99.5t-226.5 -27.5l7 58q84 -7 138.5 1.5t73.5 24t19 36.5q0 59 -189 85l46 191h242l-16 -54h-181l-24 -98q184 -32 184 -117z" />
    <glyph glyph-name="six.num" 
d="M323 416q-62 0 -101.5 36t-39.5 104q0 88 67 163t211 113l14 -53q-182 -42 -222 -156q51 38 105 41t88.5 -27t34.5 -80q0 -62 -45 -101.5t-112 -39.5zM333 465q40 0 64 24t24 60q0 55 -55 69t-122 -33q-1 -7 -1 -20q0 -51 25.5 -75.5t64.5 -24.5z" />
    <glyph glyph-name="seven.num" 
d="M273 421l-68 7q107 183 242 335l-1 3h-223l13 55h290l-11 -53q-131 -153 -242 -347z" />
    <glyph glyph-name="eight.num" 
d="M460 522q0 -45 -44.5 -76t-111.5 -31q-60 0 -96 24.5t-36 65.5q0 31 25 60.5t94 69.5q-62 53 -62 94q0 50 64.5 80.5t175.5 13.5l-21 -60q-60 15 -95.5 12.5t-50 -13t-14.5 -27.5q0 -27 55 -71q72 38 148 72l19 -36q-86 -40 -133 -64q83 -67 83 -114zM316 465
q37 0 61 15.5t24 37.5q0 14 -13 31t-24 26.5t-39 32.5q-54 -31 -73 -51t-19 -38q0 -25 23.5 -39.5t59.5 -14.5z" />
    <glyph glyph-name="nine.num" 
d="M220 413l-14 53q182 42 222 157q-51 -38 -105 -41.5t-88.5 26t-34.5 80.5q0 62 45 102t111 40q63 0 102.5 -36t39.5 -104q0 -89 -67 -163.5t-211 -113.5zM259 696q0 -35 25 -55t67 -16.5t85 35.5q1 7 1 20q0 51 -25.5 75.5t-64.5 24.5q-41 0 -64.5 -24t-23.5 -60z" />
    <glyph glyph-name="zero.den" 
d="M64 -63q0 103 58.5 180t140.5 77q60 0 95 -41.5t35 -116.5q0 -103 -58.5 -179.5t-140.5 -76.5q-59 0 -94.5 41.5t-35.5 115.5zM330 31q0 53 -20 81t-57 28q-54 0 -90 -60t-36 -138q0 -52 20 -80t56 -28q54 0 90.5 60t36.5 137z" />
    <glyph glyph-name="one.den" 
d="M345 -210h-295l11 54h123l46 236l-121 -7l8 47l124 16l12 60l64 6l-71 -358h112z" />
    <glyph glyph-name="two.den" 
d="M334 -210h-284l-1 50q139 85 198.5 134t59.5 95q0 82 -190 57l9 56q121 18 185 -9t64 -89q0 -58 -55 -111.5t-177 -127.5h203z" />
    <glyph glyph-name="three.den" 
d="M355 -98q0 -57 -72 -92t-226 -20l7 57q228 -22 228 49q0 53 -167 86l4 27l184 122h-192l11 54h259l-6 -54l-181 -120q151 -35 151 -109z" />
    <glyph glyph-name="four.den" 
d="M367 -129h-47l-16 -81h-59l16 81h-204l5 43q81 136 124 275l67 -3q-50 -151 -128 -262h146l25 129l60 5l-26 -134h53z" />
    <glyph glyph-name="five.den" 
d="M357 -84q0 -61 -73.5 -99.5t-226.5 -27.5l7 58q84 -7 138.5 1.5t73.5 24t19 36.5q0 59 -189 85l46 191h242l-16 -54h-181l-24 -98q184 -32 184 -117z" />
    <glyph glyph-name="six.den" 
d="M211 -219q-62 0 -101.5 36t-39.5 104q0 88 67 163t211 113l14 -53q-182 -42 -222 -156q51 38 105 41t88.5 -27t34.5 -80q0 -62 -45 -101.5t-112 -39.5zM221 -170q40 0 64 24t24 60q0 55 -55 69t-122 -33q-1 -7 -1 -20q0 -51 25.5 -75.5t64.5 -24.5z" />
    <glyph glyph-name="seven.den" 
d="M161 -214l-68 7q107 183 242 335l-1 3h-223l13 55h290l-11 -53q-131 -153 -242 -347z" />
    <glyph glyph-name="eight.den" 
d="M348 -113q0 -45 -44.5 -76t-111.5 -31q-60 0 -96 24.5t-36 65.5q0 31 25 60.5t94 69.5q-62 53 -62 94q0 50 64.5 80.5t175.5 13.5l-21 -60q-60 15 -95.5 12.5t-50 -13t-14.5 -27.5q0 -27 55 -71q72 38 148 72l19 -36q-86 -40 -133 -64q83 -67 83 -114zM204 -170
q37 0 61 15.5t24 37.5q0 14 -13 31t-24 26.5t-39 32.5q-54 -31 -73 -51t-19 -38q0 -25 23.5 -39.5t59.5 -14.5z" />
    <glyph glyph-name="nine.den" 
d="M108 -222l-14 53q182 42 222 157q-51 -38 -105 -41.5t-88.5 26t-34.5 80.5q0 62 45 102t111 40q63 0 102.5 -36t39.5 -104q0 -89 -67 -163.5t-211 -113.5zM147 61q0 -35 25 -55t67 -16.5t85 35.5q1 7 1 20q0 51 -25.5 75.5t-64.5 24.5q-41 0 -64.5 -24t-23.5 -60z" />
    <glyph glyph-name="zero.small" 
d="M99 147q0 103 58.5 180t140.5 77q60 0 95 -41.5t35 -116.5q0 -103 -58.5 -179.5t-140.5 -76.5q-59 0 -94.5 41.5t-35.5 115.5zM365 241q0 53 -20 81t-57 28q-54 0 -90 -60t-36 -138q0 -52 20 -80t56 -28q54 0 90.5 60t36.5 137z" />
    <glyph glyph-name="one.small" 
d="M380 0h-295l11 54h123l46 236l-121 -7l8 47l124 16l12 60l64 6l-71 -358h112z" />
    <glyph glyph-name="two.small" 
d="M369 0h-284l-1 50q139 85 198.5 134t59.5 95q0 82 -190 57l9 56q121 18 185 -9t64 -89q0 -58 -55 -111.5t-177 -127.5h203z" />
    <glyph glyph-name="three.small" 
d="M390 112q0 -57 -72 -92t-226 -20l7 57q228 -22 228 49q0 53 -167 86l4 27l184 122h-192l11 54h259l-6 -54l-181 -120q151 -35 151 -109z" />
    <glyph glyph-name="four.small" 
d="M402 81h-47l-16 -81h-59l16 81h-204l5 43q81 136 124 275l67 -3q-50 -151 -128 -262h146l25 129l60 5l-26 -134h53z" />
    <glyph glyph-name="five.small" 
d="M392 126q0 -61 -73.5 -99.5t-226.5 -27.5l7 58q84 -7 138.5 1.5t73.5 24t19 36.5q0 59 -189 85l46 191h242l-16 -54h-181l-24 -98q184 -32 184 -117z" />
    <glyph glyph-name="six.small" 
d="M246 -9q-62 0 -101.5 36t-39.5 104q0 88 67 163t211 113l14 -53q-182 -42 -222 -156q51 38 105 41t88.5 -27t34.5 -80q0 -62 -45 -101.5t-112 -39.5zM256 40q40 0 64 24t24 60q0 55 -55 69t-122 -33q-1 -7 -1 -20q0 -51 25.5 -75.5t64.5 -24.5z" />
    <glyph glyph-name="seven.small" 
d="M196 -4l-68 7q107 183 242 335l-1 3h-223l13 55h290l-11 -53q-131 -153 -242 -347z" />
    <glyph glyph-name="eight.small" 
d="M383 97q0 -45 -44.5 -76t-111.5 -31q-60 0 -96 24.5t-36 65.5q0 31 25 60.5t94 69.5q-62 53 -62 94q0 50 64.5 80.5t175.5 13.5l-21 -60q-60 15 -95.5 12.5t-50 -13t-14.5 -27.5q0 -27 55 -71q72 38 148 72l19 -36q-86 -40 -133 -64q83 -67 83 -114zM239 40q37 0 61 15.5
t24 37.5q0 14 -13 31t-24 26.5t-39 32.5q-54 -31 -73 -51t-19 -38q0 -25 23.5 -39.5t59.5 -14.5z" />
    <glyph glyph-name="nine.small" 
d="M143 -12l-14 53q182 42 222 157q-51 -38 -105 -41.5t-88.5 26t-34.5 80.5q0 62 45 102t111 40q63 0 102.5 -36t39.5 -104q0 -89 -67 -163.5t-211 -113.5zM182 271q0 -35 25 -55t67 -16.5t85 35.5q1 7 1 20q0 51 -25.5 75.5t-64.5 24.5q-41 0 -64.5 -24t-23.5 -60z" />
    <glyph glyph-name="caron.alt" 
d="M282 798l90 5q-8 -138 -108 -254l-34 15q36 62 46 115t6 119z" />
    <glyph glyph-name="commaaccent.rot" 
d="M357 753q-57 -87 -39 -189l-101 -2q5 115 108 206z" />
    <glyph glyph-name="underscore.alt" 
d="M511 -50l-12 -62h-569l11 62h570z" />
    <glyph glyph-name="less_exclam_hyphen_hyphen.liga" 
d="M-857 233q9 48 33 225t31 218h102q-9 -38 -56.5 -216t-57.5 -227h-52zM-1138 538l-306 -211h393l-19 -69h-381l222 -224l-54 -53l-279 288l12 67l378 263zM-568 327h1017l-19 -69h-1011zM-936 0l23 110h107l-22 -110h-108z" />
    <glyph glyph-name="equal_equal_equal.liga" 
d="M557 484h-1493l14 69h1494zM514 262h-1493l14 69h1494zM471 40h-1493l13 69h1494z" />
    <glyph glyph-name="equal_equal_greater.liga" 
d="M208 599l279 -287l-12 -68l-378 -263l-34 61l158 109h-1243l13 69h1329l87 60l2 9l-83 84h-1305l14 69h1222l-103 104z" />
    <glyph glyph-name="equal_less_less.liga" 
d="M-142 301l-2 -10l255 -257l-54 -53l-165 170h-914l13 69h834l-47 49l12 67l53 37h-822l14 69h907l226 157l34 -61zM168 301l-2 -10l255 -257l-54 -53l-279 288l12 67l378 263l34 -61z" />
    <glyph glyph-name="exclam_equal_equal.liga" 
d="M592 493h-637l-106 -156h715l-15 -70h-748l-107 -156h826l-14 -70h-860l-154 -226l-70 20l141 206h-550l13 70h585l107 156h-662l14 70h695l107 156h-773l14 70h807l115 168l63 -29l-95 -139h604z" />
    <glyph glyph-name="greater_equal_greater.liga" 
d="M208 599l279 -287l-12 -68l-378 -263l-34 61l158 109h-980l-244 -170l-34 61l344 238l2 9l-255 257l54 53l153 -157h996l-103 104zM407 280l2 9l-83 84h-998l59 -61l-12 -68l-34 -24h979z" />
    <glyph glyph-name="greater_greater_equal.liga" 
d="M-613 312l-12 -68l-378 -263l-34 61l344 238l2 9l-255 257l54 53zM529 442l-15 -69h-876l59 -61l-12 -68l-34 -24h834l-14 -69h-920l-244 -170l-34 61l344 238l2 9l-255 257l54 53l153 -157h958z" />
    <glyph glyph-name="hyphen_hyphen_greater.liga" 
d="M208 599l279 -287l-12 -68l-378 -263l-34 61l312 216h-1356l13 69h1339l-217 219z" />
    <glyph glyph-name="less_equal_equal.liga" 
d="M-827 373l-105 -72l-2 -10l70 -71h1349l-14 -69h-1266l116 -117l-54 -53l-279 288l12 67l378 263l34 -61l-139 -96h1256l-15 -69h-1341z" />
    <glyph glyph-name="less_equal_greater.liga" 
d="M208 599l279 -287l-12 -68l-378 -263l-34 61l158 109h-1016l116 -117l-54 -53l-279 288l12 67l378 263l34 -61l-139 -96h984l-103 104zM407 280l2 9l-83 84h-1153l-105 -72l-2 -10l70 -71h1184z" />
    <glyph glyph-name="less_equal_less.liga" 
d="M168 301l-2 -10l255 -257l-54 -53l-165 170h-997l116 -117l-54 -53l-279 288l12 67l378 263l34 -61l-139 -96h979l226 157l34 -61zM-864 220h999l-47 49l12 67l53 37h-980l-105 -72l-2 -10z" />
    <glyph glyph-name="less_hyphen_greater.liga" 
d="M208 599l279 -287l-12 -68l-378 -263l-34 61l312 216h-1276l222 -224l-54 -53l-279 288l12 67l378 263l34 -61l-306 -211h1265l-217 219z" />
    <glyph glyph-name="less_hyphen_hyphen.liga" 
d="M449 327l-19 -69h-1331l222 -224l-54 -53l-279 288l12 67l378 263l34 -61l-306 -211h1343z" />
    <glyph glyph-name="ampersand_ampersand.liga" 
d="M523 350q-60 -105 -120 -180q43 -62 119 -138l-63 -51q-64 66 -109 128q-117 -119 -213 -119q-21 0 -39 5q-53 12 -104.5 47t-73.5 67q-117 -119 -216 -119q-55 0 -85 32t-30 89q0 141 208 318v7q0 78 37 141t77 63q24 0 39 -14t15 -38q0 -79 -95 -174q12 -97 67 -191
q46 64 90 151l66 -24q-60 -105 -120 -180q24 -35 46 -59q0 141 208 318v7q0 78 37 141t77 63q24 0 39 -14t15 -38q0 -79 -95 -174q12 -97 67 -191q46 64 90 151zM-273 61q70 0 159 98q-64 102 -81 198q-140 -137 -140 -229q0 -32 16.5 -49.5t45.5 -17.5zM157 61q70 0 159 98
q-64 102 -81 198q-140 -137 -140 -229q0 -32 16.5 -49.5t45.5 -17.5z" />
    <glyph glyph-name="bar_bar.liga" 
d="M-51 707l-173 -888h-74l173 886zM299 707l-173 -888h-74l173 886z" />
    <glyph glyph-name="bar_greater.liga" 
d="M-13 710l467 -383l-13 -69l-627 -440h-75l172 886zM372 287l2 10l-405 323l-137 -709z" />
    <glyph glyph-name="colon_equal.liga" 
d="M-253 354l24 117h119l-25 -117h-118zM409 373h-423l13 69h424zM-297 128l24 117h119l-25 -117h-118zM365 151h-423l14 69h424z" />
    <glyph glyph-name="equal_equal.liga" 
d="M514 373h-943l14 69h944zM471 151h-943l13 69h944z" />
    <glyph glyph-name="equal_greater.liga" 
d="M208 599l279 -287l-12 -68l-378 -263l-34 61l158 109h-693l13 69h779l87 60l2 9l-83 84h-755l14 69h672l-103 104z" />
    <glyph glyph-name="exclam_equal.liga" 
d="M549 380h-421l-107 -156h499l-14 -70h-532l-232 -339l-70 20l218 319h-327l13 70h362l107 156h-439l14 70h473l192 281l63 -29l-172 -252h388z" />
    <glyph glyph-name="greater_equal.liga" 
d="M-261 95l565 252l2 10l-464 247l50 63l519 -280l-13 -69l-640 -287zM363 138l-640 -287l-19 64l674 300z" />
    <glyph glyph-name="hyphen_greater.liga" 
d="M208 599l279 -287l-12 -68l-378 -263l-34 61l312 216h-806l13 69h789l-217 219z" />
    <glyph glyph-name="hyphen_hyphen.liga" 
d="M-39 259h-298l13 68h297zM341 259h-298l13 68h297z" />
    <glyph glyph-name="less_bar.liga" 
d="M341 704l76 6l-173 -892h-75l-438 439l14 69zM188 -87l136 701l-510 -317l-2 -10z" />
    <glyph glyph-name="less_equal.liga" 
d="M359 95l-43 -64l-528 287l13 69l629 280l24 -63l-560 -247l-2 -10zM-247 138l15 77l556 -300l-43 -64z" />
    <glyph glyph-name="less_hyphen.liga" 
d="M449 327l-19 -69h-781l222 -224l-54 -53l-279 288l12 67l378 263l34 -61l-306 -211h793z" />
    <glyph glyph-name="less_slash.liga" 
d="M323 718l63 -29l-606 -871l-70 20l103 147l-275 284l12 67l378 263l34 -61l-344 -237l-2 -10l241 -243z" />
    <glyph glyph-name="plus_plus.liga" 
d="M263 326h182l-14 -67h-181l-37 -188h-71l37 188h-354l-37 -188h-71l37 188h-182l13 67h182l36 187h71l-36 -187h354l36 187h71z" />
    <glyph glyph-name="question_question.liga" 
d="M-324 679q184 -20 272 -62.5t88 -113.5q0 -64 -69.5 -128.5t-228.5 -144.5l-25 43q130 67 182 112.5t52 89.5q0 52 -68.5 80t-218.5 45zM56 679q184 -20 272 -62.5t88 -113.5q0 -64 -69.5 -128.5t-228.5 -144.5l-25 43q130 67 182 112.5t52 89.5q0 52 -68.5 80t-218.5 45
zM-362 0l22 109h107l-22 -109h-107zM18 0l22 109h107l-22 -109h-107z" />
    <glyph glyph-name="slash_greater.liga" 
d="M208 599l279 -287l-12 -68l-378 -263l-34 61l344 238l2 9l-245 247l-500 -718l-70 20l613 880l63 -29l-64 -92z" />
    <glyph glyph-name="underscore_underscore.liga" 
d="M511 -50l-12 -62h-1119l11 62h1120z" />
    <glyph glyph-name="LIG" 
 />
    </font>
</defs>
</svg>
