<svg width="113" height="10" xmlns="http://www.w3.org/2000/svg">

 <g>
  <title>background</title>
  <rect fill="none" id="canvas_background" height="12" width="115" y="-1" x="-1"/>
 </g>
 <g>
  <title>Layer 1</title>
  <g stroke="#F3A8BE" id="svg_1">
   <path stroke="#F3A8BE" id="svg_2" d="m112.518606,0.357131l-6.162251,6.153555l-6.162251,-6.153555c-0.547756,-0.523707 -1.506328,-0.523707 -2.054084,0l-6.162251,6.153555l-6.162251,-6.153555c-0.273878,-0.261853 -0.684695,-0.39278 -0.958572,-0.39278s-0.684695,0.130927 -0.958572,0.39278l-6.162251,6.153555l-6.162251,-6.153555c-0.547756,-0.523707 -1.506328,-0.523707 -2.054084,0l-6.162251,6.153555l-6.162251,-6.153555c-0.547756,-0.523707 -1.506328,-0.523707 -2.054084,0l-5.888374,6.153555l-6.162251,-6.153555c-0.273878,-0.261853 -0.684695,-0.39278 -0.958572,-0.39278s-0.684695,0.130927 -0.958572,0.39278l-6.162251,6.153555l-6.162251,-6.153555c-0.273878,-0.261853 -0.684695,-0.39278 -0.958572,-0.39278s-0.684695,0.130927 -0.958572,0.39278l-6.162251,6.153555l-6.162251,-6.153555c-0.547756,-0.523707 -1.506328,-0.523707 -2.054084,0l-6.162251,6.153555l-6.162251,-6.153555c-0.547756,-0.523707 -1.369389,-0.523707 -1.917145,0c-0.547756,0.523707 -0.547756,1.309267 0,1.832974l7.120824,7.200969c0.273878,0.261853 0.684695,0.39278 0.958572,0.39278s0.684695,-0.130927 0.958572,-0.39278l6.162251,-6.153555l6.162251,6.153555c0.547756,0.523707 1.506328,0.523707 2.054084,0l6.162251,-6.153555l6.162251,6.153555c0.273878,0.261853 0.684695,0.39278 0.958572,0.39278s0.684695,-0.130927 0.958572,-0.39278l6.162251,-6.153555l6.162251,6.153555c0.273878,0.261853 0.684695,0.39278 0.958572,0.39278s0.684695,-0.130927 0.958572,-0.39278l6.162251,-6.153555l6.162251,6.153555c0.547756,0.523707 1.506328,0.523707 2.054084,0l6.162251,-6.153555l6.162251,6.153555c0.273878,0.261853 0.684695,0.39278 0.958572,0.39278s0.684695,-0.130927 0.958572,-0.39278l6.162251,-6.153555l6.162251,6.153555c0.273878,0.261853 0.684695,0.39278 0.958572,0.39278s0.684695,-0.130927 0.958572,-0.39278l6.162251,-6.153555l6.162251,6.153555c0.273878,0.261853 0.684695,0.39278 0.958572,0.39278s0.684695,-0.130927 0.958572,-0.39278l7.120824,-7.200969c0.547756,-0.523707 0.547756,-1.309267 0,-1.832974c-0.547756,-0.523707 -1.506328,-0.523707 -1.917145,0z"/>
  </g>
 </g>
</svg>